<?xml version="1.0" encoding="UTF-8" standalone="no"?><svg xmlns="http://www.w3.org/2000/svg" xmlns:xlink="http://www.w3.org/1999/xlink" clip-rule="evenodd" stroke-miterlimit="10" viewBox="0 0 1920 1080"><desc>SVG generated by Keynote</desc><defs></defs><g transform="matrix(1.00, 0.00, -0.00, -1.00, 0.0, 1080.0)"><g><clipPath id="clip0x7fec7eba9370"><path d="M 0.0 1080.0 L 1920.0 1080.0 L 1920.0 0.0 L 0.0 0.0 Z M 0.0 1080.0 "></path></clipPath><g clip-path="url(#clip0x7fec7eba9370)"><image xlink:href="../../A5D7B27F-ECCD-4C51-9075-135B713588B1/assets/0F43D2572F34A9AFB59E4515ED9A1249.jpeg" width="3840.00" height="2160.00" transform="matrix(0.50, 0.00, -0.00, -0.50, 0.0, 1080.0)"></image></g></g><g opacity="0.80"><g><clipPath id="clip0x7fec7eea9f00"><path d="M 0.0 11.0 L 1920.0 11.0 L 1920.0 1069.0 L 0.0 1069.0 Z M 0.0 11.0 "></path></clipPath><g clip-path="url(#clip0x7fec7eea9f00)"><image xlink:href="9EDB034F56C7085ADD93E216B31103C9.jpeg" width="1600.00" height="879.00" transform="matrix(1.20, 0.00, -0.00, -1.20, 0.0, 1067.0)"></image></g></g></g><image xlink:href="6D29B6B3E6C5A304937BC01E0F6B8735.png" width="753.00" height="159.00" transform="matrix(1.00, 0.00, -0.00, -1.00, 584.0, 1019.0)"></image><text xml:space="preserve" font-family="YanoneKaffeesatz-Bold,Yanone Kaffeesatz" font-weight="bold" font-size="150.0" fill="#E0E4CB" transform="matrix(1.00, 0.00, -0.00, -1.00, 584.5, 897.1)">I</text><text xml:space="preserve" font-family="YanoneKaffeesatz-Bold,Yanone Kaffeesatz" font-weight="bold" font-size="150.0" fill="#E0E4CB" transform="matrix(1.00, 0.00, -0.00, -1.00, 610.4, 897.1)">t</text><text xml:space="preserve" font-family="YanoneKaffeesatz-Bold,Yanone Kaffeesatz" font-weight="bold" font-size="150.0" fill="#E0E4CB" transform="matrix(1.00, 0.00, -0.00, -1.00, 648.4, 897.1)">’</text><text xml:space="preserve" font-family="YanoneKaffeesatz-Bold,Yanone Kaffeesatz" font-weight="bold" font-size="150.0" fill="#E0E4CB" transform="matrix(1.00, 0.00, -0.00, -1.00, 664.4, 897.1)">s</text><text xml:space="preserve" font-family="YanoneKaffeesatz-Bold,Yanone Kaffeesatz" font-weight="bold" font-size="150.0" fill="#E0E4CB" transform="matrix(1.00, 0.00, -0.00, -1.00, 712.1, 897.1)"> </text><text xml:space="preserve" font-family="YanoneKaffeesatz-Bold,Yanone Kaffeesatz" font-weight="bold" font-size="150.0" fill="#E0E4CB" transform="matrix(1.00, 0.00, -0.00, -1.00, 733.1, 897.1)">j</text><text xml:space="preserve" font-family="YanoneKaffeesatz-Bold,Yanone Kaffeesatz" font-weight="bold" font-size="150.0" fill="#E0E4CB" transform="matrix(1.00, 0.00, -0.00, -1.00, 761.2, 897.1)">u</text><text xml:space="preserve" font-family="YanoneKaffeesatz-Bold,Yanone Kaffeesatz" font-weight="bold" font-size="150.0" fill="#E0E4CB" transform="matrix(1.00, 0.00, -0.00, -1.00, 815.3, 897.1)">s</text><text xml:space="preserve" font-family="YanoneKaffeesatz-Bold,Yanone Kaffeesatz" font-weight="bold" font-size="150.0" fill="#E0E4CB" transform="matrix(1.00, 0.00, -0.00, -1.00, 863.0, 897.1)">t</text><text xml:space="preserve" font-family="YanoneKaffeesatz-Bold,Yanone Kaffeesatz" font-weight="bold" font-size="150.0" fill="#E0E4CB" transform="matrix(1.00, 0.00, -0.00, -1.00, 905.6, 897.1)"> </text><text xml:space="preserve" font-family="YanoneKaffeesatz-Bold,Yanone Kaffeesatz" font-weight="bold" font-size="150.0" fill="#E0E4CB" transform="matrix(1.00, 0.00, -0.00, -1.00, 926.6, 897.1)">a</text><text xml:space="preserve" font-family="YanoneKaffeesatz-Bold,Yanone Kaffeesatz" font-weight="bold" font-size="150.0" fill="#E0E4CB" transform="matrix(1.00, 0.00, -0.00, -1.00, 977.3, 897.1)"> </text><text xml:space="preserve" font-family="YanoneKaffeesatz-Bold,Yanone Kaffeesatz" font-weight="bold" font-size="150.0" fill="#E0E4CB" transform="matrix(1.00, 0.00, -0.00, -1.00, 998.3, 897.1)">c</text><text xml:space="preserve" font-family="YanoneKaffeesatz-Bold,Yanone Kaffeesatz" font-weight="bold" font-size="150.0" fill="#E0E4CB" transform="matrix(1.00, 0.00, -0.00, -1.00, 1039.7, 897.1)">o</text><text xml:space="preserve" font-family="YanoneKaffeesatz-Bold,Yanone Kaffeesatz" font-weight="bold" font-size="150.0" fill="#E0E4CB" transform="matrix(1.00, 0.00, -0.00, -1.00, 1092.4, 897.1)">n</text><text xml:space="preserve" font-family="YanoneKaffeesatz-Bold,Yanone Kaffeesatz" font-weight="bold" font-size="150.0" fill="#E0E4CB" transform="matrix(1.00, 0.00, -0.00, -1.00, 1146.5, 897.1)">c</text><text xml:space="preserve" font-family="YanoneKaffeesatz-Bold,Yanone Kaffeesatz" font-weight="bold" font-size="150.0" fill="#E0E4CB" transform="matrix(1.00, 0.00, -0.00, -1.00, 1187.9, 897.1)">e</text><text xml:space="preserve" font-family="YanoneKaffeesatz-Bold,Yanone Kaffeesatz" font-weight="bold" font-size="150.0" fill="#E0E4CB" transform="matrix(1.00, 0.00, -0.00, -1.00, 1239.8, 897.1)">p</text><text xml:space="preserve" font-family="YanoneKaffeesatz-Bold,Yanone Kaffeesatz" font-weight="bold" font-size="150.0" fill="#E0E4CB" transform="matrix(1.00, 0.00, -0.00, -1.00, 1292.9, 897.1)">t</text><image xlink:href="D3EC39C0756232F0A1A36A8917064720.png" width="996.00" height="149.00" transform="matrix(1.00, 0.00, -0.00, -1.00, 463.0, 172.0)"></image><text xml:space="preserve" font-family="YanoneKaffeesatz-Bold,Yanone Kaffeesatz" font-weight="bold" font-size="150.0" fill="#55E3B7" transform="matrix(1.00, 0.00, -0.00, -1.00, 462.4, 60.0)">H</text><text xml:space="preserve" font-family="YanoneKaffeesatz-Bold,Yanone Kaffeesatz" font-weight="bold" font-size="150.0" fill="#55E3B7" transform="matrix(1.00, 0.00, -0.00, -1.00, 519.8, 60.0)">o</text><text xml:space="preserve" font-family="YanoneKaffeesatz-Bold,Yanone Kaffeesatz" font-weight="bold" font-size="150.0" fill="#55E3B7" transform="matrix(1.00, 0.00, -0.00, -1.00, 572.4, 60.0)">p</text><text xml:space="preserve" font-family="YanoneKaffeesatz-Bold,Yanone Kaffeesatz" font-weight="bold" font-size="150.0" fill="#55E3B7" transform="matrix(1.00, 0.00, -0.00, -1.00, 627.0, 60.0)">e</text><text xml:space="preserve" font-family="YanoneKaffeesatz-Bold,Yanone Kaffeesatz" font-weight="bold" font-size="150.0" fill="#55E3B7" transform="matrix(1.00, 0.00, -0.00, -1.00, 678.9, 60.0)"> </text><text xml:space="preserve" font-family="YanoneKaffeesatz-Bold,Yanone Kaffeesatz" font-weight="bold" font-size="150.0" fill="#55E3B7" transform="matrix(1.00, 0.00, -0.00, -1.00, 699.9, 60.0)">f</text><text xml:space="preserve" font-family="YanoneKaffeesatz-Bold,Yanone Kaffeesatz" font-weight="bold" font-size="150.0" fill="#55E3B7" transform="matrix(1.00, 0.00, -0.00, -1.00, 736.2, 60.0)">o</text><text xml:space="preserve" font-family="YanoneKaffeesatz-Bold,Yanone Kaffeesatz" font-weight="bold" font-size="150.0" fill="#55E3B7" transform="matrix(1.00, 0.00, -0.00, -1.00, 788.8, 60.0)">r</text><text xml:space="preserve" font-family="YanoneKaffeesatz-Bold,Yanone Kaffeesatz" font-weight="bold" font-size="150.0" fill="#55E3B7" transform="matrix(1.00, 0.00, -0.00, -1.00, 826.2, 60.0)"> </text><text xml:space="preserve" font-family="YanoneKaffeesatz-Bold,Yanone Kaffeesatz" font-weight="bold" font-size="150.0" fill="#55E3B7" transform="matrix(1.00, 0.00, -0.00, -1.00, 847.2, 60.0)">y</text><text xml:space="preserve" font-family="YanoneKaffeesatz-Bold,Yanone Kaffeesatz" font-weight="bold" font-size="150.0" fill="#55E3B7" transform="matrix(1.00, 0.00, -0.00, -1.00, 895.2, 60.0)">o</text><text xml:space="preserve" font-family="YanoneKaffeesatz-Bold,Yanone Kaffeesatz" font-weight="bold" font-size="150.0" fill="#55E3B7" transform="matrix(1.00, 0.00, -0.00, -1.00, 947.8, 60.0)">u</text><text xml:space="preserve" font-family="YanoneKaffeesatz-Bold,Yanone Kaffeesatz" font-weight="bold" font-size="150.0" fill="#55E3B7" transform="matrix(1.00, 0.00, -0.00, -1.00, 1002.0, 60.0)">r</text><text xml:space="preserve" font-family="YanoneKaffeesatz-Bold,Yanone Kaffeesatz" font-weight="bold" font-size="150.0" fill="#55E3B7" transform="matrix(1.00, 0.00, -0.00, -1.00, 1039.3, 60.0)"> </text><text xml:space="preserve" font-family="YanoneKaffeesatz-Bold,Yanone Kaffeesatz" font-weight="bold" font-size="150.0" fill="#55E3B7" transform="matrix(1.00, 0.00, -0.00, -1.00, 1060.3, 60.0)">f</text><text xml:space="preserve" font-family="YanoneKaffeesatz-Bold,Yanone Kaffeesatz" font-weight="bold" font-size="150.0" fill="#55E3B7" transform="matrix(1.00, 0.00, -0.00, -1.00, 1096.2, 60.0)">e</text><text xml:space="preserve" font-family="YanoneKaffeesatz-Bold,Yanone Kaffeesatz" font-weight="bold" font-size="150.0" fill="#55E3B7" transform="matrix(1.00, 0.00, -0.00, -1.00, 1146.6, 60.0)">e</text><text xml:space="preserve" font-family="YanoneKaffeesatz-Bold,Yanone Kaffeesatz" font-weight="bold" font-size="150.0" fill="#55E3B7" transform="matrix(1.00, 0.00, -0.00, -1.00, 1198.5, 60.0)">d</text><text xml:space="preserve" font-family="YanoneKaffeesatz-Bold,Yanone Kaffeesatz" font-weight="bold" font-size="150.0" fill="#55E3B7" transform="matrix(1.00, 0.00, -0.00, -1.00, 1253.4, 60.0)">b</text><text xml:space="preserve" font-family="YanoneKaffeesatz-Bold,Yanone Kaffeesatz" font-weight="bold" font-size="150.0" fill="#55E3B7" transform="matrix(1.00, 0.00, -0.00, -1.00, 1307.7, 60.0)">a</text><text xml:space="preserve" font-family="YanoneKaffeesatz-Bold,Yanone Kaffeesatz" font-weight="bold" font-size="150.0" fill="#55E3B7" transform="matrix(1.00, 0.00, -0.00, -1.00, 1358.4, 60.0)">c</text><text xml:space="preserve" font-family="YanoneKaffeesatz-Bold,Yanone Kaffeesatz" font-weight="bold" font-size="150.0" fill="#55E3B7" transform="matrix(1.00, 0.00, -0.00, -1.00, 1402.2, 60.0)">k</text></g></svg>