<?xml version="1.0" encoding="UTF-8" standalone="no"?><svg xmlns="http://www.w3.org/2000/svg" xmlns:xlink="http://www.w3.org/1999/xlink" clip-rule="evenodd" stroke-miterlimit="10" viewBox="0 0 1920 1080"><desc>SVG generated by Keynote</desc><defs></defs><g transform="matrix(1.00, 0.00, -0.00, -1.00, 0.0, 1080.0)"><g><clipPath id="clip0x7fec7c069ea0"><path d="M 0.0 1080.0 L 1920.0 1080.0 L 1920.0 0.0 L 0.0 0.0 Z M 0.0 1080.0 "></path></clipPath><g clip-path="url(#clip0x7fec7c069ea0)"><image xlink:href="../../A5D7B27F-ECCD-4C51-9075-135B713588B1/assets/0F43D2572F34A9AFB59E4515ED9A1249.jpeg" width="3840.00" height="2160.00" transform="matrix(0.50, 0.00, -0.00, -0.50, 0.0, 1080.0)"></image></g></g><image xlink:href="../../C96EE1CD-5783-482D-A782-51B20E371223/assets/7ED8249684B0AEA80F4D8C5E523BAC70.png" width="1729.00" height="628.00" transform="matrix(1.00, 0.00, -0.00, -1.00, 95.4, 853.8)" opacity="0.25"></image><path d="M 115.0 834.0 L 1805.0 834.0 L 1805.0 246.0 L 115.0 246.0 Z M 115.4 833.8 " fill="#323232"></path><g><clipPath id="clip0x7fec7b7f7ad0"><path d="M 106.9 234.3 L 1813.1 234.3 L 1813.1 842.3 L 106.9 842.3 Z M 106.9 234.3 "></path></clipPath><g clip-path="url(#clip0x7fec7b7f7ad0)"><text xml:space="preserve" font-family="Monaco,Monaco" font-size="40.0" fill="#FC4384" transform="matrix(1.00, 0.00, -0.00, -1.00, 119.4, 790.2)">c</text><text xml:space="preserve" font-family="Monaco,Monaco" font-size="40.0" fill="#FC4384" transform="matrix(1.00, 0.00, -0.00, -1.00, 143.4, 790.2)">l</text><text xml:space="preserve" font-family="Monaco,Monaco" font-size="40.0" fill="#FC4384" transform="matrix(1.00, 0.00, -0.00, -1.00, 167.4, 790.2)">a</text><text xml:space="preserve" font-family="Monaco,Monaco" font-size="40.0" fill="#FC4384" transform="matrix(1.00, 0.00, -0.00, -1.00, 191.4, 790.2)">s</text><text xml:space="preserve" font-family="Monaco,Monaco" font-size="40.0" fill="#FC4384" transform="matrix(1.00, 0.00, -0.00, -1.00, 215.4, 790.2)">s</text><text xml:space="preserve" font-family="Monaco,Monaco" font-size="40.0" fill="#000000" transform="matrix(1.00, 0.00, -0.00, -1.00, 239.4, 790.2)"> </text><text xml:space="preserve" font-family="Monaco,Monaco" font-size="40.0" fill="#F9F9F4" transform="matrix(1.00, 0.00, -0.00, -1.00, 263.4, 790.2)">A</text><text xml:space="preserve" font-family="Monaco,Monaco" font-size="40.0" fill="#F9F9F4" transform="matrix(1.00, 0.00, -0.00, -1.00, 287.4, 790.2)">d</text><text xml:space="preserve" font-family="Monaco,Monaco" font-size="40.0" fill="#F9F9F4" transform="matrix(1.00, 0.00, -0.00, -1.00, 311.4, 790.2)">d</text><text xml:space="preserve" font-family="Monaco,Monaco" font-size="40.0" fill="#F9F9F4" transform="matrix(1.00, 0.00, -0.00, -1.00, 335.4, 790.2)">s</text><text xml:space="preserve" font-family="Monaco,Monaco" font-size="40.0" fill="#F9F9F4" transform="matrix(1.00, 0.00, -0.00, -1.00, 359.4, 790.2)">P</text><text xml:space="preserve" font-family="Monaco,Monaco" font-size="40.0" fill="#F9F9F4" transform="matrix(1.00, 0.00, -0.00, -1.00, 383.4, 790.2)">r</text><text xml:space="preserve" font-family="Monaco,Monaco" font-size="40.0" fill="#F9F9F4" transform="matrix(1.00, 0.00, -0.00, -1.00, 407.4, 790.2)">o</text><text xml:space="preserve" font-family="Monaco,Monaco" font-size="40.0" fill="#F9F9F4" transform="matrix(1.00, 0.00, -0.00, -1.00, 431.4, 790.2)">d</text><text xml:space="preserve" font-family="Monaco,Monaco" font-size="40.0" fill="#F9F9F4" transform="matrix(1.00, 0.00, -0.00, -1.00, 455.4, 790.2)">u</text><text xml:space="preserve" font-family="Monaco,Monaco" font-size="40.0" fill="#F9F9F4" transform="matrix(1.00, 0.00, -0.00, -1.00, 479.5, 790.2)">c</text><text xml:space="preserve" font-family="Monaco,Monaco" font-size="40.0" fill="#F9F9F4" transform="matrix(1.00, 0.00, -0.00, -1.00, 503.5, 790.2)">t</text><text xml:space="preserve" font-family="Monaco,Monaco" font-size="40.0" fill="#F9F9F4" transform="matrix(1.00, 0.00, -0.00, -1.00, 527.5, 790.2)">T</text><text xml:space="preserve" font-family="Monaco,Monaco" font-size="40.0" fill="#F9F9F4" transform="matrix(1.00, 0.00, -0.00, -1.00, 551.5, 790.2)">o</text><text xml:space="preserve" font-family="Monaco,Monaco" font-size="40.0" fill="#F9F9F4" transform="matrix(1.00, 0.00, -0.00, -1.00, 575.5, 790.2)">C</text><text xml:space="preserve" font-family="Monaco,Monaco" font-size="40.0" fill="#F9F9F4" transform="matrix(1.00, 0.00, -0.00, -1.00, 599.5, 790.2)">a</text><text xml:space="preserve" font-family="Monaco,Monaco" font-size="40.0" fill="#F9F9F4" transform="matrix(1.00, 0.00, -0.00, -1.00, 623.5, 790.2)">r</text><text xml:space="preserve" font-family="Monaco,Monaco" font-size="40.0" fill="#F9F9F4" transform="matrix(1.00, 0.00, -0.00, -1.00, 647.5, 790.2)">t</text><text xml:space="preserve" font-family="Monaco,Monaco" font-size="40.0" fill="#000000" transform="matrix(1.00, 0.00, -0.00, -1.00, 119.4, 737.2)"> </text><text xml:space="preserve" font-family="Monaco,Monaco" font-size="40.0" fill="#000000" transform="matrix(1.00, 0.00, -0.00, -1.00, 143.4, 737.2)"> </text><text xml:space="preserve" font-family="Monaco,Monaco" font-size="40.0" fill="#FC4384" transform="matrix(1.00, 0.00, -0.00, -1.00, 167.4, 737.2)">d</text><text xml:space="preserve" font-family="Monaco,Monaco" font-size="40.0" fill="#FC4384" transform="matrix(1.00, 0.00, -0.00, -1.00, 191.4, 737.2)">e</text><text xml:space="preserve" font-family="Monaco,Monaco" font-size="40.0" fill="#FC4384" transform="matrix(1.00, 0.00, -0.00, -1.00, 215.4, 737.2)">f</text><text xml:space="preserve" font-family="Monaco,Monaco" font-size="40.0" fill="#000000" transform="matrix(1.00, 0.00, -0.00, -1.00, 239.4, 737.2)"> </text><text xml:space="preserve" font-family="Monaco,Monaco" font-size="40.0" fill="#13F7BA" transform="matrix(1.00, 0.00, -0.00, -1.00, 263.4, 737.2)">i</text><text xml:space="preserve" font-family="Monaco,Monaco" font-size="40.0" fill="#13F7BA" transform="matrix(1.00, 0.00, -0.00, -1.00, 287.4, 737.2)">n</text><text xml:space="preserve" font-family="Monaco,Monaco" font-size="40.0" fill="#13F7BA" transform="matrix(1.00, 0.00, -0.00, -1.00, 311.4, 737.2)">i</text><text xml:space="preserve" font-family="Monaco,Monaco" font-size="40.0" fill="#13F7BA" transform="matrix(1.00, 0.00, -0.00, -1.00, 335.4, 737.2)">t</text><text xml:space="preserve" font-family="Monaco,Monaco" font-size="40.0" fill="#13F7BA" transform="matrix(1.00, 0.00, -0.00, -1.00, 359.4, 737.2)">i</text><text xml:space="preserve" font-family="Monaco,Monaco" font-size="40.0" fill="#13F7BA" transform="matrix(1.00, 0.00, -0.00, -1.00, 383.4, 737.2)">a</text><text xml:space="preserve" font-family="Monaco,Monaco" font-size="40.0" fill="#13F7BA" transform="matrix(1.00, 0.00, -0.00, -1.00, 407.4, 737.2)">l</text><text xml:space="preserve" font-family="Monaco,Monaco" font-size="40.0" fill="#13F7BA" transform="matrix(1.00, 0.00, -0.00, -1.00, 431.4, 737.2)">i</text><text xml:space="preserve" font-family="Monaco,Monaco" font-size="40.0" fill="#13F7BA" transform="matrix(1.00, 0.00, -0.00, -1.00, 455.4, 737.2)">z</text><text xml:space="preserve" font-family="Monaco,Monaco" font-size="40.0" fill="#13F7BA" transform="matrix(1.00, 0.00, -0.00, -1.00, 479.5, 737.2)">e</text><text xml:space="preserve" font-family="Monaco,Monaco" font-size="40.0" fill="#F9F9F4" transform="matrix(1.00, 0.00, -0.00, -1.00, 503.4, 737.2)">(</text><text xml:space="preserve" font-family="Monaco,Monaco" font-size="40.0" fill="#F9F9F4" transform="matrix(1.00, 0.00, -0.00, -1.00, 527.4, 737.2)">u</text><text xml:space="preserve" font-family="Monaco,Monaco" font-size="40.0" fill="#F9F9F4" transform="matrix(1.00, 0.00, -0.00, -1.00, 551.4, 737.2)">s</text><text xml:space="preserve" font-family="Monaco,Monaco" font-size="40.0" fill="#F9F9F4" transform="matrix(1.00, 0.00, -0.00, -1.00, 575.4, 737.2)">e</text><text xml:space="preserve" font-family="Monaco,Monaco" font-size="40.0" fill="#F9F9F4" transform="matrix(1.00, 0.00, -0.00, -1.00, 599.5, 737.2)">r</text><text xml:space="preserve" font-family="Monaco,Monaco" font-size="40.0" fill="#F9F9F4" transform="matrix(1.00, 0.00, -0.00, -1.00, 623.5, 737.2)">)</text><text xml:space="preserve" font-family="Monaco,Monaco" font-size="40.0" fill="#000000" transform="matrix(1.00, 0.00, -0.00, -1.00, 119.4, 684.2)"> </text><text xml:space="preserve" font-family="Monaco,Monaco" font-size="40.0" fill="#000000" transform="matrix(1.00, 0.00, -0.00, -1.00, 143.4, 684.2)"> </text><text xml:space="preserve" font-family="Monaco,Monaco" font-size="40.0" fill="#000000" transform="matrix(1.00, 0.00, -0.00, -1.00, 167.4, 684.2)"> </text><text xml:space="preserve" font-family="Monaco,Monaco" font-size="40.0" fill="#000000" transform="matrix(1.00, 0.00, -0.00, -1.00, 191.4, 684.2)"> </text><text xml:space="preserve" font-family="Monaco,Monaco" font-size="40.0" fill="#75DFF2" transform="matrix(1.00, 0.00, -0.00, -1.00, 215.4, 684.2)">@</text><text xml:space="preserve" font-family="Monaco,Monaco" font-size="40.0" fill="#75DFF2" transform="matrix(1.00, 0.00, -0.00, -1.00, 239.4, 684.2)">u</text><text xml:space="preserve" font-family="Monaco,Monaco" font-size="40.0" fill="#75DFF2" transform="matrix(1.00, 0.00, -0.00, -1.00, 263.4, 684.2)">s</text><text xml:space="preserve" font-family="Monaco,Monaco" font-size="40.0" fill="#75DFF2" transform="matrix(1.00, 0.00, -0.00, -1.00, 287.4, 684.2)">e</text><text xml:space="preserve" font-family="Monaco,Monaco" font-size="40.0" fill="#75DFF2" transform="matrix(1.00, 0.00, -0.00, -1.00, 311.4, 684.2)">r</text><text xml:space="preserve" font-family="Monaco,Monaco" font-size="40.0" fill="#000000" transform="matrix(1.00, 0.00, -0.00, -1.00, 335.4, 684.2)"> </text><text xml:space="preserve" font-family="Monaco,Monaco" font-size="40.0" fill="#F9F9F4" transform="matrix(1.00, 0.00, -0.00, -1.00, 359.4, 684.2)">=</text><text xml:space="preserve" font-family="Monaco,Monaco" font-size="40.0" fill="#000000" transform="matrix(1.00, 0.00, -0.00, -1.00, 383.4, 684.2)"> </text><text xml:space="preserve" font-family="Monaco,Monaco" font-size="40.0" fill="#F9F9F4" transform="matrix(1.00, 0.00, -0.00, -1.00, 407.4, 684.2)">u</text><text xml:space="preserve" font-family="Monaco,Monaco" font-size="40.0" fill="#F9F9F4" transform="matrix(1.00, 0.00, -0.00, -1.00, 431.4, 684.2)">s</text><text xml:space="preserve" font-family="Monaco,Monaco" font-size="40.0" fill="#F9F9F4" transform="matrix(1.00, 0.00, -0.00, -1.00, 455.4, 684.2)">e</text><text xml:space="preserve" font-family="Monaco,Monaco" font-size="40.0" fill="#F9F9F4" transform="matrix(1.00, 0.00, -0.00, -1.00, 479.4, 684.2)">r</text><text xml:space="preserve" font-family="Monaco,Monaco" font-size="40.0" fill="#000000" transform="matrix(1.00, 0.00, -0.00, -1.00, 119.4, 631.2)"> </text><text xml:space="preserve" font-family="Monaco,Monaco" font-size="40.0" fill="#000000" transform="matrix(1.00, 0.00, -0.00, -1.00, 143.4, 631.2)"> </text><text xml:space="preserve" font-family="Monaco,Monaco" font-size="40.0" fill="#FC4384" transform="matrix(1.00, 0.00, -0.00, -1.00, 167.4, 631.2)">e</text><text xml:space="preserve" font-family="Monaco,Monaco" font-size="40.0" fill="#FC4384" transform="matrix(1.00, 0.00, -0.00, -1.00, 191.4, 631.2)">n</text><text xml:space="preserve" font-family="Monaco,Monaco" font-size="40.0" fill="#FC4384" transform="matrix(1.00, 0.00, -0.00, -1.00, 215.4, 631.2)">d</text><text xml:space="preserve" font-family="Monaco,Monaco" font-size="40.0" fill="#000000" transform="matrix(1.00, 0.00, -0.00, -1.00, 119.4, 525.2)"> </text><text xml:space="preserve" font-family="Monaco,Monaco" font-size="40.0" fill="#000000" transform="matrix(1.00, 0.00, -0.00, -1.00, 143.4, 525.2)"> </text><text xml:space="preserve" font-family="Monaco,Monaco" font-size="40.0" fill="#FC4384" transform="matrix(1.00, 0.00, -0.00, -1.00, 167.4, 525.2)">d</text><text xml:space="preserve" font-family="Monaco,Monaco" font-size="40.0" fill="#FC4384" transform="matrix(1.00, 0.00, -0.00, -1.00, 191.4, 525.2)">e</text><text xml:space="preserve" font-family="Monaco,Monaco" font-size="40.0" fill="#FC4384" transform="matrix(1.00, 0.00, -0.00, -1.00, 215.4, 525.2)">f</text><text xml:space="preserve" font-family="Monaco,Monaco" font-size="40.0" fill="#000000" transform="matrix(1.00, 0.00, -0.00, -1.00, 239.4, 525.2)"> </text><text xml:space="preserve" font-family="Monaco,Monaco" font-size="40.0" fill="#13F7BA" transform="matrix(1.00, 0.00, -0.00, -1.00, 263.4, 525.2)">c</text><text xml:space="preserve" font-family="Monaco,Monaco" font-size="40.0" fill="#13F7BA" transform="matrix(1.00, 0.00, -0.00, -1.00, 287.4, 525.2)">a</text><text xml:space="preserve" font-family="Monaco,Monaco" font-size="40.0" fill="#13F7BA" transform="matrix(1.00, 0.00, -0.00, -1.00, 311.4, 525.2)">l</text><text xml:space="preserve" font-family="Monaco,Monaco" font-size="40.0" fill="#13F7BA" transform="matrix(1.00, 0.00, -0.00, -1.00, 335.4, 525.2)">l</text><text xml:space="preserve" font-family="Monaco,Monaco" font-size="40.0" fill="#F9F9F4" transform="matrix(1.00, 0.00, -0.00, -1.00, 359.4, 525.2)">(</text><text xml:space="preserve" font-family="Monaco,Monaco" font-size="40.0" fill="#F9F9F4" transform="matrix(1.00, 0.00, -0.00, -1.00, 383.4, 525.2)">p</text><text xml:space="preserve" font-family="Monaco,Monaco" font-size="40.0" fill="#F9F9F4" transform="matrix(1.00, 0.00, -0.00, -1.00, 407.4, 525.2)">r</text><text xml:space="preserve" font-family="Monaco,Monaco" font-size="40.0" fill="#F9F9F4" transform="matrix(1.00, 0.00, -0.00, -1.00, 431.4, 525.2)">o</text><text xml:space="preserve" font-family="Monaco,Monaco" font-size="40.0" fill="#F9F9F4" transform="matrix(1.00, 0.00, -0.00, -1.00, 455.4, 525.2)">d</text><text xml:space="preserve" font-family="Monaco,Monaco" font-size="40.0" fill="#F9F9F4" transform="matrix(1.00, 0.00, -0.00, -1.00, 479.4, 525.2)">u</text><text xml:space="preserve" font-family="Monaco,Monaco" font-size="40.0" fill="#F9F9F4" transform="matrix(1.00, 0.00, -0.00, -1.00, 503.4, 525.2)">c</text><text xml:space="preserve" font-family="Monaco,Monaco" font-size="40.0" fill="#F9F9F4" transform="matrix(1.00, 0.00, -0.00, -1.00, 527.5, 525.2)">t</text><text xml:space="preserve" font-family="Monaco,Monaco" font-size="40.0" fill="#F9F9F4" transform="matrix(1.00, 0.00, -0.00, -1.00, 551.5, 525.2)">)</text><text xml:space="preserve" font-family="Monaco,Monaco" font-size="40.0" fill="#000000" transform="matrix(1.00, 0.00, -0.00, -1.00, 119.4, 472.2)"> </text><text xml:space="preserve" font-family="Monaco,Monaco" font-size="40.0" fill="#000000" transform="matrix(1.00, 0.00, -0.00, -1.00, 143.4, 472.2)"> </text><text xml:space="preserve" font-family="Monaco,Monaco" font-size="40.0" fill="#000000" transform="matrix(1.00, 0.00, -0.00, -1.00, 167.4, 472.2)"> </text><text xml:space="preserve" font-family="Monaco,Monaco" font-size="40.0" fill="#000000" transform="matrix(1.00, 0.00, -0.00, -1.00, 191.4, 472.2)"> </text><text xml:space="preserve" font-family="Monaco,Monaco" font-size="40.0" fill="#FC4384" transform="matrix(1.00, 0.00, -0.00, -1.00, 215.4, 472.2)">i</text><text xml:space="preserve" font-family="Monaco,Monaco" font-size="40.0" fill="#FC4384" transform="matrix(1.00, 0.00, -0.00, -1.00, 239.4, 472.2)">f</text><text xml:space="preserve" font-family="Monaco,Monaco" font-size="40.0" fill="#000000" transform="matrix(1.00, 0.00, -0.00, -1.00, 263.4, 472.2)"> </text><text xml:space="preserve" font-family="Monaco,Monaco" font-size="40.0" fill="#F9F9F4" transform="matrix(1.00, 0.00, -0.00, -1.00, 287.4, 472.2)">p</text><text xml:space="preserve" font-family="Monaco,Monaco" font-size="40.0" fill="#F9F9F4" transform="matrix(1.00, 0.00, -0.00, -1.00, 311.4, 472.2)">r</text><text xml:space="preserve" font-family="Monaco,Monaco" font-size="40.0" fill="#F9F9F4" transform="matrix(1.00, 0.00, -0.00, -1.00, 335.4, 472.2)">o</text><text xml:space="preserve" font-family="Monaco,Monaco" font-size="40.0" fill="#F9F9F4" transform="matrix(1.00, 0.00, -0.00, -1.00, 359.4, 472.2)">d</text><text xml:space="preserve" font-family="Monaco,Monaco" font-size="40.0" fill="#F9F9F4" transform="matrix(1.00, 0.00, -0.00, -1.00, 383.4, 472.2)">u</text><text xml:space="preserve" font-family="Monaco,Monaco" font-size="40.0" fill="#F9F9F4" transform="matrix(1.00, 0.00, -0.00, -1.00, 407.4, 472.2)">c</text><text xml:space="preserve" font-family="Monaco,Monaco" font-size="40.0" fill="#F9F9F4" transform="matrix(1.00, 0.00, -0.00, -1.00, 431.4, 472.2)">t</text><text xml:space="preserve" font-family="Monaco,Monaco" font-size="40.0" fill="#F9F9F4" transform="matrix(1.00, 0.00, -0.00, -1.00, 455.4, 472.2)">.</text><text xml:space="preserve" font-family="Monaco,Monaco" font-size="40.0" fill="#F9F9F4" transform="matrix(1.00, 0.00, -0.00, -1.00, 479.5, 472.2)">p</text><text xml:space="preserve" font-family="Monaco,Monaco" font-size="40.0" fill="#F9F9F4" transform="matrix(1.00, 0.00, -0.00, -1.00, 503.5, 472.2)">u</text><text xml:space="preserve" font-family="Monaco,Monaco" font-size="40.0" fill="#F9F9F4" transform="matrix(1.00, 0.00, -0.00, -1.00, 527.5, 472.2)">b</text><text xml:space="preserve" font-family="Monaco,Monaco" font-size="40.0" fill="#F9F9F4" transform="matrix(1.00, 0.00, -0.00, -1.00, 551.5, 472.2)">l</text><text xml:space="preserve" font-family="Monaco,Monaco" font-size="40.0" fill="#F9F9F4" transform="matrix(1.00, 0.00, -0.00, -1.00, 575.5, 472.2)">i</text><text xml:space="preserve" font-family="Monaco,Monaco" font-size="40.0" fill="#F9F9F4" transform="matrix(1.00, 0.00, -0.00, -1.00, 599.5, 472.2)">s</text><text xml:space="preserve" font-family="Monaco,Monaco" font-size="40.0" fill="#F9F9F4" transform="matrix(1.00, 0.00, -0.00, -1.00, 623.5, 472.2)">h</text><text xml:space="preserve" font-family="Monaco,Monaco" font-size="40.0" fill="#F9F9F4" transform="matrix(1.00, 0.00, -0.00, -1.00, 647.5, 472.2)">e</text><text xml:space="preserve" font-family="Monaco,Monaco" font-size="40.0" fill="#F9F9F4" transform="matrix(1.00, 0.00, -0.00, -1.00, 671.5, 472.2)">d</text><text xml:space="preserve" font-family="Monaco,Monaco" font-size="40.0" fill="#F9F9F4" transform="matrix(1.00, 0.00, -0.00, -1.00, 695.5, 472.2)">?</text><text xml:space="preserve" font-family="Monaco,Monaco" font-size="40.0" fill="#F9F9F4" transform="matrix(1.00, 0.00, -0.00, -1.00, 719.5, 472.2)"> </text><text xml:space="preserve" font-family="Monaco,Monaco" font-size="40.0" fill="#F9F9F4" transform="matrix(1.00, 0.00, -0.00, -1.00, 743.5, 472.2)">&amp;</text><text xml:space="preserve" font-family="Monaco,Monaco" font-size="40.0" fill="#F9F9F4" transform="matrix(1.00, 0.00, -0.00, -1.00, 767.5, 472.2)">&amp;</text><text xml:space="preserve" font-family="Monaco,Monaco" font-size="40.0" fill="#000000" transform="matrix(1.00, 0.00, -0.00, -1.00, 791.5, 472.2)"> </text><text xml:space="preserve" font-family="Monaco,Monaco" font-size="40.0" fill="#75DFF2" transform="matrix(1.00, 0.00, -0.00, -1.00, 815.5, 472.2)">@</text><text xml:space="preserve" font-family="Monaco,Monaco" font-size="40.0" fill="#75DFF2" transform="matrix(1.00, 0.00, -0.00, -1.00, 839.5, 472.2)">u</text><text xml:space="preserve" font-family="Monaco,Monaco" font-size="40.0" fill="#75DFF2" transform="matrix(1.00, 0.00, -0.00, -1.00, 863.5, 472.2)">s</text><text xml:space="preserve" font-family="Monaco,Monaco" font-size="40.0" fill="#75DFF2" transform="matrix(1.00, 0.00, -0.00, -1.00, 887.5, 472.2)">e</text><text xml:space="preserve" font-family="Monaco,Monaco" font-size="40.0" fill="#75DFF2" transform="matrix(1.00, 0.00, -0.00, -1.00, 911.5, 472.2)">r</text><text xml:space="preserve" font-family="Monaco,Monaco" font-size="40.0" fill="#F9F9F4" transform="matrix(1.00, 0.00, -0.00, -1.00, 935.5, 472.2)">.</text><text xml:space="preserve" font-family="Monaco,Monaco" font-size="40.0" fill="#F9F9F4" transform="matrix(1.00, 0.00, -0.00, -1.00, 959.5, 472.2)">i</text><text xml:space="preserve" font-family="Monaco,Monaco" font-size="40.0" fill="#F9F9F4" transform="matrix(1.00, 0.00, -0.00, -1.00, 983.5, 472.2)">s</text><text xml:space="preserve" font-family="Monaco,Monaco" font-size="40.0" fill="#F9F9F4" transform="matrix(1.00, 0.00, -0.00, -1.00, 1007.5, 472.2)">_</text><text xml:space="preserve" font-family="Monaco,Monaco" font-size="40.0" fill="#F9F9F4" transform="matrix(1.00, 0.00, -0.00, -1.00, 1031.5, 472.2)">c</text><text xml:space="preserve" font-family="Monaco,Monaco" font-size="40.0" fill="#F9F9F4" transform="matrix(1.00, 0.00, -0.00, -1.00, 1055.5, 472.2)">u</text><text xml:space="preserve" font-family="Monaco,Monaco" font-size="40.0" fill="#F9F9F4" transform="matrix(1.00, 0.00, -0.00, -1.00, 1079.5, 472.2)">s</text><text xml:space="preserve" font-family="Monaco,Monaco" font-size="40.0" fill="#F9F9F4" transform="matrix(1.00, 0.00, -0.00, -1.00, 1103.6, 472.2)">t</text><text xml:space="preserve" font-family="Monaco,Monaco" font-size="40.0" fill="#F9F9F4" transform="matrix(1.00, 0.00, -0.00, -1.00, 1127.6, 472.2)">o</text><text xml:space="preserve" font-family="Monaco,Monaco" font-size="40.0" fill="#F9F9F4" transform="matrix(1.00, 0.00, -0.00, -1.00, 1151.6, 472.2)">m</text><text xml:space="preserve" font-family="Monaco,Monaco" font-size="40.0" fill="#F9F9F4" transform="matrix(1.00, 0.00, -0.00, -1.00, 1175.6, 472.2)">e</text><text xml:space="preserve" font-family="Monaco,Monaco" font-size="40.0" fill="#F9F9F4" transform="matrix(1.00, 0.00, -0.00, -1.00, 1199.6, 472.2)">r</text><text xml:space="preserve" font-family="Monaco,Monaco" font-size="40.0" fill="#F9F9F4" transform="matrix(1.00, 0.00, -0.00, -1.00, 1223.6, 472.2)">_</text><text xml:space="preserve" font-family="Monaco,Monaco" font-size="40.0" fill="#F9F9F4" transform="matrix(1.00, 0.00, -0.00, -1.00, 1247.6, 472.2)">o</text><text xml:space="preserve" font-family="Monaco,Monaco" font-size="40.0" fill="#F9F9F4" transform="matrix(1.00, 0.00, -0.00, -1.00, 1271.6, 472.2)">f</text><text xml:space="preserve" font-family="Monaco,Monaco" font-size="40.0" fill="#F9F9F4" transform="matrix(1.00, 0.00, -0.00, -1.00, 1295.6, 472.2)">?</text><text xml:space="preserve" font-family="Monaco,Monaco" font-size="40.0" fill="#F9F9F4" transform="matrix(1.00, 0.00, -0.00, -1.00, 1319.6, 472.2)">(</text><text xml:space="preserve" font-family="Monaco,Monaco" font-size="40.0" fill="#F9F9F4" transform="matrix(1.00, 0.00, -0.00, -1.00, 1343.6, 472.2)">p</text><text xml:space="preserve" font-family="Monaco,Monaco" font-size="40.0" fill="#F9F9F4" transform="matrix(1.00, 0.00, -0.00, -1.00, 1367.6, 472.2)">r</text><text xml:space="preserve" font-family="Monaco,Monaco" font-size="40.0" fill="#F9F9F4" transform="matrix(1.00, 0.00, -0.00, -1.00, 1391.6, 472.2)">o</text><text xml:space="preserve" font-family="Monaco,Monaco" font-size="40.0" fill="#F9F9F4" transform="matrix(1.00, 0.00, -0.00, -1.00, 1415.7, 472.2)">d</text><text xml:space="preserve" font-family="Monaco,Monaco" font-size="40.0" fill="#F9F9F4" transform="matrix(1.00, 0.00, -0.00, -1.00, 1439.7, 472.2)">u</text><text xml:space="preserve" font-family="Monaco,Monaco" font-size="40.0" fill="#F9F9F4" transform="matrix(1.00, 0.00, -0.00, -1.00, 1463.7, 472.2)">c</text><text xml:space="preserve" font-family="Monaco,Monaco" font-size="40.0" fill="#F9F9F4" transform="matrix(1.00, 0.00, -0.00, -1.00, 1487.7, 472.2)">t</text><text xml:space="preserve" font-family="Monaco,Monaco" font-size="40.0" fill="#F9F9F4" transform="matrix(1.00, 0.00, -0.00, -1.00, 1511.7, 472.2)">.</text><text xml:space="preserve" font-family="Monaco,Monaco" font-size="40.0" fill="#F9F9F4" transform="matrix(1.00, 0.00, -0.00, -1.00, 1535.7, 472.2)">v</text><text xml:space="preserve" font-family="Monaco,Monaco" font-size="40.0" fill="#F9F9F4" transform="matrix(1.00, 0.00, -0.00, -1.00, 1559.7, 472.2)">e</text><text xml:space="preserve" font-family="Monaco,Monaco" font-size="40.0" fill="#F9F9F4" transform="matrix(1.00, 0.00, -0.00, -1.00, 1583.7, 472.2)">n</text><text xml:space="preserve" font-family="Monaco,Monaco" font-size="40.0" fill="#F9F9F4" transform="matrix(1.00, 0.00, -0.00, -1.00, 1607.7, 472.2)">d</text><text xml:space="preserve" font-family="Monaco,Monaco" font-size="40.0" fill="#F9F9F4" transform="matrix(1.00, 0.00, -0.00, -1.00, 1631.7, 472.2)">o</text><text xml:space="preserve" font-family="Monaco,Monaco" font-size="40.0" fill="#F9F9F4" transform="matrix(1.00, 0.00, -0.00, -1.00, 1655.7, 472.2)">r</text><text xml:space="preserve" font-family="Monaco,Monaco" font-size="40.0" fill="#F9F9F4" transform="matrix(1.00, 0.00, -0.00, -1.00, 1679.7, 472.2)">)</text><text xml:space="preserve" font-family="Monaco,Monaco" font-size="40.0" fill="#000000" transform="matrix(1.00, 0.00, -0.00, -1.00, 119.4, 419.2)"> </text><text xml:space="preserve" font-family="Monaco,Monaco" font-size="40.0" fill="#000000" transform="matrix(1.00, 0.00, -0.00, -1.00, 143.4, 419.2)"> </text><text xml:space="preserve" font-family="Monaco,Monaco" font-size="40.0" fill="#000000" transform="matrix(1.00, 0.00, -0.00, -1.00, 167.4, 419.2)"> </text><text xml:space="preserve" font-family="Monaco,Monaco" font-size="40.0" fill="#000000" transform="matrix(1.00, 0.00, -0.00, -1.00, 191.4, 419.2)"> </text><text xml:space="preserve" font-family="Monaco,Monaco" font-size="40.0" fill="#000000" transform="matrix(1.00, 0.00, -0.00, -1.00, 215.4, 419.2)"> </text><text xml:space="preserve" font-family="Monaco,Monaco" font-size="40.0" fill="#000000" transform="matrix(1.00, 0.00, -0.00, -1.00, 239.4, 419.2)"> </text><text xml:space="preserve" font-family="Monaco,Monaco" font-size="40.0" fill="#75DFF2" transform="matrix(1.00, 0.00, -0.00, -1.00, 263.4, 419.2)">@</text><text xml:space="preserve" font-family="Monaco,Monaco" font-size="40.0" fill="#75DFF2" transform="matrix(1.00, 0.00, -0.00, -1.00, 287.4, 419.2)">u</text><text xml:space="preserve" font-family="Monaco,Monaco" font-size="40.0" fill="#75DFF2" transform="matrix(1.00, 0.00, -0.00, -1.00, 311.4, 419.2)">s</text><text xml:space="preserve" font-family="Monaco,Monaco" font-size="40.0" fill="#75DFF2" transform="matrix(1.00, 0.00, -0.00, -1.00, 335.4, 419.2)">e</text><text xml:space="preserve" font-family="Monaco,Monaco" font-size="40.0" fill="#75DFF2" transform="matrix(1.00, 0.00, -0.00, -1.00, 359.4, 419.2)">r</text><text xml:space="preserve" font-family="Monaco,Monaco" font-size="40.0" fill="#F9F9F4" transform="matrix(1.00, 0.00, -0.00, -1.00, 383.4, 419.2)">.</text><text xml:space="preserve" font-family="Monaco,Monaco" font-size="40.0" fill="#13F7BA" transform="matrix(1.00, 0.00, -0.00, -1.00, 407.4, 419.2)">a</text><text xml:space="preserve" font-family="Monaco,Monaco" font-size="40.0" fill="#13F7BA" transform="matrix(1.00, 0.00, -0.00, -1.00, 431.4, 419.2)">d</text><text xml:space="preserve" font-family="Monaco,Monaco" font-size="40.0" fill="#13F7BA" transform="matrix(1.00, 0.00, -0.00, -1.00, 455.4, 419.2)">d</text><text xml:space="preserve" font-family="Monaco,Monaco" font-size="40.0" fill="#13F7BA" transform="matrix(1.00, 0.00, -0.00, -1.00, 479.4, 419.2)">_</text><text xml:space="preserve" font-family="Monaco,Monaco" font-size="40.0" fill="#13F7BA" transform="matrix(1.00, 0.00, -0.00, -1.00, 503.4, 419.2)">t</text><text xml:space="preserve" font-family="Monaco,Monaco" font-size="40.0" fill="#13F7BA" transform="matrix(1.00, 0.00, -0.00, -1.00, 527.4, 419.2)">o</text><text xml:space="preserve" font-family="Monaco,Monaco" font-size="40.0" fill="#13F7BA" transform="matrix(1.00, 0.00, -0.00, -1.00, 551.5, 419.2)">_</text><text xml:space="preserve" font-family="Monaco,Monaco" font-size="40.0" fill="#13F7BA" transform="matrix(1.00, 0.00, -0.00, -1.00, 575.5, 419.2)">c</text><text xml:space="preserve" font-family="Monaco,Monaco" font-size="40.0" fill="#13F7BA" transform="matrix(1.00, 0.00, -0.00, -1.00, 599.5, 419.2)">a</text><text xml:space="preserve" font-family="Monaco,Monaco" font-size="40.0" fill="#13F7BA" transform="matrix(1.00, 0.00, -0.00, -1.00, 623.5, 419.2)">r</text><text xml:space="preserve" font-family="Monaco,Monaco" font-size="40.0" fill="#13F7BA" transform="matrix(1.00, 0.00, -0.00, -1.00, 647.5, 419.2)">t</text><text xml:space="preserve" font-family="Monaco,Monaco" font-size="40.0" fill="#F9F9F4" transform="matrix(1.00, 0.00, -0.00, -1.00, 671.5, 419.2)">(</text><text xml:space="preserve" font-family="Monaco,Monaco" font-size="40.0" fill="#F9F9F4" transform="matrix(1.00, 0.00, -0.00, -1.00, 695.5, 419.2)">p</text><text xml:space="preserve" font-family="Monaco,Monaco" font-size="40.0" fill="#F9F9F4" transform="matrix(1.00, 0.00, -0.00, -1.00, 719.5, 419.2)">r</text><text xml:space="preserve" font-family="Monaco,Monaco" font-size="40.0" fill="#F9F9F4" transform="matrix(1.00, 0.00, -0.00, -1.00, 743.5, 419.2)">o</text><text xml:space="preserve" font-family="Monaco,Monaco" font-size="40.0" fill="#F9F9F4" transform="matrix(1.00, 0.00, -0.00, -1.00, 767.5, 419.2)">d</text><text xml:space="preserve" font-family="Monaco,Monaco" font-size="40.0" fill="#F9F9F4" transform="matrix(1.00, 0.00, -0.00, -1.00, 791.5, 419.2)">u</text><text xml:space="preserve" font-family="Monaco,Monaco" font-size="40.0" fill="#F9F9F4" transform="matrix(1.00, 0.00, -0.00, -1.00, 815.5, 419.2)">c</text><text xml:space="preserve" font-family="Monaco,Monaco" font-size="40.0" fill="#F9F9F4" transform="matrix(1.00, 0.00, -0.00, -1.00, 839.5, 419.2)">t</text><text xml:space="preserve" font-family="Monaco,Monaco" font-size="40.0" fill="#F9F9F4" transform="matrix(1.00, 0.00, -0.00, -1.00, 863.5, 419.2)">)</text><text xml:space="preserve" font-family="Monaco,Monaco" font-size="40.0" fill="#000000" transform="matrix(1.00, 0.00, -0.00, -1.00, 119.4, 366.2)"> </text><text xml:space="preserve" font-family="Monaco,Monaco" font-size="40.0" fill="#000000" transform="matrix(1.00, 0.00, -0.00, -1.00, 143.4, 366.2)"> </text><text xml:space="preserve" font-family="Monaco,Monaco" font-size="40.0" fill="#000000" transform="matrix(1.00, 0.00, -0.00, -1.00, 167.4, 366.2)"> </text><text xml:space="preserve" font-family="Monaco,Monaco" font-size="40.0" fill="#000000" transform="matrix(1.00, 0.00, -0.00, -1.00, 191.4, 366.2)"> </text><text xml:space="preserve" font-family="Monaco,Monaco" font-size="40.0" fill="#FC4384" transform="matrix(1.00, 0.00, -0.00, -1.00, 215.4, 366.2)">e</text><text xml:space="preserve" font-family="Monaco,Monaco" font-size="40.0" fill="#FC4384" transform="matrix(1.00, 0.00, -0.00, -1.00, 239.4, 366.2)">n</text><text xml:space="preserve" font-family="Monaco,Monaco" font-size="40.0" fill="#FC4384" transform="matrix(1.00, 0.00, -0.00, -1.00, 263.4, 366.2)">d</text><text xml:space="preserve" font-family="Monaco,Monaco" font-size="40.0" fill="#000000" transform="matrix(1.00, 0.00, -0.00, -1.00, 119.4, 313.2)"> </text><text xml:space="preserve" font-family="Monaco,Monaco" font-size="40.0" fill="#000000" transform="matrix(1.00, 0.00, -0.00, -1.00, 143.4, 313.2)"> </text><text xml:space="preserve" font-family="Monaco,Monaco" font-size="40.0" fill="#FC4384" transform="matrix(1.00, 0.00, -0.00, -1.00, 167.4, 313.2)">e</text><text xml:space="preserve" font-family="Monaco,Monaco" font-size="40.0" fill="#FC4384" transform="matrix(1.00, 0.00, -0.00, -1.00, 191.4, 313.2)">n</text><text xml:space="preserve" font-family="Monaco,Monaco" font-size="40.0" fill="#FC4384" transform="matrix(1.00, 0.00, -0.00, -1.00, 215.4, 313.2)">d</text><text xml:space="preserve" font-family="Monaco,Monaco" font-size="40.0" fill="#FC4384" transform="matrix(1.00, 0.00, -0.00, -1.00, 119.4, 260.2)">e</text><text xml:space="preserve" font-family="Monaco,Monaco" font-size="40.0" fill="#FC4384" transform="matrix(1.00, 0.00, -0.00, -1.00, 143.4, 260.2)">n</text><text xml:space="preserve" font-family="Monaco,Monaco" font-size="40.0" fill="#FC4384" transform="matrix(1.00, 0.00, -0.00, -1.00, 167.4, 260.2)">d</text></g></g><image xlink:href="../../E3D777B7-8F1A-4D41-95A6-A8C5C05E43F2/assets/2091576A5846909491BF691B0BA547A1.png" width="648.00" height="84.00" transform="matrix(1.00, 0.00, -0.00, -1.00, 433.0, 983.0)"></image><text xml:space="preserve" font-family="YanoneKaffeesatz-Bold,Yanone Kaffeesatz" font-weight="bold" font-size="100.0" fill="#FC6900" transform="matrix(1.00, 0.00, -0.00, -1.00, 437.2, 907.9)">W</text><text xml:space="preserve" font-family="YanoneKaffeesatz-Bold,Yanone Kaffeesatz" font-weight="bold" font-size="100.0" fill="#FC6900" transform="matrix(1.00, 0.00, -0.00, -1.00, 504.1, 907.9)">h</text><text xml:space="preserve" font-family="YanoneKaffeesatz-Bold,Yanone Kaffeesatz" font-weight="bold" font-size="100.0" fill="#FC6900" transform="matrix(1.00, 0.00, -0.00, -1.00, 540.1, 907.9)">a</text><text xml:space="preserve" font-family="YanoneKaffeesatz-Bold,Yanone Kaffeesatz" font-weight="bold" font-size="100.0" fill="#FC6900" transform="matrix(1.00, 0.00, -0.00, -1.00, 573.0, 907.9)">t</text><text xml:space="preserve" font-family="YanoneKaffeesatz-Bold,Yanone Kaffeesatz" font-weight="bold" font-size="100.0" fill="#FC6900" transform="matrix(1.00, 0.00, -0.00, -1.00, 601.4, 907.9)"> </text><text xml:space="preserve" font-family="YanoneKaffeesatz-Bold,Yanone Kaffeesatz" font-weight="bold" font-size="100.0" fill="#FC6900" transform="matrix(1.00, 0.00, -0.00, -1.00, 615.4, 907.9)">i</text><text xml:space="preserve" font-family="YanoneKaffeesatz-Bold,Yanone Kaffeesatz" font-weight="bold" font-size="100.0" fill="#FC6900" transform="matrix(1.00, 0.00, -0.00, -1.00, 633.4, 907.9)">f</text><text xml:space="preserve" font-family="YanoneKaffeesatz-Bold,Yanone Kaffeesatz" font-weight="bold" font-size="100.0" fill="#FC6900" transform="matrix(1.00, 0.00, -0.00, -1.00, 659.5, 907.9)"> </text><text xml:space="preserve" font-family="YanoneKaffeesatz-Bold,Yanone Kaffeesatz" font-weight="bold" font-size="100.0" fill="#FC6900" transform="matrix(1.00, 0.00, -0.00, -1.00, 673.5, 907.9)">t</text><text xml:space="preserve" font-family="YanoneKaffeesatz-Bold,Yanone Kaffeesatz" font-weight="bold" font-size="100.0" fill="#FC6900" transform="matrix(1.00, 0.00, -0.00, -1.00, 702.0, 907.9)">h</text><text xml:space="preserve" font-family="YanoneKaffeesatz-Bold,Yanone Kaffeesatz" font-weight="bold" font-size="100.0" fill="#FC6900" transform="matrix(1.00, 0.00, -0.00, -1.00, 738.0, 907.9)">i</text><text xml:space="preserve" font-family="YanoneKaffeesatz-Bold,Yanone Kaffeesatz" font-weight="bold" font-size="100.0" fill="#FC6900" transform="matrix(1.00, 0.00, -0.00, -1.00, 756.0, 907.9)">s</text><text xml:space="preserve" font-family="YanoneKaffeesatz-Bold,Yanone Kaffeesatz" font-weight="bold" font-size="100.0" fill="#FC6900" transform="matrix(1.00, 0.00, -0.00, -1.00, 787.9, 907.9)"> </text><text xml:space="preserve" font-family="YanoneKaffeesatz-Bold,Yanone Kaffeesatz" font-weight="bold" font-size="100.0" fill="#FC6900" transform="matrix(1.00, 0.00, -0.00, -1.00, 801.9, 907.9)">c</text><text xml:space="preserve" font-family="YanoneKaffeesatz-Bold,Yanone Kaffeesatz" font-weight="bold" font-size="100.0" fill="#FC6900" transform="matrix(1.00, 0.00, -0.00, -1.00, 831.0, 907.9)">l</text><text xml:space="preserve" font-family="YanoneKaffeesatz-Bold,Yanone Kaffeesatz" font-weight="bold" font-size="100.0" fill="#FC6900" transform="matrix(1.00, 0.00, -0.00, -1.00, 848.9, 907.9)">a</text><text xml:space="preserve" font-family="YanoneKaffeesatz-Bold,Yanone Kaffeesatz" font-weight="bold" font-size="100.0" fill="#FC6900" transform="matrix(1.00, 0.00, -0.00, -1.00, 882.7, 907.9)">s</text><text xml:space="preserve" font-family="YanoneKaffeesatz-Bold,Yanone Kaffeesatz" font-weight="bold" font-size="100.0" fill="#FC6900" transform="matrix(1.00, 0.00, -0.00, -1.00, 914.5, 907.9)">s</text><text xml:space="preserve" font-family="YanoneKaffeesatz-Bold,Yanone Kaffeesatz" font-weight="bold" font-size="100.0" fill="#FC6900" transform="matrix(1.00, 0.00, -0.00, -1.00, 946.2, 907.9)"> </text><text xml:space="preserve" font-family="YanoneKaffeesatz-Bold,Yanone Kaffeesatz" font-weight="bold" font-size="100.0" fill="#FC6900" transform="matrix(1.00, 0.00, -0.00, -1.00, 960.2, 907.9)">w</text><text xml:space="preserve" font-family="YanoneKaffeesatz-Bold,Yanone Kaffeesatz" font-weight="bold" font-size="100.0" fill="#FC6900" transform="matrix(1.00, 0.00, -0.00, -1.00, 1012.1, 907.9)">a</text><text xml:space="preserve" font-family="YanoneKaffeesatz-Bold,Yanone Kaffeesatz" font-weight="bold" font-size="100.0" fill="#FC6900" transform="matrix(1.00, 0.00, -0.00, -1.00, 1045.9, 907.9)">s</text><image xlink:href="../../E3D777B7-8F1A-4D41-95A6-A8C5C05E43F2/assets/B35A11FFF0DA8027EDBB8BF1CC940EB4.png" width="395.00" height="101.00" transform="matrix(1.00, 0.00, -0.00, -1.00, 1091.0, 982.0)"></image><text xml:space="preserve" font-family="YanoneKaffeesatz-Bold,Yanone Kaffeesatz" font-weight="bold" font-size="100.0" fill="#FC6900" transform="matrix(1.00, 0.00, -0.00, -1.00, 1077.8, 907.9)"> </text><text xml:space="preserve" font-family="YanoneKaffeesatz-Bold,Yanone Kaffeesatz" font-weight="bold" font-size="100.0" fill="#FC6900" transform="matrix(1.00, 0.00, -0.00, -1.00, 1091.8, 907.9)">i</text><text xml:space="preserve" font-family="YanoneKaffeesatz-Bold,Yanone Kaffeesatz" font-weight="bold" font-size="100.0" fill="#FC6900" transform="matrix(1.00, 0.00, -0.00, -1.00, 1109.8, 907.9)">n</text><text xml:space="preserve" font-family="YanoneKaffeesatz-Bold,Yanone Kaffeesatz" font-weight="bold" font-size="100.0" fill="#FC6900" transform="matrix(1.00, 0.00, -0.00, -1.00, 1145.8, 907.9)"> </text><text xml:space="preserve" font-family="YanoneKaffeesatz-Bold,Yanone Kaffeesatz" font-weight="bold" font-size="100.0" fill="#FC6900" transform="matrix(1.00, 0.00, -0.00, -1.00, 1159.8, 907.9)">s</text><text xml:space="preserve" font-family="YanoneKaffeesatz-Bold,Yanone Kaffeesatz" font-weight="bold" font-size="100.0" fill="#FC6900" transform="matrix(1.00, 0.00, -0.00, -1.00, 1191.7, 907.9)">o</text><text xml:space="preserve" font-family="YanoneKaffeesatz-Bold,Yanone Kaffeesatz" font-weight="bold" font-size="100.0" fill="#FC6900" transform="matrix(1.00, 0.00, -0.00, -1.00, 1226.8, 907.9)">m</text><text xml:space="preserve" font-family="YanoneKaffeesatz-Bold,Yanone Kaffeesatz" font-weight="bold" font-size="100.0" fill="#FC6900" transform="matrix(1.00, 0.00, -0.00, -1.00, 1279.8, 907.9)">e</text><text xml:space="preserve" font-family="YanoneKaffeesatz-Bold,Yanone Kaffeesatz" font-weight="bold" font-size="100.0" fill="#FC6900" transform="matrix(1.00, 0.00, -0.00, -1.00, 1314.3, 907.9)"> </text><text xml:space="preserve" font-family="YanoneKaffeesatz-Bold,Yanone Kaffeesatz" font-weight="bold" font-size="100.0" fill="#FC6900" transform="matrix(1.00, 0.00, -0.00, -1.00, 1328.3, 907.9)">g</text><text xml:space="preserve" font-family="YanoneKaffeesatz-Bold,Yanone Kaffeesatz" font-weight="bold" font-size="100.0" fill="#FC6900" transform="matrix(1.00, 0.00, -0.00, -1.00, 1365.8, 907.9)">e</text><text xml:space="preserve" font-family="YanoneKaffeesatz-Bold,Yanone Kaffeesatz" font-weight="bold" font-size="100.0" fill="#FC6900" transform="matrix(1.00, 0.00, -0.00, -1.00, 1400.4, 907.9)">m</text><text xml:space="preserve" font-family="YanoneKaffeesatz-Bold,Yanone Kaffeesatz" font-weight="bold" font-size="100.0" fill="#FC6900" transform="matrix(1.00, 0.00, -0.00, -1.00, 1453.4, 907.9)">?</text></g></svg>