<?xml version="1.0" encoding="UTF-8" standalone="no"?><svg xmlns="http://www.w3.org/2000/svg" xmlns:xlink="http://www.w3.org/1999/xlink" clip-rule="evenodd" stroke-miterlimit="10" viewBox="0 0 1920 1080"><desc>SVG generated by Keynote</desc><defs></defs><g transform="matrix(1.00, 0.00, -0.00, -1.00, 0.0, 1080.0)"><g><clipPath id="clip0x7fec7b376d60"><path d="M 0.0 1080.0 L 1920.0 1080.0 L 1920.0 0.0 L 0.0 0.0 Z M 0.0 1080.0 "></path></clipPath><g clip-path="url(#clip0x7fec7b376d60)"><image xlink:href="../../A5D7B27F-ECCD-4C51-9075-135B713588B1/assets/0F43D2572F34A9AFB59E4515ED9A1249.jpeg" width="3840.00" height="2160.00" transform="matrix(0.50, 0.00, -0.00, -0.50, 0.0, 1080.0)"></image></g></g><image xlink:href="A830DA11275997C91C66F19638F167E4.jpeg" width="900.00" height="600.00" transform="matrix(2.13, 0.00, -0.00, -2.13, 0.0, 1180.0)"></image><image xlink:href="14E9AC6988983322CF3DE5381C308AD2.png" width="881.00" height="149.00" transform="matrix(1.00, 0.00, -0.00, -1.00, 85.0, 178.0)"></image><text xml:space="preserve" font-family="YanoneKaffeesatz-Bold,Yanone Kaffeesatz" font-weight="bold" font-size="150.0" fill="#E37055" transform="matrix(1.00, 0.00, -0.00, -1.00, 85.6, 65.8)">I</text><text xml:space="preserve" font-family="YanoneKaffeesatz-Bold,Yanone Kaffeesatz" font-weight="bold" font-size="150.0" fill="#E37055" transform="matrix(1.00, 0.00, -0.00, -1.00, 111.6, 65.8)">n</text><text xml:space="preserve" font-family="YanoneKaffeesatz-Bold,Yanone Kaffeesatz" font-weight="bold" font-size="150.0" fill="#E37055" transform="matrix(1.00, 0.00, -0.00, -1.00, 165.7, 65.8)">t</text><text xml:space="preserve" font-family="YanoneKaffeesatz-Bold,Yanone Kaffeesatz" font-weight="bold" font-size="150.0" fill="#E37055" transform="matrix(1.00, 0.00, -0.00, -1.00, 203.8, 65.8)">e</text><text xml:space="preserve" font-family="YanoneKaffeesatz-Bold,Yanone Kaffeesatz" font-weight="bold" font-size="150.0" fill="#E37055" transform="matrix(1.00, 0.00, -0.00, -1.00, 255.7, 65.8)">r</text><text xml:space="preserve" font-family="YanoneKaffeesatz-Bold,Yanone Kaffeesatz" font-weight="bold" font-size="150.0" fill="#E37055" transform="matrix(1.00, 0.00, -0.00, -1.00, 293.1, 65.8)">f</text><text xml:space="preserve" font-family="YanoneKaffeesatz-Bold,Yanone Kaffeesatz" font-weight="bold" font-size="150.0" fill="#E37055" transform="matrix(1.00, 0.00, -0.00, -1.00, 332.4, 65.8)">a</text><text xml:space="preserve" font-family="YanoneKaffeesatz-Bold,Yanone Kaffeesatz" font-weight="bold" font-size="150.0" fill="#E37055" transform="matrix(1.00, 0.00, -0.00, -1.00, 383.1, 65.8)">c</text><text xml:space="preserve" font-family="YanoneKaffeesatz-Bold,Yanone Kaffeesatz" font-weight="bold" font-size="150.0" fill="#E37055" transform="matrix(1.00, 0.00, -0.00, -1.00, 424.5, 65.8)">e</text><text xml:space="preserve" font-family="YanoneKaffeesatz-Bold,Yanone Kaffeesatz" font-weight="bold" font-size="150.0" fill="#E37055" transform="matrix(1.00, 0.00, -0.00, -1.00, 476.4, 65.8)"> </text><text xml:space="preserve" font-family="YanoneKaffeesatz-Bold,Yanone Kaffeesatz" font-weight="bold" font-size="150.0" fill="#E37055" transform="matrix(1.00, 0.00, -0.00, -1.00, 497.4, 65.8)">O</text><text xml:space="preserve" font-family="YanoneKaffeesatz-Bold,Yanone Kaffeesatz" font-weight="bold" font-size="150.0" fill="#E37055" transform="matrix(1.00, 0.00, -0.00, -1.00, 558.6, 65.8)">w</text><text xml:space="preserve" font-family="YanoneKaffeesatz-Bold,Yanone Kaffeesatz" font-weight="bold" font-size="150.0" fill="#E37055" transform="matrix(1.00, 0.00, -0.00, -1.00, 637.5, 65.8)">n</text><text xml:space="preserve" font-family="YanoneKaffeesatz-Bold,Yanone Kaffeesatz" font-weight="bold" font-size="150.0" fill="#E37055" transform="matrix(1.00, 0.00, -0.00, -1.00, 691.6, 65.8)">e</text><text xml:space="preserve" font-family="YanoneKaffeesatz-Bold,Yanone Kaffeesatz" font-weight="bold" font-size="150.0" fill="#E37055" transform="matrix(1.00, 0.00, -0.00, -1.00, 743.5, 65.8)">r</text><text xml:space="preserve" font-family="YanoneKaffeesatz-Bold,Yanone Kaffeesatz" font-weight="bold" font-size="150.0" fill="#E37055" transform="matrix(1.00, 0.00, -0.00, -1.00, 780.9, 65.8)">s</text><text xml:space="preserve" font-family="YanoneKaffeesatz-Bold,Yanone Kaffeesatz" font-weight="bold" font-size="150.0" fill="#E37055" transform="matrix(1.00, 0.00, -0.00, -1.00, 828.6, 65.8)">h</text><text xml:space="preserve" font-family="YanoneKaffeesatz-Bold,Yanone Kaffeesatz" font-weight="bold" font-size="150.0" fill="#E37055" transform="matrix(1.00, 0.00, -0.00, -1.00, 882.7, 65.8)">i</text><text xml:space="preserve" font-family="YanoneKaffeesatz-Bold,Yanone Kaffeesatz" font-weight="bold" font-size="150.0" fill="#E37055" transform="matrix(1.00, 0.00, -0.00, -1.00, 909.7, 65.8)">p</text></g></svg>