<?xml version="1.0" encoding="UTF-8" standalone="no"?><svg xmlns="http://www.w3.org/2000/svg" xmlns:xlink="http://www.w3.org/1999/xlink" clip-rule="evenodd" stroke-miterlimit="10" viewBox="0 0 1920 1080"><desc>SVG generated by Keynote</desc><defs></defs><g transform="matrix(1.00, 0.00, -0.00, -1.00, 0.0, 1080.0)"><g><clipPath id="clip0x7fec77be9720"><path d="M 0.0 1080.0 L 1920.0 1080.0 L 1920.0 0.0 L 0.0 0.0 Z M 0.0 1080.0 "></path></clipPath><g clip-path="url(#clip0x7fec77be9720)"><image xlink:href="../../A5D7B27F-ECCD-4C51-9075-135B713588B1/assets/0F43D2572F34A9AFB59E4515ED9A1249.jpeg" width="3840.00" height="2160.00" transform="matrix(0.50, 0.00, -0.00, -0.50, 0.0, 1080.0)"></image></g></g><image xlink:href="../../2604AF98-497F-42C7-99AE-66895447FE4D/assets/E5C9987B855E9706BE5580371EA327E2.png" width="603.00" height="149.00" transform="matrix(1.00, 0.00, -0.00, -1.00, 253.0, 777.0)"></image><text xml:space="preserve" font-family="YanoneKaffeesatz-Bold,Yanone Kaffeesatz" font-weight="bold" font-size="150.0" fill="#FEFFFE" transform="matrix(1.00, 0.00, -0.00, -1.00, 253.4, 665.2)">E</text><text xml:space="preserve" font-family="YanoneKaffeesatz-Bold,Yanone Kaffeesatz" font-weight="bold" font-size="150.0" fill="#FEFFFE" transform="matrix(1.00, 0.00, -0.00, -1.00, 298.4, 665.2)">n</text><text xml:space="preserve" font-family="YanoneKaffeesatz-Bold,Yanone Kaffeesatz" font-weight="bold" font-size="150.0" fill="#FEFFFE" transform="matrix(1.00, 0.00, -0.00, -1.00, 352.6, 665.2)">c</text><text xml:space="preserve" font-family="YanoneKaffeesatz-Bold,Yanone Kaffeesatz" font-weight="bold" font-size="150.0" fill="#FEFFFE" transform="matrix(1.00, 0.00, -0.00, -1.00, 396.4, 665.2)">a</text><text xml:space="preserve" font-family="YanoneKaffeesatz-Bold,Yanone Kaffeesatz" font-weight="bold" font-size="150.0" fill="#FEFFFE" transform="matrix(1.00, 0.00, -0.00, -1.00, 447.1, 665.2)">p</text><text xml:space="preserve" font-family="YanoneKaffeesatz-Bold,Yanone Kaffeesatz" font-weight="bold" font-size="150.0" fill="#FEFFFE" transform="matrix(1.00, 0.00, -0.00, -1.00, 501.7, 665.2)">s</text><text xml:space="preserve" font-family="YanoneKaffeesatz-Bold,Yanone Kaffeesatz" font-weight="bold" font-size="150.0" fill="#FEFFFE" transform="matrix(1.00, 0.00, -0.00, -1.00, 549.4, 665.2)">u</text><text xml:space="preserve" font-family="YanoneKaffeesatz-Bold,Yanone Kaffeesatz" font-weight="bold" font-size="150.0" fill="#FEFFFE" transform="matrix(1.00, 0.00, -0.00, -1.00, 603.5, 665.2)">l</text><text xml:space="preserve" font-family="YanoneKaffeesatz-Bold,Yanone Kaffeesatz" font-weight="bold" font-size="150.0" fill="#FEFFFE" transform="matrix(1.00, 0.00, -0.00, -1.00, 630.2, 665.2)">a</text><text xml:space="preserve" font-family="YanoneKaffeesatz-Bold,Yanone Kaffeesatz" font-weight="bold" font-size="150.0" fill="#FEFFFE" transform="matrix(1.00, 0.00, -0.00, -1.00, 679.4, 665.2)">t</text><text xml:space="preserve" font-family="YanoneKaffeesatz-Bold,Yanone Kaffeesatz" font-weight="bold" font-size="150.0" fill="#FEFFFE" transform="matrix(1.00, 0.00, -0.00, -1.00, 722.0, 665.2)">i</text><text xml:space="preserve" font-family="YanoneKaffeesatz-Bold,Yanone Kaffeesatz" font-weight="bold" font-size="150.0" fill="#FEFFFE" transform="matrix(1.00, 0.00, -0.00, -1.00, 749.0, 665.2)">o</text><text xml:space="preserve" font-family="YanoneKaffeesatz-Bold,Yanone Kaffeesatz" font-weight="bold" font-size="150.0" fill="#FEFFFE" transform="matrix(1.00, 0.00, -0.00, -1.00, 801.7, 665.2)">n</text><image xlink:href="../../2604AF98-497F-42C7-99AE-66895447FE4D/assets/0A59264EBDA199B98BCEF68A4D339D87.png" width="493.00" height="121.00" transform="matrix(1.00, 0.00, -0.00, -1.00, 309.0, 595.0)"></image><text xml:space="preserve" font-family="YanoneKaffeesatz-Bold,Yanone Kaffeesatz" font-weight="bold" font-size="150.0" fill="#FEFFFE" transform="matrix(1.00, 0.00, -0.00, -1.00, 309.0, 483.0)">I</text><text xml:space="preserve" font-family="YanoneKaffeesatz-Bold,Yanone Kaffeesatz" font-weight="bold" font-size="150.0" fill="#FEFFFE" transform="matrix(1.00, 0.00, -0.00, -1.00, 335.0, 483.0)">n</text><text xml:space="preserve" font-family="YanoneKaffeesatz-Bold,Yanone Kaffeesatz" font-weight="bold" font-size="150.0" fill="#FEFFFE" transform="matrix(1.00, 0.00, -0.00, -1.00, 389.1, 483.0)">h</text><text xml:space="preserve" font-family="YanoneKaffeesatz-Bold,Yanone Kaffeesatz" font-weight="bold" font-size="150.0" fill="#FEFFFE" transform="matrix(1.00, 0.00, -0.00, -1.00, 443.3, 483.0)">e</text><text xml:space="preserve" font-family="YanoneKaffeesatz-Bold,Yanone Kaffeesatz" font-weight="bold" font-size="150.0" fill="#FEFFFE" transform="matrix(1.00, 0.00, -0.00, -1.00, 495.2, 483.0)">r</text><text xml:space="preserve" font-family="YanoneKaffeesatz-Bold,Yanone Kaffeesatz" font-weight="bold" font-size="150.0" fill="#FEFFFE" transform="matrix(1.00, 0.00, -0.00, -1.00, 532.5, 483.0)">i</text><text xml:space="preserve" font-family="YanoneKaffeesatz-Bold,Yanone Kaffeesatz" font-weight="bold" font-size="150.0" fill="#FEFFFE" transform="matrix(1.00, 0.00, -0.00, -1.00, 559.5, 483.0)">t</text><text xml:space="preserve" font-family="YanoneKaffeesatz-Bold,Yanone Kaffeesatz" font-weight="bold" font-size="150.0" fill="#FEFFFE" transform="matrix(1.00, 0.00, -0.00, -1.00, 602.1, 483.0)">a</text><text xml:space="preserve" font-family="YanoneKaffeesatz-Bold,Yanone Kaffeesatz" font-weight="bold" font-size="150.0" fill="#FEFFFE" transform="matrix(1.00, 0.00, -0.00, -1.00, 652.8, 483.0)">n</text><text xml:space="preserve" font-family="YanoneKaffeesatz-Bold,Yanone Kaffeesatz" font-weight="bold" font-size="150.0" fill="#FEFFFE" transform="matrix(1.00, 0.00, -0.00, -1.00, 707.0, 483.0)">c</text><text xml:space="preserve" font-family="YanoneKaffeesatz-Bold,Yanone Kaffeesatz" font-weight="bold" font-size="150.0" fill="#FEFFFE" transform="matrix(1.00, 0.00, -0.00, -1.00, 748.4, 483.0)">e</text><image xlink:href="../../2604AF98-497F-42C7-99AE-66895447FE4D/assets/55D87616B841A75256E75CC3865425E1.png" width="612.00" height="149.00" transform="matrix(1.00, 0.00, -0.00, -1.00, 249.0, 413.0)"></image><text xml:space="preserve" font-family="YanoneKaffeesatz-Bold,Yanone Kaffeesatz" font-weight="bold" font-size="150.0" fill="#FF0000" transform="matrix(1.00, 0.00, -0.00, -1.00, 248.6, 301.2)">P</text><text xml:space="preserve" font-family="YanoneKaffeesatz-Bold,Yanone Kaffeesatz" font-weight="bold" font-size="150.0" fill="#FF0000" transform="matrix(1.00, 0.00, -0.00, -1.00, 298.7, 301.2)">o</text><text xml:space="preserve" font-family="YanoneKaffeesatz-Bold,Yanone Kaffeesatz" font-weight="bold" font-size="150.0" fill="#FF0000" transform="matrix(1.00, 0.00, -0.00, -1.00, 351.3, 301.2)">l</text><text xml:space="preserve" font-family="YanoneKaffeesatz-Bold,Yanone Kaffeesatz" font-weight="bold" font-size="150.0" fill="#FF0000" transform="matrix(1.00, 0.00, -0.00, -1.00, 378.0, 301.2)">y</text><text xml:space="preserve" font-family="YanoneKaffeesatz-Bold,Yanone Kaffeesatz" font-weight="bold" font-size="150.0" fill="#FF0000" transform="matrix(1.00, 0.00, -0.00, -1.00, 428.3, 301.2)">m</text><text xml:space="preserve" font-family="YanoneKaffeesatz-Bold,Yanone Kaffeesatz" font-weight="bold" font-size="150.0" fill="#FF0000" transform="matrix(1.00, 0.00, -0.00, -1.00, 507.8, 301.2)">o</text><text xml:space="preserve" font-family="YanoneKaffeesatz-Bold,Yanone Kaffeesatz" font-weight="bold" font-size="150.0" fill="#FF0000" transform="matrix(1.00, 0.00, -0.00, -1.00, 560.4, 301.2)">r</text><text xml:space="preserve" font-family="YanoneKaffeesatz-Bold,Yanone Kaffeesatz" font-weight="bold" font-size="150.0" fill="#FF0000" transform="matrix(1.00, 0.00, -0.00, -1.00, 597.8, 301.2)">p</text><text xml:space="preserve" font-family="YanoneKaffeesatz-Bold,Yanone Kaffeesatz" font-weight="bold" font-size="150.0" fill="#FF0000" transform="matrix(1.00, 0.00, -0.00, -1.00, 652.4, 301.2)">h</text><text xml:space="preserve" font-family="YanoneKaffeesatz-Bold,Yanone Kaffeesatz" font-weight="bold" font-size="150.0" fill="#FF0000" transform="matrix(1.00, 0.00, -0.00, -1.00, 706.5, 301.2)">i</text><text xml:space="preserve" font-family="YanoneKaffeesatz-Bold,Yanone Kaffeesatz" font-weight="bold" font-size="150.0" fill="#FF0000" transform="matrix(1.00, 0.00, -0.00, -1.00, 733.5, 301.2)">s</text><text xml:space="preserve" font-family="YanoneKaffeesatz-Bold,Yanone Kaffeesatz" font-weight="bold" font-size="150.0" fill="#FF0000" transform="matrix(1.00, 0.00, -0.00, -1.00, 781.2, 301.2)">m</text><image xlink:href="../../2604AF98-497F-42C7-99AE-66895447FE4D/assets/7946264BE51E63DED2E2850FBE4D6E54.jpeg" width="466.00" height="732.00" transform="matrix(1.29, 0.00, -0.00, -1.29, 1206.0, 1011.0)"></image><image xlink:href="../../2604AF98-497F-42C7-99AE-66895447FE4D/assets/B9F1978B3C2F146C95C716EC9EFAD5A9.png" width="530.00" height="130.00" transform="matrix(1.00, 0.00, -0.00, -1.00, 1243.0, 970.0)"></image><text xml:space="preserve" font-family="YanoneKaffeesatz-Bold,Yanone Kaffeesatz" font-weight="bold" font-size="150.0" fill="#E0E4CB" transform="matrix(1.00, 0.00, -0.00, -1.00, 1243.3, 848.9)">I</text><text xml:space="preserve" font-family="YanoneKaffeesatz-Bold,Yanone Kaffeesatz" font-weight="bold" font-size="150.0" fill="#E0E4CB" transform="matrix(1.00, 0.00, -0.00, -1.00, 1269.3, 848.9)"> </text><text xml:space="preserve" font-family="YanoneKaffeesatz-Bold,Yanone Kaffeesatz" font-weight="bold" font-size="150.0" fill="#E0E4CB" transform="matrix(1.00, 0.00, -0.00, -1.00, 1290.3, 848.9)">d</text><text xml:space="preserve" font-family="YanoneKaffeesatz-Bold,Yanone Kaffeesatz" font-weight="bold" font-size="150.0" fill="#E0E4CB" transform="matrix(1.00, 0.00, -0.00, -1.00, 1345.2, 848.9)">o</text><text xml:space="preserve" font-family="YanoneKaffeesatz-Bold,Yanone Kaffeesatz" font-weight="bold" font-size="150.0" fill="#E0E4CB" transform="matrix(1.00, 0.00, -0.00, -1.00, 1397.8, 848.9)">n</text><text xml:space="preserve" font-family="YanoneKaffeesatz-Bold,Yanone Kaffeesatz" font-weight="bold" font-size="150.0" fill="#E0E4CB" transform="matrix(1.00, 0.00, -0.00, -1.00, 1439.1, 848.9)">’</text><text xml:space="preserve" font-family="YanoneKaffeesatz-Bold,Yanone Kaffeesatz" font-weight="bold" font-size="150.0" fill="#E0E4CB" transform="matrix(1.00, 0.00, -0.00, -1.00, 1465.8, 848.9)">t</text><text xml:space="preserve" font-family="YanoneKaffeesatz-Bold,Yanone Kaffeesatz" font-weight="bold" font-size="150.0" fill="#E0E4CB" transform="matrix(1.00, 0.00, -0.00, -1.00, 1508.4, 848.9)"> </text><text xml:space="preserve" font-family="YanoneKaffeesatz-Bold,Yanone Kaffeesatz" font-weight="bold" font-size="150.0" fill="#E0E4CB" transform="matrix(1.00, 0.00, -0.00, -1.00, 1529.4, 848.9)">k</text><text xml:space="preserve" font-family="YanoneKaffeesatz-Bold,Yanone Kaffeesatz" font-weight="bold" font-size="150.0" fill="#E0E4CB" transform="matrix(1.00, 0.00, -0.00, -1.00, 1584.7, 848.9)">n</text><text xml:space="preserve" font-family="YanoneKaffeesatz-Bold,Yanone Kaffeesatz" font-weight="bold" font-size="150.0" fill="#E0E4CB" transform="matrix(1.00, 0.00, -0.00, -1.00, 1638.9, 848.9)">o</text><text xml:space="preserve" font-family="YanoneKaffeesatz-Bold,Yanone Kaffeesatz" font-weight="bold" font-size="150.0" fill="#E0E4CB" transform="matrix(1.00, 0.00, -0.00, -1.00, 1690.0, 848.9)">w</text><image xlink:href="../../2604AF98-497F-42C7-99AE-66895447FE4D/assets/5D348422555CF7CD0909950788F0A7AD.png" width="563.00" height="120.00" transform="matrix(1.00, 0.00, -0.00, -1.00, 1225.0, 218.0)"></image><text xml:space="preserve" font-family="YanoneKaffeesatz-Bold,Yanone Kaffeesatz" font-weight="bold" font-size="120.0" fill="#E0E4CB" transform="matrix(1.00, 0.00, -0.00, -1.00, 1225.7, 128.7)">p</text><text xml:space="preserve" font-family="YanoneKaffeesatz-Bold,Yanone Kaffeesatz" font-weight="bold" font-size="120.0" fill="#E0E4CB" transform="matrix(1.00, 0.00, -0.00, -1.00, 1269.4, 128.7)">o</text><text xml:space="preserve" font-family="YanoneKaffeesatz-Bold,Yanone Kaffeesatz" font-weight="bold" font-size="120.0" fill="#E0E4CB" transform="matrix(1.00, 0.00, -0.00, -1.00, 1311.5, 128.7)">l</text><text xml:space="preserve" font-family="YanoneKaffeesatz-Bold,Yanone Kaffeesatz" font-weight="bold" font-size="120.0" fill="#E0E4CB" transform="matrix(1.00, 0.00, -0.00, -1.00, 1332.9, 128.7)">y</text><text xml:space="preserve" font-family="YanoneKaffeesatz-Bold,Yanone Kaffeesatz" font-weight="bold" font-size="120.0" fill="#E0E4CB" transform="matrix(1.00, 0.00, -0.00, -1.00, 1373.1, 128.7)">m</text><text xml:space="preserve" font-family="YanoneKaffeesatz-Bold,Yanone Kaffeesatz" font-weight="bold" font-size="120.0" fill="#E0E4CB" transform="matrix(1.00, 0.00, -0.00, -1.00, 1436.7, 128.7)">o</text><text xml:space="preserve" font-family="YanoneKaffeesatz-Bold,Yanone Kaffeesatz" font-weight="bold" font-size="120.0" fill="#E0E4CB" transform="matrix(1.00, 0.00, -0.00, -1.00, 1478.8, 128.7)">r</text><text xml:space="preserve" font-family="YanoneKaffeesatz-Bold,Yanone Kaffeesatz" font-weight="bold" font-size="120.0" fill="#E0E4CB" transform="matrix(1.00, 0.00, -0.00, -1.00, 1508.7, 128.7)">p</text><text xml:space="preserve" font-family="YanoneKaffeesatz-Bold,Yanone Kaffeesatz" font-weight="bold" font-size="120.0" fill="#E0E4CB" transform="matrix(1.00, 0.00, -0.00, -1.00, 1552.4, 128.7)">h</text><text xml:space="preserve" font-family="YanoneKaffeesatz-Bold,Yanone Kaffeesatz" font-weight="bold" font-size="120.0" fill="#E0E4CB" transform="matrix(1.00, 0.00, -0.00, -1.00, 1595.7, 128.7)">i</text><text xml:space="preserve" font-family="YanoneKaffeesatz-Bold,Yanone Kaffeesatz" font-weight="bold" font-size="120.0" fill="#E0E4CB" transform="matrix(1.00, 0.00, -0.00, -1.00, 1617.3, 128.7)">s</text><text xml:space="preserve" font-family="YanoneKaffeesatz-Bold,Yanone Kaffeesatz" font-weight="bold" font-size="120.0" fill="#E0E4CB" transform="matrix(1.00, 0.00, -0.00, -1.00, 1655.5, 128.7)">m</text><text xml:space="preserve" font-family="YanoneKaffeesatz-Bold,Yanone Kaffeesatz" font-weight="bold" font-size="120.0" fill="#E0E4CB" transform="matrix(1.00, 0.00, -0.00, -1.00, 1719.1, 128.7)">…</text></g></svg>