<?xml version="1.0" encoding="UTF-8" standalone="no"?><svg xmlns="http://www.w3.org/2000/svg" xmlns:xlink="http://www.w3.org/1999/xlink" clip-rule="evenodd" stroke-miterlimit="10" viewBox="0 0 1920 1080"><desc>SVG generated by Keynote</desc><defs></defs><g transform="matrix(1.00, 0.00, -0.00, -1.00, 0.0, 1080.0)"><g><clipPath id="clip0x7fec7abbff60"><path d="M 0.0 1080.0 L 1920.0 1080.0 L 1920.0 0.0 L 0.0 0.0 Z M 0.0 1080.0 "></path></clipPath><g clip-path="url(#clip0x7fec7abbff60)"><image xlink:href="../../A5D7B27F-ECCD-4C51-9075-135B713588B1/assets/0F43D2572F34A9AFB59E4515ED9A1249.jpeg" width="3840.00" height="2160.00" transform="matrix(0.50, 0.00, -0.00, -0.50, 0.0, 1080.0)"></image></g></g><image xlink:href="../../A8DD696F-2B2B-43F8-812D-761DE3BC0C46/assets/BFBF9D7419B12C62A7EDAB42BEAF0B12.png" width="286.00" height="117.00" transform="matrix(1.00, 0.00, -0.00, -1.00, 817.0, 940.0)"></image><text xml:space="preserve" font-family="YanoneKaffeesatz-Bold,Yanone Kaffeesatz" font-weight="bold" font-size="150.0" fill="#FC6900" transform="matrix(1.00, 0.00, -0.00, -1.00, 819.3, 832.4)">S</text><text xml:space="preserve" font-family="YanoneKaffeesatz-Bold,Yanone Kaffeesatz" font-weight="bold" font-size="150.0" fill="#FC6900" transform="matrix(1.00, 0.00, -0.00, -1.00, 870.9, 832.4)">e</text><text xml:space="preserve" font-family="YanoneKaffeesatz-Bold,Yanone Kaffeesatz" font-weight="bold" font-size="150.0" fill="#FC6900" transform="matrix(1.00, 0.00, -0.00, -1.00, 922.8, 832.4)">a</text><text xml:space="preserve" font-family="YanoneKaffeesatz-Bold,Yanone Kaffeesatz" font-weight="bold" font-size="150.0" fill="#FC6900" transform="matrix(1.00, 0.00, -0.00, -1.00, 973.5, 832.4)">m</text><text xml:space="preserve" font-family="YanoneKaffeesatz-Bold,Yanone Kaffeesatz" font-weight="bold" font-size="150.0" fill="#FC6900" transform="matrix(1.00, 0.00, -0.00, -1.00, 1053.0, 832.4)">s</text><path d="M 100.0 656.0 L 100.0 751.0 C 100.0 759.2 106.7 766.0 115.0 766.0 L 545.0 766.0 C 553.3 766.0 560.0 759.2 560.0 751.0 L 560.0 656.0 C 560.0 647.7 553.3 641.0 545.0 641.0 L 115.0 641.0 C 106.7 641.0 100.0 647.7 100.0 656.0 Z M 100.0 656.0 " fill="#64D1E8"></path><image xlink:href="../../A8DD696F-2B2B-43F8-812D-761DE3BC0C46/assets/D9B0C95284EB1C38DACC4CAAF3522C8A.png" width="410.00" height="101.00" transform="matrix(1.00, 0.00, -0.00, -1.00, 126.0, 740.0)"></image><g><clipPath id="clip0x7fec7a8dab10"><path d="M 82.1 609.9 L 577.9 609.9 L 577.9 791.9 L 82.1 791.9 Z M 82.1 609.9 "></path></clipPath><g clip-path="url(#clip0x7fec7a8dab10)"><text xml:space="preserve" font-family="YanoneKaffeesatz-Bold,Yanone Kaffeesatz" font-weight="bold" font-size="100.0" fill="#FEFFFE" transform="matrix(1.00, 0.00, -0.00, -1.00, 127.5, 665.9)">P</text><text xml:space="preserve" font-family="YanoneKaffeesatz-Bold,Yanone Kaffeesatz" font-weight="bold" font-size="100.0" fill="#FEFFFE" transform="matrix(1.00, 0.00, -0.00, -1.00, 162.4, 665.9)">r</text><text xml:space="preserve" font-family="YanoneKaffeesatz-Bold,Yanone Kaffeesatz" font-weight="bold" font-size="100.0" fill="#FEFFFE" transform="matrix(1.00, 0.00, -0.00, -1.00, 185.3, 665.9)">e</text><text xml:space="preserve" font-family="YanoneKaffeesatz-Bold,Yanone Kaffeesatz" font-weight="bold" font-size="100.0" fill="#FEFFFE" transform="matrix(1.00, 0.00, -0.00, -1.00, 219.9, 665.9)">p</text><text xml:space="preserve" font-family="YanoneKaffeesatz-Bold,Yanone Kaffeesatz" font-weight="bold" font-size="100.0" fill="#FEFFFE" transform="matrix(1.00, 0.00, -0.00, -1.00, 256.4, 665.9)">r</text><text xml:space="preserve" font-family="YanoneKaffeesatz-Bold,Yanone Kaffeesatz" font-weight="bold" font-size="100.0" fill="#FEFFFE" transform="matrix(1.00, 0.00, -0.00, -1.00, 279.2, 665.9)">o</text><text xml:space="preserve" font-family="YanoneKaffeesatz-Bold,Yanone Kaffeesatz" font-weight="bold" font-size="100.0" fill="#FEFFFE" transform="matrix(1.00, 0.00, -0.00, -1.00, 314.4, 665.9)">c</text><text xml:space="preserve" font-family="YanoneKaffeesatz-Bold,Yanone Kaffeesatz" font-weight="bold" font-size="100.0" fill="#FEFFFE" transform="matrix(1.00, 0.00, -0.00, -1.00, 341.9, 665.9)">e</text><text xml:space="preserve" font-family="YanoneKaffeesatz-Bold,Yanone Kaffeesatz" font-weight="bold" font-size="100.0" fill="#FEFFFE" transform="matrix(1.00, 0.00, -0.00, -1.00, 376.6, 665.9)">s</text><text xml:space="preserve" font-family="YanoneKaffeesatz-Bold,Yanone Kaffeesatz" font-weight="bold" font-size="100.0" fill="#FEFFFE" transform="matrix(1.00, 0.00, -0.00, -1.00, 408.4, 665.9)">s</text><text xml:space="preserve" font-family="YanoneKaffeesatz-Bold,Yanone Kaffeesatz" font-weight="bold" font-size="100.0" fill="#FEFFFE" transform="matrix(1.00, 0.00, -0.00, -1.00, 440.2, 665.9)">i</text><text xml:space="preserve" font-family="YanoneKaffeesatz-Bold,Yanone Kaffeesatz" font-weight="bold" font-size="100.0" fill="#FEFFFE" transform="matrix(1.00, 0.00, -0.00, -1.00, 458.2, 665.9)">n</text><text xml:space="preserve" font-family="YanoneKaffeesatz-Bold,Yanone Kaffeesatz" font-weight="bold" font-size="100.0" fill="#FEFFFE" transform="matrix(1.00, 0.00, -0.00, -1.00, 494.3, 665.9)">g</text></g></g><path d="M 1360.0 656.0 L 1360.0 751.0 C 1360.0 759.2 1366.7 766.0 1375.0 766.0 L 1805.0 766.0 C 1813.3 766.0 1820.0 759.2 1820.0 751.0 L 1820.0 656.0 C 1820.0 647.7 1813.3 641.0 1805.0 641.0 L 1375.0 641.0 C 1366.7 641.0 1360.0 647.7 1360.0 656.0 Z M 1360.0 656.0 " fill="#64D1E8"></path><image xlink:href="../../A8DD696F-2B2B-43F8-812D-761DE3BC0C46/assets/A84D32E5800D2BABCFCB8DAD54CC9469.png" width="125.00" height="83.00" transform="matrix(1.00, 0.00, -0.00, -1.00, 1528.0, 741.0)"></image><g><clipPath id="clip0x7fec7acb9990"><path d="M 1342.1 609.9 L 1837.9 609.9 L 1837.9 791.9 L 1342.1 791.9 Z M 1342.1 609.9 "></path></clipPath><g clip-path="url(#clip0x7fec7acb9990)"><text xml:space="preserve" font-family="YanoneKaffeesatz-Bold,Yanone Kaffeesatz" font-weight="bold" font-size="100.0" fill="#FEFFFE" transform="matrix(1.00, 0.00, -0.00, -1.00, 1529.4, 665.9)">L</text><text xml:space="preserve" font-family="YanoneKaffeesatz-Bold,Yanone Kaffeesatz" font-weight="bold" font-size="100.0" fill="#FEFFFE" transform="matrix(1.00, 0.00, -0.00, -1.00, 1559.7, 665.9)">i</text><text xml:space="preserve" font-family="YanoneKaffeesatz-Bold,Yanone Kaffeesatz" font-weight="bold" font-size="100.0" fill="#FEFFFE" transform="matrix(1.00, 0.00, -0.00, -1.00, 1577.7, 665.9)">n</text><text xml:space="preserve" font-family="YanoneKaffeesatz-Bold,Yanone Kaffeesatz" font-weight="bold" font-size="100.0" fill="#FEFFFE" transform="matrix(1.00, 0.00, -0.00, -1.00, 1613.8, 665.9)">k</text></g></g><path d="M 742.8 656.0 L 743.0 751.0 C 743.0 759.2 749.5 766.0 757.8 766.0 L 1187.8 766.0 C 1196.0 766.0 1203.0 759.2 1203.0 751.0 L 1203.0 656.0 C 1203.0 647.7 1196.0 641.0 1187.8 641.0 L 757.8 641.0 C 749.5 641.0 742.8 647.7 742.8 656.0 Z M 742.8 656.0 " fill="#64D1E8"></path><image xlink:href="../../A8DD696F-2B2B-43F8-812D-761DE3BC0C46/assets/97BCA3F2A51D886D7709BEDE3AA5048E.png" width="194.00" height="102.00" transform="matrix(1.00, 0.00, -0.00, -1.00, 876.0, 741.0)"></image><g><clipPath id="clip0x7fec7acbf550"><path d="M 724.8 609.9 L 1220.7 609.9 L 1220.7 791.9 L 724.8 791.9 Z M 724.8 609.9 "></path></clipPath><g clip-path="url(#clip0x7fec7acbf550)"><text xml:space="preserve" font-family="YanoneKaffeesatz-Bold,Yanone Kaffeesatz" font-weight="bold" font-size="100.0" fill="#FEFFFE" transform="matrix(1.00, 0.00, -0.00, -1.00, 878.3, 665.9)">O</text><text xml:space="preserve" font-family="YanoneKaffeesatz-Bold,Yanone Kaffeesatz" font-weight="bold" font-size="100.0" fill="#FEFFFE" transform="matrix(1.00, 0.00, -0.00, -1.00, 919.1, 665.9)">b</text><text xml:space="preserve" font-family="YanoneKaffeesatz-Bold,Yanone Kaffeesatz" font-weight="bold" font-size="100.0" fill="#FEFFFE" transform="matrix(1.00, 0.00, -0.00, -1.00, 955.3, 665.9)">j</text><text xml:space="preserve" font-family="YanoneKaffeesatz-Bold,Yanone Kaffeesatz" font-weight="bold" font-size="100.0" fill="#FEFFFE" transform="matrix(1.00, 0.00, -0.00, -1.00, 974.0, 665.9)">e</text><text xml:space="preserve" font-family="YanoneKaffeesatz-Bold,Yanone Kaffeesatz" font-weight="bold" font-size="100.0" fill="#FEFFFE" transform="matrix(1.00, 0.00, -0.00, -1.00, 1008.6, 665.9)">c</text><text xml:space="preserve" font-family="YanoneKaffeesatz-Bold,Yanone Kaffeesatz" font-weight="bold" font-size="100.0" fill="#FEFFFE" transform="matrix(1.00, 0.00, -0.00, -1.00, 1038.8, 665.9)">t</text></g></g><g><clipPath id="clip0x7fec7acc1f40"><path d="M 271.5 660.5 L 372.9 761.9 L 388.5 746.4 L 287.1 645.0 Z M 271.5 660.5 "></path></clipPath><g clip-path="url(#clip0x7fec7acc1f40)"><path d="M 0.0 0.0 L 141.4 0.0 " fill="none" stroke="#FF0000" stroke-width="20.00" transform="matrix(0.71, 0.71, 0.71, -0.71, 280.0, 653.5)"></path></g></g><g><clipPath id="clip0x7fec7acc3080"><path d="M 287.1 761.9 L 388.5 660.5 L 372.9 645.0 L 271.5 746.4 Z M 287.1 761.9 "></path></clipPath><g clip-path="url(#clip0x7fec7acc3080)"><path d="M 0.0 0.0 L 141.4 0.0 " fill="none" stroke="#FF0000" stroke-width="20.00" transform="matrix(0.71, -0.71, -0.71, -0.71, 280.0, 753.5)"></path></g></g><g><clipPath id="clip0x7fec7acc40f0"><path d="M 1531.5 660.5 L 1632.9 761.9 L 1648.5 746.4 L 1547.1 645.0 Z M 1531.5 660.5 "></path></clipPath><g clip-path="url(#clip0x7fec7acc40f0)"><path d="M 0.0 0.0 L 141.4 0.0 " fill="none" stroke="#FF0000" stroke-width="20.00" transform="matrix(0.71, 0.71, 0.71, -0.71, 1540.0, 653.5)"></path></g></g><g><clipPath id="clip0x7fec7acc50e0"><path d="M 1547.1 761.9 L 1648.5 660.5 L 1632.9 645.0 L 1531.5 746.4 Z M 1547.1 761.9 "></path></clipPath><g clip-path="url(#clip0x7fec7acc50e0)"><path d="M 0.0 0.0 L 141.4 0.0 " fill="none" stroke="#FF0000" stroke-width="20.00" transform="matrix(0.71, -0.71, -0.71, -0.71, 1540.0, 753.5)"></path></g></g><g><clipPath id="clip0x7fec7acc6120"><path d="M 421.0 428.3 L 883.0 428.3 L 883.0 555.3 L 421.0 555.3 Z M 421.0 428.3 "></path></clipPath><g clip-path="url(#clip0x7fec7acc6120)"><path d="M 422.0 444.3 L 422.0 539.3 C 422.0 547.5 428.7 554.0 437.0 554.0 L 867.0 554.0 C 875.3 554.0 882.0 547.5 882.0 539.3 L 882.0 444.3 C 882.0 436.0 875.3 429.0 867.0 429.0 L 437.0 429.0 C 428.7 429.0 422.0 436.0 422.0 444.3 Z M 422.0 444.3 " fill="#64D1E8"></path></g></g><image xlink:href="../../F8C57C09-09E7-4E66-A4E9-EB90FB1159CD/assets/A899E7C693873BF87BAFC7547A7ACC16.png" width="147.00" height="83.00" transform="matrix(1.00, 0.00, -0.00, -1.00, 578.0, 529.0)"></image><g><clipPath id="clip0x7fec7acc91e0"><path d="M 404.1 398.2 L 899.9 398.2 L 899.9 580.2 L 404.1 580.2 Z M 404.1 398.2 "></path></clipPath><g clip-path="url(#clip0x7fec7acc91e0)"><text xml:space="preserve" font-family="YanoneKaffeesatz-Bold,Yanone Kaffeesatz" font-weight="bold" font-size="100.0" fill="#FEFFFE" transform="matrix(1.00, 0.00, -0.00, -1.00, 579.9, 454.2)">L</text><text xml:space="preserve" font-family="YanoneKaffeesatz-Bold,Yanone Kaffeesatz" font-weight="bold" font-size="100.0" fill="#FEFFFE" transform="matrix(1.00, 0.00, -0.00, -1.00, 608.2, 454.2)">o</text><text xml:space="preserve" font-family="YanoneKaffeesatz-Bold,Yanone Kaffeesatz" font-weight="bold" font-size="100.0" fill="#FEFFFE" transform="matrix(1.00, 0.00, -0.00, -1.00, 643.3, 454.2)">c</text><text xml:space="preserve" font-family="YanoneKaffeesatz-Bold,Yanone Kaffeesatz" font-weight="bold" font-size="100.0" fill="#FEFFFE" transform="matrix(1.00, 0.00, -0.00, -1.00, 672.5, 454.2)">a</text><text xml:space="preserve" font-family="YanoneKaffeesatz-Bold,Yanone Kaffeesatz" font-weight="bold" font-size="100.0" fill="#FEFFFE" transform="matrix(1.00, 0.00, -0.00, -1.00, 706.3, 454.2)">l</text></g></g><g><clipPath id="clip0x7fec7accb5e0"><path d="M 1063.0 428.3 L 1525.0 428.3 L 1525.0 555.3 L 1063.0 555.3 Z M 1063.0 428.3 "></path></clipPath><g clip-path="url(#clip0x7fec7accb5e0)"><path d="M 1064.0 444.3 L 1064.0 539.3 C 1064.0 547.5 1070.7 554.0 1079.0 554.0 L 1509.0 554.0 C 1517.3 554.0 1524.0 547.5 1524.0 539.3 L 1524.0 444.3 C 1524.0 436.0 1517.3 429.0 1509.0 429.0 L 1079.0 429.0 C 1070.7 429.0 1064.0 436.0 1064.0 444.3 Z M 1064.0 444.3 " fill="#64D1E8"></path></g></g><image xlink:href="../../F8C57C09-09E7-4E66-A4E9-EB90FB1159CD/assets/154D81FD749C25DFDCC2DB0CA12DBB14.png" width="182.00" height="83.00" transform="matrix(1.00, 0.00, -0.00, -1.00, 1202.0, 529.0)"></image><g><clipPath id="clip0x7fec7acce6f0"><path d="M 1046.1 398.2 L 1541.9 398.2 L 1541.9 580.2 L 1046.1 580.2 Z M 1046.1 398.2 "></path></clipPath><g clip-path="url(#clip0x7fec7acce6f0)"><text xml:space="preserve" font-family="YanoneKaffeesatz-Bold,Yanone Kaffeesatz" font-weight="bold" font-size="100.0" fill="#FEFFFE" transform="matrix(1.00, 0.00, -0.00, -1.00, 1205.2, 454.2)">G</text><text xml:space="preserve" font-family="YanoneKaffeesatz-Bold,Yanone Kaffeesatz" font-weight="bold" font-size="100.0" fill="#FEFFFE" transform="matrix(1.00, 0.00, -0.00, -1.00, 1242.1, 454.2)">l</text><text xml:space="preserve" font-family="YanoneKaffeesatz-Bold,Yanone Kaffeesatz" font-weight="bold" font-size="100.0" fill="#FEFFFE" transform="matrix(1.00, 0.00, -0.00, -1.00, 1259.9, 454.2)">o</text><text xml:space="preserve" font-family="YanoneKaffeesatz-Bold,Yanone Kaffeesatz" font-weight="bold" font-size="100.0" fill="#FEFFFE" transform="matrix(1.00, 0.00, -0.00, -1.00, 1295.0, 454.2)">b</text><text xml:space="preserve" font-family="YanoneKaffeesatz-Bold,Yanone Kaffeesatz" font-weight="bold" font-size="100.0" fill="#FEFFFE" transform="matrix(1.00, 0.00, -0.00, -1.00, 1331.2, 454.2)">a</text><text xml:space="preserve" font-family="YanoneKaffeesatz-Bold,Yanone Kaffeesatz" font-weight="bold" font-size="100.0" fill="#FEFFFE" transform="matrix(1.00, 0.00, -0.00, -1.00, 1365.0, 454.2)">l</text></g></g><g><clipPath id="clip0x7fec7acd10d0"><path d="M 1033.0 216.6 L 1285.0 216.6 L 1285.0 343.6 L 1033.0 343.6 Z M 1033.0 216.6 "></path></clipPath><g clip-path="url(#clip0x7fec7acd10d0)"><path d="M 1034.0 232.6 L 1034.0 327.6 C 1034.0 335.9 1040.7 343.0 1049.0 343.0 L 1269.0 343.0 C 1277.3 343.0 1284.0 335.9 1284.0 327.6 L 1284.0 232.6 C 1284.0 224.3 1277.3 218.0 1269.0 218.0 L 1049.0 218.0 C 1040.7 218.0 1034.0 224.3 1034.0 232.6 Z M 1034.0 232.6 " fill="#64D1E8"></path></g></g><image xlink:href="../../F8C57C09-09E7-4E66-A4E9-EB90FB1159CD/assets/15CCEACDAF9DC7F3A1DA00D77E9FF05E.png" width="194.00" height="102.00" transform="matrix(1.00, 0.00, -0.00, -1.00, 1062.0, 317.0)"></image><g><clipPath id="clip0x7fec7acd4280"><path d="M 1016.1 186.5 L 1301.9 186.5 L 1301.9 368.5 L 1016.1 368.5 Z M 1016.1 186.5 "></path></clipPath><g clip-path="url(#clip0x7fec7acd4280)"><text xml:space="preserve" font-family="YanoneKaffeesatz-Bold,Yanone Kaffeesatz" font-weight="bold" font-size="100.0" fill="#FEFFFE" transform="matrix(1.00, 0.00, -0.00, -1.00, 1064.5, 242.5)">O</text><text xml:space="preserve" font-family="YanoneKaffeesatz-Bold,Yanone Kaffeesatz" font-weight="bold" font-size="100.0" fill="#FEFFFE" transform="matrix(1.00, 0.00, -0.00, -1.00, 1105.3, 242.5)">b</text><text xml:space="preserve" font-family="YanoneKaffeesatz-Bold,Yanone Kaffeesatz" font-weight="bold" font-size="100.0" fill="#FEFFFE" transform="matrix(1.00, 0.00, -0.00, -1.00, 1141.5, 242.5)">j</text><text xml:space="preserve" font-family="YanoneKaffeesatz-Bold,Yanone Kaffeesatz" font-weight="bold" font-size="100.0" fill="#FEFFFE" transform="matrix(1.00, 0.00, -0.00, -1.00, 1160.2, 242.5)">e</text><text xml:space="preserve" font-family="YanoneKaffeesatz-Bold,Yanone Kaffeesatz" font-weight="bold" font-size="100.0" fill="#FEFFFE" transform="matrix(1.00, 0.00, -0.00, -1.00, 1194.8, 242.5)">c</text><text xml:space="preserve" font-family="YanoneKaffeesatz-Bold,Yanone Kaffeesatz" font-weight="bold" font-size="100.0" fill="#FEFFFE" transform="matrix(1.00, 0.00, -0.00, -1.00, 1225.0, 242.5)">t</text></g></g><g><clipPath id="clip0x7fec7acd6c20"><path d="M 1303.0 216.6 L 1555.0 216.6 L 1555.0 343.6 L 1303.0 343.6 Z M 1303.0 216.6 "></path></clipPath><g clip-path="url(#clip0x7fec7acd6c20)"><path d="M 1304.0 232.6 L 1304.0 327.6 C 1304.0 335.9 1310.7 343.0 1319.0 343.0 L 1539.0 343.0 C 1547.3 343.0 1554.0 335.9 1554.0 327.6 L 1554.0 232.6 C 1554.0 224.3 1547.3 218.0 1539.0 218.0 L 1319.0 218.0 C 1310.7 218.0 1304.0 224.3 1304.0 232.6 Z M 1304.0 232.6 " fill="#64D1E8"></path></g></g><image xlink:href="../../F8C57C09-09E7-4E66-A4E9-EB90FB1159CD/assets/DB9810D5201DFD885DBEC1962C0836B2.png" width="221.00" height="83.00" transform="matrix(1.00, 0.00, -0.00, -1.00, 1318.0, 317.0)"></image><g><clipPath id="clip0x7fec7acd9aa0"><path d="M 1286.1 186.5 L 1571.9 186.5 L 1571.9 368.5 L 1286.1 368.5 Z M 1286.1 186.5 "></path></clipPath><g clip-path="url(#clip0x7fec7acd9aa0)"><text xml:space="preserve" font-family="YanoneKaffeesatz-Bold,Yanone Kaffeesatz" font-weight="bold" font-size="100.0" fill="#FEFFFE" transform="matrix(1.00, 0.00, -0.00, -1.00, 1319.8, 242.5)">M</text><text xml:space="preserve" font-family="YanoneKaffeesatz-Bold,Yanone Kaffeesatz" font-weight="bold" font-size="100.0" fill="#FEFFFE" transform="matrix(1.00, 0.00, -0.00, -1.00, 1367.5, 242.5)">e</text><text xml:space="preserve" font-family="YanoneKaffeesatz-Bold,Yanone Kaffeesatz" font-weight="bold" font-size="100.0" fill="#FEFFFE" transform="matrix(1.00, 0.00, -0.00, -1.00, 1402.0, 242.5)">t</text><text xml:space="preserve" font-family="YanoneKaffeesatz-Bold,Yanone Kaffeesatz" font-weight="bold" font-size="100.0" fill="#FEFFFE" transform="matrix(1.00, 0.00, -0.00, -1.00, 1430.5, 242.5)">h</text><text xml:space="preserve" font-family="YanoneKaffeesatz-Bold,Yanone Kaffeesatz" font-weight="bold" font-size="100.0" fill="#FEFFFE" transform="matrix(1.00, 0.00, -0.00, -1.00, 1466.5, 242.5)">o</text><text xml:space="preserve" font-family="YanoneKaffeesatz-Bold,Yanone Kaffeesatz" font-weight="bold" font-size="100.0" fill="#FEFFFE" transform="matrix(1.00, 0.00, -0.00, -1.00, 1501.7, 242.5)">d</text></g></g><g><clipPath id="clip0x7fec7acdc7f0"><path d="M 763.2 628.0 L 671.9 536.7 L 643.3 565.2 L 734.7 656.6 Z M 763.2 628.0 "></path></clipPath><g clip-path="url(#clip0x7fec7acdc7f0)"><path d="M 0.0 0.0 L 88.8 0.0 L 93.8 0.0 " fill="none" stroke="#FEFFFE" stroke-width="10.00" transform="matrix(-0.71, -0.71, -0.71, 0.71, 748.2, 641.6)"></path><path d="M 671.9 592.4 L 658.3 551.6 L 699.0 565.2 Z M 671.9 592.4 " fill="#FEFFFE"></path></g></g><g><clipPath id="clip0x7fec7acdddb0"><path d="M 1217.2 418.3 L 1125.8 326.9 L 1097.3 355.5 L 1188.6 446.9 Z M 1217.2 418.3 "></path></clipPath><g clip-path="url(#clip0x7fec7acdddb0)"><path d="M 0.0 0.0 L 88.8 0.0 L 93.8 0.0 " fill="none" stroke="#FEFFFE" stroke-width="10.00" transform="matrix(-0.71, -0.71, -0.71, 0.71, 1202.2, 431.9)"></path><path d="M 1125.8 382.7 L 1112.3 341.9 L 1153.0 355.5 Z M 1125.8 382.7 " fill="#FEFFFE"></path></g></g><g><clipPath id="clip0x7fec7acdf370"><path d="M 1210.8 655.8 L 1302.1 564.4 L 1273.6 535.9 L 1182.2 627.2 Z M 1210.8 655.8 "></path></clipPath><g clip-path="url(#clip0x7fec7acdf370)"><path d="M 0.0 0.0 L 88.8 0.0 L 93.8 0.0 " fill="none" stroke="#FEFFFE" stroke-width="10.00" transform="matrix(0.71, -0.71, -0.71, -0.71, 1197.2, 640.8)"></path><path d="M 1246.4 564.4 L 1287.2 550.9 L 1273.6 591.6 Z M 1246.4 564.4 " fill="#FEFFFE"></path></g></g><g><clipPath id="clip0x7fec7ace0930"><path d="M 1399.4 446.9 L 1490.7 355.5 L 1462.2 326.9 L 1370.8 418.3 Z M 1399.4 446.9 "></path></clipPath><g clip-path="url(#clip0x7fec7ace0930)"><path d="M 0.0 0.0 L 88.8 0.0 L 93.8 0.0 " fill="none" stroke="#FEFFFE" stroke-width="10.00" transform="matrix(0.71, -0.71, -0.71, -0.71, 1385.8, 431.9)"></path><path d="M 1435.0 355.5 L 1475.7 341.9 L 1462.2 382.7 Z M 1435.0 355.5 " fill="#FEFFFE"></path></g></g><g><clipPath id="clip0x7fec7ace1ef0"><path d="M 391.0 216.5 L 643.0 216.5 L 643.0 343.5 L 391.0 343.5 Z M 391.0 216.5 "></path></clipPath><g clip-path="url(#clip0x7fec7ace1ef0)"><path d="M 392.0 232.5 L 392.0 327.5 C 392.0 335.8 398.7 342.0 407.0 342.0 L 627.0 342.0 C 635.3 342.0 642.0 335.8 642.0 327.5 L 642.0 232.5 C 642.0 224.2 635.3 217.0 627.0 217.0 L 407.0 217.0 C 398.7 217.0 392.0 224.2 392.0 232.5 Z M 392.0 232.5 " fill="#64D1E8"></path></g></g><image xlink:href="../../F8C57C09-09E7-4E66-A4E9-EB90FB1159CD/assets/4BD430455787907BA4F64E7296C62864.png" width="194.00" height="102.00" transform="matrix(1.00, 0.00, -0.00, -1.00, 420.0, 317.0)"></image><g><clipPath id="clip0x7fec7a8e32e0"><path d="M 374.1 186.5 L 659.9 186.5 L 659.9 368.4 L 374.1 368.4 Z M 374.1 186.5 "></path></clipPath><g clip-path="url(#clip0x7fec7a8e32e0)"><text xml:space="preserve" font-family="YanoneKaffeesatz-Bold,Yanone Kaffeesatz" font-weight="bold" font-size="100.0" fill="#FEFFFE" transform="matrix(1.00, 0.00, -0.00, -1.00, 422.6, 242.4)">O</text><text xml:space="preserve" font-family="YanoneKaffeesatz-Bold,Yanone Kaffeesatz" font-weight="bold" font-size="100.0" fill="#FEFFFE" transform="matrix(1.00, 0.00, -0.00, -1.00, 463.4, 242.4)">b</text><text xml:space="preserve" font-family="YanoneKaffeesatz-Bold,Yanone Kaffeesatz" font-weight="bold" font-size="100.0" fill="#FEFFFE" transform="matrix(1.00, 0.00, -0.00, -1.00, 499.6, 242.4)">j</text><text xml:space="preserve" font-family="YanoneKaffeesatz-Bold,Yanone Kaffeesatz" font-weight="bold" font-size="100.0" fill="#FEFFFE" transform="matrix(1.00, 0.00, -0.00, -1.00, 518.2, 242.4)">e</text><text xml:space="preserve" font-family="YanoneKaffeesatz-Bold,Yanone Kaffeesatz" font-weight="bold" font-size="100.0" fill="#FEFFFE" transform="matrix(1.00, 0.00, -0.00, -1.00, 552.9, 242.4)">c</text><text xml:space="preserve" font-family="YanoneKaffeesatz-Bold,Yanone Kaffeesatz" font-weight="bold" font-size="100.0" fill="#FEFFFE" transform="matrix(1.00, 0.00, -0.00, -1.00, 583.0, 242.4)">t</text></g></g><g><clipPath id="clip0x7fec7a8e67b0"><path d="M 661.0 216.5 L 913.0 216.5 L 913.0 343.5 L 661.0 343.5 Z M 661.0 216.5 "></path></clipPath><g clip-path="url(#clip0x7fec7a8e67b0)"><path d="M 662.0 232.5 L 662.0 327.5 C 662.0 335.8 668.7 342.0 677.0 342.0 L 897.0 342.0 C 905.3 342.0 912.0 335.8 912.0 327.5 L 912.0 232.5 C 912.0 224.2 905.3 217.0 897.0 217.0 L 677.0 217.0 C 668.7 217.0 662.0 224.2 662.0 232.5 Z M 662.0 232.5 " fill="#64D1E8"></path></g></g><image xlink:href="../../F8C57C09-09E7-4E66-A4E9-EB90FB1159CD/assets/B5361FB71CE0F7C9980243B728D78A35.png" width="221.00" height="83.00" transform="matrix(1.00, 0.00, -0.00, -1.00, 676.0, 317.0)"></image><g><clipPath id="clip0x7fec7ace4e40"><path d="M 644.1 186.5 L 929.9 186.5 L 929.9 368.4 L 644.1 368.4 Z M 644.1 186.5 "></path></clipPath><g clip-path="url(#clip0x7fec7ace4e40)"><text xml:space="preserve" font-family="YanoneKaffeesatz-Bold,Yanone Kaffeesatz" font-weight="bold" font-size="100.0" fill="#FEFFFE" transform="matrix(1.00, 0.00, -0.00, -1.00, 677.8, 242.4)">M</text><text xml:space="preserve" font-family="YanoneKaffeesatz-Bold,Yanone Kaffeesatz" font-weight="bold" font-size="100.0" fill="#FEFFFE" transform="matrix(1.00, 0.00, -0.00, -1.00, 725.5, 242.4)">e</text><text xml:space="preserve" font-family="YanoneKaffeesatz-Bold,Yanone Kaffeesatz" font-weight="bold" font-size="100.0" fill="#FEFFFE" transform="matrix(1.00, 0.00, -0.00, -1.00, 760.0, 242.4)">t</text><text xml:space="preserve" font-family="YanoneKaffeesatz-Bold,Yanone Kaffeesatz" font-weight="bold" font-size="100.0" fill="#FEFFFE" transform="matrix(1.00, 0.00, -0.00, -1.00, 788.5, 242.4)">h</text><text xml:space="preserve" font-family="YanoneKaffeesatz-Bold,Yanone Kaffeesatz" font-weight="bold" font-size="100.0" fill="#FEFFFE" transform="matrix(1.00, 0.00, -0.00, -1.00, 824.5, 242.4)">o</text><text xml:space="preserve" font-family="YanoneKaffeesatz-Bold,Yanone Kaffeesatz" font-weight="bold" font-size="100.0" fill="#FEFFFE" transform="matrix(1.00, 0.00, -0.00, -1.00, 859.6, 242.4)">d</text></g></g><g><clipPath id="clip0x7fec7ace7770"><path d="M 575.2 418.2 L 483.8 326.9 L 455.3 355.4 L 546.6 446.8 Z M 575.2 418.2 "></path></clipPath><g clip-path="url(#clip0x7fec7ace7770)"><path d="M 0.0 0.0 L 88.8 0.0 L 93.8 0.0 " fill="none" stroke="#FEFFFE" stroke-width="10.00" transform="matrix(-0.71, -0.71, -0.71, 0.71, 560.2, 431.8)"></path><path d="M 483.8 382.6 L 470.3 341.9 L 511.0 355.4 Z M 483.8 382.6 " fill="#FEFFFE"></path></g></g><g><clipPath id="clip0x7fec7ace8e10"><path d="M 757.4 446.8 L 848.7 355.4 L 820.2 326.9 L 728.8 418.2 Z M 757.4 446.8 "></path></clipPath><g clip-path="url(#clip0x7fec7ace8e10)"><path d="M 0.0 0.0 L 88.8 0.0 L 93.8 0.0 " fill="none" stroke="#FEFFFE" stroke-width="10.00" transform="matrix(0.71, -0.71, -0.71, -0.71, 743.8, 431.8)"></path><path d="M 793.0 355.4 L 833.7 341.9 L 820.2 382.6 Z M 793.0 355.4 " fill="#FEFFFE"></path></g></g></g></svg>