<?xml version="1.0" encoding="UTF-8" standalone="no"?><svg xmlns="http://www.w3.org/2000/svg" xmlns:xlink="http://www.w3.org/1999/xlink" clip-rule="evenodd" stroke-miterlimit="10" viewBox="0 0 462 128"><desc>SVG generated by Keynote</desc><defs></defs><g transform="matrix(1.00, 0.00, -0.00, -1.00, 0.0, 128.0)"><path d="M 1.0 17.0 L 1.0 112.0 C 1.0 120.2 7.7 127.0 16.0 127.0 L 446.0 127.0 C 454.3 127.0 461.0 120.2 461.0 112.0 L 461.0 17.0 C 461.0 8.7 454.3 2.0 446.0 2.0 L 16.0 2.0 C 7.7 2.0 1.0 8.7 1.0 17.0 Z M 1.0 17.0 " fill="#64D1E8"></path><image xlink:href="../../A8DD696F-2B2B-43F8-812D-761DE3BC0C46/assets/A84D32E5800D2BABCFCB8DAD54CC9469.png" width="125.00" height="83.00" transform="matrix(1.00, 0.00, -0.00, -1.00, 169.0, 102.0)"></image><g><clipPath id="clip0x7fec7a8ad730"><path d="M -16.9 -29.1 L 478.9 -29.1 L 478.9 152.9 L -16.9 152.9 Z M -16.9 -29.1 "></path></clipPath><g clip-path="url(#clip0x7fec7a8ad730)"><text xml:space="preserve" font-family="YanoneKaffeesatz-Bold,Yanone Kaffeesatz" font-weight="bold" font-size="100.0" fill="#FEFFFE" transform="matrix(1.00, 0.00, -0.00, -1.00, 170.3, 26.9)">L</text><text xml:space="preserve" font-family="YanoneKaffeesatz-Bold,Yanone Kaffeesatz" font-weight="bold" font-size="100.0" fill="#FEFFFE" transform="matrix(1.00, 0.00, -0.00, -1.00, 200.7, 26.9)">i</text><text xml:space="preserve" font-family="YanoneKaffeesatz-Bold,Yanone Kaffeesatz" font-weight="bold" font-size="100.0" fill="#FEFFFE" transform="matrix(1.00, 0.00, -0.00, -1.00, 218.6, 26.9)">n</text><text xml:space="preserve" font-family="YanoneKaffeesatz-Bold,Yanone Kaffeesatz" font-weight="bold" font-size="100.0" fill="#FEFFFE" transform="matrix(1.00, 0.00, -0.00, -1.00, 254.8, 26.9)">k</text></g></g></g></svg>