<?xml version="1.0" encoding="UTF-8" standalone="no"?><svg xmlns="http://www.w3.org/2000/svg" xmlns:xlink="http://www.w3.org/1999/xlink" clip-rule="evenodd" stroke-miterlimit="10" viewBox="0 0 203 103"><desc>SVG generated by Keynote</desc><defs></defs><g transform="matrix(1.00, 0.00, -0.00, -1.00, 0.0, 103.0)"><path d="M 1.7 17.0 L 2.0 87.0 C 2.0 95.3 8.5 102.0 16.7 102.0 L 186.7 102.0 C 195.0 102.0 202.0 95.3 202.0 87.0 L 202.0 17.0 C 202.0 8.7 195.0 2.0 186.7 2.0 L 16.7 2.0 C 8.5 2.0 1.7 8.7 1.7 17.0 Z M 1.7 17.0 " fill="#64D1E8"></path><image xlink:href="../../1041F5BF-C7FF-40D6-AC64-0FA19980C854/assets/DDEDD7420838721161110C10DA86C3D7.png" width="142.00" height="74.00" transform="matrix(1.00, 0.00, -0.00, -1.00, 31.0, 79.0)"></image><g><clipPath id="clip0x7fec7a675cc0"><path d="M -16.0 -14.5 L 219.5 -14.5 L 219.5 114.9 L -16.0 114.9 Z M -16.0 -14.5 "></path></clipPath><g clip-path="url(#clip0x7fec7a675cc0)"><text xml:space="preserve" font-family="YanoneKaffeesatz-Bold,Yanone Kaffeesatz" font-weight="bold" font-size="70.0" fill="#FEFFFE" transform="matrix(1.00, 0.00, -0.00, -1.00, 33.2, 26.7)">i</text><text xml:space="preserve" font-family="YanoneKaffeesatz-Bold,Yanone Kaffeesatz" font-weight="bold" font-size="70.0" fill="#FEFFFE" transform="matrix(1.00, 0.00, -0.00, -1.00, 45.8, 26.7)">m</text><text xml:space="preserve" font-family="YanoneKaffeesatz-Bold,Yanone Kaffeesatz" font-weight="bold" font-size="70.0" fill="#FEFFFE" transform="matrix(1.00, 0.00, -0.00, -1.00, 82.9, 26.7)">p</text><text xml:space="preserve" font-family="YanoneKaffeesatz-Bold,Yanone Kaffeesatz" font-weight="bold" font-size="70.0" fill="#FEFFFE" transform="matrix(1.00, 0.00, -0.00, -1.00, 108.4, 26.7)">o</text><text xml:space="preserve" font-family="YanoneKaffeesatz-Bold,Yanone Kaffeesatz" font-weight="bold" font-size="70.0" fill="#FEFFFE" transform="matrix(1.00, 0.00, -0.00, -1.00, 133.0, 26.7)">r</text><text xml:space="preserve" font-family="YanoneKaffeesatz-Bold,Yanone Kaffeesatz" font-weight="bold" font-size="70.0" fill="#FEFFFE" transform="matrix(1.00, 0.00, -0.00, -1.00, 150.4, 26.7)">t</text></g></g></g></svg>