<?xml version="1.0" encoding="UTF-8" standalone="no"?><svg xmlns="http://www.w3.org/2000/svg" xmlns:xlink="http://www.w3.org/1999/xlink" clip-rule="evenodd" stroke-miterlimit="10" viewBox="0 0 1920 1080"><desc>SVG generated by Keynote</desc><defs></defs><g transform="matrix(1.00, 0.00, -0.00, -1.00, 0.0, 1080.0)"><g><clipPath id="clip0x7fec7aa59e90"><path d="M 0.0 1080.0 L 1920.0 1080.0 L 1920.0 0.0 L 0.0 0.0 Z M 0.0 1080.0 "></path></clipPath><g clip-path="url(#clip0x7fec7aa59e90)"><image xlink:href="../../A5D7B27F-ECCD-4C51-9075-135B713588B1/assets/0F43D2572F34A9AFB59E4515ED9A1249.jpeg" width="3840.00" height="2160.00" transform="matrix(0.50, 0.00, -0.00, -0.50, 0.0, 1080.0)"></image></g></g><image xlink:href="../../1041F5BF-C7FF-40D6-AC64-0FA19980C854/assets/DD9E2722D3BF3DB5ADC1EF7136ED2AB8.png" width="307.00" height="233.00" transform="matrix(1.00, 0.00, -0.00, -1.00, 470.8, 619.6)"></image><path d="M 23.7 161.4 L 27.3 157.9 C 96.7 92.0 174.7 39.4 261.2 0.0 " fill="none" stroke="#E0E4CB" stroke-width="10.00" transform="matrix(1.00, 0.00, 0.00, -1.00, 494.4, 595.1)"></path><path d="M 508.2 450.8 L 494.4 410.1 L 535.2 423.5 Z M 508.2 450.8 " fill="#E0E4CB"></path><path d="M 794.7 895.0 L 795.0 965.0 C 795.0 973.3 801.5 980.0 809.7 980.0 L 979.7 980.0 C 988.0 980.0 995.0 973.3 995.0 965.0 L 995.0 895.0 C 995.0 886.7 988.0 880.0 979.7 880.0 L 809.7 880.0 C 801.5 880.0 794.7 886.7 794.7 895.0 Z M 794.7 895.0 " fill="#64D1E8"></path><image xlink:href="../../1041F5BF-C7FF-40D6-AC64-0FA19980C854/assets/DDEDD7420838721161110C10DA86C3D7.png" width="142.00" height="74.00" transform="matrix(1.00, 0.00, -0.00, -1.00, 824.0, 957.0)"></image><g><clipPath id="clip0x7fec7a69dce0"><path d="M 777.0 863.5 L 1012.5 863.5 L 1012.5 992.9 L 777.0 992.9 Z M 777.0 863.5 "></path></clipPath><g clip-path="url(#clip0x7fec7a69dce0)"><text xml:space="preserve" font-family="YanoneKaffeesatz-Bold,Yanone Kaffeesatz" font-weight="bold" font-size="70.0" fill="#FEFFFE" transform="matrix(1.00, 0.00, -0.00, -1.00, 826.2, 904.7)">i</text><text xml:space="preserve" font-family="YanoneKaffeesatz-Bold,Yanone Kaffeesatz" font-weight="bold" font-size="70.0" fill="#FEFFFE" transform="matrix(1.00, 0.00, -0.00, -1.00, 838.8, 904.7)">m</text><text xml:space="preserve" font-family="YanoneKaffeesatz-Bold,Yanone Kaffeesatz" font-weight="bold" font-size="70.0" fill="#FEFFFE" transform="matrix(1.00, 0.00, -0.00, -1.00, 875.9, 904.7)">p</text><text xml:space="preserve" font-family="YanoneKaffeesatz-Bold,Yanone Kaffeesatz" font-weight="bold" font-size="70.0" fill="#FEFFFE" transform="matrix(1.00, 0.00, -0.00, -1.00, 901.4, 904.7)">o</text><text xml:space="preserve" font-family="YanoneKaffeesatz-Bold,Yanone Kaffeesatz" font-weight="bold" font-size="70.0" fill="#FEFFFE" transform="matrix(1.00, 0.00, -0.00, -1.00, 926.0, 904.7)">r</text><text xml:space="preserve" font-family="YanoneKaffeesatz-Bold,Yanone Kaffeesatz" font-weight="bold" font-size="70.0" fill="#FEFFFE" transform="matrix(1.00, 0.00, -0.00, -1.00, 943.4, 904.7)">t</text></g></g><image xlink:href="../../1041F5BF-C7FF-40D6-AC64-0FA19980C854/assets/7AA2E83A9E56BEB4728F679792981E3C.png" width="140.00" height="78.00" transform="matrix(0.00, -1.00, -1.01, 0.00, 933.9, 1100.0)"></image><path d="M 0.0 -0.3 L 61.6 -0.3 L 67.0 -0.3 " fill="none" stroke="#E0E4CB" stroke-width="10.00" transform="matrix(0.00, -1.00, -1.00, 0.00, 894.7, 1080.0)"></path><path d="M 875.8 1018.0 L 895.0 979.6 L 914.2 1018.0 Z M 875.8 1018.0 " fill="#E0E4CB"></path><path d="M 675.0 610.1 L 675.0 680.1 C 675.0 688.4 681.7 695.0 690.0 695.0 L 1099.5 695.0 C 1107.8 695.0 1114.0 688.4 1114.0 680.1 L 1114.0 610.1 C 1114.0 601.8 1107.8 595.0 1099.5 595.0 L 690.0 595.0 C 681.7 595.0 675.0 601.8 675.0 610.1 Z M 675.0 610.1 " fill="#64D1E8"></path><image xlink:href="../../1041F5BF-C7FF-40D6-AC64-0FA19980C854/assets/E2396D0BC1D2462C65671B25B485AEA7.png" width="407.00" height="74.00" transform="matrix(1.00, 0.00, -0.00, -1.00, 692.0, 672.0)"></image><g><clipPath id="clip0x7fec7a6ad6c0"><path d="M 657.2 578.5 L 1132.3 578.5 L 1132.3 708.0 L 657.2 708.0 Z M 657.2 578.5 "></path></clipPath><g clip-path="url(#clip0x7fec7a6ad6c0)"><text xml:space="preserve" font-family="YanoneKaffeesatz-Bold,Yanone Kaffeesatz" font-weight="bold" font-size="70.0" fill="#F9F9F4" transform="matrix(1.00, 0.00, -0.00, -1.00, 694.6, 619.8)">i</text><text xml:space="preserve" font-family="YanoneKaffeesatz-Bold,Yanone Kaffeesatz" font-weight="bold" font-size="70.0" fill="#F9F9F4" transform="matrix(1.00, 0.00, -0.00, -1.00, 707.2, 619.8)">m</text><text xml:space="preserve" font-family="YanoneKaffeesatz-Bold,Yanone Kaffeesatz" font-weight="bold" font-size="70.0" fill="#F9F9F4" transform="matrix(1.00, 0.00, -0.00, -1.00, 744.3, 619.8)">p</text><text xml:space="preserve" font-family="YanoneKaffeesatz-Bold,Yanone Kaffeesatz" font-weight="bold" font-size="70.0" fill="#F9F9F4" transform="matrix(1.00, 0.00, -0.00, -1.00, 769.8, 619.8)">o</text><text xml:space="preserve" font-family="YanoneKaffeesatz-Bold,Yanone Kaffeesatz" font-weight="bold" font-size="70.0" fill="#F9F9F4" transform="matrix(1.00, 0.00, -0.00, -1.00, 794.4, 619.8)">r</text><text xml:space="preserve" font-family="YanoneKaffeesatz-Bold,Yanone Kaffeesatz" font-weight="bold" font-size="70.0" fill="#F9F9F4" transform="matrix(1.00, 0.00, -0.00, -1.00, 811.8, 619.8)">t</text><text xml:space="preserve" font-family="YanoneKaffeesatz-Bold,Yanone Kaffeesatz" font-weight="bold" font-size="70.0" fill="#F9F9F4" transform="matrix(1.00, 0.00, -0.00, -1.00, 831.7, 619.8)">_</text><text xml:space="preserve" font-family="YanoneKaffeesatz-Bold,Yanone Kaffeesatz" font-weight="bold" font-size="70.0" fill="#F9F9F4" transform="matrix(1.00, 0.00, -0.00, -1.00, 857.6, 619.8)">n</text><text xml:space="preserve" font-family="YanoneKaffeesatz-Bold,Yanone Kaffeesatz" font-weight="bold" font-size="70.0" fill="#F9F9F4" transform="matrix(1.00, 0.00, -0.00, -1.00, 882.9, 619.8)">a</text><text xml:space="preserve" font-family="YanoneKaffeesatz-Bold,Yanone Kaffeesatz" font-weight="bold" font-size="70.0" fill="#F9F9F4" transform="matrix(1.00, 0.00, -0.00, -1.00, 906.5, 619.8)">m</text><text xml:space="preserve" font-family="YanoneKaffeesatz-Bold,Yanone Kaffeesatz" font-weight="bold" font-size="70.0" fill="#F9F9F4" transform="matrix(1.00, 0.00, -0.00, -1.00, 943.6, 619.8)">e</text><text xml:space="preserve" font-family="YanoneKaffeesatz-Bold,Yanone Kaffeesatz" font-weight="bold" font-size="70.0" fill="#F9F9F4" transform="matrix(1.00, 0.00, -0.00, -1.00, 967.9, 619.8)">s</text><text xml:space="preserve" font-family="YanoneKaffeesatz-Bold,Yanone Kaffeesatz" font-weight="bold" font-size="70.0" fill="#F9F9F4" transform="matrix(1.00, 0.00, -0.00, -1.00, 990.1, 619.8)">e</text><text xml:space="preserve" font-family="YanoneKaffeesatz-Bold,Yanone Kaffeesatz" font-weight="bold" font-size="70.0" fill="#F9F9F4" transform="matrix(1.00, 0.00, -0.00, -1.00, 1014.3, 619.8)">r</text><text xml:space="preserve" font-family="YanoneKaffeesatz-Bold,Yanone Kaffeesatz" font-weight="bold" font-size="70.0" fill="#F9F9F4" transform="matrix(1.00, 0.00, -0.00, -1.00, 1031.8, 619.8)">v</text><text xml:space="preserve" font-family="YanoneKaffeesatz-Bold,Yanone Kaffeesatz" font-weight="bold" font-size="70.0" fill="#F9F9F4" transform="matrix(1.00, 0.00, -0.00, -1.00, 1053.2, 619.8)">e</text><text xml:space="preserve" font-family="YanoneKaffeesatz-Bold,Yanone Kaffeesatz" font-weight="bold" font-size="70.0" fill="#F9F9F4" transform="matrix(1.00, 0.00, -0.00, -1.00, 1077.4, 619.8)">r</text></g></g><path d="M 0.0 85.0 L -0.4 15.0 C -0.4 6.7 6.7 0.1 15.0 0.1 L 308.5 0.1 C 316.8 0.1 323.6 6.7 323.6 15.0 L 323.6 85.0 C 323.6 93.3 316.8 100.1 308.5 100.1 L 15.0 100.1 C 6.7 100.1 0.0 93.3 0.0 85.0 Z M 0.0 85.0 " fill="none" stroke="#F4861E" stroke-width="10.00" stroke-dasharray="20.0, 20.0" transform="matrix(1.00, 0.00, 0.00, -1.00, 1150.4, 405.1)"></path><image xlink:href="../../1041F5BF-C7FF-40D6-AC64-0FA19980C854/assets/014CE596C2CD3C9394DEB81D1601DF1D.png" width="296.00" height="61.00" transform="matrix(1.00, 0.00, -0.00, -1.00, 1164.0, 382.0)"></image><g><clipPath id="clip0x7fec7a6b76a0"><path d="M 1141.1 287.9 L 1483.1 287.9 L 1483.1 417.4 L 1141.1 417.4 Z M 1141.1 287.9 "></path></clipPath><g clip-path="url(#clip0x7fec7a6b76a0)"><text xml:space="preserve" font-family="YanoneKaffeesatz-Bold,Yanone Kaffeesatz" font-weight="bold" font-size="70.0" fill="#FEFFFE" transform="matrix(1.00, 0.00, -0.00, -1.00, 1166.1, 329.2)">n</text><text xml:space="preserve" font-family="YanoneKaffeesatz-Bold,Yanone Kaffeesatz" font-weight="bold" font-size="70.0" fill="#FEFFFE" transform="matrix(1.00, 0.00, -0.00, -1.00, 1191.4, 329.2)">o</text><text xml:space="preserve" font-family="YanoneKaffeesatz-Bold,Yanone Kaffeesatz" font-weight="bold" font-size="70.0" fill="#FEFFFE" transform="matrix(1.00, 0.00, -0.00, -1.00, 1215.9, 329.2)">r</text><text xml:space="preserve" font-family="YanoneKaffeesatz-Bold,Yanone Kaffeesatz" font-weight="bold" font-size="70.0" fill="#FEFFFE" transform="matrix(1.00, 0.00, -0.00, -1.00, 1233.4, 329.2)">m</text><text xml:space="preserve" font-family="YanoneKaffeesatz-Bold,Yanone Kaffeesatz" font-weight="bold" font-size="70.0" fill="#FEFFFE" transform="matrix(1.00, 0.00, -0.00, -1.00, 1270.5, 329.2)">a</text><text xml:space="preserve" font-family="YanoneKaffeesatz-Bold,Yanone Kaffeesatz" font-weight="bold" font-size="70.0" fill="#FEFFFE" transform="matrix(1.00, 0.00, -0.00, -1.00, 1294.1, 329.2)">l</text><text xml:space="preserve" font-family="YanoneKaffeesatz-Bold,Yanone Kaffeesatz" font-weight="bold" font-size="70.0" fill="#FEFFFE" transform="matrix(1.00, 0.00, -0.00, -1.00, 1306.6, 329.2)">i</text><text xml:space="preserve" font-family="YanoneKaffeesatz-Bold,Yanone Kaffeesatz" font-weight="bold" font-size="70.0" fill="#FEFFFE" transform="matrix(1.00, 0.00, -0.00, -1.00, 1319.2, 329.2)">z</text><text xml:space="preserve" font-family="YanoneKaffeesatz-Bold,Yanone Kaffeesatz" font-weight="bold" font-size="70.0" fill="#FEFFFE" transform="matrix(1.00, 0.00, -0.00, -1.00, 1339.2, 329.2)">e</text><text xml:space="preserve" font-family="YanoneKaffeesatz-Bold,Yanone Kaffeesatz" font-weight="bold" font-size="70.0" fill="#FEFFFE" transform="matrix(1.00, 0.00, -0.00, -1.00, 1363.4, 329.2)">r</text><text xml:space="preserve" font-family="YanoneKaffeesatz-Bold,Yanone Kaffeesatz" font-weight="bold" font-size="70.0" fill="#FEFFFE" transform="matrix(1.00, 0.00, -0.00, -1.00, 1376.0, 329.2)">.</text><text xml:space="preserve" font-family="YanoneKaffeesatz-Bold,Yanone Kaffeesatz" font-weight="bold" font-size="70.0" fill="#FEFFFE" transform="matrix(1.00, 0.00, -0.00, -1.00, 1389.1, 329.2)">c</text><text xml:space="preserve" font-family="YanoneKaffeesatz-Bold,Yanone Kaffeesatz" font-weight="bold" font-size="70.0" fill="#FEFFFE" transform="matrix(1.00, 0.00, -0.00, -1.00, 1409.6, 329.2)">a</text><text xml:space="preserve" font-family="YanoneKaffeesatz-Bold,Yanone Kaffeesatz" font-weight="bold" font-size="70.0" fill="#FEFFFE" transform="matrix(1.00, 0.00, -0.00, -1.00, 1433.2, 329.2)">l</text><text xml:space="preserve" font-family="YanoneKaffeesatz-Bold,Yanone Kaffeesatz" font-weight="bold" font-size="70.0" fill="#FEFFFE" transform="matrix(1.00, 0.00, -0.00, -1.00, 1445.7, 329.2)">l</text></g></g><path d="M 0.0 85.0 L -0.3 15.0 C -0.3 6.7 6.7 0.1 15.0 0.1 L 374.7 0.1 C 383.0 0.1 389.7 6.7 389.7 15.0 L 389.7 85.0 C 389.7 93.3 383.0 100.1 374.7 100.1 L 15.0 100.1 C 6.7 100.1 0.0 93.3 0.0 85.0 Z M 0.0 85.0 " fill="none" stroke="#F4861E" stroke-width="10.00" stroke-dasharray="20.0, 20.0" transform="matrix(1.00, 0.00, 0.00, -1.00, 1518.3, 405.1)"></path><image xlink:href="../../1041F5BF-C7FF-40D6-AC64-0FA19980C854/assets/624445FBCB9146B5F49A31AFBC91446C.png" width="349.00" height="73.00" transform="matrix(1.00, 0.00, -0.00, -1.00, 1532.0, 381.0)"></image><g><clipPath id="clip0x7fec7aa5a9f0"><path d="M 1509.0 287.9 L 1917.2 287.9 L 1917.2 417.4 L 1509.0 417.4 Z M 1509.0 287.9 "></path></clipPath><g clip-path="url(#clip0x7fec7aa5a9f0)"><text xml:space="preserve" font-family="YanoneKaffeesatz-Bold,Yanone Kaffeesatz" font-weight="bold" font-size="70.0" fill="#FEFFFE" transform="matrix(1.00, 0.00, -0.00, -1.00, 1533.8, 329.2)">r</text><text xml:space="preserve" font-family="YanoneKaffeesatz-Bold,Yanone Kaffeesatz" font-weight="bold" font-size="70.0" fill="#FEFFFE" transform="matrix(1.00, 0.00, -0.00, -1.00, 1549.8, 329.2)">e</text><text xml:space="preserve" font-family="YanoneKaffeesatz-Bold,Yanone Kaffeesatz" font-weight="bold" font-size="70.0" fill="#FEFFFE" transform="matrix(1.00, 0.00, -0.00, -1.00, 1574.1, 329.2)">p</text><text xml:space="preserve" font-family="YanoneKaffeesatz-Bold,Yanone Kaffeesatz" font-weight="bold" font-size="70.0" fill="#FEFFFE" transform="matrix(1.00, 0.00, -0.00, -1.00, 1599.5, 329.2)">o</text><text xml:space="preserve" font-family="YanoneKaffeesatz-Bold,Yanone Kaffeesatz" font-weight="bold" font-size="70.0" fill="#FEFFFE" transform="matrix(1.00, 0.00, -0.00, -1.00, 1624.1, 329.2)">s</text><text xml:space="preserve" font-family="YanoneKaffeesatz-Bold,Yanone Kaffeesatz" font-weight="bold" font-size="70.0" fill="#FEFFFE" transform="matrix(1.00, 0.00, -0.00, -1.00, 1646.4, 329.2)">i</text><text xml:space="preserve" font-family="YanoneKaffeesatz-Bold,Yanone Kaffeesatz" font-weight="bold" font-size="70.0" fill="#FEFFFE" transform="matrix(1.00, 0.00, -0.00, -1.00, 1659.0, 329.2)">t</text><text xml:space="preserve" font-family="YanoneKaffeesatz-Bold,Yanone Kaffeesatz" font-weight="bold" font-size="70.0" fill="#FEFFFE" transform="matrix(1.00, 0.00, -0.00, -1.00, 1677.5, 329.2)">o</text><text xml:space="preserve" font-family="YanoneKaffeesatz-Bold,Yanone Kaffeesatz" font-weight="bold" font-size="70.0" fill="#FEFFFE" transform="matrix(1.00, 0.00, -0.00, -1.00, 1702.0, 329.2)">r</text><text xml:space="preserve" font-family="YanoneKaffeesatz-Bold,Yanone Kaffeesatz" font-weight="bold" font-size="70.0" fill="#FEFFFE" transform="matrix(1.00, 0.00, -0.00, -1.00, 1719.5, 329.2)">y</text><text xml:space="preserve" font-family="YanoneKaffeesatz-Bold,Yanone Kaffeesatz" font-weight="bold" font-size="70.0" fill="#FEFFFE" transform="matrix(1.00, 0.00, -0.00, -1.00, 1739.5, 329.2)">.</text><text xml:space="preserve" font-family="YanoneKaffeesatz-Bold,Yanone Kaffeesatz" font-weight="bold" font-size="70.0" fill="#FEFFFE" transform="matrix(1.00, 0.00, -0.00, -1.00, 1752.6, 329.2)">c</text><text xml:space="preserve" font-family="YanoneKaffeesatz-Bold,Yanone Kaffeesatz" font-weight="bold" font-size="70.0" fill="#FEFFFE" transform="matrix(1.00, 0.00, -0.00, -1.00, 1773.1, 329.2)">r</text><text xml:space="preserve" font-family="YanoneKaffeesatz-Bold,Yanone Kaffeesatz" font-weight="bold" font-size="70.0" fill="#FEFFFE" transform="matrix(1.00, 0.00, -0.00, -1.00, 1789.1, 329.2)">e</text><text xml:space="preserve" font-family="YanoneKaffeesatz-Bold,Yanone Kaffeesatz" font-weight="bold" font-size="70.0" fill="#FEFFFE" transform="matrix(1.00, 0.00, -0.00, -1.00, 1813.3, 329.2)">a</text><text xml:space="preserve" font-family="YanoneKaffeesatz-Bold,Yanone Kaffeesatz" font-weight="bold" font-size="70.0" fill="#FEFFFE" transform="matrix(1.00, 0.00, -0.00, -1.00, 1836.3, 329.2)">t</text><text xml:space="preserve" font-family="YanoneKaffeesatz-Bold,Yanone Kaffeesatz" font-weight="bold" font-size="70.0" fill="#FEFFFE" transform="matrix(1.00, 0.00, -0.00, -1.00, 1854.1, 329.2)">e</text></g></g><image xlink:href="../../1041F5BF-C7FF-40D6-AC64-0FA19980C854/assets/A388E821A9FEFABCE77EFCE09B15E250.png" width="20.00" height="59.00" transform="matrix(1.00, 0.00, -0.00, -1.00, 1876.0, 380.0)"></image><g><clipPath id="clip0x7fec7aa79180"><path d="M 1509.0 287.9 L 1917.2 287.9 L 1917.2 417.4 L 1509.0 417.4 Z M 1509.0 287.9 "></path></clipPath><g clip-path="url(#clip0x7fec7aa79180)"><text xml:space="preserve" font-family="YanoneKaffeesatz-Bold,Yanone Kaffeesatz" font-weight="bold" font-size="70.0" fill="#FEFFFE" transform="matrix(1.00, 0.00, -0.00, -1.00, 1878.3, 329.2)">!</text></g></g><image xlink:href="../../1041F5BF-C7FF-40D6-AC64-0FA19980C854/assets/33648A92C00903679D97BE40C955E09C.png" width="546.00" height="241.00" transform="matrix(1.00, 0.00, -0.00, -1.00, 1090.9, 626.9)"></image><path d="M 0.0 0.0 C 162.4 40.4 318.5 98.5 468.3 174.3 L 472.8 176.6 " fill="none" stroke="#E0E4CB" stroke-width="10.00" transform="matrix(1.00, 0.00, 0.00, -1.00, 1112.2, 602.0)"></path><path d="M 1571.7 410.7 L 1614.6 410.1 L 1589.3 444.8 Z M 1571.7 410.7 " fill="#E0E4CB"></path><image xlink:href="../../1041F5BF-C7FF-40D6-AC64-0FA19980C854/assets/00AEA1D85942AFC6650E789088E03DE9.png" width="289.00" height="233.00" transform="matrix(1.00, 0.00, -0.00, -1.00, 1002.7, 619.6)"></image><path d="M 0.0 0.0 C 81.1 39.4 153.3 91.7 216.5 156.8 L 219.9 160.4 " fill="none" stroke="#E0E4CB" stroke-width="10.00" transform="matrix(1.00, 0.00, 0.00, -1.00, 1024.9, 595.1)"></path><path d="M 1227.3 425.3 L 1267.5 410.1 L 1255.4 451.4 Z M 1227.3 425.3 " fill="#E0E4CB"></path><image xlink:href="../../1041F5BF-C7FF-40D6-AC64-0FA19980C854/assets/7D13B18EC2280C40D17ACAF2BA324CC7.png" width="77.00" height="229.00" transform="matrix(1.00, 0.00, -0.00, -1.00, 820.5, 901.8)"></image><path d="M 8.0 153.0 L 6.5 148.3 C -5.0 98.8 -1.2 49.4 17.9 0.0 " fill="none" stroke="#E0E4CB" stroke-width="10.00" transform="matrix(1.00, 0.00, 0.00, -1.00, 852.3, 880.0)"></path><path d="M 840.5 726.1 L 870.2 695.1 L 877.2 737.4 Z M 840.5 726.1 " fill="#E0E4CB"></path><path d="M 0.0 85.0 L -0.4 15.0 C -0.4 6.7 6.7 0.1 15.0 0.1 L 374.7 0.1 C 383.0 0.1 389.6 6.7 389.6 15.0 L 389.6 85.0 C 389.6 93.3 383.0 100.1 374.7 100.1 L 15.0 100.1 C 6.7 100.1 0.0 93.3 0.0 85.0 Z M 0.0 85.0 " fill="none" stroke="#F4861E" stroke-width="10.00" stroke-dasharray="20.0, 20.0" transform="matrix(1.00, 0.00, 0.00, -1.00, 250.4, 405.1)"></path><image xlink:href="../../1041F5BF-C7FF-40D6-AC64-0FA19980C854/assets/726CE74D8F7842B557DB131AEB3A12EF.png" width="354.00" height="61.00" transform="matrix(1.00, 0.00, -0.00, -1.00, 268.0, 382.0)"></image><g><clipPath id="clip0x7fec7a6c5a60"><path d="M 241.2 287.9 L 649.4 287.9 L 649.4 417.4 L 241.2 417.4 Z M 241.2 287.9 "></path></clipPath><g clip-path="url(#clip0x7fec7a6c5a60)"><text xml:space="preserve" font-family="YanoneKaffeesatz-Bold,Yanone Kaffeesatz" font-weight="bold" font-size="70.0" fill="#FEFFFE" transform="matrix(1.00, 0.00, -0.00, -1.00, 271.6, 329.2)">v</text><text xml:space="preserve" font-family="YanoneKaffeesatz-Bold,Yanone Kaffeesatz" font-weight="bold" font-size="70.0" fill="#FEFFFE" transform="matrix(1.00, 0.00, -0.00, -1.00, 294.2, 329.2)">a</text><text xml:space="preserve" font-family="YanoneKaffeesatz-Bold,Yanone Kaffeesatz" font-weight="bold" font-size="70.0" fill="#FEFFFE" transform="matrix(1.00, 0.00, -0.00, -1.00, 317.8, 329.2)">l</text><text xml:space="preserve" font-family="YanoneKaffeesatz-Bold,Yanone Kaffeesatz" font-weight="bold" font-size="70.0" fill="#FEFFFE" transform="matrix(1.00, 0.00, -0.00, -1.00, 330.3, 329.2)">i</text><text xml:space="preserve" font-family="YanoneKaffeesatz-Bold,Yanone Kaffeesatz" font-weight="bold" font-size="70.0" fill="#FEFFFE" transform="matrix(1.00, 0.00, -0.00, -1.00, 342.9, 329.2)">d</text><text xml:space="preserve" font-family="YanoneKaffeesatz-Bold,Yanone Kaffeesatz" font-weight="bold" font-size="70.0" fill="#FEFFFE" transform="matrix(1.00, 0.00, -0.00, -1.00, 368.5, 329.2)">a</text><text xml:space="preserve" font-family="YanoneKaffeesatz-Bold,Yanone Kaffeesatz" font-weight="bold" font-size="70.0" fill="#FEFFFE" transform="matrix(1.00, 0.00, -0.00, -1.00, 391.5, 329.2)">t</text><text xml:space="preserve" font-family="YanoneKaffeesatz-Bold,Yanone Kaffeesatz" font-weight="bold" font-size="70.0" fill="#FEFFFE" transform="matrix(1.00, 0.00, -0.00, -1.00, 410.0, 329.2)">o</text><text xml:space="preserve" font-family="YanoneKaffeesatz-Bold,Yanone Kaffeesatz" font-weight="bold" font-size="70.0" fill="#FEFFFE" transform="matrix(1.00, 0.00, -0.00, -1.00, 434.5, 329.2)">r</text><text xml:space="preserve" font-family="YanoneKaffeesatz-Bold,Yanone Kaffeesatz" font-weight="bold" font-size="70.0" fill="#FEFFFE" transform="matrix(1.00, 0.00, -0.00, -1.00, 447.1, 329.2)">.</text><text xml:space="preserve" font-family="YanoneKaffeesatz-Bold,Yanone Kaffeesatz" font-weight="bold" font-size="70.0" fill="#FEFFFE" transform="matrix(1.00, 0.00, -0.00, -1.00, 457.1, 329.2)">v</text><text xml:space="preserve" font-family="YanoneKaffeesatz-Bold,Yanone Kaffeesatz" font-weight="bold" font-size="70.0" fill="#FEFFFE" transform="matrix(1.00, 0.00, -0.00, -1.00, 479.6, 329.2)">a</text><text xml:space="preserve" font-family="YanoneKaffeesatz-Bold,Yanone Kaffeesatz" font-weight="bold" font-size="70.0" fill="#FEFFFE" transform="matrix(1.00, 0.00, -0.00, -1.00, 503.3, 329.2)">l</text><text xml:space="preserve" font-family="YanoneKaffeesatz-Bold,Yanone Kaffeesatz" font-weight="bold" font-size="70.0" fill="#FEFFFE" transform="matrix(1.00, 0.00, -0.00, -1.00, 515.7, 329.2)">i</text><text xml:space="preserve" font-family="YanoneKaffeesatz-Bold,Yanone Kaffeesatz" font-weight="bold" font-size="70.0" fill="#FEFFFE" transform="matrix(1.00, 0.00, -0.00, -1.00, 528.3, 329.2)">d</text><text xml:space="preserve" font-family="YanoneKaffeesatz-Bold,Yanone Kaffeesatz" font-weight="bold" font-size="70.0" fill="#FEFFFE" transform="matrix(1.00, 0.00, -0.00, -1.00, 553.9, 329.2)">a</text><text xml:space="preserve" font-family="YanoneKaffeesatz-Bold,Yanone Kaffeesatz" font-weight="bold" font-size="70.0" fill="#FEFFFE" transform="matrix(1.00, 0.00, -0.00, -1.00, 576.9, 329.2)">t</text><text xml:space="preserve" font-family="YanoneKaffeesatz-Bold,Yanone Kaffeesatz" font-weight="bold" font-size="70.0" fill="#FEFFFE" transform="matrix(1.00, 0.00, -0.00, -1.00, 594.7, 329.2)">e</text></g></g><path d="M 1150.4 895.0 L 1150.0 965.0 C 1150.0 973.3 1157.1 980.0 1165.4 980.0 L 1458.9 980.0 C 1467.2 980.0 1474.0 973.3 1474.0 965.0 L 1474.0 895.0 C 1474.0 886.7 1467.2 880.0 1458.9 880.0 L 1165.4 880.0 C 1157.1 880.0 1150.4 886.7 1150.4 895.0 Z M 1150.4 895.0 " fill="#64D1E8"></path><image xlink:href="../../1041F5BF-C7FF-40D6-AC64-0FA19980C854/assets/01294138EA00344B164E48A7599B1F98.png" width="296.00" height="61.00" transform="matrix(1.00, 0.00, -0.00, -1.00, 1164.0, 958.0)"></image><g><clipPath id="clip0x7fec7a840a20"><path d="M 1132.6 863.5 L 1491.7 863.5 L 1491.7 992.9 L 1132.6 992.9 Z M 1132.6 863.5 "></path></clipPath><g clip-path="url(#clip0x7fec7a840a20)"><text xml:space="preserve" font-family="YanoneKaffeesatz-Bold,Yanone Kaffeesatz" font-weight="bold" font-size="70.0" fill="#F9F9F4" transform="matrix(1.00, 0.00, -0.00, -1.00, 1166.1, 904.7)">n</text><text xml:space="preserve" font-family="YanoneKaffeesatz-Bold,Yanone Kaffeesatz" font-weight="bold" font-size="70.0" fill="#F9F9F4" transform="matrix(1.00, 0.00, -0.00, -1.00, 1191.4, 904.7)">o</text><text xml:space="preserve" font-family="YanoneKaffeesatz-Bold,Yanone Kaffeesatz" font-weight="bold" font-size="70.0" fill="#F9F9F4" transform="matrix(1.00, 0.00, -0.00, -1.00, 1215.9, 904.7)">r</text><text xml:space="preserve" font-family="YanoneKaffeesatz-Bold,Yanone Kaffeesatz" font-weight="bold" font-size="70.0" fill="#F9F9F4" transform="matrix(1.00, 0.00, -0.00, -1.00, 1233.4, 904.7)">m</text><text xml:space="preserve" font-family="YanoneKaffeesatz-Bold,Yanone Kaffeesatz" font-weight="bold" font-size="70.0" fill="#F9F9F4" transform="matrix(1.00, 0.00, -0.00, -1.00, 1270.5, 904.7)">a</text><text xml:space="preserve" font-family="YanoneKaffeesatz-Bold,Yanone Kaffeesatz" font-weight="bold" font-size="70.0" fill="#F9F9F4" transform="matrix(1.00, 0.00, -0.00, -1.00, 1294.1, 904.7)">l</text><text xml:space="preserve" font-family="YanoneKaffeesatz-Bold,Yanone Kaffeesatz" font-weight="bold" font-size="70.0" fill="#F9F9F4" transform="matrix(1.00, 0.00, -0.00, -1.00, 1306.6, 904.7)">i</text><text xml:space="preserve" font-family="YanoneKaffeesatz-Bold,Yanone Kaffeesatz" font-weight="bold" font-size="70.0" fill="#F9F9F4" transform="matrix(1.00, 0.00, -0.00, -1.00, 1319.2, 904.7)">z</text><text xml:space="preserve" font-family="YanoneKaffeesatz-Bold,Yanone Kaffeesatz" font-weight="bold" font-size="70.0" fill="#F9F9F4" transform="matrix(1.00, 0.00, -0.00, -1.00, 1339.2, 904.7)">e</text><text xml:space="preserve" font-family="YanoneKaffeesatz-Bold,Yanone Kaffeesatz" font-weight="bold" font-size="70.0" fill="#F9F9F4" transform="matrix(1.00, 0.00, -0.00, -1.00, 1363.4, 904.7)">r</text><text xml:space="preserve" font-family="YanoneKaffeesatz-Bold,Yanone Kaffeesatz" font-weight="bold" font-size="70.0" fill="#F9F9F4" transform="matrix(1.00, 0.00, -0.00, -1.00, 1376.0, 904.7)">.</text><text xml:space="preserve" font-family="YanoneKaffeesatz-Bold,Yanone Kaffeesatz" font-weight="bold" font-size="70.0" fill="#F9F9F4" transform="matrix(1.00, 0.00, -0.00, -1.00, 1389.1, 904.7)">c</text><text xml:space="preserve" font-family="YanoneKaffeesatz-Bold,Yanone Kaffeesatz" font-weight="bold" font-size="70.0" fill="#F9F9F4" transform="matrix(1.00, 0.00, -0.00, -1.00, 1409.6, 904.7)">a</text><text xml:space="preserve" font-family="YanoneKaffeesatz-Bold,Yanone Kaffeesatz" font-weight="bold" font-size="70.0" fill="#F9F9F4" transform="matrix(1.00, 0.00, -0.00, -1.00, 1433.2, 904.7)">l</text><text xml:space="preserve" font-family="YanoneKaffeesatz-Bold,Yanone Kaffeesatz" font-weight="bold" font-size="70.0" fill="#F9F9F4" transform="matrix(1.00, 0.00, -0.00, -1.00, 1445.7, 904.7)">l</text></g></g><path d="M 1518.3 895.0 L 1518.0 965.0 C 1518.0 973.3 1525.0 980.0 1533.3 980.0 L 1893.0 980.0 C 1901.3 980.0 1908.0 973.3 1908.0 965.0 L 1908.0 895.0 C 1908.0 886.7 1901.3 880.0 1893.0 880.0 L 1533.3 880.0 C 1525.0 880.0 1518.3 886.7 1518.3 895.0 Z M 1518.3 895.0 " fill="#64D1E8"></path><image xlink:href="../../1041F5BF-C7FF-40D6-AC64-0FA19980C854/assets/A7BBA30AAF3B38513F7C84A0DF47C924.png" width="349.00" height="74.00" transform="matrix(1.00, 0.00, -0.00, -1.00, 1532.0, 957.0)"></image><g><clipPath id="clip0x7fec7a84a880"><path d="M 1500.5 863.5 L 1925.8 863.5 L 1925.8 992.9 L 1500.5 992.9 Z M 1500.5 863.5 "></path></clipPath><g clip-path="url(#clip0x7fec7a84a880)"><text xml:space="preserve" font-family="YanoneKaffeesatz-Bold,Yanone Kaffeesatz" font-weight="bold" font-size="70.0" fill="#F9F9F4" transform="matrix(1.00, 0.00, -0.00, -1.00, 1533.8, 904.7)">r</text><text xml:space="preserve" font-family="YanoneKaffeesatz-Bold,Yanone Kaffeesatz" font-weight="bold" font-size="70.0" fill="#F9F9F4" transform="matrix(1.00, 0.00, -0.00, -1.00, 1549.8, 904.7)">e</text><text xml:space="preserve" font-family="YanoneKaffeesatz-Bold,Yanone Kaffeesatz" font-weight="bold" font-size="70.0" fill="#F9F9F4" transform="matrix(1.00, 0.00, -0.00, -1.00, 1574.1, 904.7)">p</text><text xml:space="preserve" font-family="YanoneKaffeesatz-Bold,Yanone Kaffeesatz" font-weight="bold" font-size="70.0" fill="#F9F9F4" transform="matrix(1.00, 0.00, -0.00, -1.00, 1599.5, 904.7)">o</text><text xml:space="preserve" font-family="YanoneKaffeesatz-Bold,Yanone Kaffeesatz" font-weight="bold" font-size="70.0" fill="#F9F9F4" transform="matrix(1.00, 0.00, -0.00, -1.00, 1624.1, 904.7)">s</text><text xml:space="preserve" font-family="YanoneKaffeesatz-Bold,Yanone Kaffeesatz" font-weight="bold" font-size="70.0" fill="#F9F9F4" transform="matrix(1.00, 0.00, -0.00, -1.00, 1646.4, 904.7)">i</text><text xml:space="preserve" font-family="YanoneKaffeesatz-Bold,Yanone Kaffeesatz" font-weight="bold" font-size="70.0" fill="#F9F9F4" transform="matrix(1.00, 0.00, -0.00, -1.00, 1659.0, 904.7)">t</text><text xml:space="preserve" font-family="YanoneKaffeesatz-Bold,Yanone Kaffeesatz" font-weight="bold" font-size="70.0" fill="#F9F9F4" transform="matrix(1.00, 0.00, -0.00, -1.00, 1677.5, 904.7)">o</text><text xml:space="preserve" font-family="YanoneKaffeesatz-Bold,Yanone Kaffeesatz" font-weight="bold" font-size="70.0" fill="#F9F9F4" transform="matrix(1.00, 0.00, -0.00, -1.00, 1702.0, 904.7)">r</text><text xml:space="preserve" font-family="YanoneKaffeesatz-Bold,Yanone Kaffeesatz" font-weight="bold" font-size="70.0" fill="#F9F9F4" transform="matrix(1.00, 0.00, -0.00, -1.00, 1719.5, 904.7)">y</text><text xml:space="preserve" font-family="YanoneKaffeesatz-Bold,Yanone Kaffeesatz" font-weight="bold" font-size="70.0" fill="#F9F9F4" transform="matrix(1.00, 0.00, -0.00, -1.00, 1739.5, 904.7)">.</text><text xml:space="preserve" font-family="YanoneKaffeesatz-Bold,Yanone Kaffeesatz" font-weight="bold" font-size="70.0" fill="#F9F9F4" transform="matrix(1.00, 0.00, -0.00, -1.00, 1752.6, 904.7)">c</text><text xml:space="preserve" font-family="YanoneKaffeesatz-Bold,Yanone Kaffeesatz" font-weight="bold" font-size="70.0" fill="#F9F9F4" transform="matrix(1.00, 0.00, -0.00, -1.00, 1773.1, 904.7)">r</text><text xml:space="preserve" font-family="YanoneKaffeesatz-Bold,Yanone Kaffeesatz" font-weight="bold" font-size="70.0" fill="#F9F9F4" transform="matrix(1.00, 0.00, -0.00, -1.00, 1789.1, 904.7)">e</text><text xml:space="preserve" font-family="YanoneKaffeesatz-Bold,Yanone Kaffeesatz" font-weight="bold" font-size="70.0" fill="#F9F9F4" transform="matrix(1.00, 0.00, -0.00, -1.00, 1813.3, 904.7)">a</text><text xml:space="preserve" font-family="YanoneKaffeesatz-Bold,Yanone Kaffeesatz" font-weight="bold" font-size="70.0" fill="#F9F9F4" transform="matrix(1.00, 0.00, -0.00, -1.00, 1836.3, 904.7)">t</text><text xml:space="preserve" font-family="YanoneKaffeesatz-Bold,Yanone Kaffeesatz" font-weight="bold" font-size="70.0" fill="#F9F9F4" transform="matrix(1.00, 0.00, -0.00, -1.00, 1854.1, 904.7)">e</text></g></g><image xlink:href="../../1041F5BF-C7FF-40D6-AC64-0FA19980C854/assets/2D67014085057289CE638BFD54B8DE37.png" width="20.00" height="59.00" transform="matrix(1.00, 0.00, -0.00, -1.00, 1876.0, 956.0)"></image><g><clipPath id="clip0x7fec7a853b80"><path d="M 1500.5 863.5 L 1925.8 863.5 L 1925.8 992.9 L 1500.5 992.9 Z M 1500.5 863.5 "></path></clipPath><g clip-path="url(#clip0x7fec7a853b80)"><text xml:space="preserve" font-family="YanoneKaffeesatz-Bold,Yanone Kaffeesatz" font-weight="bold" font-size="70.0" fill="#F9F9F4" transform="matrix(1.00, 0.00, -0.00, -1.00, 1878.3, 904.7)">!</text></g></g><path d="M 250.4 895.0 L 250.0 965.0 C 250.0 973.3 257.1 980.0 265.4 980.0 L 625.1 980.0 C 633.4 980.0 640.0 973.3 640.0 965.0 L 640.0 895.0 C 640.0 886.7 633.4 880.0 625.1 880.0 L 265.4 880.0 C 257.1 880.0 250.4 886.7 250.4 895.0 Z M 250.4 895.0 " fill="#64D1E8"></path><image xlink:href="../../1041F5BF-C7FF-40D6-AC64-0FA19980C854/assets/2C11AA633DB57374CD76FB2EA6092FF0.png" width="354.00" height="61.00" transform="matrix(1.00, 0.00, -0.00, -1.00, 268.0, 958.0)"></image><g><clipPath id="clip0x7fec7aa7df00"><path d="M 232.6 863.5 L 657.9 863.5 L 657.9 992.9 L 232.6 992.9 Z M 232.6 863.5 "></path></clipPath><g clip-path="url(#clip0x7fec7aa7df00)"><text xml:space="preserve" font-family="YanoneKaffeesatz-Bold,Yanone Kaffeesatz" font-weight="bold" font-size="70.0" fill="#FEFFFE" transform="matrix(1.00, 0.00, -0.00, -1.00, 271.6, 904.7)">v</text><text xml:space="preserve" font-family="YanoneKaffeesatz-Bold,Yanone Kaffeesatz" font-weight="bold" font-size="70.0" fill="#FEFFFE" transform="matrix(1.00, 0.00, -0.00, -1.00, 294.2, 904.7)">a</text><text xml:space="preserve" font-family="YanoneKaffeesatz-Bold,Yanone Kaffeesatz" font-weight="bold" font-size="70.0" fill="#FEFFFE" transform="matrix(1.00, 0.00, -0.00, -1.00, 317.8, 904.7)">l</text><text xml:space="preserve" font-family="YanoneKaffeesatz-Bold,Yanone Kaffeesatz" font-weight="bold" font-size="70.0" fill="#FEFFFE" transform="matrix(1.00, 0.00, -0.00, -1.00, 330.3, 904.7)">i</text><text xml:space="preserve" font-family="YanoneKaffeesatz-Bold,Yanone Kaffeesatz" font-weight="bold" font-size="70.0" fill="#FEFFFE" transform="matrix(1.00, 0.00, -0.00, -1.00, 342.9, 904.7)">d</text><text xml:space="preserve" font-family="YanoneKaffeesatz-Bold,Yanone Kaffeesatz" font-weight="bold" font-size="70.0" fill="#FEFFFE" transform="matrix(1.00, 0.00, -0.00, -1.00, 368.5, 904.7)">a</text><text xml:space="preserve" font-family="YanoneKaffeesatz-Bold,Yanone Kaffeesatz" font-weight="bold" font-size="70.0" fill="#FEFFFE" transform="matrix(1.00, 0.00, -0.00, -1.00, 391.5, 904.7)">t</text><text xml:space="preserve" font-family="YanoneKaffeesatz-Bold,Yanone Kaffeesatz" font-weight="bold" font-size="70.0" fill="#FEFFFE" transform="matrix(1.00, 0.00, -0.00, -1.00, 410.0, 904.7)">o</text><text xml:space="preserve" font-family="YanoneKaffeesatz-Bold,Yanone Kaffeesatz" font-weight="bold" font-size="70.0" fill="#FEFFFE" transform="matrix(1.00, 0.00, -0.00, -1.00, 434.5, 904.7)">r</text><text xml:space="preserve" font-family="YanoneKaffeesatz-Bold,Yanone Kaffeesatz" font-weight="bold" font-size="70.0" fill="#FEFFFE" transform="matrix(1.00, 0.00, -0.00, -1.00, 447.1, 904.7)">.</text><text xml:space="preserve" font-family="YanoneKaffeesatz-Bold,Yanone Kaffeesatz" font-weight="bold" font-size="70.0" fill="#FEFFFE" transform="matrix(1.00, 0.00, -0.00, -1.00, 457.1, 904.7)">v</text><text xml:space="preserve" font-family="YanoneKaffeesatz-Bold,Yanone Kaffeesatz" font-weight="bold" font-size="70.0" fill="#FEFFFE" transform="matrix(1.00, 0.00, -0.00, -1.00, 479.6, 904.7)">a</text><text xml:space="preserve" font-family="YanoneKaffeesatz-Bold,Yanone Kaffeesatz" font-weight="bold" font-size="70.0" fill="#FEFFFE" transform="matrix(1.00, 0.00, -0.00, -1.00, 503.3, 904.7)">l</text><text xml:space="preserve" font-family="YanoneKaffeesatz-Bold,Yanone Kaffeesatz" font-weight="bold" font-size="70.0" fill="#FEFFFE" transform="matrix(1.00, 0.00, -0.00, -1.00, 515.7, 904.7)">i</text><text xml:space="preserve" font-family="YanoneKaffeesatz-Bold,Yanone Kaffeesatz" font-weight="bold" font-size="70.0" fill="#FEFFFE" transform="matrix(1.00, 0.00, -0.00, -1.00, 528.3, 904.7)">d</text><text xml:space="preserve" font-family="YanoneKaffeesatz-Bold,Yanone Kaffeesatz" font-weight="bold" font-size="70.0" fill="#FEFFFE" transform="matrix(1.00, 0.00, -0.00, -1.00, 553.9, 904.7)">a</text><text xml:space="preserve" font-family="YanoneKaffeesatz-Bold,Yanone Kaffeesatz" font-weight="bold" font-size="70.0" fill="#FEFFFE" transform="matrix(1.00, 0.00, -0.00, -1.00, 576.9, 904.7)">t</text><text xml:space="preserve" font-family="YanoneKaffeesatz-Bold,Yanone Kaffeesatz" font-weight="bold" font-size="70.0" fill="#FEFFFE" transform="matrix(1.00, 0.00, -0.00, -1.00, 594.7, 904.7)">e</text></g></g><path d="M 0.0 0.3 L 61.6 0.3 L 67.0 0.3 " fill="none" stroke="#E0E4CB" stroke-width="10.00" stroke-dasharray="20.0, 20.0" transform="matrix(0.00, -1.00, -1.00, 0.00, 445.3, 1080.0)"></path><path d="M 425.8 1018.0 L 445.0 979.6 L 464.2 1018.0 Z M 425.8 1018.0 " fill="#E0E4CB"></path><path d="M 0.0 0.1 L 61.6 0.1 L 67.0 0.1 " fill="none" stroke="#E0E4CB" stroke-width="10.00" stroke-dasharray="20.0, 20.0" transform="matrix(0.00, -1.00, -1.00, 0.00, 1312.1, 1080.0)"></path><path d="M 1292.8 1018.0 L 1312.0 979.6 L 1331.2 1018.0 Z M 1292.8 1018.0 " fill="#E0E4CB"></path><path d="M 0.0 0.1 L 61.6 0.1 L 67.0 0.1 " fill="none" stroke="#E0E4CB" stroke-width="10.00" stroke-dasharray="20.0, 20.0" transform="matrix(0.00, -1.00, -1.00, 0.00, 1713.1, 1080.0)"></path><path d="M 1693.8 1018.0 L 1713.0 979.6 L 1732.2 1018.0 Z M 1693.8 1018.0 " fill="#E0E4CB"></path><image xlink:href="../../1041F5BF-C7FF-40D6-AC64-0FA19980C854/assets/AD1EB31D768EC8DF40BA540192DC43BE.png" width="83.00" height="512.00" transform="matrix(1.00, 0.00, -0.00, -1.00, 377.8, 901.2)"></image><path d="M 20.6 437.2 L 19.5 432.4 C -9.3 288.2 -6.2 144.1 28.9 0.0 " fill="none" stroke="#FE2500" stroke-width="10.00" transform="matrix(1.00, 0.00, 0.00, -1.00, 402.8, 880.0)"></path><path d="M 403.6 443.5 L 430.6 410.1 L 441.1 451.8 Z M 403.6 443.5 " fill="#FE2500"></path><image xlink:href="../../1041F5BF-C7FF-40D6-AC64-0FA19980C854/assets/5FA117E23EF98B369C9378EF531BB5A5.png" width="78.00" height="511.00" transform="matrix(1.00, 0.00, -0.00, -1.00, 1284.6, 900.6)"></image><path d="M 4.3 437.0 L 5.3 431.7 C 19.4 289.3 17.4 145.4 0.0 0.0 " fill="none" stroke="#FE2500" stroke-width="10.00" transform="matrix(1.00, 0.00, 0.00, -1.00, 1318.7, 880.0)"></path><path d="M 1304.5 450.1 L 1319.4 409.8 L 1342.6 445.9 Z M 1304.5 450.1 " fill="#FE2500"></path><image xlink:href="../../1041F5BF-C7FF-40D6-AC64-0FA19980C854/assets/AD1EB31D768EC8DF40BA540192DC43BE.png" width="83.00" height="512.00" transform="matrix(1.00, 0.00, -0.00, -1.00, 1645.7, 901.2)"></image><path d="M 20.6 437.2 L 19.5 432.4 C -9.3 288.2 -6.2 144.1 28.9 0.0 " fill="none" stroke="#FE2500" stroke-width="10.00" transform="matrix(1.00, 0.00, 0.00, -1.00, 1670.7, 880.0)"></path><path d="M 1671.5 443.5 L 1698.4 410.1 L 1709.0 451.8 Z M 1671.5 443.5 " fill="#FE2500"></path><path d="M 253.6 645.7 C 162.1 645.5 76.2 598.1 34.2 517.0 C 10.9 472.0 4.2 421.2 1.3 370.8 C -4.9 260.9 8.8 145.4 86.9 68.8 C 174.5 -17.1 312.8 -23.9 404.8 56.1 C 493.0 132.7 503.8 258.3 497.0 376.0 C 494.2 425.8 488.9 476.2 466.4 520.8 C 426.2 600.3 342.6 645.8 253.6 645.7 Z M 253.6 645.7 " fill="none" stroke="#FE2500" stroke-width="15.00" transform="matrix(1.00, 0.00, 0.00, -1.00, 641.8, 1066.8)"></path></g></svg>