<?xml version="1.0" encoding="UTF-8" standalone="no"?><svg xmlns="http://www.w3.org/2000/svg" xmlns:xlink="http://www.w3.org/1999/xlink" clip-rule="evenodd" stroke-miterlimit="10" viewBox="0 0 326 103"><desc>SVG generated by Keynote</desc><defs></defs><g transform="matrix(1.00, 0.00, -0.00, -1.00, 0.0, 103.0)"><path d="M 1.4 17.0 L 1.0 87.0 C 1.0 95.3 8.1 102.0 16.4 102.0 L 309.9 102.0 C 318.2 102.0 325.0 95.3 325.0 87.0 L 325.0 17.0 C 325.0 8.7 318.2 2.0 309.9 2.0 L 16.4 2.0 C 8.1 2.0 1.4 8.7 1.4 17.0 Z M 1.4 17.0 " fill="#64D1E8"></path><image xlink:href="../../1041F5BF-C7FF-40D6-AC64-0FA19980C854/assets/01294138EA00344B164E48A7599B1F98.png" width="296.00" height="61.00" transform="matrix(1.00, 0.00, -0.00, -1.00, 15.0, 80.0)"></image><g><clipPath id="clip0x7fec7aa38c70"><path d="M -16.4 -14.5 L 342.7 -14.5 L 342.7 114.9 L -16.4 114.9 Z M -16.4 -14.5 "></path></clipPath><g clip-path="url(#clip0x7fec7aa38c70)"><text xml:space="preserve" font-family="YanoneKaffeesatz-Bold,Yanone Kaffeesatz" font-weight="bold" font-size="70.0" fill="#F9F9F4" transform="matrix(1.00, 0.00, -0.00, -1.00, 17.1, 26.7)">n</text><text xml:space="preserve" font-family="YanoneKaffeesatz-Bold,Yanone Kaffeesatz" font-weight="bold" font-size="70.0" fill="#F9F9F4" transform="matrix(1.00, 0.00, -0.00, -1.00, 42.4, 26.7)">o</text><text xml:space="preserve" font-family="YanoneKaffeesatz-Bold,Yanone Kaffeesatz" font-weight="bold" font-size="70.0" fill="#F9F9F4" transform="matrix(1.00, 0.00, -0.00, -1.00, 66.9, 26.7)">r</text><text xml:space="preserve" font-family="YanoneKaffeesatz-Bold,Yanone Kaffeesatz" font-weight="bold" font-size="70.0" fill="#F9F9F4" transform="matrix(1.00, 0.00, -0.00, -1.00, 84.4, 26.7)">m</text><text xml:space="preserve" font-family="YanoneKaffeesatz-Bold,Yanone Kaffeesatz" font-weight="bold" font-size="70.0" fill="#F9F9F4" transform="matrix(1.00, 0.00, -0.00, -1.00, 121.5, 26.7)">a</text><text xml:space="preserve" font-family="YanoneKaffeesatz-Bold,Yanone Kaffeesatz" font-weight="bold" font-size="70.0" fill="#F9F9F4" transform="matrix(1.00, 0.00, -0.00, -1.00, 145.1, 26.7)">l</text><text xml:space="preserve" font-family="YanoneKaffeesatz-Bold,Yanone Kaffeesatz" font-weight="bold" font-size="70.0" fill="#F9F9F4" transform="matrix(1.00, 0.00, -0.00, -1.00, 157.6, 26.7)">i</text><text xml:space="preserve" font-family="YanoneKaffeesatz-Bold,Yanone Kaffeesatz" font-weight="bold" font-size="70.0" fill="#F9F9F4" transform="matrix(1.00, 0.00, -0.00, -1.00, 170.2, 26.7)">z</text><text xml:space="preserve" font-family="YanoneKaffeesatz-Bold,Yanone Kaffeesatz" font-weight="bold" font-size="70.0" fill="#F9F9F4" transform="matrix(1.00, 0.00, -0.00, -1.00, 190.2, 26.7)">e</text><text xml:space="preserve" font-family="YanoneKaffeesatz-Bold,Yanone Kaffeesatz" font-weight="bold" font-size="70.0" fill="#F9F9F4" transform="matrix(1.00, 0.00, -0.00, -1.00, 214.4, 26.7)">r</text><text xml:space="preserve" font-family="YanoneKaffeesatz-Bold,Yanone Kaffeesatz" font-weight="bold" font-size="70.0" fill="#F9F9F4" transform="matrix(1.00, 0.00, -0.00, -1.00, 227.0, 26.7)">.</text><text xml:space="preserve" font-family="YanoneKaffeesatz-Bold,Yanone Kaffeesatz" font-weight="bold" font-size="70.0" fill="#F9F9F4" transform="matrix(1.00, 0.00, -0.00, -1.00, 240.1, 26.7)">c</text><text xml:space="preserve" font-family="YanoneKaffeesatz-Bold,Yanone Kaffeesatz" font-weight="bold" font-size="70.0" fill="#F9F9F4" transform="matrix(1.00, 0.00, -0.00, -1.00, 260.6, 26.7)">a</text><text xml:space="preserve" font-family="YanoneKaffeesatz-Bold,Yanone Kaffeesatz" font-weight="bold" font-size="70.0" fill="#F9F9F4" transform="matrix(1.00, 0.00, -0.00, -1.00, 284.2, 26.7)">l</text><text xml:space="preserve" font-family="YanoneKaffeesatz-Bold,Yanone Kaffeesatz" font-weight="bold" font-size="70.0" fill="#F9F9F4" transform="matrix(1.00, 0.00, -0.00, -1.00, 296.7, 26.7)">l</text></g></g></g></svg>