<?xml version="1.0" encoding="UTF-8" standalone="no"?><svg xmlns="http://www.w3.org/2000/svg" xmlns:xlink="http://www.w3.org/1999/xlink" clip-rule="evenodd" stroke-miterlimit="10" viewBox="0 0 403 113"><desc>SVG generated by Keynote</desc><defs></defs><g transform="matrix(1.00, 0.00, -0.00, -1.00, 0.0, 113.0)"><path d="M 0.0 85.0 L -0.4 15.0 C -0.4 6.7 6.7 0.1 15.0 0.1 L 374.7 0.1 C 383.0 0.1 389.6 6.7 389.6 15.0 L 389.6 85.0 C 389.6 93.3 383.0 100.1 374.7 100.1 L 15.0 100.1 C 6.7 100.1 0.0 93.3 0.0 85.0 Z M 0.0 85.0 " fill="none" stroke="#F4861E" stroke-width="10.00" stroke-dasharray="20.0, 20.0" transform="matrix(1.00, 0.00, 0.00, -1.00, 6.4, 106.1)"></path><image xlink:href="../../1041F5BF-C7FF-40D6-AC64-0FA19980C854/assets/726CE74D8F7842B557DB131AEB3A12EF.png" width="354.00" height="61.00" transform="matrix(1.00, 0.00, -0.00, -1.00, 24.0, 83.0)"></image><g><clipPath id="clip0x7fec7a68b1c0"><path d="M -2.8 -11.1 L 405.4 -11.1 L 405.4 118.4 L -2.8 118.4 Z M -2.8 -11.1 "></path></clipPath><g clip-path="url(#clip0x7fec7a68b1c0)"><text xml:space="preserve" font-family="YanoneKaffeesatz-Bold,Yanone Kaffeesatz" font-weight="bold" font-size="70.0" fill="#FEFFFE" transform="matrix(1.00, 0.00, -0.00, -1.00, 27.6, 30.2)">v</text><text xml:space="preserve" font-family="YanoneKaffeesatz-Bold,Yanone Kaffeesatz" font-weight="bold" font-size="70.0" fill="#FEFFFE" transform="matrix(1.00, 0.00, -0.00, -1.00, 50.2, 30.2)">a</text><text xml:space="preserve" font-family="YanoneKaffeesatz-Bold,Yanone Kaffeesatz" font-weight="bold" font-size="70.0" fill="#FEFFFE" transform="matrix(1.00, 0.00, -0.00, -1.00, 73.8, 30.2)">l</text><text xml:space="preserve" font-family="YanoneKaffeesatz-Bold,Yanone Kaffeesatz" font-weight="bold" font-size="70.0" fill="#FEFFFE" transform="matrix(1.00, 0.00, -0.00, -1.00, 86.3, 30.2)">i</text><text xml:space="preserve" font-family="YanoneKaffeesatz-Bold,Yanone Kaffeesatz" font-weight="bold" font-size="70.0" fill="#FEFFFE" transform="matrix(1.00, 0.00, -0.00, -1.00, 98.9, 30.2)">d</text><text xml:space="preserve" font-family="YanoneKaffeesatz-Bold,Yanone Kaffeesatz" font-weight="bold" font-size="70.0" fill="#FEFFFE" transform="matrix(1.00, 0.00, -0.00, -1.00, 124.5, 30.2)">a</text><text xml:space="preserve" font-family="YanoneKaffeesatz-Bold,Yanone Kaffeesatz" font-weight="bold" font-size="70.0" fill="#FEFFFE" transform="matrix(1.00, 0.00, -0.00, -1.00, 147.5, 30.2)">t</text><text xml:space="preserve" font-family="YanoneKaffeesatz-Bold,Yanone Kaffeesatz" font-weight="bold" font-size="70.0" fill="#FEFFFE" transform="matrix(1.00, 0.00, -0.00, -1.00, 166.0, 30.2)">o</text><text xml:space="preserve" font-family="YanoneKaffeesatz-Bold,Yanone Kaffeesatz" font-weight="bold" font-size="70.0" fill="#FEFFFE" transform="matrix(1.00, 0.00, -0.00, -1.00, 190.5, 30.2)">r</text><text xml:space="preserve" font-family="YanoneKaffeesatz-Bold,Yanone Kaffeesatz" font-weight="bold" font-size="70.0" fill="#FEFFFE" transform="matrix(1.00, 0.00, -0.00, -1.00, 203.1, 30.2)">.</text><text xml:space="preserve" font-family="YanoneKaffeesatz-Bold,Yanone Kaffeesatz" font-weight="bold" font-size="70.0" fill="#FEFFFE" transform="matrix(1.00, 0.00, -0.00, -1.00, 213.1, 30.2)">v</text><text xml:space="preserve" font-family="YanoneKaffeesatz-Bold,Yanone Kaffeesatz" font-weight="bold" font-size="70.0" fill="#FEFFFE" transform="matrix(1.00, 0.00, -0.00, -1.00, 235.6, 30.2)">a</text><text xml:space="preserve" font-family="YanoneKaffeesatz-Bold,Yanone Kaffeesatz" font-weight="bold" font-size="70.0" fill="#FEFFFE" transform="matrix(1.00, 0.00, -0.00, -1.00, 259.3, 30.2)">l</text><text xml:space="preserve" font-family="YanoneKaffeesatz-Bold,Yanone Kaffeesatz" font-weight="bold" font-size="70.0" fill="#FEFFFE" transform="matrix(1.00, 0.00, -0.00, -1.00, 271.7, 30.2)">i</text><text xml:space="preserve" font-family="YanoneKaffeesatz-Bold,Yanone Kaffeesatz" font-weight="bold" font-size="70.0" fill="#FEFFFE" transform="matrix(1.00, 0.00, -0.00, -1.00, 284.3, 30.2)">d</text><text xml:space="preserve" font-family="YanoneKaffeesatz-Bold,Yanone Kaffeesatz" font-weight="bold" font-size="70.0" fill="#FEFFFE" transform="matrix(1.00, 0.00, -0.00, -1.00, 309.9, 30.2)">a</text><text xml:space="preserve" font-family="YanoneKaffeesatz-Bold,Yanone Kaffeesatz" font-weight="bold" font-size="70.0" fill="#FEFFFE" transform="matrix(1.00, 0.00, -0.00, -1.00, 332.9, 30.2)">t</text><text xml:space="preserve" font-family="YanoneKaffeesatz-Bold,Yanone Kaffeesatz" font-weight="bold" font-size="70.0" fill="#FEFFFE" transform="matrix(1.00, 0.00, -0.00, -1.00, 350.7, 30.2)">e</text></g></g></g></svg>