<?xml version="1.0" encoding="UTF-8" standalone="no"?><svg xmlns="http://www.w3.org/2000/svg" xmlns:xlink="http://www.w3.org/1999/xlink" clip-rule="evenodd" stroke-miterlimit="10" viewBox="0 0 1920 1080"><desc>SVG generated by Keynote</desc><defs></defs><g transform="matrix(1.00, 0.00, -0.00, -1.00, 0.0, 1080.0)"><g><clipPath id="clip0x7fec77973880"><path d="M 0.0 1080.0 L 1920.0 1080.0 L 1920.0 0.0 L 0.0 0.0 Z M 0.0 1080.0 "></path></clipPath><g clip-path="url(#clip0x7fec77973880)"><image xlink:href="../../A5D7B27F-ECCD-4C51-9075-135B713588B1/assets/0F43D2572F34A9AFB59E4515ED9A1249.jpeg" width="3840.00" height="2160.00" transform="matrix(0.50, 0.00, -0.00, -0.50, 0.0, 1080.0)"></image></g></g><image xlink:href="255BA5C7E3499A0F0052B0902A5D6B6E.png" width="445.00" height="158.00" transform="matrix(1.00, 0.00, -0.00, -1.00, 241.0, 613.0)"></image><text xml:space="preserve" font-family="YanoneKaffeesatz-Bold,Yanone Kaffeesatz" font-weight="bold" font-size="200.0" fill="#F4861E" transform="matrix(1.00, 0.00, -0.00, -1.00, 239.8, 464.4)">B</text><text xml:space="preserve" font-family="YanoneKaffeesatz-Bold,Yanone Kaffeesatz" font-weight="bold" font-size="200.0" fill="#F4861E" transform="matrix(1.00, 0.00, -0.00, -1.00, 311.4, 464.4)">u</text><text xml:space="preserve" font-family="YanoneKaffeesatz-Bold,Yanone Kaffeesatz" font-weight="bold" font-size="200.0" fill="#F4861E" transform="matrix(1.00, 0.00, -0.00, -1.00, 383.6, 464.4)">n</text><text xml:space="preserve" font-family="YanoneKaffeesatz-Bold,Yanone Kaffeesatz" font-weight="bold" font-size="200.0" fill="#F4861E" transform="matrix(1.00, 0.00, -0.00, -1.00, 455.8, 464.4)">d</text><text xml:space="preserve" font-family="YanoneKaffeesatz-Bold,Yanone Kaffeesatz" font-weight="bold" font-size="200.0" fill="#F4861E" transform="matrix(1.00, 0.00, -0.00, -1.00, 529.0, 464.4)">l</text><text xml:space="preserve" font-family="YanoneKaffeesatz-Bold,Yanone Kaffeesatz" font-weight="bold" font-size="200.0" fill="#F4861E" transform="matrix(1.00, 0.00, -0.00, -1.00, 564.6, 464.4)">e</text><text xml:space="preserve" font-family="YanoneKaffeesatz-Bold,Yanone Kaffeesatz" font-weight="bold" font-size="200.0" fill="#F4861E" transform="matrix(1.00, 0.00, -0.00, -1.00, 633.8, 464.4)">r</text><image xlink:href="86C2E4A6B6C714BA2A60B8F89333E3DF.png" width="597.00" height="195.00" transform="matrix(1.00, 0.00, -0.00, -1.00, 1043.0, 613.0)"></image><text xml:space="preserve" font-family="YanoneKaffeesatz-Bold,Yanone Kaffeesatz" font-weight="bold" font-size="200.0" fill="#F4861E" transform="matrix(1.00, 0.00, -0.00, -1.00, 1041.8, 464.4)">R</text><text xml:space="preserve" font-family="YanoneKaffeesatz-Bold,Yanone Kaffeesatz" font-weight="bold" font-size="200.0" fill="#F4861E" transform="matrix(1.00, 0.00, -0.00, -1.00, 1115.2, 464.4)">u</text><text xml:space="preserve" font-family="YanoneKaffeesatz-Bold,Yanone Kaffeesatz" font-weight="bold" font-size="200.0" fill="#F4861E" transform="matrix(1.00, 0.00, -0.00, -1.00, 1187.4, 464.4)">b</text><text xml:space="preserve" font-family="YanoneKaffeesatz-Bold,Yanone Kaffeesatz" font-weight="bold" font-size="200.0" fill="#F4861E" transform="matrix(1.00, 0.00, -0.00, -1.00, 1259.8, 464.4)">y</text><text xml:space="preserve" font-family="YanoneKaffeesatz-Bold,Yanone Kaffeesatz" font-weight="bold" font-size="200.0" fill="#F4861E" transform="matrix(1.00, 0.00, -0.00, -1.00, 1323.8, 464.4)">g</text><text xml:space="preserve" font-family="YanoneKaffeesatz-Bold,Yanone Kaffeesatz" font-weight="bold" font-size="200.0" fill="#F4861E" transform="matrix(1.00, 0.00, -0.00, -1.00, 1398.6, 464.4)">e</text><text xml:space="preserve" font-family="YanoneKaffeesatz-Bold,Yanone Kaffeesatz" font-weight="bold" font-size="200.0" fill="#F4861E" transform="matrix(1.00, 0.00, -0.00, -1.00, 1467.8, 464.4)">m</text><text xml:space="preserve" font-family="YanoneKaffeesatz-Bold,Yanone Kaffeesatz" font-weight="bold" font-size="200.0" fill="#F4861E" transform="matrix(1.00, 0.00, -0.00, -1.00, 1573.8, 464.4)">s</text><path d="M 0.0 0.0 L 198.0 0.0 " fill="none" stroke="#FF0000" stroke-width="30.00" transform="matrix(0.71, 0.71, 0.71, -0.71, 372.0, 446.0)"></path><path d="M 0.0 0.0 L 198.0 0.0 " fill="none" stroke="#FF0000" stroke-width="30.00" transform="matrix(0.71, -0.71, -0.71, -0.71, 372.0, 586.0)"></path><path d="M 0.0 0.0 L 198.0 0.0 " fill="none" stroke="#FF0000" stroke-width="30.00" transform="matrix(0.71, 0.71, 0.71, -0.71, 1269.7, 446.0)"></path><path d="M 0.0 0.0 L 198.0 0.0 " fill="none" stroke="#FF0000" stroke-width="30.00" transform="matrix(0.71, -0.71, -0.71, -0.71, 1269.7, 586.0)"></path></g></svg>