<?xml version="1.0" encoding="UTF-8" standalone="no"?><svg xmlns="http://www.w3.org/2000/svg" xmlns:xlink="http://www.w3.org/1999/xlink" clip-rule="evenodd" stroke-miterlimit="10" viewBox="0 0 1920 1080"><desc>SVG generated by Keynote</desc><defs></defs><g transform="matrix(1.00, 0.00, -0.00, -1.00, 0.0, 1080.0)"><g><clipPath id="clip0x7fec7a628e90"><path d="M 0.0 1080.0 L 1920.0 1080.0 L 1920.0 0.0 L 0.0 0.0 Z M 0.0 1080.0 "></path></clipPath><g clip-path="url(#clip0x7fec7a628e90)"><image xlink:href="../../A5D7B27F-ECCD-4C51-9075-135B713588B1/assets/0F43D2572F34A9AFB59E4515ED9A1249.jpeg" width="3840.00" height="2160.00" transform="matrix(0.50, 0.00, -0.00, -0.50, 0.0, 1080.0)"></image></g></g><image xlink:href="2EAB4068090BD61B5811909CCA21D015.png" width="1369.00" height="575.00" transform="matrix(1.00, 0.00, -0.00, -1.00, 95.4, 827.3)" opacity="0.25"></image><path d="M 115.0 807.0 L 1445.0 807.0 L 1445.0 273.0 L 115.0 273.0 Z M 115.4 807.3 " fill="#323232"></path><g><clipPath id="clip0x7fec77db90a0"><path d="M 106.9 260.8 L 2754.5 260.8 L 2754.5 815.8 L 106.9 815.8 Z M 106.9 260.8 "></path></clipPath><g clip-path="url(#clip0x7fec77db90a0)"><text xml:space="preserve" font-family="Monaco,Monaco" font-size="40.0" fill="#000000" transform="matrix(1.00, 0.00, -0.00, -1.00, 119.4, 763.7)"> </text><text xml:space="preserve" font-family="Monaco,Monaco" font-size="40.0" fill="#000000" transform="matrix(1.00, 0.00, -0.00, -1.00, 143.4, 763.7)"> </text><text xml:space="preserve" font-family="Monaco,Monaco" font-size="40.0" fill="#000000" transform="matrix(1.00, 0.00, -0.00, -1.00, 167.4, 763.7)"> </text><text xml:space="preserve" font-family="Monaco,Monaco" font-size="40.0" fill="#000000" transform="matrix(1.00, 0.00, -0.00, -1.00, 191.4, 763.7)"> </text><text xml:space="preserve" font-family="Monaco,Monaco" font-size="40.0" fill="#888371" transform="matrix(1.00, 0.00, -0.00, -1.00, 215.4, 763.7)">#</text><text xml:space="preserve" font-family="Monaco,Monaco" font-size="40.0" fill="#888371" transform="matrix(1.00, 0.00, -0.00, -1.00, 239.4, 763.7)"> </text><text xml:space="preserve" font-family="Monaco,Monaco" font-size="40.0" fill="#888371" transform="matrix(1.00, 0.00, -0.00, -1.00, 263.4, 763.7)">.</text><text xml:space="preserve" font-family="Monaco,Monaco" font-size="40.0" fill="#888371" transform="matrix(1.00, 0.00, -0.00, -1.00, 287.4, 763.7)">.</text><text xml:space="preserve" font-family="Monaco,Monaco" font-size="40.0" fill="#888371" transform="matrix(1.00, 0.00, -0.00, -1.00, 311.4, 763.7)">.</text><text xml:space="preserve" font-family="Monaco,Monaco" font-size="40.0" fill="#F9F9F4" transform="matrix(1.00, 0.00, -0.00, -1.00, 119.4, 710.7)"> </text><text xml:space="preserve" font-family="Monaco,Monaco" font-size="40.0" fill="#F9F9F4" transform="matrix(1.00, 0.00, -0.00, -1.00, 143.4, 710.7)"> </text><text xml:space="preserve" font-family="Monaco,Monaco" font-size="40.0" fill="#F9F9F4" transform="matrix(1.00, 0.00, -0.00, -1.00, 167.4, 710.7)"> </text><text xml:space="preserve" font-family="Monaco,Monaco" font-size="40.0" fill="#F9F9F4" transform="matrix(1.00, 0.00, -0.00, -1.00, 191.4, 710.7)"> </text><text xml:space="preserve" font-family="Monaco,Monaco" font-size="40.0" fill="#F9F9F4" transform="matrix(1.00, 0.00, -0.00, -1.00, 215.4, 710.7)">p</text><text xml:space="preserve" font-family="Monaco,Monaco" font-size="40.0" fill="#F9F9F4" transform="matrix(1.00, 0.00, -0.00, -1.00, 239.4, 710.7)">r</text><text xml:space="preserve" font-family="Monaco,Monaco" font-size="40.0" fill="#F9F9F4" transform="matrix(1.00, 0.00, -0.00, -1.00, 263.4, 710.7)">i</text><text xml:space="preserve" font-family="Monaco,Monaco" font-size="40.0" fill="#F9F9F4" transform="matrix(1.00, 0.00, -0.00, -1.00, 287.4, 710.7)">v</text><text xml:space="preserve" font-family="Monaco,Monaco" font-size="40.0" fill="#F9F9F4" transform="matrix(1.00, 0.00, -0.00, -1.00, 311.4, 710.7)">a</text><text xml:space="preserve" font-family="Monaco,Monaco" font-size="40.0" fill="#F9F9F4" transform="matrix(1.00, 0.00, -0.00, -1.00, 335.4, 710.7)">t</text><text xml:space="preserve" font-family="Monaco,Monaco" font-size="40.0" fill="#F9F9F4" transform="matrix(1.00, 0.00, -0.00, -1.00, 359.4, 710.7)">e</text><text xml:space="preserve" font-family="Monaco,Monaco" font-size="40.0" fill="#000000" transform="matrix(1.00, 0.00, -0.00, -1.00, 119.4, 657.7)"> </text><text xml:space="preserve" font-family="Monaco,Monaco" font-size="40.0" fill="#000000" transform="matrix(1.00, 0.00, -0.00, -1.00, 143.4, 657.7)"> </text><text xml:space="preserve" font-family="Monaco,Monaco" font-size="40.0" fill="#000000" transform="matrix(1.00, 0.00, -0.00, -1.00, 167.4, 657.7)"> </text><text xml:space="preserve" font-family="Monaco,Monaco" font-size="40.0" fill="#000000" transform="matrix(1.00, 0.00, -0.00, -1.00, 191.4, 657.7)"> </text><text xml:space="preserve" font-family="Monaco,Monaco" font-size="40.0" fill="#FC4384" transform="matrix(1.00, 0.00, -0.00, -1.00, 215.4, 657.7)">d</text><text xml:space="preserve" font-family="Monaco,Monaco" font-size="40.0" fill="#FC4384" transform="matrix(1.00, 0.00, -0.00, -1.00, 239.4, 657.7)">e</text><text xml:space="preserve" font-family="Monaco,Monaco" font-size="40.0" fill="#FC4384" transform="matrix(1.00, 0.00, -0.00, -1.00, 263.4, 657.7)">f</text><text xml:space="preserve" font-family="Monaco,Monaco" font-size="40.0" fill="#000000" transform="matrix(1.00, 0.00, -0.00, -1.00, 287.4, 657.7)"> </text><text xml:space="preserve" font-family="Monaco,Monaco" font-size="40.0" fill="#13F7BA" transform="matrix(1.00, 0.00, -0.00, -1.00, 311.4, 657.7)">i</text><text xml:space="preserve" font-family="Monaco,Monaco" font-size="40.0" fill="#13F7BA" transform="matrix(1.00, 0.00, -0.00, -1.00, 335.4, 657.7)">m</text><text xml:space="preserve" font-family="Monaco,Monaco" font-size="40.0" fill="#13F7BA" transform="matrix(1.00, 0.00, -0.00, -1.00, 359.4, 657.7)">p</text><text xml:space="preserve" font-family="Monaco,Monaco" font-size="40.0" fill="#13F7BA" transform="matrix(1.00, 0.00, -0.00, -1.00, 383.4, 657.7)">o</text><text xml:space="preserve" font-family="Monaco,Monaco" font-size="40.0" fill="#13F7BA" transform="matrix(1.00, 0.00, -0.00, -1.00, 407.4, 657.7)">r</text><text xml:space="preserve" font-family="Monaco,Monaco" font-size="40.0" fill="#13F7BA" transform="matrix(1.00, 0.00, -0.00, -1.00, 431.4, 657.7)">t</text><text xml:space="preserve" font-family="Monaco,Monaco" font-size="40.0" fill="#13F7BA" transform="matrix(1.00, 0.00, -0.00, -1.00, 455.4, 657.7)">_</text><text xml:space="preserve" font-family="Monaco,Monaco" font-size="40.0" fill="#13F7BA" transform="matrix(1.00, 0.00, -0.00, -1.00, 479.4, 657.7)">n</text><text xml:space="preserve" font-family="Monaco,Monaco" font-size="40.0" fill="#13F7BA" transform="matrix(1.00, 0.00, -0.00, -1.00, 503.5, 657.7)">a</text><text xml:space="preserve" font-family="Monaco,Monaco" font-size="40.0" fill="#13F7BA" transform="matrix(1.00, 0.00, -0.00, -1.00, 527.5, 657.7)">m</text><text xml:space="preserve" font-family="Monaco,Monaco" font-size="40.0" fill="#13F7BA" transform="matrix(1.00, 0.00, -0.00, -1.00, 551.5, 657.7)">e</text><text xml:space="preserve" font-family="Monaco,Monaco" font-size="40.0" fill="#13F7BA" transform="matrix(1.00, 0.00, -0.00, -1.00, 575.5, 657.7)">s</text><text xml:space="preserve" font-family="Monaco,Monaco" font-size="40.0" fill="#13F7BA" transform="matrix(1.00, 0.00, -0.00, -1.00, 599.5, 657.7)">e</text><text xml:space="preserve" font-family="Monaco,Monaco" font-size="40.0" fill="#13F7BA" transform="matrix(1.00, 0.00, -0.00, -1.00, 623.5, 657.7)">r</text><text xml:space="preserve" font-family="Monaco,Monaco" font-size="40.0" fill="#13F7BA" transform="matrix(1.00, 0.00, -0.00, -1.00, 647.5, 657.7)">v</text><text xml:space="preserve" font-family="Monaco,Monaco" font-size="40.0" fill="#13F7BA" transform="matrix(1.00, 0.00, -0.00, -1.00, 671.5, 657.7)">e</text><text xml:space="preserve" font-family="Monaco,Monaco" font-size="40.0" fill="#13F7BA" transform="matrix(1.00, 0.00, -0.00, -1.00, 695.5, 657.7)">r</text><text xml:space="preserve" font-family="Monaco,Monaco" font-size="40.0" fill="#F9F9F4" transform="matrix(1.00, 0.00, -0.00, -1.00, 719.5, 657.7)">(</text><text xml:space="preserve" font-family="Monaco,Monaco" font-size="40.0" fill="#F9F9F4" transform="matrix(1.00, 0.00, -0.00, -1.00, 743.5, 657.7)">n</text><text xml:space="preserve" font-family="Monaco,Monaco" font-size="40.0" fill="#F9F9F4" transform="matrix(1.00, 0.00, -0.00, -1.00, 767.5, 657.7)">a</text><text xml:space="preserve" font-family="Monaco,Monaco" font-size="40.0" fill="#F9F9F4" transform="matrix(1.00, 0.00, -0.00, -1.00, 791.5, 657.7)">m</text><text xml:space="preserve" font-family="Monaco,Monaco" font-size="40.0" fill="#F9F9F4" transform="matrix(1.00, 0.00, -0.00, -1.00, 815.5, 657.7)">e</text><text xml:space="preserve" font-family="Monaco,Monaco" font-size="40.0" fill="#F9F9F4" transform="matrix(1.00, 0.00, -0.00, -1.00, 839.5, 657.7)">s</text><text xml:space="preserve" font-family="Monaco,Monaco" font-size="40.0" fill="#F9F9F4" transform="matrix(1.00, 0.00, -0.00, -1.00, 863.5, 657.7)">e</text><text xml:space="preserve" font-family="Monaco,Monaco" font-size="40.0" fill="#F9F9F4" transform="matrix(1.00, 0.00, -0.00, -1.00, 887.5, 657.7)">r</text><text xml:space="preserve" font-family="Monaco,Monaco" font-size="40.0" fill="#F9F9F4" transform="matrix(1.00, 0.00, -0.00, -1.00, 911.5, 657.7)">v</text><text xml:space="preserve" font-family="Monaco,Monaco" font-size="40.0" fill="#F9F9F4" transform="matrix(1.00, 0.00, -0.00, -1.00, 935.5, 657.7)">e</text><text xml:space="preserve" font-family="Monaco,Monaco" font-size="40.0" fill="#F9F9F4" transform="matrix(1.00, 0.00, -0.00, -1.00, 959.5, 657.7)">r</text><text xml:space="preserve" font-family="Monaco,Monaco" font-size="40.0" fill="#F9F9F4" transform="matrix(1.00, 0.00, -0.00, -1.00, 983.5, 657.7)">)</text><text xml:space="preserve" font-family="Monaco,Monaco" font-size="40.0" fill="#000000" transform="matrix(1.00, 0.00, -0.00, -1.00, 119.4, 604.7)"> </text><text xml:space="preserve" font-family="Monaco,Monaco" font-size="40.0" fill="#000000" transform="matrix(1.00, 0.00, -0.00, -1.00, 143.4, 604.7)"> </text><text xml:space="preserve" font-family="Monaco,Monaco" font-size="40.0" fill="#000000" transform="matrix(1.00, 0.00, -0.00, -1.00, 167.4, 604.7)"> </text><text xml:space="preserve" font-family="Monaco,Monaco" font-size="40.0" fill="#000000" transform="matrix(1.00, 0.00, -0.00, -1.00, 191.4, 604.7)"> </text><text xml:space="preserve" font-family="Monaco,Monaco" font-size="40.0" fill="#000000" transform="matrix(1.00, 0.00, -0.00, -1.00, 215.4, 604.7)"> </text><text xml:space="preserve" font-family="Monaco,Monaco" font-size="40.0" fill="#000000" transform="matrix(1.00, 0.00, -0.00, -1.00, 239.4, 604.7)"> </text><text xml:space="preserve" font-family="Monaco,Monaco" font-size="40.0" fill="#FC4384" transform="matrix(1.00, 0.00, -0.00, -1.00, 263.4, 604.7)">i</text><text xml:space="preserve" font-family="Monaco,Monaco" font-size="40.0" fill="#FC4384" transform="matrix(1.00, 0.00, -0.00, -1.00, 287.4, 604.7)">f</text><text xml:space="preserve" font-family="Monaco,Monaco" font-size="40.0" fill="#000000" transform="matrix(1.00, 0.00, -0.00, -1.00, 311.4, 604.7)"> </text><text xml:space="preserve" font-family="Monaco,Monaco" font-size="40.0" fill="#75DFF2" transform="matrix(1.00, 0.00, -0.00, -1.00, 335.4, 604.7)">@</text><text xml:space="preserve" font-family="Monaco,Monaco" font-size="40.0" fill="#75DFF2" transform="matrix(1.00, 0.00, -0.00, -1.00, 359.4, 604.7)">v</text><text xml:space="preserve" font-family="Monaco,Monaco" font-size="40.0" fill="#75DFF2" transform="matrix(1.00, 0.00, -0.00, -1.00, 383.4, 604.7)">a</text><text xml:space="preserve" font-family="Monaco,Monaco" font-size="40.0" fill="#75DFF2" transform="matrix(1.00, 0.00, -0.00, -1.00, 407.4, 604.7)">l</text><text xml:space="preserve" font-family="Monaco,Monaco" font-size="40.0" fill="#75DFF2" transform="matrix(1.00, 0.00, -0.00, -1.00, 431.4, 604.7)">i</text><text xml:space="preserve" font-family="Monaco,Monaco" font-size="40.0" fill="#75DFF2" transform="matrix(1.00, 0.00, -0.00, -1.00, 455.4, 604.7)">d</text><text xml:space="preserve" font-family="Monaco,Monaco" font-size="40.0" fill="#75DFF2" transform="matrix(1.00, 0.00, -0.00, -1.00, 479.4, 604.7)">a</text><text xml:space="preserve" font-family="Monaco,Monaco" font-size="40.0" fill="#75DFF2" transform="matrix(1.00, 0.00, -0.00, -1.00, 503.5, 604.7)">t</text><text xml:space="preserve" font-family="Monaco,Monaco" font-size="40.0" fill="#75DFF2" transform="matrix(1.00, 0.00, -0.00, -1.00, 527.5, 604.7)">o</text><text xml:space="preserve" font-family="Monaco,Monaco" font-size="40.0" fill="#75DFF2" transform="matrix(1.00, 0.00, -0.00, -1.00, 551.5, 604.7)">r</text><text xml:space="preserve" font-family="Monaco,Monaco" font-size="40.0" fill="#F9F9F4" transform="matrix(1.00, 0.00, -0.00, -1.00, 575.4, 604.7)">.</text><text xml:space="preserve" font-family="Monaco,Monaco" font-size="40.0" fill="#13F7BA" transform="matrix(1.00, 0.00, -0.00, -1.00, 599.4, 604.7)">v</text><text xml:space="preserve" font-family="Monaco,Monaco" font-size="40.0" fill="#13F7BA" transform="matrix(1.00, 0.00, -0.00, -1.00, 623.4, 604.7)">a</text><text xml:space="preserve" font-family="Monaco,Monaco" font-size="40.0" fill="#13F7BA" transform="matrix(1.00, 0.00, -0.00, -1.00, 647.5, 604.7)">l</text><text xml:space="preserve" font-family="Monaco,Monaco" font-size="40.0" fill="#13F7BA" transform="matrix(1.00, 0.00, -0.00, -1.00, 671.5, 604.7)">i</text><text xml:space="preserve" font-family="Monaco,Monaco" font-size="40.0" fill="#13F7BA" transform="matrix(1.00, 0.00, -0.00, -1.00, 695.5, 604.7)">d</text><text xml:space="preserve" font-family="Monaco,Monaco" font-size="40.0" fill="#13F7BA" transform="matrix(1.00, 0.00, -0.00, -1.00, 719.5, 604.7)">a</text><text xml:space="preserve" font-family="Monaco,Monaco" font-size="40.0" fill="#13F7BA" transform="matrix(1.00, 0.00, -0.00, -1.00, 743.5, 604.7)">t</text><text xml:space="preserve" font-family="Monaco,Monaco" font-size="40.0" fill="#13F7BA" transform="matrix(1.00, 0.00, -0.00, -1.00, 767.5, 604.7)">e</text><text xml:space="preserve" font-family="Monaco,Monaco" font-size="40.0" fill="#F9F9F4" transform="matrix(1.00, 0.00, -0.00, -1.00, 791.5, 604.7)">(</text><text xml:space="preserve" font-family="Monaco,Monaco" font-size="40.0" fill="#F9F9F4" transform="matrix(1.00, 0.00, -0.00, -1.00, 815.5, 604.7)">n</text><text xml:space="preserve" font-family="Monaco,Monaco" font-size="40.0" fill="#F9F9F4" transform="matrix(1.00, 0.00, -0.00, -1.00, 839.5, 604.7)">a</text><text xml:space="preserve" font-family="Monaco,Monaco" font-size="40.0" fill="#F9F9F4" transform="matrix(1.00, 0.00, -0.00, -1.00, 863.5, 604.7)">m</text><text xml:space="preserve" font-family="Monaco,Monaco" font-size="40.0" fill="#F9F9F4" transform="matrix(1.00, 0.00, -0.00, -1.00, 887.5, 604.7)">e</text><text xml:space="preserve" font-family="Monaco,Monaco" font-size="40.0" fill="#F9F9F4" transform="matrix(1.00, 0.00, -0.00, -1.00, 911.5, 604.7)">s</text><text xml:space="preserve" font-family="Monaco,Monaco" font-size="40.0" fill="#F9F9F4" transform="matrix(1.00, 0.00, -0.00, -1.00, 935.5, 604.7)">e</text><text xml:space="preserve" font-family="Monaco,Monaco" font-size="40.0" fill="#F9F9F4" transform="matrix(1.00, 0.00, -0.00, -1.00, 959.5, 604.7)">r</text><text xml:space="preserve" font-family="Monaco,Monaco" font-size="40.0" fill="#F9F9F4" transform="matrix(1.00, 0.00, -0.00, -1.00, 983.5, 604.7)">v</text><text xml:space="preserve" font-family="Monaco,Monaco" font-size="40.0" fill="#F9F9F4" transform="matrix(1.00, 0.00, -0.00, -1.00, 1007.5, 604.7)">e</text><text xml:space="preserve" font-family="Monaco,Monaco" font-size="40.0" fill="#F9F9F4" transform="matrix(1.00, 0.00, -0.00, -1.00, 1031.6, 604.7)">r</text><text xml:space="preserve" font-family="Monaco,Monaco" font-size="40.0" fill="#F9F9F4" transform="matrix(1.00, 0.00, -0.00, -1.00, 1055.6, 604.7)">)</text><text xml:space="preserve" font-family="Monaco,Monaco" font-size="40.0" fill="#F9F9F4" transform="matrix(1.00, 0.00, -0.00, -1.00, 119.4, 551.7)"> </text><text xml:space="preserve" font-family="Monaco,Monaco" font-size="40.0" fill="#F9F9F4" transform="matrix(1.00, 0.00, -0.00, -1.00, 143.4, 551.7)"> </text><text xml:space="preserve" font-family="Monaco,Monaco" font-size="40.0" fill="#F9F9F4" transform="matrix(1.00, 0.00, -0.00, -1.00, 167.4, 551.7)"> </text><text xml:space="preserve" font-family="Monaco,Monaco" font-size="40.0" fill="#F9F9F4" transform="matrix(1.00, 0.00, -0.00, -1.00, 191.4, 551.7)"> </text><text xml:space="preserve" font-family="Monaco,Monaco" font-size="40.0" fill="#F9F9F4" transform="matrix(1.00, 0.00, -0.00, -1.00, 215.4, 551.7)"> </text><text xml:space="preserve" font-family="Monaco,Monaco" font-size="40.0" fill="#F9F9F4" transform="matrix(1.00, 0.00, -0.00, -1.00, 239.4, 551.7)"> </text><text xml:space="preserve" font-family="Monaco,Monaco" font-size="40.0" fill="#F9F9F4" transform="matrix(1.00, 0.00, -0.00, -1.00, 263.4, 551.7)"> </text><text xml:space="preserve" font-family="Monaco,Monaco" font-size="40.0" fill="#F9F9F4" transform="matrix(1.00, 0.00, -0.00, -1.00, 287.4, 551.7)"> </text><text xml:space="preserve" font-family="Monaco,Monaco" font-size="40.0" fill="#F9F9F4" transform="matrix(1.00, 0.00, -0.00, -1.00, 311.4, 551.7)">n</text><text xml:space="preserve" font-family="Monaco,Monaco" font-size="40.0" fill="#F9F9F4" transform="matrix(1.00, 0.00, -0.00, -1.00, 335.4, 551.7)">a</text><text xml:space="preserve" font-family="Monaco,Monaco" font-size="40.0" fill="#F9F9F4" transform="matrix(1.00, 0.00, -0.00, -1.00, 359.4, 551.7)">m</text><text xml:space="preserve" font-family="Monaco,Monaco" font-size="40.0" fill="#F9F9F4" transform="matrix(1.00, 0.00, -0.00, -1.00, 383.5, 551.7)">e</text><text xml:space="preserve" font-family="Monaco,Monaco" font-size="40.0" fill="#F9F9F4" transform="matrix(1.00, 0.00, -0.00, -1.00, 407.5, 551.7)">s</text><text xml:space="preserve" font-family="Monaco,Monaco" font-size="40.0" fill="#F9F9F4" transform="matrix(1.00, 0.00, -0.00, -1.00, 431.5, 551.7)">e</text><text xml:space="preserve" font-family="Monaco,Monaco" font-size="40.0" fill="#F9F9F4" transform="matrix(1.00, 0.00, -0.00, -1.00, 455.5, 551.7)">r</text><text xml:space="preserve" font-family="Monaco,Monaco" font-size="40.0" fill="#F9F9F4" transform="matrix(1.00, 0.00, -0.00, -1.00, 479.5, 551.7)">v</text><text xml:space="preserve" font-family="Monaco,Monaco" font-size="40.0" fill="#F9F9F4" transform="matrix(1.00, 0.00, -0.00, -1.00, 503.5, 551.7)">e</text><text xml:space="preserve" font-family="Monaco,Monaco" font-size="40.0" fill="#F9F9F4" transform="matrix(1.00, 0.00, -0.00, -1.00, 527.5, 551.7)">r</text><text xml:space="preserve" font-family="Monaco,Monaco" font-size="40.0" fill="#000000" transform="matrix(1.00, 0.00, -0.00, -1.00, 551.4, 551.7)"> </text><text xml:space="preserve" font-family="Monaco,Monaco" font-size="40.0" fill="#F9F9F4" transform="matrix(1.00, 0.00, -0.00, -1.00, 575.4, 551.7)">=</text><text xml:space="preserve" font-family="Monaco,Monaco" font-size="40.0" fill="#000000" transform="matrix(1.00, 0.00, -0.00, -1.00, 599.4, 551.7)"> </text><text xml:space="preserve" font-family="Monaco,Monaco" font-size="40.0" fill="#75DFF2" transform="matrix(1.00, 0.00, -0.00, -1.00, 623.4, 551.7)">@</text><text xml:space="preserve" font-family="Monaco,Monaco" font-size="40.0" fill="#75DFF2" transform="matrix(1.00, 0.00, -0.00, -1.00, 647.5, 551.7)">d</text><text xml:space="preserve" font-family="Monaco,Monaco" font-size="40.0" fill="#75DFF2" transform="matrix(1.00, 0.00, -0.00, -1.00, 671.5, 551.7)">a</text><text xml:space="preserve" font-family="Monaco,Monaco" font-size="40.0" fill="#75DFF2" transform="matrix(1.00, 0.00, -0.00, -1.00, 695.5, 551.7)">t</text><text xml:space="preserve" font-family="Monaco,Monaco" font-size="40.0" fill="#75DFF2" transform="matrix(1.00, 0.00, -0.00, -1.00, 719.5, 551.7)">a</text><text xml:space="preserve" font-family="Monaco,Monaco" font-size="40.0" fill="#75DFF2" transform="matrix(1.00, 0.00, -0.00, -1.00, 743.5, 551.7)">_</text><text xml:space="preserve" font-family="Monaco,Monaco" font-size="40.0" fill="#75DFF2" transform="matrix(1.00, 0.00, -0.00, -1.00, 767.5, 551.7)">n</text><text xml:space="preserve" font-family="Monaco,Monaco" font-size="40.0" fill="#75DFF2" transform="matrix(1.00, 0.00, -0.00, -1.00, 791.5, 551.7)">o</text><text xml:space="preserve" font-family="Monaco,Monaco" font-size="40.0" fill="#75DFF2" transform="matrix(1.00, 0.00, -0.00, -1.00, 815.5, 551.7)">r</text><text xml:space="preserve" font-family="Monaco,Monaco" font-size="40.0" fill="#75DFF2" transform="matrix(1.00, 0.00, -0.00, -1.00, 839.5, 551.7)">m</text><text xml:space="preserve" font-family="Monaco,Monaco" font-size="40.0" fill="#75DFF2" transform="matrix(1.00, 0.00, -0.00, -1.00, 863.5, 551.7)">a</text><text xml:space="preserve" font-family="Monaco,Monaco" font-size="40.0" fill="#75DFF2" transform="matrix(1.00, 0.00, -0.00, -1.00, 887.5, 551.7)">l</text><text xml:space="preserve" font-family="Monaco,Monaco" font-size="40.0" fill="#75DFF2" transform="matrix(1.00, 0.00, -0.00, -1.00, 911.5, 551.7)">i</text><text xml:space="preserve" font-family="Monaco,Monaco" font-size="40.0" fill="#75DFF2" transform="matrix(1.00, 0.00, -0.00, -1.00, 935.5, 551.7)">z</text><text xml:space="preserve" font-family="Monaco,Monaco" font-size="40.0" fill="#75DFF2" transform="matrix(1.00, 0.00, -0.00, -1.00, 959.6, 551.7)">e</text><text xml:space="preserve" font-family="Monaco,Monaco" font-size="40.0" fill="#75DFF2" transform="matrix(1.00, 0.00, -0.00, -1.00, 983.6, 551.7)">r</text><text xml:space="preserve" font-family="Monaco,Monaco" font-size="40.0" fill="#F9F9F4" transform="matrix(1.00, 0.00, -0.00, -1.00, 1007.5, 551.7)">.</text><text xml:space="preserve" font-family="Monaco,Monaco" font-size="40.0" fill="#13F7BA" transform="matrix(1.00, 0.00, -0.00, -1.00, 1031.5, 551.7)">c</text><text xml:space="preserve" font-family="Monaco,Monaco" font-size="40.0" fill="#13F7BA" transform="matrix(1.00, 0.00, -0.00, -1.00, 1055.5, 551.7)">a</text><text xml:space="preserve" font-family="Monaco,Monaco" font-size="40.0" fill="#13F7BA" transform="matrix(1.00, 0.00, -0.00, -1.00, 1079.5, 551.7)">l</text><text xml:space="preserve" font-family="Monaco,Monaco" font-size="40.0" fill="#13F7BA" transform="matrix(1.00, 0.00, -0.00, -1.00, 1103.5, 551.7)">l</text><text xml:space="preserve" font-family="Monaco,Monaco" font-size="40.0" fill="#F9F9F4" transform="matrix(1.00, 0.00, -0.00, -1.00, 1127.5, 551.7)">(</text><text xml:space="preserve" font-family="Monaco,Monaco" font-size="40.0" fill="#F9F9F4" transform="matrix(1.00, 0.00, -0.00, -1.00, 1151.5, 551.7)">n</text><text xml:space="preserve" font-family="Monaco,Monaco" font-size="40.0" fill="#F9F9F4" transform="matrix(1.00, 0.00, -0.00, -1.00, 1175.5, 551.7)">a</text><text xml:space="preserve" font-family="Monaco,Monaco" font-size="40.0" fill="#F9F9F4" transform="matrix(1.00, 0.00, -0.00, -1.00, 1199.6, 551.7)">m</text><text xml:space="preserve" font-family="Monaco,Monaco" font-size="40.0" fill="#F9F9F4" transform="matrix(1.00, 0.00, -0.00, -1.00, 1223.6, 551.7)">e</text><text xml:space="preserve" font-family="Monaco,Monaco" font-size="40.0" fill="#F9F9F4" transform="matrix(1.00, 0.00, -0.00, -1.00, 1247.6, 551.7)">s</text><text xml:space="preserve" font-family="Monaco,Monaco" font-size="40.0" fill="#F9F9F4" transform="matrix(1.00, 0.00, -0.00, -1.00, 1271.6, 551.7)">e</text><text xml:space="preserve" font-family="Monaco,Monaco" font-size="40.0" fill="#F9F9F4" transform="matrix(1.00, 0.00, -0.00, -1.00, 1295.6, 551.7)">r</text><text xml:space="preserve" font-family="Monaco,Monaco" font-size="40.0" fill="#F9F9F4" transform="matrix(1.00, 0.00, -0.00, -1.00, 1319.6, 551.7)">v</text><text xml:space="preserve" font-family="Monaco,Monaco" font-size="40.0" fill="#F9F9F4" transform="matrix(1.00, 0.00, -0.00, -1.00, 1343.6, 551.7)">e</text><text xml:space="preserve" font-family="Monaco,Monaco" font-size="40.0" fill="#F9F9F4" transform="matrix(1.00, 0.00, -0.00, -1.00, 1367.6, 551.7)">r</text><text xml:space="preserve" font-family="Monaco,Monaco" font-size="40.0" fill="#F9F9F4" transform="matrix(1.00, 0.00, -0.00, -1.00, 1391.6, 551.7)">)</text><text xml:space="preserve" font-family="Monaco,Monaco" font-size="40.0" fill="#000000" transform="matrix(1.00, 0.00, -0.00, -1.00, 119.4, 498.7)"> </text><text xml:space="preserve" font-family="Monaco,Monaco" font-size="40.0" fill="#000000" transform="matrix(1.00, 0.00, -0.00, -1.00, 143.4, 498.7)"> </text><text xml:space="preserve" font-family="Monaco,Monaco" font-size="40.0" fill="#000000" transform="matrix(1.00, 0.00, -0.00, -1.00, 167.4, 498.7)"> </text><text xml:space="preserve" font-family="Monaco,Monaco" font-size="40.0" fill="#000000" transform="matrix(1.00, 0.00, -0.00, -1.00, 191.4, 498.7)"> </text><text xml:space="preserve" font-family="Monaco,Monaco" font-size="40.0" fill="#000000" transform="matrix(1.00, 0.00, -0.00, -1.00, 215.4, 498.7)"> </text><text xml:space="preserve" font-family="Monaco,Monaco" font-size="40.0" fill="#000000" transform="matrix(1.00, 0.00, -0.00, -1.00, 239.4, 498.7)"> </text><text xml:space="preserve" font-family="Monaco,Monaco" font-size="40.0" fill="#000000" transform="matrix(1.00, 0.00, -0.00, -1.00, 263.4, 498.7)"> </text><text xml:space="preserve" font-family="Monaco,Monaco" font-size="40.0" fill="#000000" transform="matrix(1.00, 0.00, -0.00, -1.00, 287.4, 498.7)"> </text><text xml:space="preserve" font-family="Monaco,Monaco" font-size="40.0" fill="#75DFF2" transform="matrix(1.00, 0.00, -0.00, -1.00, 311.4, 498.7)">@</text><text xml:space="preserve" font-family="Monaco,Monaco" font-size="40.0" fill="#75DFF2" transform="matrix(1.00, 0.00, -0.00, -1.00, 335.4, 498.7)">r</text><text xml:space="preserve" font-family="Monaco,Monaco" font-size="40.0" fill="#75DFF2" transform="matrix(1.00, 0.00, -0.00, -1.00, 359.4, 498.7)">e</text><text xml:space="preserve" font-family="Monaco,Monaco" font-size="40.0" fill="#75DFF2" transform="matrix(1.00, 0.00, -0.00, -1.00, 383.4, 498.7)">p</text><text xml:space="preserve" font-family="Monaco,Monaco" font-size="40.0" fill="#75DFF2" transform="matrix(1.00, 0.00, -0.00, -1.00, 407.4, 498.7)">o</text><text xml:space="preserve" font-family="Monaco,Monaco" font-size="40.0" fill="#75DFF2" transform="matrix(1.00, 0.00, -0.00, -1.00, 431.4, 498.7)">s</text><text xml:space="preserve" font-family="Monaco,Monaco" font-size="40.0" fill="#75DFF2" transform="matrix(1.00, 0.00, -0.00, -1.00, 455.4, 498.7)">i</text><text xml:space="preserve" font-family="Monaco,Monaco" font-size="40.0" fill="#75DFF2" transform="matrix(1.00, 0.00, -0.00, -1.00, 479.4, 498.7)">t</text><text xml:space="preserve" font-family="Monaco,Monaco" font-size="40.0" fill="#75DFF2" transform="matrix(1.00, 0.00, -0.00, -1.00, 503.5, 498.7)">o</text><text xml:space="preserve" font-family="Monaco,Monaco" font-size="40.0" fill="#75DFF2" transform="matrix(1.00, 0.00, -0.00, -1.00, 527.5, 498.7)">r</text><text xml:space="preserve" font-family="Monaco,Monaco" font-size="40.0" fill="#75DFF2" transform="matrix(1.00, 0.00, -0.00, -1.00, 551.5, 498.7)">y</text><text xml:space="preserve" font-family="Monaco,Monaco" font-size="40.0" fill="#F9F9F4" transform="matrix(1.00, 0.00, -0.00, -1.00, 575.4, 498.7)">.</text><text xml:space="preserve" font-family="Monaco,Monaco" font-size="40.0" fill="#F9F9F4" transform="matrix(1.00, 0.00, -0.00, -1.00, 599.4, 498.7)">c</text><text xml:space="preserve" font-family="Monaco,Monaco" font-size="40.0" fill="#F9F9F4" transform="matrix(1.00, 0.00, -0.00, -1.00, 623.5, 498.7)">r</text><text xml:space="preserve" font-family="Monaco,Monaco" font-size="40.0" fill="#F9F9F4" transform="matrix(1.00, 0.00, -0.00, -1.00, 647.5, 498.7)">e</text><text xml:space="preserve" font-family="Monaco,Monaco" font-size="40.0" fill="#F9F9F4" transform="matrix(1.00, 0.00, -0.00, -1.00, 671.5, 498.7)">a</text><text xml:space="preserve" font-family="Monaco,Monaco" font-size="40.0" fill="#F9F9F4" transform="matrix(1.00, 0.00, -0.00, -1.00, 695.5, 498.7)">t</text><text xml:space="preserve" font-family="Monaco,Monaco" font-size="40.0" fill="#F9F9F4" transform="matrix(1.00, 0.00, -0.00, -1.00, 719.5, 498.7)">e</text><text xml:space="preserve" font-family="Monaco,Monaco" font-size="40.0" fill="#F9F9F4" transform="matrix(1.00, 0.00, -0.00, -1.00, 743.5, 498.7)">!</text><text xml:space="preserve" font-family="Monaco,Monaco" font-size="40.0" fill="#F9F9F4" transform="matrix(1.00, 0.00, -0.00, -1.00, 767.5, 498.7)">(</text><text xml:space="preserve" font-family="Monaco,Monaco" font-size="40.0" fill="#F9F9F4" transform="matrix(1.00, 0.00, -0.00, -1.00, 791.5, 498.7)">n</text><text xml:space="preserve" font-family="Monaco,Monaco" font-size="40.0" fill="#F9F9F4" transform="matrix(1.00, 0.00, -0.00, -1.00, 815.5, 498.7)">a</text><text xml:space="preserve" font-family="Monaco,Monaco" font-size="40.0" fill="#F9F9F4" transform="matrix(1.00, 0.00, -0.00, -1.00, 839.5, 498.7)">m</text><text xml:space="preserve" font-family="Monaco,Monaco" font-size="40.0" fill="#F9F9F4" transform="matrix(1.00, 0.00, -0.00, -1.00, 863.5, 498.7)">e</text><text xml:space="preserve" font-family="Monaco,Monaco" font-size="40.0" fill="#F9F9F4" transform="matrix(1.00, 0.00, -0.00, -1.00, 887.5, 498.7)">s</text><text xml:space="preserve" font-family="Monaco,Monaco" font-size="40.0" fill="#F9F9F4" transform="matrix(1.00, 0.00, -0.00, -1.00, 911.5, 498.7)">e</text><text xml:space="preserve" font-family="Monaco,Monaco" font-size="40.0" fill="#F9F9F4" transform="matrix(1.00, 0.00, -0.00, -1.00, 935.6, 498.7)">r</text><text xml:space="preserve" font-family="Monaco,Monaco" font-size="40.0" fill="#F9F9F4" transform="matrix(1.00, 0.00, -0.00, -1.00, 959.6, 498.7)">v</text><text xml:space="preserve" font-family="Monaco,Monaco" font-size="40.0" fill="#F9F9F4" transform="matrix(1.00, 0.00, -0.00, -1.00, 983.6, 498.7)">e</text><text xml:space="preserve" font-family="Monaco,Monaco" font-size="40.0" fill="#F9F9F4" transform="matrix(1.00, 0.00, -0.00, -1.00, 1007.6, 498.7)">r</text><text xml:space="preserve" font-family="Monaco,Monaco" font-size="40.0" fill="#F9F9F4" transform="matrix(1.00, 0.00, -0.00, -1.00, 1031.6, 498.7)">)</text><text xml:space="preserve" font-family="Monaco,Monaco" font-size="40.0" fill="#000000" transform="matrix(1.00, 0.00, -0.00, -1.00, 119.4, 445.7)"> </text><text xml:space="preserve" font-family="Monaco,Monaco" font-size="40.0" fill="#000000" transform="matrix(1.00, 0.00, -0.00, -1.00, 143.4, 445.7)"> </text><text xml:space="preserve" font-family="Monaco,Monaco" font-size="40.0" fill="#000000" transform="matrix(1.00, 0.00, -0.00, -1.00, 167.4, 445.7)"> </text><text xml:space="preserve" font-family="Monaco,Monaco" font-size="40.0" fill="#000000" transform="matrix(1.00, 0.00, -0.00, -1.00, 191.4, 445.7)"> </text><text xml:space="preserve" font-family="Monaco,Monaco" font-size="40.0" fill="#000000" transform="matrix(1.00, 0.00, -0.00, -1.00, 215.4, 445.7)"> </text><text xml:space="preserve" font-family="Monaco,Monaco" font-size="40.0" fill="#000000" transform="matrix(1.00, 0.00, -0.00, -1.00, 239.4, 445.7)"> </text><text xml:space="preserve" font-family="Monaco,Monaco" font-size="40.0" fill="#FC4384" transform="matrix(1.00, 0.00, -0.00, -1.00, 263.4, 445.7)">e</text><text xml:space="preserve" font-family="Monaco,Monaco" font-size="40.0" fill="#FC4384" transform="matrix(1.00, 0.00, -0.00, -1.00, 287.4, 445.7)">n</text><text xml:space="preserve" font-family="Monaco,Monaco" font-size="40.0" fill="#FC4384" transform="matrix(1.00, 0.00, -0.00, -1.00, 311.4, 445.7)">d</text><text xml:space="preserve" font-family="Monaco,Monaco" font-size="40.0" fill="#000000" transform="matrix(1.00, 0.00, -0.00, -1.00, 119.4, 392.7)"> </text><text xml:space="preserve" font-family="Monaco,Monaco" font-size="40.0" fill="#000000" transform="matrix(1.00, 0.00, -0.00, -1.00, 143.4, 392.7)"> </text><text xml:space="preserve" font-family="Monaco,Monaco" font-size="40.0" fill="#000000" transform="matrix(1.00, 0.00, -0.00, -1.00, 167.4, 392.7)"> </text><text xml:space="preserve" font-family="Monaco,Monaco" font-size="40.0" fill="#000000" transform="matrix(1.00, 0.00, -0.00, -1.00, 191.4, 392.7)"> </text><text xml:space="preserve" font-family="Monaco,Monaco" font-size="40.0" fill="#FC4384" transform="matrix(1.00, 0.00, -0.00, -1.00, 215.4, 392.7)">e</text><text xml:space="preserve" font-family="Monaco,Monaco" font-size="40.0" fill="#FC4384" transform="matrix(1.00, 0.00, -0.00, -1.00, 239.4, 392.7)">n</text><text xml:space="preserve" font-family="Monaco,Monaco" font-size="40.0" fill="#FC4384" transform="matrix(1.00, 0.00, -0.00, -1.00, 263.4, 392.7)">d</text><text xml:space="preserve" font-family="Monaco,Monaco" font-size="40.0" fill="#000000" transform="matrix(1.00, 0.00, -0.00, -1.00, 119.4, 339.7)"> </text><text xml:space="preserve" font-family="Monaco,Monaco" font-size="40.0" fill="#000000" transform="matrix(1.00, 0.00, -0.00, -1.00, 143.4, 339.7)"> </text><text xml:space="preserve" font-family="Monaco,Monaco" font-size="40.0" fill="#FC4384" transform="matrix(1.00, 0.00, -0.00, -1.00, 167.4, 339.7)">e</text><text xml:space="preserve" font-family="Monaco,Monaco" font-size="40.0" fill="#FC4384" transform="matrix(1.00, 0.00, -0.00, -1.00, 191.4, 339.7)">n</text><text xml:space="preserve" font-family="Monaco,Monaco" font-size="40.0" fill="#FC4384" transform="matrix(1.00, 0.00, -0.00, -1.00, 215.4, 339.7)">d</text><text xml:space="preserve" font-family="Monaco,Monaco" font-size="40.0" fill="#FC4384" transform="matrix(1.00, 0.00, -0.00, -1.00, 119.4, 286.7)">e</text><text xml:space="preserve" font-family="Monaco,Monaco" font-size="40.0" fill="#FC4384" transform="matrix(1.00, 0.00, -0.00, -1.00, 143.4, 286.7)">n</text><text xml:space="preserve" font-family="Monaco,Monaco" font-size="40.0" fill="#FC4384" transform="matrix(1.00, 0.00, -0.00, -1.00, 167.4, 286.7)">d</text></g></g></g></svg>