<?xml version="1.0" encoding="UTF-8" standalone="no"?><svg xmlns="http://www.w3.org/2000/svg" xmlns:xlink="http://www.w3.org/1999/xlink" clip-rule="evenodd" stroke-miterlimit="10" viewBox="0 0 1920 1080"><desc>SVG generated by Keynote</desc><defs></defs><g transform="matrix(1.00, 0.00, -0.00, -1.00, 0.0, 1080.0)"><g><clipPath id="clip0x7fec7ebc0e20"><path d="M 0.0 1080.0 L 1920.0 1080.0 L 1920.0 0.0 L 0.0 0.0 Z M 0.0 1080.0 "></path></clipPath><g clip-path="url(#clip0x7fec7ebc0e20)"><image xlink:href="../../A5D7B27F-ECCD-4C51-9075-135B713588B1/assets/0F43D2572F34A9AFB59E4515ED9A1249.jpeg" width="3840.00" height="2160.00" transform="matrix(0.50, 0.00, -0.00, -0.50, 0.0, 1080.0)"></image></g></g><image xlink:href="6F579BB55CD8D37A7A6DE6A37940FFBE.png" width="580.00" height="195.00" transform="matrix(1.00, 0.00, -0.00, -1.00, 669.0, 631.0)"></image><text xml:space="preserve" font-family="YanoneKaffeesatz-Bold,Yanone Kaffeesatz" font-weight="bold" font-size="250.0" fill="#FC6900" transform="matrix(1.00, 0.00, -0.00, -1.00, 670.9, 445.6)">T</text><text xml:space="preserve" font-family="YanoneKaffeesatz-Bold,Yanone Kaffeesatz" font-weight="bold" font-size="250.0" fill="#FC6900" transform="matrix(1.00, 0.00, -0.00, -1.00, 761.9, 445.6)">h</text><text xml:space="preserve" font-family="YanoneKaffeesatz-Bold,Yanone Kaffeesatz" font-weight="bold" font-size="250.0" fill="#FC6900" transform="matrix(1.00, 0.00, -0.00, -1.00, 852.1, 445.6)">a</text><text xml:space="preserve" font-family="YanoneKaffeesatz-Bold,Yanone Kaffeesatz" font-weight="bold" font-size="250.0" fill="#FC6900" transform="matrix(1.00, 0.00, -0.00, -1.00, 936.6, 445.6)">n</text><text xml:space="preserve" font-family="YanoneKaffeesatz-Bold,Yanone Kaffeesatz" font-weight="bold" font-size="250.0" fill="#FC6900" transform="matrix(1.00, 0.00, -0.00, -1.00, 1026.9, 445.6)">k</text><text xml:space="preserve" font-family="YanoneKaffeesatz-Bold,Yanone Kaffeesatz" font-weight="bold" font-size="250.0" fill="#FC6900" transform="matrix(1.00, 0.00, -0.00, -1.00, 1119.1, 445.6)">s</text><text xml:space="preserve" font-family="YanoneKaffeesatz-Bold,Yanone Kaffeesatz" font-weight="bold" font-size="250.0" fill="#FC6900" transform="matrix(1.00, 0.00, -0.00, -1.00, 1198.6, 445.6)">!</text></g></svg>