<?xml version="1.0" encoding="UTF-8" standalone="no"?><svg xmlns="http://www.w3.org/2000/svg" xmlns:xlink="http://www.w3.org/1999/xlink" clip-rule="evenodd" stroke-miterlimit="10" viewBox="0 0 1920 1080"><desc>SVG generated by Keynote</desc><defs></defs><g transform="matrix(1.00, 0.00, -0.00, -1.00, 0.0, 1080.0)"><g><clipPath id="clip0x7fec77bc4a20"><path d="M 0.0 1080.0 L 1920.0 1080.0 L 1920.0 0.0 L 0.0 0.0 Z M 0.0 1080.0 "></path></clipPath><g clip-path="url(#clip0x7fec77bc4a20)"><image xlink:href="../../A5D7B27F-ECCD-4C51-9075-135B713588B1/assets/0F43D2572F34A9AFB59E4515ED9A1249.jpeg" width="3840.00" height="2160.00" transform="matrix(0.50, 0.00, -0.00, -0.50, 0.0, 1080.0)"></image></g></g><image xlink:href="63916042E6FF0175EEBCE95F0413207D.png" width="550.00" height="433.00" transform="matrix(2.18, 0.00, -0.00, -2.18, 360.0, 1060.0)"></image><image xlink:href="D558B9705F7841017C586810B848824C.png" width="600.00" height="57.00" transform="matrix(1.00, 0.00, -0.00, -1.00, 661.0, 82.0)"></image><text xml:space="preserve" font-family="YanoneKaffeesatz-Regular,Yanone Kaffeesatz" font-size="50.0" fill="#E0E4CB" transform="matrix(1.00, 0.00, -0.00, -1.00, 663.1, 42.3)">h</text><text xml:space="preserve" font-family="YanoneKaffeesatz-Regular,Yanone Kaffeesatz" font-size="50.0" fill="#E0E4CB" transform="matrix(1.00, 0.00, -0.00, -1.00, 681.8, 42.3)">t</text><text xml:space="preserve" font-family="YanoneKaffeesatz-Regular,Yanone Kaffeesatz" font-size="50.0" fill="#E0E4CB" transform="matrix(1.00, 0.00, -0.00, -1.00, 693.6, 42.3)">t</text><text xml:space="preserve" font-family="YanoneKaffeesatz-Regular,Yanone Kaffeesatz" font-size="50.0" fill="#E0E4CB" transform="matrix(1.00, 0.00, -0.00, -1.00, 708.2, 42.3)">p</text><text xml:space="preserve" font-family="YanoneKaffeesatz-Regular,Yanone Kaffeesatz" font-size="50.0" fill="#E0E4CB" transform="matrix(1.00, 0.00, -0.00, -1.00, 727.3, 42.3)">:</text><text xml:space="preserve" font-family="YanoneKaffeesatz-Regular,Yanone Kaffeesatz" font-size="50.0" fill="#E0E4CB" transform="matrix(1.00, 0.00, -0.00, -1.00, 736.9, 42.3)">/</text><text xml:space="preserve" font-family="YanoneKaffeesatz-Regular,Yanone Kaffeesatz" font-size="50.0" fill="#E0E4CB" transform="matrix(1.00, 0.00, -0.00, -1.00, 747.0, 42.3)">/</text><text xml:space="preserve" font-family="YanoneKaffeesatz-Regular,Yanone Kaffeesatz" font-size="50.0" fill="#E0E4CB" transform="matrix(1.00, 0.00, -0.00, -1.00, 760.2, 42.3)">c</text><text xml:space="preserve" font-family="YanoneKaffeesatz-Regular,Yanone Kaffeesatz" font-size="50.0" fill="#E0E4CB" transform="matrix(1.00, 0.00, -0.00, -1.00, 775.3, 42.3)">o</text><text xml:space="preserve" font-family="YanoneKaffeesatz-Regular,Yanone Kaffeesatz" font-size="50.0" fill="#E0E4CB" transform="matrix(1.00, 0.00, -0.00, -1.00, 793.7, 42.3)">m</text><text xml:space="preserve" font-family="YanoneKaffeesatz-Regular,Yanone Kaffeesatz" font-size="50.0" fill="#E0E4CB" transform="matrix(1.00, 0.00, -0.00, -1.00, 821.8, 42.3)">m</text><text xml:space="preserve" font-family="YanoneKaffeesatz-Regular,Yanone Kaffeesatz" font-size="50.0" fill="#E0E4CB" transform="matrix(1.00, 0.00, -0.00, -1.00, 850.0, 42.3)">a</text><text xml:space="preserve" font-family="YanoneKaffeesatz-Regular,Yanone Kaffeesatz" font-size="50.0" fill="#E0E4CB" transform="matrix(1.00, 0.00, -0.00, -1.00, 867.7, 42.3)">d</text><text xml:space="preserve" font-family="YanoneKaffeesatz-Regular,Yanone Kaffeesatz" font-size="50.0" fill="#E0E4CB" transform="matrix(1.00, 0.00, -0.00, -1.00, 887.0, 42.3)">o</text><text xml:space="preserve" font-family="YanoneKaffeesatz-Regular,Yanone Kaffeesatz" font-size="50.0" fill="#E0E4CB" transform="matrix(1.00, 0.00, -0.00, -1.00, 904.7, 42.3)">t</text><text xml:space="preserve" font-family="YanoneKaffeesatz-Regular,Yanone Kaffeesatz" font-size="50.0" fill="#E0E4CB" transform="matrix(1.00, 0.00, -0.00, -1.00, 919.5, 42.3)">.</text><text xml:space="preserve" font-family="YanoneKaffeesatz-Regular,Yanone Kaffeesatz" font-size="50.0" fill="#E0E4CB" transform="matrix(1.00, 0.00, -0.00, -1.00, 928.3, 42.3)">c</text><text xml:space="preserve" font-family="YanoneKaffeesatz-Regular,Yanone Kaffeesatz" font-size="50.0" fill="#E0E4CB" transform="matrix(1.00, 0.00, -0.00, -1.00, 943.4, 42.3)">o</text><text xml:space="preserve" font-family="YanoneKaffeesatz-Regular,Yanone Kaffeesatz" font-size="50.0" fill="#E0E4CB" transform="matrix(1.00, 0.00, -0.00, -1.00, 961.8, 42.3)">m</text><text xml:space="preserve" font-family="YanoneKaffeesatz-Regular,Yanone Kaffeesatz" font-size="50.0" fill="#E0E4CB" transform="matrix(1.00, 0.00, -0.00, -1.00, 991.0, 42.3)">/</text><text xml:space="preserve" font-family="YanoneKaffeesatz-Regular,Yanone Kaffeesatz" font-size="50.0" fill="#E0E4CB" transform="matrix(1.00, 0.00, -0.00, -1.00, 1006.8, 42.3)">w</text><text xml:space="preserve" font-family="YanoneKaffeesatz-Regular,Yanone Kaffeesatz" font-size="50.0" fill="#E0E4CB" transform="matrix(1.00, 0.00, -0.00, -1.00, 1033.4, 42.3)">t</text><text xml:space="preserve" font-family="YanoneKaffeesatz-Regular,Yanone Kaffeesatz" font-size="50.0" fill="#E0E4CB" transform="matrix(1.00, 0.00, -0.00, -1.00, 1048.0, 42.3)">f</text><text xml:space="preserve" font-family="YanoneKaffeesatz-Regular,Yanone Kaffeesatz" font-size="50.0" fill="#E0E4CB" transform="matrix(1.00, 0.00, -0.00, -1.00, 1058.3, 42.3)">-</text><text xml:space="preserve" font-family="YanoneKaffeesatz-Regular,Yanone Kaffeesatz" font-size="50.0" fill="#E0E4CB" transform="matrix(1.00, 0.00, -0.00, -1.00, 1072.2, 42.3)">p</text><text xml:space="preserve" font-family="YanoneKaffeesatz-Regular,Yanone Kaffeesatz" font-size="50.0" fill="#E0E4CB" transform="matrix(1.00, 0.00, -0.00, -1.00, 1091.4, 42.3)">e</text><text xml:space="preserve" font-family="YanoneKaffeesatz-Regular,Yanone Kaffeesatz" font-size="50.0" fill="#E0E4CB" transform="matrix(1.00, 0.00, -0.00, -1.00, 1109.4, 42.3)">r</text><text xml:space="preserve" font-family="YanoneKaffeesatz-Regular,Yanone Kaffeesatz" font-size="50.0" fill="#E0E4CB" transform="matrix(1.00, 0.00, -0.00, -1.00, 1119.0, 42.3)">-</text><text xml:space="preserve" font-family="YanoneKaffeesatz-Regular,Yanone Kaffeesatz" font-size="50.0" fill="#E0E4CB" transform="matrix(1.00, 0.00, -0.00, -1.00, 1132.9, 42.3)">m</text><text xml:space="preserve" font-family="YanoneKaffeesatz-Regular,Yanone Kaffeesatz" font-size="50.0" fill="#E0E4CB" transform="matrix(1.00, 0.00, -0.00, -1.00, 1161.1, 42.3)">i</text><text xml:space="preserve" font-family="YanoneKaffeesatz-Regular,Yanone Kaffeesatz" font-size="50.0" fill="#E0E4CB" transform="matrix(1.00, 0.00, -0.00, -1.00, 1169.8, 42.3)">n</text><text xml:space="preserve" font-family="YanoneKaffeesatz-Regular,Yanone Kaffeesatz" font-size="50.0" fill="#E0E4CB" transform="matrix(1.00, 0.00, -0.00, -1.00, 1188.9, 42.3)">u</text><text xml:space="preserve" font-family="YanoneKaffeesatz-Regular,Yanone Kaffeesatz" font-size="50.0" fill="#E0E4CB" transform="matrix(1.00, 0.00, -0.00, -1.00, 1208.4, 42.3)">t</text><text xml:space="preserve" font-family="YanoneKaffeesatz-Regular,Yanone Kaffeesatz" font-size="50.0" fill="#E0E4CB" transform="matrix(1.00, 0.00, -0.00, -1.00, 1221.8, 42.3)">e</text><text xml:space="preserve" font-family="YanoneKaffeesatz-Regular,Yanone Kaffeesatz" font-size="50.0" fill="#E0E4CB" transform="matrix(1.00, 0.00, -0.00, -1.00, 1240.1, 42.3)">/</text></g></svg>