<?xml version="1.0" encoding="UTF-8" standalone="no"?><svg xmlns="http://www.w3.org/2000/svg" xmlns:xlink="http://www.w3.org/1999/xlink" clip-rule="evenodd" stroke-miterlimit="10" viewBox="0 0 1920 1080"><desc>SVG generated by Keynote</desc><defs></defs><g transform="matrix(1.00, 0.00, -0.00, -1.00, 0.0, 1080.0)"><g><clipPath id="clip0x7fec7c0df330"><path d="M 0.0 1080.0 L 1920.0 1080.0 L 1920.0 0.0 L 0.0 0.0 Z M 0.0 1080.0 "></path></clipPath><g clip-path="url(#clip0x7fec7c0df330)"><image xlink:href="../../A5D7B27F-ECCD-4C51-9075-135B713588B1/assets/0F43D2572F34A9AFB59E4515ED9A1249.jpeg" width="3840.00" height="2160.00" transform="matrix(0.50, 0.00, -0.00, -0.50, 0.0, 1080.0)"></image></g></g><image xlink:href="../../57875CBB-7951-4CAB-98D6-988B3B240A79/assets/E7875B7F6010851161F006E06D893D3C.png" width="1729.00" height="1052.00" transform="matrix(1.00, 0.00, -0.00, -1.00, 95.4, 1065.8)" opacity="0.25"></image><path d="M 115.0 1046.0 L 1805.0 1046.0 L 1805.0 34.0 L 115.0 34.0 Z M 115.4 1045.8 " fill="#323232"></path><g><clipPath id="clip0x7fec7c0e7d90"><path d="M 106.9 22.3 L 1813.1 22.3 L 1813.1 1054.3 L 106.9 1054.3 Z M 106.9 22.3 "></path></clipPath><g clip-path="url(#clip0x7fec7c0e7d90)"><text xml:space="preserve" font-family="Monaco,Monaco" font-size="40.0" fill="#FC4384" transform="matrix(1.00, 0.00, -0.00, -1.00, 119.4, 1002.2)">c</text><text xml:space="preserve" font-family="Monaco,Monaco" font-size="40.0" fill="#FC4384" transform="matrix(1.00, 0.00, -0.00, -1.00, 143.4, 1002.2)">l</text><text xml:space="preserve" font-family="Monaco,Monaco" font-size="40.0" fill="#FC4384" transform="matrix(1.00, 0.00, -0.00, -1.00, 167.4, 1002.2)">a</text><text xml:space="preserve" font-family="Monaco,Monaco" font-size="40.0" fill="#FC4384" transform="matrix(1.00, 0.00, -0.00, -1.00, 191.4, 1002.2)">s</text><text xml:space="preserve" font-family="Monaco,Monaco" font-size="40.0" fill="#FC4384" transform="matrix(1.00, 0.00, -0.00, -1.00, 215.4, 1002.2)">s</text><text xml:space="preserve" font-family="Monaco,Monaco" font-size="40.0" fill="#000000" transform="matrix(1.00, 0.00, -0.00, -1.00, 239.4, 1002.2)"> </text><text xml:space="preserve" font-family="Monaco,Monaco" font-size="40.0" fill="#F9F9F4" transform="matrix(1.00, 0.00, -0.00, -1.00, 263.4, 1002.2)">M</text><text xml:space="preserve" font-family="Monaco,Monaco" font-size="40.0" fill="#F9F9F4" transform="matrix(1.00, 0.00, -0.00, -1.00, 287.4, 1002.2)">e</text><text xml:space="preserve" font-family="Monaco,Monaco" font-size="40.0" fill="#F9F9F4" transform="matrix(1.00, 0.00, -0.00, -1.00, 311.4, 1002.2)">d</text><text xml:space="preserve" font-family="Monaco,Monaco" font-size="40.0" fill="#F9F9F4" transform="matrix(1.00, 0.00, -0.00, -1.00, 335.4, 1002.2)">i</text><text xml:space="preserve" font-family="Monaco,Monaco" font-size="40.0" fill="#F9F9F4" transform="matrix(1.00, 0.00, -0.00, -1.00, 359.4, 1002.2)">a</text><text xml:space="preserve" font-family="Monaco,Monaco" font-size="40.0" fill="#F9F9F4" transform="matrix(1.00, 0.00, -0.00, -1.00, 383.4, 1002.2)">S</text><text xml:space="preserve" font-family="Monaco,Monaco" font-size="40.0" fill="#F9F9F4" transform="matrix(1.00, 0.00, -0.00, -1.00, 407.4, 1002.2)">e</text><text xml:space="preserve" font-family="Monaco,Monaco" font-size="40.0" fill="#F9F9F4" transform="matrix(1.00, 0.00, -0.00, -1.00, 431.4, 1002.2)">r</text><text xml:space="preserve" font-family="Monaco,Monaco" font-size="40.0" fill="#F9F9F4" transform="matrix(1.00, 0.00, -0.00, -1.00, 455.4, 1002.2)">v</text><text xml:space="preserve" font-family="Monaco,Monaco" font-size="40.0" fill="#F9F9F4" transform="matrix(1.00, 0.00, -0.00, -1.00, 479.5, 1002.2)">i</text><text xml:space="preserve" font-family="Monaco,Monaco" font-size="40.0" fill="#F9F9F4" transform="matrix(1.00, 0.00, -0.00, -1.00, 503.5, 1002.2)">c</text><text xml:space="preserve" font-family="Monaco,Monaco" font-size="40.0" fill="#F9F9F4" transform="matrix(1.00, 0.00, -0.00, -1.00, 527.5, 1002.2)">e</text><text xml:space="preserve" font-family="Monaco,Monaco" font-size="40.0" fill="#F9F9F4" transform="matrix(1.00, 0.00, -0.00, -1.00, 551.5, 1002.2)">:</text><text xml:space="preserve" font-family="Monaco,Monaco" font-size="40.0" fill="#A2EF79" transform="matrix(1.00, 0.00, -0.00, -1.00, 575.4, 1002.2)">:</text><text xml:space="preserve" font-family="Monaco,Monaco" font-size="40.0" fill="#A2EF79" transform="matrix(1.00, 0.00, -0.00, -1.00, 599.4, 1002.2)">P</text><text xml:space="preserve" font-family="Monaco,Monaco" font-size="40.0" fill="#A2EF79" transform="matrix(1.00, 0.00, -0.00, -1.00, 623.5, 1002.2)">i</text><text xml:space="preserve" font-family="Monaco,Monaco" font-size="40.0" fill="#A2EF79" transform="matrix(1.00, 0.00, -0.00, -1.00, 647.5, 1002.2)">c</text><text xml:space="preserve" font-family="Monaco,Monaco" font-size="40.0" fill="#A2EF79" transform="matrix(1.00, 0.00, -0.00, -1.00, 671.5, 1002.2)">t</text><text xml:space="preserve" font-family="Monaco,Monaco" font-size="40.0" fill="#A2EF79" transform="matrix(1.00, 0.00, -0.00, -1.00, 695.5, 1002.2)">u</text><text xml:space="preserve" font-family="Monaco,Monaco" font-size="40.0" fill="#A2EF79" transform="matrix(1.00, 0.00, -0.00, -1.00, 719.5, 1002.2)">r</text><text xml:space="preserve" font-family="Monaco,Monaco" font-size="40.0" fill="#A2EF79" transform="matrix(1.00, 0.00, -0.00, -1.00, 743.5, 1002.2)">e</text><text xml:space="preserve" font-family="Monaco,Monaco" font-size="40.0" fill="#A2EF79" transform="matrix(1.00, 0.00, -0.00, -1.00, 767.5, 1002.2)">S</text><text xml:space="preserve" font-family="Monaco,Monaco" font-size="40.0" fill="#A2EF79" transform="matrix(1.00, 0.00, -0.00, -1.00, 791.5, 1002.2)">t</text><text xml:space="preserve" font-family="Monaco,Monaco" font-size="40.0" fill="#A2EF79" transform="matrix(1.00, 0.00, -0.00, -1.00, 815.5, 1002.2)">o</text><text xml:space="preserve" font-family="Monaco,Monaco" font-size="40.0" fill="#A2EF79" transform="matrix(1.00, 0.00, -0.00, -1.00, 839.5, 1002.2)">r</text><text xml:space="preserve" font-family="Monaco,Monaco" font-size="40.0" fill="#A2EF79" transform="matrix(1.00, 0.00, -0.00, -1.00, 863.5, 1002.2)">a</text><text xml:space="preserve" font-family="Monaco,Monaco" font-size="40.0" fill="#A2EF79" transform="matrix(1.00, 0.00, -0.00, -1.00, 887.5, 1002.2)">g</text><text xml:space="preserve" font-family="Monaco,Monaco" font-size="40.0" fill="#A2EF79" transform="matrix(1.00, 0.00, -0.00, -1.00, 911.5, 1002.2)">e</text><text xml:space="preserve" font-family="Monaco,Monaco" font-size="40.0" fill="#000000" transform="matrix(1.00, 0.00, -0.00, -1.00, 119.4, 949.2)"> </text><text xml:space="preserve" font-family="Monaco,Monaco" font-size="40.0" fill="#000000" transform="matrix(1.00, 0.00, -0.00, -1.00, 143.4, 949.2)"> </text><text xml:space="preserve" font-family="Monaco,Monaco" font-size="40.0" fill="#FC4384" transform="matrix(1.00, 0.00, -0.00, -1.00, 167.4, 949.2)">d</text><text xml:space="preserve" font-family="Monaco,Monaco" font-size="40.0" fill="#FC4384" transform="matrix(1.00, 0.00, -0.00, -1.00, 191.4, 949.2)">e</text><text xml:space="preserve" font-family="Monaco,Monaco" font-size="40.0" fill="#FC4384" transform="matrix(1.00, 0.00, -0.00, -1.00, 215.4, 949.2)">f</text><text xml:space="preserve" font-family="Monaco,Monaco" font-size="40.0" fill="#000000" transform="matrix(1.00, 0.00, -0.00, -1.00, 239.4, 949.2)"> </text><text xml:space="preserve" font-family="Monaco,Monaco" font-size="40.0" fill="#13F7BA" transform="matrix(1.00, 0.00, -0.00, -1.00, 263.4, 949.2)">i</text><text xml:space="preserve" font-family="Monaco,Monaco" font-size="40.0" fill="#13F7BA" transform="matrix(1.00, 0.00, -0.00, -1.00, 287.4, 949.2)">n</text><text xml:space="preserve" font-family="Monaco,Monaco" font-size="40.0" fill="#13F7BA" transform="matrix(1.00, 0.00, -0.00, -1.00, 311.4, 949.2)">i</text><text xml:space="preserve" font-family="Monaco,Monaco" font-size="40.0" fill="#13F7BA" transform="matrix(1.00, 0.00, -0.00, -1.00, 335.4, 949.2)">t</text><text xml:space="preserve" font-family="Monaco,Monaco" font-size="40.0" fill="#13F7BA" transform="matrix(1.00, 0.00, -0.00, -1.00, 359.4, 949.2)">i</text><text xml:space="preserve" font-family="Monaco,Monaco" font-size="40.0" fill="#13F7BA" transform="matrix(1.00, 0.00, -0.00, -1.00, 383.4, 949.2)">a</text><text xml:space="preserve" font-family="Monaco,Monaco" font-size="40.0" fill="#13F7BA" transform="matrix(1.00, 0.00, -0.00, -1.00, 407.4, 949.2)">l</text><text xml:space="preserve" font-family="Monaco,Monaco" font-size="40.0" fill="#13F7BA" transform="matrix(1.00, 0.00, -0.00, -1.00, 431.4, 949.2)">i</text><text xml:space="preserve" font-family="Monaco,Monaco" font-size="40.0" fill="#13F7BA" transform="matrix(1.00, 0.00, -0.00, -1.00, 455.4, 949.2)">z</text><text xml:space="preserve" font-family="Monaco,Monaco" font-size="40.0" fill="#13F7BA" transform="matrix(1.00, 0.00, -0.00, -1.00, 479.5, 949.2)">e</text><text xml:space="preserve" font-family="Monaco,Monaco" font-size="40.0" fill="#F9F9F4" transform="matrix(1.00, 0.00, -0.00, -1.00, 503.4, 949.2)">(</text><text xml:space="preserve" font-family="Monaco,Monaco" font-size="40.0" fill="#F9F9F4" transform="matrix(1.00, 0.00, -0.00, -1.00, 527.4, 949.2)">c</text><text xml:space="preserve" font-family="Monaco,Monaco" font-size="40.0" fill="#F9F9F4" transform="matrix(1.00, 0.00, -0.00, -1.00, 551.4, 949.2)">d</text><text xml:space="preserve" font-family="Monaco,Monaco" font-size="40.0" fill="#F9F9F4" transform="matrix(1.00, 0.00, -0.00, -1.00, 575.4, 949.2)">n</text><text xml:space="preserve" font-family="Monaco,Monaco" font-size="40.0" fill="#F9F9F4" transform="matrix(1.00, 0.00, -0.00, -1.00, 599.5, 949.2)">)</text><text xml:space="preserve" font-family="Monaco,Monaco" font-size="40.0" fill="#000000" transform="matrix(1.00, 0.00, -0.00, -1.00, 119.4, 896.2)"> </text><text xml:space="preserve" font-family="Monaco,Monaco" font-size="40.0" fill="#000000" transform="matrix(1.00, 0.00, -0.00, -1.00, 143.4, 896.2)"> </text><text xml:space="preserve" font-family="Monaco,Monaco" font-size="40.0" fill="#000000" transform="matrix(1.00, 0.00, -0.00, -1.00, 167.4, 896.2)"> </text><text xml:space="preserve" font-family="Monaco,Monaco" font-size="40.0" fill="#000000" transform="matrix(1.00, 0.00, -0.00, -1.00, 191.4, 896.2)"> </text><text xml:space="preserve" font-family="Monaco,Monaco" font-size="40.0" fill="#75DFF2" transform="matrix(1.00, 0.00, -0.00, -1.00, 215.4, 896.2)">@</text><text xml:space="preserve" font-family="Monaco,Monaco" font-size="40.0" fill="#75DFF2" transform="matrix(1.00, 0.00, -0.00, -1.00, 239.4, 896.2)">c</text><text xml:space="preserve" font-family="Monaco,Monaco" font-size="40.0" fill="#75DFF2" transform="matrix(1.00, 0.00, -0.00, -1.00, 263.4, 896.2)">d</text><text xml:space="preserve" font-family="Monaco,Monaco" font-size="40.0" fill="#75DFF2" transform="matrix(1.00, 0.00, -0.00, -1.00, 287.4, 896.2)">n</text><text xml:space="preserve" font-family="Monaco,Monaco" font-size="40.0" fill="#000000" transform="matrix(1.00, 0.00, -0.00, -1.00, 311.4, 896.2)"> </text><text xml:space="preserve" font-family="Monaco,Monaco" font-size="40.0" fill="#F9F9F4" transform="matrix(1.00, 0.00, -0.00, -1.00, 335.4, 896.2)">=</text><text xml:space="preserve" font-family="Monaco,Monaco" font-size="40.0" fill="#000000" transform="matrix(1.00, 0.00, -0.00, -1.00, 359.4, 896.2)"> </text><text xml:space="preserve" font-family="Monaco,Monaco" font-size="40.0" fill="#F9F9F4" transform="matrix(1.00, 0.00, -0.00, -1.00, 383.4, 896.2)">c</text><text xml:space="preserve" font-family="Monaco,Monaco" font-size="40.0" fill="#F9F9F4" transform="matrix(1.00, 0.00, -0.00, -1.00, 407.4, 896.2)">d</text><text xml:space="preserve" font-family="Monaco,Monaco" font-size="40.0" fill="#F9F9F4" transform="matrix(1.00, 0.00, -0.00, -1.00, 431.4, 896.2)">n</text><text xml:space="preserve" font-family="Monaco,Monaco" font-size="40.0" fill="#000000" transform="matrix(1.00, 0.00, -0.00, -1.00, 119.4, 843.2)"> </text><text xml:space="preserve" font-family="Monaco,Monaco" font-size="40.0" fill="#000000" transform="matrix(1.00, 0.00, -0.00, -1.00, 143.4, 843.2)"> </text><text xml:space="preserve" font-family="Monaco,Monaco" font-size="40.0" fill="#FC4384" transform="matrix(1.00, 0.00, -0.00, -1.00, 167.4, 843.2)">e</text><text xml:space="preserve" font-family="Monaco,Monaco" font-size="40.0" fill="#FC4384" transform="matrix(1.00, 0.00, -0.00, -1.00, 191.4, 843.2)">n</text><text xml:space="preserve" font-family="Monaco,Monaco" font-size="40.0" fill="#FC4384" transform="matrix(1.00, 0.00, -0.00, -1.00, 215.4, 843.2)">d</text><text xml:space="preserve" font-family="Monaco,Monaco" font-size="40.0" fill="#000000" transform="matrix(1.00, 0.00, -0.00, -1.00, 119.4, 737.2)"> </text><text xml:space="preserve" font-family="Monaco,Monaco" font-size="40.0" fill="#000000" transform="matrix(1.00, 0.00, -0.00, -1.00, 143.4, 737.2)"> </text><text xml:space="preserve" font-family="Monaco,Monaco" font-size="40.0" fill="#FC4384" transform="matrix(1.00, 0.00, -0.00, -1.00, 167.4, 737.2)">d</text><text xml:space="preserve" font-family="Monaco,Monaco" font-size="40.0" fill="#FC4384" transform="matrix(1.00, 0.00, -0.00, -1.00, 191.4, 737.2)">e</text><text xml:space="preserve" font-family="Monaco,Monaco" font-size="40.0" fill="#FC4384" transform="matrix(1.00, 0.00, -0.00, -1.00, 215.4, 737.2)">f</text><text xml:space="preserve" font-family="Monaco,Monaco" font-size="40.0" fill="#000000" transform="matrix(1.00, 0.00, -0.00, -1.00, 239.4, 737.2)"> </text><text xml:space="preserve" font-family="Monaco,Monaco" font-size="40.0" fill="#13F7BA" transform="matrix(1.00, 0.00, -0.00, -1.00, 263.4, 737.2)">g</text><text xml:space="preserve" font-family="Monaco,Monaco" font-size="40.0" fill="#13F7BA" transform="matrix(1.00, 0.00, -0.00, -1.00, 287.4, 737.2)">e</text><text xml:space="preserve" font-family="Monaco,Monaco" font-size="40.0" fill="#13F7BA" transform="matrix(1.00, 0.00, -0.00, -1.00, 311.4, 737.2)">t</text><text xml:space="preserve" font-family="Monaco,Monaco" font-size="40.0" fill="#F9F9F4" transform="matrix(1.00, 0.00, -0.00, -1.00, 335.4, 737.2)">(</text><text xml:space="preserve" font-family="Monaco,Monaco" font-size="40.0" fill="#F9F9F4" transform="matrix(1.00, 0.00, -0.00, -1.00, 359.4, 737.2)">p</text><text xml:space="preserve" font-family="Monaco,Monaco" font-size="40.0" fill="#F9F9F4" transform="matrix(1.00, 0.00, -0.00, -1.00, 383.4, 737.2)">a</text><text xml:space="preserve" font-family="Monaco,Monaco" font-size="40.0" fill="#F9F9F4" transform="matrix(1.00, 0.00, -0.00, -1.00, 407.4, 737.2)">t</text><text xml:space="preserve" font-family="Monaco,Monaco" font-size="40.0" fill="#F9F9F4" transform="matrix(1.00, 0.00, -0.00, -1.00, 431.4, 737.2)">h</text><text xml:space="preserve" font-family="Monaco,Monaco" font-size="40.0" fill="#F9F9F4" transform="matrix(1.00, 0.00, -0.00, -1.00, 455.4, 737.2)">)</text><text xml:space="preserve" font-family="Monaco,Monaco" font-size="40.0" fill="#000000" transform="matrix(1.00, 0.00, -0.00, -1.00, 119.4, 684.2)"> </text><text xml:space="preserve" font-family="Monaco,Monaco" font-size="40.0" fill="#000000" transform="matrix(1.00, 0.00, -0.00, -1.00, 143.4, 684.2)"> </text><text xml:space="preserve" font-family="Monaco,Monaco" font-size="40.0" fill="#000000" transform="matrix(1.00, 0.00, -0.00, -1.00, 167.4, 684.2)"> </text><text xml:space="preserve" font-family="Monaco,Monaco" font-size="40.0" fill="#000000" transform="matrix(1.00, 0.00, -0.00, -1.00, 191.4, 684.2)"> </text><text xml:space="preserve" font-family="Monaco,Monaco" font-size="40.0" fill="#888371" transform="matrix(1.00, 0.00, -0.00, -1.00, 215.4, 684.2)">#</text><text xml:space="preserve" font-family="Monaco,Monaco" font-size="40.0" fill="#888371" transform="matrix(1.00, 0.00, -0.00, -1.00, 239.4, 684.2)"> </text><text xml:space="preserve" font-family="Monaco,Monaco" font-size="40.0" fill="#888371" transform="matrix(1.00, 0.00, -0.00, -1.00, 263.4, 684.2)">.</text><text xml:space="preserve" font-family="Monaco,Monaco" font-size="40.0" fill="#888371" transform="matrix(1.00, 0.00, -0.00, -1.00, 287.4, 684.2)">.</text><text xml:space="preserve" font-family="Monaco,Monaco" font-size="40.0" fill="#888371" transform="matrix(1.00, 0.00, -0.00, -1.00, 311.4, 684.2)">.</text><text xml:space="preserve" font-family="Monaco,Monaco" font-size="40.0" fill="#000000" transform="matrix(1.00, 0.00, -0.00, -1.00, 119.4, 631.2)"> </text><text xml:space="preserve" font-family="Monaco,Monaco" font-size="40.0" fill="#000000" transform="matrix(1.00, 0.00, -0.00, -1.00, 143.4, 631.2)"> </text><text xml:space="preserve" font-family="Monaco,Monaco" font-size="40.0" fill="#FC4384" transform="matrix(1.00, 0.00, -0.00, -1.00, 167.4, 631.2)">e</text><text xml:space="preserve" font-family="Monaco,Monaco" font-size="40.0" fill="#FC4384" transform="matrix(1.00, 0.00, -0.00, -1.00, 191.4, 631.2)">n</text><text xml:space="preserve" font-family="Monaco,Monaco" font-size="40.0" fill="#FC4384" transform="matrix(1.00, 0.00, -0.00, -1.00, 215.4, 631.2)">d</text><text xml:space="preserve" font-family="Monaco,Monaco" font-size="40.0" fill="#000000" transform="matrix(1.00, 0.00, -0.00, -1.00, 119.4, 525.2)"> </text><text xml:space="preserve" font-family="Monaco,Monaco" font-size="40.0" fill="#000000" transform="matrix(1.00, 0.00, -0.00, -1.00, 143.4, 525.2)"> </text><text xml:space="preserve" font-family="Monaco,Monaco" font-size="40.0" fill="#FC4384" transform="matrix(1.00, 0.00, -0.00, -1.00, 167.4, 525.2)">d</text><text xml:space="preserve" font-family="Monaco,Monaco" font-size="40.0" fill="#FC4384" transform="matrix(1.00, 0.00, -0.00, -1.00, 191.4, 525.2)">e</text><text xml:space="preserve" font-family="Monaco,Monaco" font-size="40.0" fill="#FC4384" transform="matrix(1.00, 0.00, -0.00, -1.00, 215.4, 525.2)">f</text><text xml:space="preserve" font-family="Monaco,Monaco" font-size="40.0" fill="#000000" transform="matrix(1.00, 0.00, -0.00, -1.00, 239.4, 525.2)"> </text><text xml:space="preserve" font-family="Monaco,Monaco" font-size="40.0" fill="#13F7BA" transform="matrix(1.00, 0.00, -0.00, -1.00, 263.4, 525.2)">u</text><text xml:space="preserve" font-family="Monaco,Monaco" font-size="40.0" fill="#13F7BA" transform="matrix(1.00, 0.00, -0.00, -1.00, 287.4, 525.2)">p</text><text xml:space="preserve" font-family="Monaco,Monaco" font-size="40.0" fill="#13F7BA" transform="matrix(1.00, 0.00, -0.00, -1.00, 311.4, 525.2)">d</text><text xml:space="preserve" font-family="Monaco,Monaco" font-size="40.0" fill="#13F7BA" transform="matrix(1.00, 0.00, -0.00, -1.00, 335.4, 525.2)">a</text><text xml:space="preserve" font-family="Monaco,Monaco" font-size="40.0" fill="#13F7BA" transform="matrix(1.00, 0.00, -0.00, -1.00, 359.4, 525.2)">t</text><text xml:space="preserve" font-family="Monaco,Monaco" font-size="40.0" fill="#13F7BA" transform="matrix(1.00, 0.00, -0.00, -1.00, 383.4, 525.2)">e</text><text xml:space="preserve" font-family="Monaco,Monaco" font-size="40.0" fill="#F9F9F4" transform="matrix(1.00, 0.00, -0.00, -1.00, 407.4, 525.2)">(</text><text xml:space="preserve" font-family="Monaco,Monaco" font-size="40.0" fill="#F9F9F4" transform="matrix(1.00, 0.00, -0.00, -1.00, 431.4, 525.2)">p</text><text xml:space="preserve" font-family="Monaco,Monaco" font-size="40.0" fill="#F9F9F4" transform="matrix(1.00, 0.00, -0.00, -1.00, 455.4, 525.2)">a</text><text xml:space="preserve" font-family="Monaco,Monaco" font-size="40.0" fill="#F9F9F4" transform="matrix(1.00, 0.00, -0.00, -1.00, 479.4, 525.2)">t</text><text xml:space="preserve" font-family="Monaco,Monaco" font-size="40.0" fill="#F9F9F4" transform="matrix(1.00, 0.00, -0.00, -1.00, 503.4, 525.2)">h</text><text xml:space="preserve" font-family="Monaco,Monaco" font-size="40.0" fill="#F9F9F4" transform="matrix(1.00, 0.00, -0.00, -1.00, 527.4, 525.2)">,</text><text xml:space="preserve" font-family="Monaco,Monaco" font-size="40.0" fill="#000000" transform="matrix(1.00, 0.00, -0.00, -1.00, 551.4, 525.2)"> </text><text xml:space="preserve" font-family="Monaco,Monaco" font-size="40.0" fill="#F9F9F4" transform="matrix(1.00, 0.00, -0.00, -1.00, 575.4, 525.2)">f</text><text xml:space="preserve" font-family="Monaco,Monaco" font-size="40.0" fill="#F9F9F4" transform="matrix(1.00, 0.00, -0.00, -1.00, 599.4, 525.2)">i</text><text xml:space="preserve" font-family="Monaco,Monaco" font-size="40.0" fill="#F9F9F4" transform="matrix(1.00, 0.00, -0.00, -1.00, 623.5, 525.2)">l</text><text xml:space="preserve" font-family="Monaco,Monaco" font-size="40.0" fill="#F9F9F4" transform="matrix(1.00, 0.00, -0.00, -1.00, 647.5, 525.2)">e</text><text xml:space="preserve" font-family="Monaco,Monaco" font-size="40.0" fill="#F9F9F4" transform="matrix(1.00, 0.00, -0.00, -1.00, 671.5, 525.2)">)</text><text xml:space="preserve" font-family="Monaco,Monaco" font-size="40.0" fill="#000000" transform="matrix(1.00, 0.00, -0.00, -1.00, 119.4, 472.2)"> </text><text xml:space="preserve" font-family="Monaco,Monaco" font-size="40.0" fill="#000000" transform="matrix(1.00, 0.00, -0.00, -1.00, 143.4, 472.2)"> </text><text xml:space="preserve" font-family="Monaco,Monaco" font-size="40.0" fill="#000000" transform="matrix(1.00, 0.00, -0.00, -1.00, 167.4, 472.2)"> </text><text xml:space="preserve" font-family="Monaco,Monaco" font-size="40.0" fill="#000000" transform="matrix(1.00, 0.00, -0.00, -1.00, 191.4, 472.2)"> </text><text xml:space="preserve" font-family="Monaco,Monaco" font-size="40.0" fill="#888371" transform="matrix(1.00, 0.00, -0.00, -1.00, 215.4, 472.2)">#</text><text xml:space="preserve" font-family="Monaco,Monaco" font-size="40.0" fill="#888371" transform="matrix(1.00, 0.00, -0.00, -1.00, 239.4, 472.2)"> </text><text xml:space="preserve" font-family="Monaco,Monaco" font-size="40.0" fill="#888371" transform="matrix(1.00, 0.00, -0.00, -1.00, 263.4, 472.2)">.</text><text xml:space="preserve" font-family="Monaco,Monaco" font-size="40.0" fill="#888371" transform="matrix(1.00, 0.00, -0.00, -1.00, 287.4, 472.2)">.</text><text xml:space="preserve" font-family="Monaco,Monaco" font-size="40.0" fill="#888371" transform="matrix(1.00, 0.00, -0.00, -1.00, 311.4, 472.2)">.</text><text xml:space="preserve" font-family="Monaco,Monaco" font-size="40.0" fill="#000000" transform="matrix(1.00, 0.00, -0.00, -1.00, 119.4, 419.2)"> </text><text xml:space="preserve" font-family="Monaco,Monaco" font-size="40.0" fill="#000000" transform="matrix(1.00, 0.00, -0.00, -1.00, 143.4, 419.2)"> </text><text xml:space="preserve" font-family="Monaco,Monaco" font-size="40.0" fill="#000000" transform="matrix(1.00, 0.00, -0.00, -1.00, 167.4, 419.2)"> </text><text xml:space="preserve" font-family="Monaco,Monaco" font-size="40.0" fill="#000000" transform="matrix(1.00, 0.00, -0.00, -1.00, 191.4, 419.2)"> </text><text xml:space="preserve" font-family="Monaco,Monaco" font-size="40.0" fill="#75DFF2" transform="matrix(1.00, 0.00, -0.00, -1.00, 215.4, 419.2)">@</text><text xml:space="preserve" font-family="Monaco,Monaco" font-size="40.0" fill="#75DFF2" transform="matrix(1.00, 0.00, -0.00, -1.00, 239.4, 419.2)">c</text><text xml:space="preserve" font-family="Monaco,Monaco" font-size="40.0" fill="#75DFF2" transform="matrix(1.00, 0.00, -0.00, -1.00, 263.4, 419.2)">d</text><text xml:space="preserve" font-family="Monaco,Monaco" font-size="40.0" fill="#75DFF2" transform="matrix(1.00, 0.00, -0.00, -1.00, 287.4, 419.2)">n</text><text xml:space="preserve" font-family="Monaco,Monaco" font-size="40.0" fill="#F9F9F4" transform="matrix(1.00, 0.00, -0.00, -1.00, 311.4, 419.2)">.</text><text xml:space="preserve" font-family="Monaco,Monaco" font-size="40.0" fill="#13F7BA" transform="matrix(1.00, 0.00, -0.00, -1.00, 335.4, 419.2)">u</text><text xml:space="preserve" font-family="Monaco,Monaco" font-size="40.0" fill="#13F7BA" transform="matrix(1.00, 0.00, -0.00, -1.00, 359.4, 419.2)">p</text><text xml:space="preserve" font-family="Monaco,Monaco" font-size="40.0" fill="#13F7BA" transform="matrix(1.00, 0.00, -0.00, -1.00, 383.4, 419.2)">d</text><text xml:space="preserve" font-family="Monaco,Monaco" font-size="40.0" fill="#13F7BA" transform="matrix(1.00, 0.00, -0.00, -1.00, 407.4, 419.2)">a</text><text xml:space="preserve" font-family="Monaco,Monaco" font-size="40.0" fill="#13F7BA" transform="matrix(1.00, 0.00, -0.00, -1.00, 431.4, 419.2)">t</text><text xml:space="preserve" font-family="Monaco,Monaco" font-size="40.0" fill="#13F7BA" transform="matrix(1.00, 0.00, -0.00, -1.00, 455.4, 419.2)">e</text><text xml:space="preserve" font-family="Monaco,Monaco" font-size="40.0" fill="#13F7BA" transform="matrix(1.00, 0.00, -0.00, -1.00, 479.4, 419.2)">d</text><text xml:space="preserve" font-family="Monaco,Monaco" font-size="40.0" fill="#F9F9F4" transform="matrix(1.00, 0.00, -0.00, -1.00, 503.4, 419.2)">(</text><text xml:space="preserve" font-family="Monaco,Monaco" font-size="40.0" fill="#F9F9F4" transform="matrix(1.00, 0.00, -0.00, -1.00, 527.4, 419.2)">p</text><text xml:space="preserve" font-family="Monaco,Monaco" font-size="40.0" fill="#F9F9F4" transform="matrix(1.00, 0.00, -0.00, -1.00, 551.4, 419.2)">a</text><text xml:space="preserve" font-family="Monaco,Monaco" font-size="40.0" fill="#F9F9F4" transform="matrix(1.00, 0.00, -0.00, -1.00, 575.4, 419.2)">t</text><text xml:space="preserve" font-family="Monaco,Monaco" font-size="40.0" fill="#F9F9F4" transform="matrix(1.00, 0.00, -0.00, -1.00, 599.5, 419.2)">h</text><text xml:space="preserve" font-family="Monaco,Monaco" font-size="40.0" fill="#F9F9F4" transform="matrix(1.00, 0.00, -0.00, -1.00, 623.5, 419.2)">,</text><text xml:space="preserve" font-family="Monaco,Monaco" font-size="40.0" fill="#F9F9F4" transform="matrix(1.00, 0.00, -0.00, -1.00, 647.5, 419.2)"> </text><text xml:space="preserve" font-family="Monaco,Monaco" font-size="40.0" fill="#F9F9F4" transform="matrix(1.00, 0.00, -0.00, -1.00, 671.5, 419.2)">f</text><text xml:space="preserve" font-family="Monaco,Monaco" font-size="40.0" fill="#F9F9F4" transform="matrix(1.00, 0.00, -0.00, -1.00, 695.5, 419.2)">i</text><text xml:space="preserve" font-family="Monaco,Monaco" font-size="40.0" fill="#F9F9F4" transform="matrix(1.00, 0.00, -0.00, -1.00, 719.5, 419.2)">l</text><text xml:space="preserve" font-family="Monaco,Monaco" font-size="40.0" fill="#F9F9F4" transform="matrix(1.00, 0.00, -0.00, -1.00, 743.5, 419.2)">e</text><text xml:space="preserve" font-family="Monaco,Monaco" font-size="40.0" fill="#F9F9F4" transform="matrix(1.00, 0.00, -0.00, -1.00, 767.5, 419.2)">)</text><text xml:space="preserve" font-family="Monaco,Monaco" font-size="40.0" fill="#000000" transform="matrix(1.00, 0.00, -0.00, -1.00, 119.4, 366.2)"> </text><text xml:space="preserve" font-family="Monaco,Monaco" font-size="40.0" fill="#000000" transform="matrix(1.00, 0.00, -0.00, -1.00, 143.4, 366.2)"> </text><text xml:space="preserve" font-family="Monaco,Monaco" font-size="40.0" fill="#FC4384" transform="matrix(1.00, 0.00, -0.00, -1.00, 167.4, 366.2)">e</text><text xml:space="preserve" font-family="Monaco,Monaco" font-size="40.0" fill="#FC4384" transform="matrix(1.00, 0.00, -0.00, -1.00, 191.4, 366.2)">n</text><text xml:space="preserve" font-family="Monaco,Monaco" font-size="40.0" fill="#FC4384" transform="matrix(1.00, 0.00, -0.00, -1.00, 215.4, 366.2)">d</text><text xml:space="preserve" font-family="Monaco,Monaco" font-size="40.0" fill="#000000" transform="matrix(1.00, 0.00, -0.00, -1.00, 119.4, 260.2)"> </text><text xml:space="preserve" font-family="Monaco,Monaco" font-size="40.0" fill="#000000" transform="matrix(1.00, 0.00, -0.00, -1.00, 143.4, 260.2)"> </text><text xml:space="preserve" font-family="Monaco,Monaco" font-size="40.0" fill="#FC4384" transform="matrix(1.00, 0.00, -0.00, -1.00, 167.4, 260.2)">d</text><text xml:space="preserve" font-family="Monaco,Monaco" font-size="40.0" fill="#FC4384" transform="matrix(1.00, 0.00, -0.00, -1.00, 191.4, 260.2)">e</text><text xml:space="preserve" font-family="Monaco,Monaco" font-size="40.0" fill="#FC4384" transform="matrix(1.00, 0.00, -0.00, -1.00, 215.4, 260.2)">f</text><text xml:space="preserve" font-family="Monaco,Monaco" font-size="40.0" fill="#000000" transform="matrix(1.00, 0.00, -0.00, -1.00, 239.4, 260.2)"> </text><text xml:space="preserve" font-family="Monaco,Monaco" font-size="40.0" fill="#13F7BA" transform="matrix(1.00, 0.00, -0.00, -1.00, 263.4, 260.2)">d</text><text xml:space="preserve" font-family="Monaco,Monaco" font-size="40.0" fill="#13F7BA" transform="matrix(1.00, 0.00, -0.00, -1.00, 287.4, 260.2)">e</text><text xml:space="preserve" font-family="Monaco,Monaco" font-size="40.0" fill="#13F7BA" transform="matrix(1.00, 0.00, -0.00, -1.00, 311.4, 260.2)">l</text><text xml:space="preserve" font-family="Monaco,Monaco" font-size="40.0" fill="#13F7BA" transform="matrix(1.00, 0.00, -0.00, -1.00, 335.4, 260.2)">e</text><text xml:space="preserve" font-family="Monaco,Monaco" font-size="40.0" fill="#13F7BA" transform="matrix(1.00, 0.00, -0.00, -1.00, 359.4, 260.2)">t</text><text xml:space="preserve" font-family="Monaco,Monaco" font-size="40.0" fill="#13F7BA" transform="matrix(1.00, 0.00, -0.00, -1.00, 383.4, 260.2)">e</text><text xml:space="preserve" font-family="Monaco,Monaco" font-size="40.0" fill="#F9F9F4" transform="matrix(1.00, 0.00, -0.00, -1.00, 407.4, 260.2)">(</text><text xml:space="preserve" font-family="Monaco,Monaco" font-size="40.0" fill="#F9F9F4" transform="matrix(1.00, 0.00, -0.00, -1.00, 431.4, 260.2)">p</text><text xml:space="preserve" font-family="Monaco,Monaco" font-size="40.0" fill="#F9F9F4" transform="matrix(1.00, 0.00, -0.00, -1.00, 455.4, 260.2)">a</text><text xml:space="preserve" font-family="Monaco,Monaco" font-size="40.0" fill="#F9F9F4" transform="matrix(1.00, 0.00, -0.00, -1.00, 479.4, 260.2)">t</text><text xml:space="preserve" font-family="Monaco,Monaco" font-size="40.0" fill="#F9F9F4" transform="matrix(1.00, 0.00, -0.00, -1.00, 503.4, 260.2)">h</text><text xml:space="preserve" font-family="Monaco,Monaco" font-size="40.0" fill="#F9F9F4" transform="matrix(1.00, 0.00, -0.00, -1.00, 527.4, 260.2)">)</text><text xml:space="preserve" font-family="Monaco,Monaco" font-size="40.0" fill="#000000" transform="matrix(1.00, 0.00, -0.00, -1.00, 119.4, 207.2)"> </text><text xml:space="preserve" font-family="Monaco,Monaco" font-size="40.0" fill="#000000" transform="matrix(1.00, 0.00, -0.00, -1.00, 143.4, 207.2)"> </text><text xml:space="preserve" font-family="Monaco,Monaco" font-size="40.0" fill="#000000" transform="matrix(1.00, 0.00, -0.00, -1.00, 167.4, 207.2)"> </text><text xml:space="preserve" font-family="Monaco,Monaco" font-size="40.0" fill="#000000" transform="matrix(1.00, 0.00, -0.00, -1.00, 191.4, 207.2)"> </text><text xml:space="preserve" font-family="Monaco,Monaco" font-size="40.0" fill="#888371" transform="matrix(1.00, 0.00, -0.00, -1.00, 215.4, 207.2)">#</text><text xml:space="preserve" font-family="Monaco,Monaco" font-size="40.0" fill="#888371" transform="matrix(1.00, 0.00, -0.00, -1.00, 239.4, 207.2)"> </text><text xml:space="preserve" font-family="Monaco,Monaco" font-size="40.0" fill="#888371" transform="matrix(1.00, 0.00, -0.00, -1.00, 263.4, 207.2)">.</text><text xml:space="preserve" font-family="Monaco,Monaco" font-size="40.0" fill="#888371" transform="matrix(1.00, 0.00, -0.00, -1.00, 287.4, 207.2)">.</text><text xml:space="preserve" font-family="Monaco,Monaco" font-size="40.0" fill="#888371" transform="matrix(1.00, 0.00, -0.00, -1.00, 311.4, 207.2)">.</text><text xml:space="preserve" font-family="Monaco,Monaco" font-size="40.0" fill="#000000" transform="matrix(1.00, 0.00, -0.00, -1.00, 119.4, 154.2)"> </text><text xml:space="preserve" font-family="Monaco,Monaco" font-size="40.0" fill="#000000" transform="matrix(1.00, 0.00, -0.00, -1.00, 143.4, 154.2)"> </text><text xml:space="preserve" font-family="Monaco,Monaco" font-size="40.0" fill="#000000" transform="matrix(1.00, 0.00, -0.00, -1.00, 167.4, 154.2)"> </text><text xml:space="preserve" font-family="Monaco,Monaco" font-size="40.0" fill="#000000" transform="matrix(1.00, 0.00, -0.00, -1.00, 191.4, 154.2)"> </text><text xml:space="preserve" font-family="Monaco,Monaco" font-size="40.0" fill="#75DFF2" transform="matrix(1.00, 0.00, -0.00, -1.00, 215.4, 154.2)">@</text><text xml:space="preserve" font-family="Monaco,Monaco" font-size="40.0" fill="#75DFF2" transform="matrix(1.00, 0.00, -0.00, -1.00, 239.4, 154.2)">c</text><text xml:space="preserve" font-family="Monaco,Monaco" font-size="40.0" fill="#75DFF2" transform="matrix(1.00, 0.00, -0.00, -1.00, 263.4, 154.2)">d</text><text xml:space="preserve" font-family="Monaco,Monaco" font-size="40.0" fill="#75DFF2" transform="matrix(1.00, 0.00, -0.00, -1.00, 287.4, 154.2)">n</text><text xml:space="preserve" font-family="Monaco,Monaco" font-size="40.0" fill="#F9F9F4" transform="matrix(1.00, 0.00, -0.00, -1.00, 311.4, 154.2)">.</text><text xml:space="preserve" font-family="Monaco,Monaco" font-size="40.0" fill="#13F7BA" transform="matrix(1.00, 0.00, -0.00, -1.00, 335.4, 154.2)">d</text><text xml:space="preserve" font-family="Monaco,Monaco" font-size="40.0" fill="#13F7BA" transform="matrix(1.00, 0.00, -0.00, -1.00, 359.4, 154.2)">e</text><text xml:space="preserve" font-family="Monaco,Monaco" font-size="40.0" fill="#13F7BA" transform="matrix(1.00, 0.00, -0.00, -1.00, 383.4, 154.2)">l</text><text xml:space="preserve" font-family="Monaco,Monaco" font-size="40.0" fill="#13F7BA" transform="matrix(1.00, 0.00, -0.00, -1.00, 407.4, 154.2)">e</text><text xml:space="preserve" font-family="Monaco,Monaco" font-size="40.0" fill="#13F7BA" transform="matrix(1.00, 0.00, -0.00, -1.00, 431.4, 154.2)">t</text><text xml:space="preserve" font-family="Monaco,Monaco" font-size="40.0" fill="#13F7BA" transform="matrix(1.00, 0.00, -0.00, -1.00, 455.4, 154.2)">e</text><text xml:space="preserve" font-family="Monaco,Monaco" font-size="40.0" fill="#13F7BA" transform="matrix(1.00, 0.00, -0.00, -1.00, 479.4, 154.2)">d</text><text xml:space="preserve" font-family="Monaco,Monaco" font-size="40.0" fill="#F9F9F4" transform="matrix(1.00, 0.00, -0.00, -1.00, 503.4, 154.2)">(</text><text xml:space="preserve" font-family="Monaco,Monaco" font-size="40.0" fill="#F9F9F4" transform="matrix(1.00, 0.00, -0.00, -1.00, 527.4, 154.2)">p</text><text xml:space="preserve" font-family="Monaco,Monaco" font-size="40.0" fill="#F9F9F4" transform="matrix(1.00, 0.00, -0.00, -1.00, 551.4, 154.2)">a</text><text xml:space="preserve" font-family="Monaco,Monaco" font-size="40.0" fill="#F9F9F4" transform="matrix(1.00, 0.00, -0.00, -1.00, 575.4, 154.2)">t</text><text xml:space="preserve" font-family="Monaco,Monaco" font-size="40.0" fill="#F9F9F4" transform="matrix(1.00, 0.00, -0.00, -1.00, 599.5, 154.2)">h</text><text xml:space="preserve" font-family="Monaco,Monaco" font-size="40.0" fill="#F9F9F4" transform="matrix(1.00, 0.00, -0.00, -1.00, 623.5, 154.2)">)</text><text xml:space="preserve" font-family="Monaco,Monaco" font-size="40.0" fill="#000000" transform="matrix(1.00, 0.00, -0.00, -1.00, 119.4, 101.2)"> </text><text xml:space="preserve" font-family="Monaco,Monaco" font-size="40.0" fill="#000000" transform="matrix(1.00, 0.00, -0.00, -1.00, 143.4, 101.2)"> </text><text xml:space="preserve" font-family="Monaco,Monaco" font-size="40.0" fill="#FC4384" transform="matrix(1.00, 0.00, -0.00, -1.00, 167.4, 101.2)">e</text><text xml:space="preserve" font-family="Monaco,Monaco" font-size="40.0" fill="#FC4384" transform="matrix(1.00, 0.00, -0.00, -1.00, 191.4, 101.2)">n</text><text xml:space="preserve" font-family="Monaco,Monaco" font-size="40.0" fill="#FC4384" transform="matrix(1.00, 0.00, -0.00, -1.00, 215.4, 101.2)">d</text><text xml:space="preserve" font-family="Monaco,Monaco" font-size="40.0" fill="#FC4384" transform="matrix(1.00, 0.00, -0.00, -1.00, 119.4, 48.2)">e</text><text xml:space="preserve" font-family="Monaco,Monaco" font-size="40.0" fill="#FC4384" transform="matrix(1.00, 0.00, -0.00, -1.00, 143.4, 48.2)">n</text><text xml:space="preserve" font-family="Monaco,Monaco" font-size="40.0" fill="#FC4384" transform="matrix(1.00, 0.00, -0.00, -1.00, 167.4, 48.2)">d</text></g></g><g opacity="0.20"><g><clipPath id="clip0x7fec7c6511e0"><path d="M 332.0 408.0 L 792.0 408.0 L 792.0 461.0 L 332.0 461.0 Z M 332.0 408.0 "></path></clipPath><g clip-path="url(#clip0x7fec7c6511e0)"><path d="M 334.0 459.0 L 791.0 459.0 L 791.0 409.0 L 334.0 409.0 Z M 333.9 459.4 " fill="#E0E4CB"></path></g></g></g><g opacity="0.20"><g><clipPath id="clip0x7fec7c6529d0"><path d="M 332.0 143.0 L 648.0 143.0 L 648.0 196.0 L 332.0 196.0 Z M 332.0 143.0 "></path></clipPath><g clip-path="url(#clip0x7fec7c6529d0)"><path d="M 334.0 194.0 L 647.0 194.0 L 647.0 144.0 L 334.0 144.0 Z M 333.9 194.3 " fill="#E0E4CB"></path></g></g></g></g></svg>