<?xml version="1.0" encoding="UTF-8" standalone="no"?><svg xmlns="http://www.w3.org/2000/svg" xmlns:xlink="http://www.w3.org/1999/xlink" clip-rule="evenodd" stroke-miterlimit="10" viewBox="0 0 1920 1080"><desc>SVG generated by Keynote</desc><defs></defs><g transform="matrix(1.00, 0.00, -0.00, -1.00, 0.0, 1080.0)"><g><clipPath id="clip0x7fec7ec91da0"><path d="M 0.0 1080.0 L 1920.0 1080.0 L 1920.0 0.0 L 0.0 0.0 Z M 0.0 1080.0 "></path></clipPath><g clip-path="url(#clip0x7fec7ec91da0)"><image xlink:href="../../A5D7B27F-ECCD-4C51-9075-135B713588B1/assets/0F43D2572F34A9AFB59E4515ED9A1249.jpeg" width="3840.00" height="2160.00" transform="matrix(0.50, 0.00, -0.00, -0.50, 0.0, 1080.0)"></image></g></g><image xlink:href="../../7D403946-07E3-44ED-A31A-12E3B289C893/assets/C7D8A0134C1A2529CF26E4E812D33E1F.png" width="1729.00" height="310.00" transform="matrix(1.00, 0.00, -0.00, -1.00, 95.4, 1029.6)" opacity="0.25"></image><path d="M 115.0 1010.0 L 1805.0 1010.0 L 1805.0 740.0 L 115.0 740.0 Z M 115.4 1009.6 " fill="#323232"></path><g><clipPath id="clip0x7fec7eb2ae70"><path d="M 106.9 728.1 L 1813.1 728.1 L 1813.1 1018.1 L 106.9 1018.1 Z M 106.9 728.1 "></path></clipPath><g clip-path="url(#clip0x7fec7eb2ae70)"><text xml:space="preserve" font-family="Monaco,Monaco" font-size="40.0" fill="#FC4384" transform="matrix(1.00, 0.00, -0.00, -1.00, 119.4, 965.9)">d</text><text xml:space="preserve" font-family="Monaco,Monaco" font-size="40.0" fill="#FC4384" transform="matrix(1.00, 0.00, -0.00, -1.00, 143.4, 965.9)">a</text><text xml:space="preserve" font-family="Monaco,Monaco" font-size="40.0" fill="#FC4384" transform="matrix(1.00, 0.00, -0.00, -1.00, 167.4, 965.9)">t</text><text xml:space="preserve" font-family="Monaco,Monaco" font-size="40.0" fill="#FC4384" transform="matrix(1.00, 0.00, -0.00, -1.00, 191.4, 965.9)">a</text><text xml:space="preserve" font-family="Monaco,Monaco" font-size="40.0" fill="#000000" transform="matrix(1.00, 0.00, -0.00, -1.00, 215.4, 965.9)"> </text><text xml:space="preserve" font-family="Monaco,Monaco" font-size="40.0" fill="#F9F9F4" transform="matrix(1.00, 0.00, -0.00, -1.00, 239.4, 965.9)">=</text><text xml:space="preserve" font-family="Monaco,Monaco" font-size="40.0" fill="#F9F9F4" transform="matrix(1.00, 0.00, -0.00, -1.00, 263.4, 965.9)"> </text><text xml:space="preserve" font-family="Monaco,Monaco" font-size="40.0" fill="#F9F9F4" transform="matrix(1.00, 0.00, -0.00, -1.00, 287.4, 965.9)">{</text><text xml:space="preserve" font-family="Monaco,Monaco" font-size="40.0" fill="#F9F9F4" transform="matrix(1.00, 0.00, -0.00, -1.00, 119.4, 912.9)"> </text><text xml:space="preserve" font-family="Monaco,Monaco" font-size="40.0" fill="#F9F9F4" transform="matrix(1.00, 0.00, -0.00, -1.00, 143.4, 912.9)"> </text><text xml:space="preserve" font-family="Monaco,Monaco" font-size="40.0" fill="#F9F9F4" transform="matrix(1.00, 0.00, -0.00, -1.00, 167.4, 912.9)">s</text><text xml:space="preserve" font-family="Monaco,Monaco" font-size="40.0" fill="#F9F9F4" transform="matrix(1.00, 0.00, -0.00, -1.00, 191.4, 912.9)">t</text><text xml:space="preserve" font-family="Monaco,Monaco" font-size="40.0" fill="#F9F9F4" transform="matrix(1.00, 0.00, -0.00, -1.00, 215.4, 912.9)">r</text><text xml:space="preserve" font-family="Monaco,Monaco" font-size="40.0" fill="#F9F9F4" transform="matrix(1.00, 0.00, -0.00, -1.00, 239.4, 912.9)">e</text><text xml:space="preserve" font-family="Monaco,Monaco" font-size="40.0" fill="#F9F9F4" transform="matrix(1.00, 0.00, -0.00, -1.00, 263.4, 912.9)">e</text><text xml:space="preserve" font-family="Monaco,Monaco" font-size="40.0" fill="#F9F9F4" transform="matrix(1.00, 0.00, -0.00, -1.00, 287.4, 912.9)">t</text><text xml:space="preserve" font-family="Monaco,Monaco" font-size="40.0" fill="#F9F9F4" transform="matrix(1.00, 0.00, -0.00, -1.00, 311.4, 912.9)">_</text><text xml:space="preserve" font-family="Monaco,Monaco" font-size="40.0" fill="#F9F9F4" transform="matrix(1.00, 0.00, -0.00, -1.00, 335.4, 912.9)">a</text><text xml:space="preserve" font-family="Monaco,Monaco" font-size="40.0" fill="#F9F9F4" transform="matrix(1.00, 0.00, -0.00, -1.00, 359.4, 912.9)">d</text><text xml:space="preserve" font-family="Monaco,Monaco" font-size="40.0" fill="#F9F9F4" transform="matrix(1.00, 0.00, -0.00, -1.00, 383.5, 912.9)">d</text><text xml:space="preserve" font-family="Monaco,Monaco" font-size="40.0" fill="#F9F9F4" transform="matrix(1.00, 0.00, -0.00, -1.00, 407.5, 912.9)">r</text><text xml:space="preserve" font-family="Monaco,Monaco" font-size="40.0" fill="#F9F9F4" transform="matrix(1.00, 0.00, -0.00, -1.00, 431.5, 912.9)">e</text><text xml:space="preserve" font-family="Monaco,Monaco" font-size="40.0" fill="#F9F9F4" transform="matrix(1.00, 0.00, -0.00, -1.00, 455.5, 912.9)">s</text><text xml:space="preserve" font-family="Monaco,Monaco" font-size="40.0" fill="#F9F9F4" transform="matrix(1.00, 0.00, -0.00, -1.00, 479.5, 912.9)">s</text><text xml:space="preserve" font-family="Monaco,Monaco" font-size="40.0" fill="#F9F9F4" transform="matrix(1.00, 0.00, -0.00, -1.00, 503.5, 912.9)">:</text><text xml:space="preserve" font-family="Monaco,Monaco" font-size="40.0" fill="#000000" transform="matrix(1.00, 0.00, -0.00, -1.00, 527.4, 912.9)"> </text><text xml:space="preserve" font-family="Monaco,Monaco" font-size="40.0" fill="#EBDF86" transform="matrix(1.00, 0.00, -0.00, -1.00, 551.4, 912.9)">'</text><text xml:space="preserve" font-family="Monaco,Monaco" font-size="40.0" fill="#EBDF86" transform="matrix(1.00, 0.00, -0.00, -1.00, 575.4, 912.9)">B</text><text xml:space="preserve" font-family="Monaco,Monaco" font-size="40.0" fill="#EBDF86" transform="matrix(1.00, 0.00, -0.00, -1.00, 599.4, 912.9)">a</text><text xml:space="preserve" font-family="Monaco,Monaco" font-size="40.0" fill="#EBDF86" transform="matrix(1.00, 0.00, -0.00, -1.00, 623.5, 912.9)">k</text><text xml:space="preserve" font-family="Monaco,Monaco" font-size="40.0" fill="#EBDF86" transform="matrix(1.00, 0.00, -0.00, -1.00, 647.5, 912.9)">e</text><text xml:space="preserve" font-family="Monaco,Monaco" font-size="40.0" fill="#EBDF86" transform="matrix(1.00, 0.00, -0.00, -1.00, 671.5, 912.9)">r</text><text xml:space="preserve" font-family="Monaco,Monaco" font-size="40.0" fill="#EBDF86" transform="matrix(1.00, 0.00, -0.00, -1.00, 695.5, 912.9)">'</text><text xml:space="preserve" font-family="Monaco,Monaco" font-size="40.0" fill="#F9F9F4" transform="matrix(1.00, 0.00, -0.00, -1.00, 719.5, 912.9)">,</text><text xml:space="preserve" font-family="Monaco,Monaco" font-size="40.0" fill="#F9F9F4" transform="matrix(1.00, 0.00, -0.00, -1.00, 119.4, 859.9)"> </text><text xml:space="preserve" font-family="Monaco,Monaco" font-size="40.0" fill="#F9F9F4" transform="matrix(1.00, 0.00, -0.00, -1.00, 143.4, 859.9)"> </text><text xml:space="preserve" font-family="Monaco,Monaco" font-size="40.0" fill="#F9F9F4" transform="matrix(1.00, 0.00, -0.00, -1.00, 167.4, 859.9)">c</text><text xml:space="preserve" font-family="Monaco,Monaco" font-size="40.0" fill="#F9F9F4" transform="matrix(1.00, 0.00, -0.00, -1.00, 191.4, 859.9)">i</text><text xml:space="preserve" font-family="Monaco,Monaco" font-size="40.0" fill="#F9F9F4" transform="matrix(1.00, 0.00, -0.00, -1.00, 215.4, 859.9)">t</text><text xml:space="preserve" font-family="Monaco,Monaco" font-size="40.0" fill="#F9F9F4" transform="matrix(1.00, 0.00, -0.00, -1.00, 239.4, 859.9)">y</text><text xml:space="preserve" font-family="Monaco,Monaco" font-size="40.0" fill="#F9F9F4" transform="matrix(1.00, 0.00, -0.00, -1.00, 263.4, 859.9)">:</text><text xml:space="preserve" font-family="Monaco,Monaco" font-size="40.0" fill="#000000" transform="matrix(1.00, 0.00, -0.00, -1.00, 287.4, 859.9)"> </text><text xml:space="preserve" font-family="Monaco,Monaco" font-size="40.0" fill="#EBDF86" transform="matrix(1.00, 0.00, -0.00, -1.00, 311.4, 859.9)">'</text><text xml:space="preserve" font-family="Monaco,Monaco" font-size="40.0" fill="#EBDF86" transform="matrix(1.00, 0.00, -0.00, -1.00, 335.4, 859.9)">L</text><text xml:space="preserve" font-family="Monaco,Monaco" font-size="40.0" fill="#EBDF86" transform="matrix(1.00, 0.00, -0.00, -1.00, 359.4, 859.9)">o</text><text xml:space="preserve" font-family="Monaco,Monaco" font-size="40.0" fill="#EBDF86" transform="matrix(1.00, 0.00, -0.00, -1.00, 383.4, 859.9)">n</text><text xml:space="preserve" font-family="Monaco,Monaco" font-size="40.0" fill="#EBDF86" transform="matrix(1.00, 0.00, -0.00, -1.00, 407.4, 859.9)">d</text><text xml:space="preserve" font-family="Monaco,Monaco" font-size="40.0" fill="#EBDF86" transform="matrix(1.00, 0.00, -0.00, -1.00, 431.4, 859.9)">o</text><text xml:space="preserve" font-family="Monaco,Monaco" font-size="40.0" fill="#EBDF86" transform="matrix(1.00, 0.00, -0.00, -1.00, 455.4, 859.9)">n</text><text xml:space="preserve" font-family="Monaco,Monaco" font-size="40.0" fill="#EBDF86" transform="matrix(1.00, 0.00, -0.00, -1.00, 479.4, 859.9)">'</text><text xml:space="preserve" font-family="Monaco,Monaco" font-size="40.0" fill="#F9F9F4" transform="matrix(1.00, 0.00, -0.00, -1.00, 503.4, 859.9)">,</text><text xml:space="preserve" font-family="Monaco,Monaco" font-size="40.0" fill="#F9F9F4" transform="matrix(1.00, 0.00, -0.00, -1.00, 119.4, 806.9)"> </text><text xml:space="preserve" font-family="Monaco,Monaco" font-size="40.0" fill="#F9F9F4" transform="matrix(1.00, 0.00, -0.00, -1.00, 143.4, 806.9)"> </text><text xml:space="preserve" font-family="Monaco,Monaco" font-size="40.0" fill="#F9F9F4" transform="matrix(1.00, 0.00, -0.00, -1.00, 167.4, 806.9)">c</text><text xml:space="preserve" font-family="Monaco,Monaco" font-size="40.0" fill="#F9F9F4" transform="matrix(1.00, 0.00, -0.00, -1.00, 191.4, 806.9)">o</text><text xml:space="preserve" font-family="Monaco,Monaco" font-size="40.0" fill="#F9F9F4" transform="matrix(1.00, 0.00, -0.00, -1.00, 215.4, 806.9)">u</text><text xml:space="preserve" font-family="Monaco,Monaco" font-size="40.0" fill="#F9F9F4" transform="matrix(1.00, 0.00, -0.00, -1.00, 239.4, 806.9)">n</text><text xml:space="preserve" font-family="Monaco,Monaco" font-size="40.0" fill="#F9F9F4" transform="matrix(1.00, 0.00, -0.00, -1.00, 263.4, 806.9)">t</text><text xml:space="preserve" font-family="Monaco,Monaco" font-size="40.0" fill="#F9F9F4" transform="matrix(1.00, 0.00, -0.00, -1.00, 287.4, 806.9)">r</text><text xml:space="preserve" font-family="Monaco,Monaco" font-size="40.0" fill="#F9F9F4" transform="matrix(1.00, 0.00, -0.00, -1.00, 311.4, 806.9)">y</text><text xml:space="preserve" font-family="Monaco,Monaco" font-size="40.0" fill="#F9F9F4" transform="matrix(1.00, 0.00, -0.00, -1.00, 335.4, 806.9)">_</text><text xml:space="preserve" font-family="Monaco,Monaco" font-size="40.0" fill="#F9F9F4" transform="matrix(1.00, 0.00, -0.00, -1.00, 359.4, 806.9)">c</text><text xml:space="preserve" font-family="Monaco,Monaco" font-size="40.0" fill="#F9F9F4" transform="matrix(1.00, 0.00, -0.00, -1.00, 383.5, 806.9)">o</text><text xml:space="preserve" font-family="Monaco,Monaco" font-size="40.0" fill="#F9F9F4" transform="matrix(1.00, 0.00, -0.00, -1.00, 407.5, 806.9)">d</text><text xml:space="preserve" font-family="Monaco,Monaco" font-size="40.0" fill="#F9F9F4" transform="matrix(1.00, 0.00, -0.00, -1.00, 431.5, 806.9)">e</text><text xml:space="preserve" font-family="Monaco,Monaco" font-size="40.0" fill="#F9F9F4" transform="matrix(1.00, 0.00, -0.00, -1.00, 455.5, 806.9)">:</text><text xml:space="preserve" font-family="Monaco,Monaco" font-size="40.0" fill="#000000" transform="matrix(1.00, 0.00, -0.00, -1.00, 479.4, 806.9)"> </text><text xml:space="preserve" font-family="Monaco,Monaco" font-size="40.0" fill="#EBDF86" transform="matrix(1.00, 0.00, -0.00, -1.00, 503.4, 806.9)">'</text><text xml:space="preserve" font-family="Monaco,Monaco" font-size="40.0" fill="#EBDF86" transform="matrix(1.00, 0.00, -0.00, -1.00, 527.4, 806.9)">U</text><text xml:space="preserve" font-family="Monaco,Monaco" font-size="40.0" fill="#EBDF86" transform="matrix(1.00, 0.00, -0.00, -1.00, 551.4, 806.9)">K</text><text xml:space="preserve" font-family="Monaco,Monaco" font-size="40.0" fill="#EBDF86" transform="matrix(1.00, 0.00, -0.00, -1.00, 575.4, 806.9)">'</text><text xml:space="preserve" font-family="Monaco,Monaco" font-size="40.0" fill="#F9F9F4" transform="matrix(1.00, 0.00, -0.00, -1.00, 119.4, 753.9)">}</text></g></g><image xlink:href="../../7D403946-07E3-44ED-A31A-12E3B289C893/assets/9ED3A4BA630175911297199125B95FF2.png" width="1729.00" height="575.00" transform="matrix(1.00, 0.00, -0.00, -1.00, 95.4, 645.3)" opacity="0.25"></image><path d="M 115.0 625.0 L 1805.0 625.0 L 1805.0 91.0 L 115.0 91.0 Z M 115.4 625.3 " fill="#323232"></path><g><clipPath id="clip0x7fec7e8de630"><path d="M 106.9 78.8 L 1813.1 78.8 L 1813.1 633.8 L 106.9 633.8 Z M 106.9 78.8 "></path></clipPath><g clip-path="url(#clip0x7fec7e8de630)"><text xml:space="preserve" font-family="Monaco,Monaco" font-size="40.0" fill="#FC4384" transform="matrix(1.00, 0.00, -0.00, -1.00, 119.4, 581.7)">c</text><text xml:space="preserve" font-family="Monaco,Monaco" font-size="40.0" fill="#FC4384" transform="matrix(1.00, 0.00, -0.00, -1.00, 143.4, 581.7)">l</text><text xml:space="preserve" font-family="Monaco,Monaco" font-size="40.0" fill="#FC4384" transform="matrix(1.00, 0.00, -0.00, -1.00, 167.4, 581.7)">a</text><text xml:space="preserve" font-family="Monaco,Monaco" font-size="40.0" fill="#FC4384" transform="matrix(1.00, 0.00, -0.00, -1.00, 191.4, 581.7)">s</text><text xml:space="preserve" font-family="Monaco,Monaco" font-size="40.0" fill="#FC4384" transform="matrix(1.00, 0.00, -0.00, -1.00, 215.4, 581.7)">s</text><text xml:space="preserve" font-family="Monaco,Monaco" font-size="40.0" fill="#000000" transform="matrix(1.00, 0.00, -0.00, -1.00, 239.4, 581.7)"> </text><text xml:space="preserve" font-family="Monaco,Monaco" font-size="40.0" fill="#F9F9F4" transform="matrix(1.00, 0.00, -0.00, -1.00, 263.4, 581.7)">M</text><text xml:space="preserve" font-family="Monaco,Monaco" font-size="40.0" fill="#F9F9F4" transform="matrix(1.00, 0.00, -0.00, -1.00, 287.4, 581.7)">a</text><text xml:space="preserve" font-family="Monaco,Monaco" font-size="40.0" fill="#F9F9F4" transform="matrix(1.00, 0.00, -0.00, -1.00, 311.4, 581.7)">p</text><text xml:space="preserve" font-family="Monaco,Monaco" font-size="40.0" fill="#F9F9F4" transform="matrix(1.00, 0.00, -0.00, -1.00, 335.4, 581.7)">p</text><text xml:space="preserve" font-family="Monaco,Monaco" font-size="40.0" fill="#F9F9F4" transform="matrix(1.00, 0.00, -0.00, -1.00, 359.4, 581.7)">i</text><text xml:space="preserve" font-family="Monaco,Monaco" font-size="40.0" fill="#F9F9F4" transform="matrix(1.00, 0.00, -0.00, -1.00, 383.4, 581.7)">n</text><text xml:space="preserve" font-family="Monaco,Monaco" font-size="40.0" fill="#F9F9F4" transform="matrix(1.00, 0.00, -0.00, -1.00, 407.4, 581.7)">g</text><text xml:space="preserve" font-family="Monaco,Monaco" font-size="40.0" fill="#F9F9F4" transform="matrix(1.00, 0.00, -0.00, -1.00, 431.4, 581.7)">G</text><text xml:space="preserve" font-family="Monaco,Monaco" font-size="40.0" fill="#F9F9F4" transform="matrix(1.00, 0.00, -0.00, -1.00, 455.4, 581.7)">e</text><text xml:space="preserve" font-family="Monaco,Monaco" font-size="40.0" fill="#F9F9F4" transform="matrix(1.00, 0.00, -0.00, -1.00, 479.5, 581.7)">t</text><text xml:space="preserve" font-family="Monaco,Monaco" font-size="40.0" fill="#F9F9F4" transform="matrix(1.00, 0.00, -0.00, -1.00, 503.5, 581.7)">t</text><text xml:space="preserve" font-family="Monaco,Monaco" font-size="40.0" fill="#F9F9F4" transform="matrix(1.00, 0.00, -0.00, -1.00, 527.5, 581.7)">e</text><text xml:space="preserve" font-family="Monaco,Monaco" font-size="40.0" fill="#F9F9F4" transform="matrix(1.00, 0.00, -0.00, -1.00, 551.5, 581.7)">r</text><text xml:space="preserve" font-family="Monaco,Monaco" font-size="40.0" fill="#000000" transform="matrix(1.00, 0.00, -0.00, -1.00, 119.4, 528.7)"> </text><text xml:space="preserve" font-family="Monaco,Monaco" font-size="40.0" fill="#000000" transform="matrix(1.00, 0.00, -0.00, -1.00, 143.4, 528.7)"> </text><text xml:space="preserve" font-family="Monaco,Monaco" font-size="40.0" fill="#FC4384" transform="matrix(1.00, 0.00, -0.00, -1.00, 167.4, 528.7)">d</text><text xml:space="preserve" font-family="Monaco,Monaco" font-size="40.0" fill="#FC4384" transform="matrix(1.00, 0.00, -0.00, -1.00, 191.4, 528.7)">e</text><text xml:space="preserve" font-family="Monaco,Monaco" font-size="40.0" fill="#FC4384" transform="matrix(1.00, 0.00, -0.00, -1.00, 215.4, 528.7)">f</text><text xml:space="preserve" font-family="Monaco,Monaco" font-size="40.0" fill="#000000" transform="matrix(1.00, 0.00, -0.00, -1.00, 239.4, 528.7)"> </text><text xml:space="preserve" font-family="Monaco,Monaco" font-size="40.0" fill="#13F7BA" transform="matrix(1.00, 0.00, -0.00, -1.00, 263.4, 528.7)">i</text><text xml:space="preserve" font-family="Monaco,Monaco" font-size="40.0" fill="#13F7BA" transform="matrix(1.00, 0.00, -0.00, -1.00, 287.4, 528.7)">n</text><text xml:space="preserve" font-family="Monaco,Monaco" font-size="40.0" fill="#13F7BA" transform="matrix(1.00, 0.00, -0.00, -1.00, 311.4, 528.7)">i</text><text xml:space="preserve" font-family="Monaco,Monaco" font-size="40.0" fill="#13F7BA" transform="matrix(1.00, 0.00, -0.00, -1.00, 335.4, 528.7)">t</text><text xml:space="preserve" font-family="Monaco,Monaco" font-size="40.0" fill="#13F7BA" transform="matrix(1.00, 0.00, -0.00, -1.00, 359.4, 528.7)">i</text><text xml:space="preserve" font-family="Monaco,Monaco" font-size="40.0" fill="#13F7BA" transform="matrix(1.00, 0.00, -0.00, -1.00, 383.4, 528.7)">a</text><text xml:space="preserve" font-family="Monaco,Monaco" font-size="40.0" fill="#13F7BA" transform="matrix(1.00, 0.00, -0.00, -1.00, 407.4, 528.7)">l</text><text xml:space="preserve" font-family="Monaco,Monaco" font-size="40.0" fill="#13F7BA" transform="matrix(1.00, 0.00, -0.00, -1.00, 431.4, 528.7)">i</text><text xml:space="preserve" font-family="Monaco,Monaco" font-size="40.0" fill="#13F7BA" transform="matrix(1.00, 0.00, -0.00, -1.00, 455.4, 528.7)">z</text><text xml:space="preserve" font-family="Monaco,Monaco" font-size="40.0" fill="#13F7BA" transform="matrix(1.00, 0.00, -0.00, -1.00, 479.5, 528.7)">e</text><text xml:space="preserve" font-family="Monaco,Monaco" font-size="40.0" fill="#F9F9F4" transform="matrix(1.00, 0.00, -0.00, -1.00, 503.4, 528.7)">(</text><text xml:space="preserve" font-family="Monaco,Monaco" font-size="40.0" fill="#F9F9F4" transform="matrix(1.00, 0.00, -0.00, -1.00, 527.4, 528.7)">p</text><text xml:space="preserve" font-family="Monaco,Monaco" font-size="40.0" fill="#F9F9F4" transform="matrix(1.00, 0.00, -0.00, -1.00, 551.4, 528.7)">a</text><text xml:space="preserve" font-family="Monaco,Monaco" font-size="40.0" fill="#F9F9F4" transform="matrix(1.00, 0.00, -0.00, -1.00, 575.4, 528.7)">r</text><text xml:space="preserve" font-family="Monaco,Monaco" font-size="40.0" fill="#F9F9F4" transform="matrix(1.00, 0.00, -0.00, -1.00, 599.5, 528.7)">e</text><text xml:space="preserve" font-family="Monaco,Monaco" font-size="40.0" fill="#F9F9F4" transform="matrix(1.00, 0.00, -0.00, -1.00, 623.5, 528.7)">n</text><text xml:space="preserve" font-family="Monaco,Monaco" font-size="40.0" fill="#F9F9F4" transform="matrix(1.00, 0.00, -0.00, -1.00, 647.5, 528.7)">t</text><text xml:space="preserve" font-family="Monaco,Monaco" font-size="40.0" fill="#F9F9F4" transform="matrix(1.00, 0.00, -0.00, -1.00, 671.5, 528.7)">,</text><text xml:space="preserve" font-family="Monaco,Monaco" font-size="40.0" fill="#000000" transform="matrix(1.00, 0.00, -0.00, -1.00, 695.5, 528.7)"> </text><text xml:space="preserve" font-family="Monaco,Monaco" font-size="40.0" fill="#F9F9F4" transform="matrix(1.00, 0.00, -0.00, -1.00, 719.5, 528.7)">h</text><text xml:space="preserve" font-family="Monaco,Monaco" font-size="40.0" fill="#F9F9F4" transform="matrix(1.00, 0.00, -0.00, -1.00, 743.5, 528.7)">a</text><text xml:space="preserve" font-family="Monaco,Monaco" font-size="40.0" fill="#F9F9F4" transform="matrix(1.00, 0.00, -0.00, -1.00, 767.5, 528.7)">s</text><text xml:space="preserve" font-family="Monaco,Monaco" font-size="40.0" fill="#F9F9F4" transform="matrix(1.00, 0.00, -0.00, -1.00, 791.5, 528.7)">h</text><text xml:space="preserve" font-family="Monaco,Monaco" font-size="40.0" fill="#F9F9F4" transform="matrix(1.00, 0.00, -0.00, -1.00, 815.5, 528.7)">)</text><text xml:space="preserve" font-family="Monaco,Monaco" font-size="40.0" fill="#000000" transform="matrix(1.00, 0.00, -0.00, -1.00, 119.4, 475.7)"> </text><text xml:space="preserve" font-family="Monaco,Monaco" font-size="40.0" fill="#000000" transform="matrix(1.00, 0.00, -0.00, -1.00, 143.4, 475.7)"> </text><text xml:space="preserve" font-family="Monaco,Monaco" font-size="40.0" fill="#000000" transform="matrix(1.00, 0.00, -0.00, -1.00, 167.4, 475.7)"> </text><text xml:space="preserve" font-family="Monaco,Monaco" font-size="40.0" fill="#000000" transform="matrix(1.00, 0.00, -0.00, -1.00, 191.4, 475.7)"> </text><text xml:space="preserve" font-family="Monaco,Monaco" font-size="40.0" fill="#75DFF2" transform="matrix(1.00, 0.00, -0.00, -1.00, 215.4, 475.7)">@</text><text xml:space="preserve" font-family="Monaco,Monaco" font-size="40.0" fill="#75DFF2" transform="matrix(1.00, 0.00, -0.00, -1.00, 239.4, 475.7)">p</text><text xml:space="preserve" font-family="Monaco,Monaco" font-size="40.0" fill="#75DFF2" transform="matrix(1.00, 0.00, -0.00, -1.00, 263.4, 475.7)">a</text><text xml:space="preserve" font-family="Monaco,Monaco" font-size="40.0" fill="#75DFF2" transform="matrix(1.00, 0.00, -0.00, -1.00, 287.4, 475.7)">r</text><text xml:space="preserve" font-family="Monaco,Monaco" font-size="40.0" fill="#75DFF2" transform="matrix(1.00, 0.00, -0.00, -1.00, 311.4, 475.7)">e</text><text xml:space="preserve" font-family="Monaco,Monaco" font-size="40.0" fill="#75DFF2" transform="matrix(1.00, 0.00, -0.00, -1.00, 335.4, 475.7)">n</text><text xml:space="preserve" font-family="Monaco,Monaco" font-size="40.0" fill="#75DFF2" transform="matrix(1.00, 0.00, -0.00, -1.00, 359.4, 475.7)">t</text><text xml:space="preserve" font-family="Monaco,Monaco" font-size="40.0" fill="#000000" transform="matrix(1.00, 0.00, -0.00, -1.00, 383.4, 475.7)"> </text><text xml:space="preserve" font-family="Monaco,Monaco" font-size="40.0" fill="#F9F9F4" transform="matrix(1.00, 0.00, -0.00, -1.00, 407.4, 475.7)">=</text><text xml:space="preserve" font-family="Monaco,Monaco" font-size="40.0" fill="#000000" transform="matrix(1.00, 0.00, -0.00, -1.00, 431.4, 475.7)"> </text><text xml:space="preserve" font-family="Monaco,Monaco" font-size="40.0" fill="#F9F9F4" transform="matrix(1.00, 0.00, -0.00, -1.00, 455.4, 475.7)">p</text><text xml:space="preserve" font-family="Monaco,Monaco" font-size="40.0" fill="#F9F9F4" transform="matrix(1.00, 0.00, -0.00, -1.00, 479.4, 475.7)">a</text><text xml:space="preserve" font-family="Monaco,Monaco" font-size="40.0" fill="#F9F9F4" transform="matrix(1.00, 0.00, -0.00, -1.00, 503.4, 475.7)">r</text><text xml:space="preserve" font-family="Monaco,Monaco" font-size="40.0" fill="#F9F9F4" transform="matrix(1.00, 0.00, -0.00, -1.00, 527.4, 475.7)">e</text><text xml:space="preserve" font-family="Monaco,Monaco" font-size="40.0" fill="#F9F9F4" transform="matrix(1.00, 0.00, -0.00, -1.00, 551.4, 475.7)">n</text><text xml:space="preserve" font-family="Monaco,Monaco" font-size="40.0" fill="#F9F9F4" transform="matrix(1.00, 0.00, -0.00, -1.00, 575.5, 475.7)">t</text><text xml:space="preserve" font-family="Monaco,Monaco" font-size="40.0" fill="#000000" transform="matrix(1.00, 0.00, -0.00, -1.00, 119.4, 422.7)"> </text><text xml:space="preserve" font-family="Monaco,Monaco" font-size="40.0" fill="#000000" transform="matrix(1.00, 0.00, -0.00, -1.00, 143.4, 422.7)"> </text><text xml:space="preserve" font-family="Monaco,Monaco" font-size="40.0" fill="#000000" transform="matrix(1.00, 0.00, -0.00, -1.00, 167.4, 422.7)"> </text><text xml:space="preserve" font-family="Monaco,Monaco" font-size="40.0" fill="#000000" transform="matrix(1.00, 0.00, -0.00, -1.00, 191.4, 422.7)"> </text><text xml:space="preserve" font-family="Monaco,Monaco" font-size="40.0" fill="#75DFF2" transform="matrix(1.00, 0.00, -0.00, -1.00, 215.4, 422.7)">@</text><text xml:space="preserve" font-family="Monaco,Monaco" font-size="40.0" fill="#75DFF2" transform="matrix(1.00, 0.00, -0.00, -1.00, 239.4, 422.7)">h</text><text xml:space="preserve" font-family="Monaco,Monaco" font-size="40.0" fill="#75DFF2" transform="matrix(1.00, 0.00, -0.00, -1.00, 263.4, 422.7)">a</text><text xml:space="preserve" font-family="Monaco,Monaco" font-size="40.0" fill="#75DFF2" transform="matrix(1.00, 0.00, -0.00, -1.00, 287.4, 422.7)">s</text><text xml:space="preserve" font-family="Monaco,Monaco" font-size="40.0" fill="#75DFF2" transform="matrix(1.00, 0.00, -0.00, -1.00, 311.4, 422.7)">h</text><text xml:space="preserve" font-family="Monaco,Monaco" font-size="40.0" fill="#000000" transform="matrix(1.00, 0.00, -0.00, -1.00, 335.4, 422.7)"> </text><text xml:space="preserve" font-family="Monaco,Monaco" font-size="40.0" fill="#F9F9F4" transform="matrix(1.00, 0.00, -0.00, -1.00, 359.4, 422.7)">=</text><text xml:space="preserve" font-family="Monaco,Monaco" font-size="40.0" fill="#000000" transform="matrix(1.00, 0.00, -0.00, -1.00, 383.4, 422.7)"> </text><text xml:space="preserve" font-family="Monaco,Monaco" font-size="40.0" fill="#F9F9F4" transform="matrix(1.00, 0.00, -0.00, -1.00, 407.4, 422.7)">h</text><text xml:space="preserve" font-family="Monaco,Monaco" font-size="40.0" fill="#F9F9F4" transform="matrix(1.00, 0.00, -0.00, -1.00, 431.4, 422.7)">a</text><text xml:space="preserve" font-family="Monaco,Monaco" font-size="40.0" fill="#F9F9F4" transform="matrix(1.00, 0.00, -0.00, -1.00, 455.4, 422.7)">s</text><text xml:space="preserve" font-family="Monaco,Monaco" font-size="40.0" fill="#F9F9F4" transform="matrix(1.00, 0.00, -0.00, -1.00, 479.4, 422.7)">h</text><text xml:space="preserve" font-family="Monaco,Monaco" font-size="40.0" fill="#000000" transform="matrix(1.00, 0.00, -0.00, -1.00, 119.4, 369.7)"> </text><text xml:space="preserve" font-family="Monaco,Monaco" font-size="40.0" fill="#000000" transform="matrix(1.00, 0.00, -0.00, -1.00, 143.4, 369.7)"> </text><text xml:space="preserve" font-family="Monaco,Monaco" font-size="40.0" fill="#FC4384" transform="matrix(1.00, 0.00, -0.00, -1.00, 167.4, 369.7)">e</text><text xml:space="preserve" font-family="Monaco,Monaco" font-size="40.0" fill="#FC4384" transform="matrix(1.00, 0.00, -0.00, -1.00, 191.4, 369.7)">n</text><text xml:space="preserve" font-family="Monaco,Monaco" font-size="40.0" fill="#FC4384" transform="matrix(1.00, 0.00, -0.00, -1.00, 215.4, 369.7)">d</text><text xml:space="preserve" font-family="Monaco,Monaco" font-size="40.0" fill="#000000" transform="matrix(1.00, 0.00, -0.00, -1.00, 119.4, 263.7)"> </text><text xml:space="preserve" font-family="Monaco,Monaco" font-size="40.0" fill="#000000" transform="matrix(1.00, 0.00, -0.00, -1.00, 143.4, 263.7)"> </text><text xml:space="preserve" font-family="Monaco,Monaco" font-size="40.0" fill="#FC4384" transform="matrix(1.00, 0.00, -0.00, -1.00, 167.4, 263.7)">d</text><text xml:space="preserve" font-family="Monaco,Monaco" font-size="40.0" fill="#FC4384" transform="matrix(1.00, 0.00, -0.00, -1.00, 191.4, 263.7)">e</text><text xml:space="preserve" font-family="Monaco,Monaco" font-size="40.0" fill="#FC4384" transform="matrix(1.00, 0.00, -0.00, -1.00, 215.4, 263.7)">f</text><text xml:space="preserve" font-family="Monaco,Monaco" font-size="40.0" fill="#000000" transform="matrix(1.00, 0.00, -0.00, -1.00, 239.4, 263.7)"> </text><text xml:space="preserve" font-family="Monaco,Monaco" font-size="40.0" fill="#13F7BA" transform="matrix(1.00, 0.00, -0.00, -1.00, 263.4, 263.7)">g</text><text xml:space="preserve" font-family="Monaco,Monaco" font-size="40.0" fill="#13F7BA" transform="matrix(1.00, 0.00, -0.00, -1.00, 287.4, 263.7)">e</text><text xml:space="preserve" font-family="Monaco,Monaco" font-size="40.0" fill="#13F7BA" transform="matrix(1.00, 0.00, -0.00, -1.00, 311.4, 263.7)">t</text><text xml:space="preserve" font-family="Monaco,Monaco" font-size="40.0" fill="#F9F9F4" transform="matrix(1.00, 0.00, -0.00, -1.00, 335.4, 263.7)">(</text><text xml:space="preserve" font-family="Monaco,Monaco" font-size="40.0" fill="#F9F9F4" transform="matrix(1.00, 0.00, -0.00, -1.00, 359.4, 263.7)">o</text><text xml:space="preserve" font-family="Monaco,Monaco" font-size="40.0" fill="#F9F9F4" transform="matrix(1.00, 0.00, -0.00, -1.00, 383.4, 263.7)">b</text><text xml:space="preserve" font-family="Monaco,Monaco" font-size="40.0" fill="#F9F9F4" transform="matrix(1.00, 0.00, -0.00, -1.00, 407.4, 263.7)">j</text><text xml:space="preserve" font-family="Monaco,Monaco" font-size="40.0" fill="#F9F9F4" transform="matrix(1.00, 0.00, -0.00, -1.00, 431.4, 263.7)">e</text><text xml:space="preserve" font-family="Monaco,Monaco" font-size="40.0" fill="#F9F9F4" transform="matrix(1.00, 0.00, -0.00, -1.00, 455.4, 263.7)">c</text><text xml:space="preserve" font-family="Monaco,Monaco" font-size="40.0" fill="#F9F9F4" transform="matrix(1.00, 0.00, -0.00, -1.00, 479.4, 263.7)">t</text><text xml:space="preserve" font-family="Monaco,Monaco" font-size="40.0" fill="#F9F9F4" transform="matrix(1.00, 0.00, -0.00, -1.00, 503.5, 263.7)">,</text><text xml:space="preserve" font-family="Monaco,Monaco" font-size="40.0" fill="#000000" transform="matrix(1.00, 0.00, -0.00, -1.00, 527.4, 263.7)"> </text><text xml:space="preserve" font-family="Monaco,Monaco" font-size="40.0" fill="#F9F9F4" transform="matrix(1.00, 0.00, -0.00, -1.00, 551.4, 263.7)">k</text><text xml:space="preserve" font-family="Monaco,Monaco" font-size="40.0" fill="#F9F9F4" transform="matrix(1.00, 0.00, -0.00, -1.00, 575.4, 263.7)">e</text><text xml:space="preserve" font-family="Monaco,Monaco" font-size="40.0" fill="#F9F9F4" transform="matrix(1.00, 0.00, -0.00, -1.00, 599.4, 263.7)">y</text><text xml:space="preserve" font-family="Monaco,Monaco" font-size="40.0" fill="#F9F9F4" transform="matrix(1.00, 0.00, -0.00, -1.00, 623.5, 263.7)">)</text><text xml:space="preserve" font-family="Monaco,Monaco" font-size="40.0" fill="#000000" transform="matrix(1.00, 0.00, -0.00, -1.00, 119.4, 210.7)"> </text><text xml:space="preserve" font-family="Monaco,Monaco" font-size="40.0" fill="#000000" transform="matrix(1.00, 0.00, -0.00, -1.00, 143.4, 210.7)"> </text><text xml:space="preserve" font-family="Monaco,Monaco" font-size="40.0" fill="#000000" transform="matrix(1.00, 0.00, -0.00, -1.00, 167.4, 210.7)"> </text><text xml:space="preserve" font-family="Monaco,Monaco" font-size="40.0" fill="#000000" transform="matrix(1.00, 0.00, -0.00, -1.00, 191.4, 210.7)"> </text><text xml:space="preserve" font-family="Monaco,Monaco" font-size="40.0" fill="#75DFF2" transform="matrix(1.00, 0.00, -0.00, -1.00, 215.4, 210.7)">@</text><text xml:space="preserve" font-family="Monaco,Monaco" font-size="40.0" fill="#75DFF2" transform="matrix(1.00, 0.00, -0.00, -1.00, 239.4, 210.7)">p</text><text xml:space="preserve" font-family="Monaco,Monaco" font-size="40.0" fill="#75DFF2" transform="matrix(1.00, 0.00, -0.00, -1.00, 263.4, 210.7)">a</text><text xml:space="preserve" font-family="Monaco,Monaco" font-size="40.0" fill="#75DFF2" transform="matrix(1.00, 0.00, -0.00, -1.00, 287.4, 210.7)">r</text><text xml:space="preserve" font-family="Monaco,Monaco" font-size="40.0" fill="#75DFF2" transform="matrix(1.00, 0.00, -0.00, -1.00, 311.4, 210.7)">e</text><text xml:space="preserve" font-family="Monaco,Monaco" font-size="40.0" fill="#75DFF2" transform="matrix(1.00, 0.00, -0.00, -1.00, 335.4, 210.7)">n</text><text xml:space="preserve" font-family="Monaco,Monaco" font-size="40.0" fill="#75DFF2" transform="matrix(1.00, 0.00, -0.00, -1.00, 359.4, 210.7)">t</text><text xml:space="preserve" font-family="Monaco,Monaco" font-size="40.0" fill="#F9F9F4" transform="matrix(1.00, 0.00, -0.00, -1.00, 383.4, 210.7)">.</text><text xml:space="preserve" font-family="Monaco,Monaco" font-size="40.0" fill="#13F7BA" transform="matrix(1.00, 0.00, -0.00, -1.00, 407.4, 210.7)">g</text><text xml:space="preserve" font-family="Monaco,Monaco" font-size="40.0" fill="#13F7BA" transform="matrix(1.00, 0.00, -0.00, -1.00, 431.4, 210.7)">e</text><text xml:space="preserve" font-family="Monaco,Monaco" font-size="40.0" fill="#13F7BA" transform="matrix(1.00, 0.00, -0.00, -1.00, 455.4, 210.7)">t</text><text xml:space="preserve" font-family="Monaco,Monaco" font-size="40.0" fill="#F9F9F4" transform="matrix(1.00, 0.00, -0.00, -1.00, 479.4, 210.7)">(</text><text xml:space="preserve" font-family="Monaco,Monaco" font-size="40.0" fill="#F9F9F4" transform="matrix(1.00, 0.00, -0.00, -1.00, 503.4, 210.7)">o</text><text xml:space="preserve" font-family="Monaco,Monaco" font-size="40.0" fill="#F9F9F4" transform="matrix(1.00, 0.00, -0.00, -1.00, 527.4, 210.7)">b</text><text xml:space="preserve" font-family="Monaco,Monaco" font-size="40.0" fill="#F9F9F4" transform="matrix(1.00, 0.00, -0.00, -1.00, 551.4, 210.7)">j</text><text xml:space="preserve" font-family="Monaco,Monaco" font-size="40.0" fill="#F9F9F4" transform="matrix(1.00, 0.00, -0.00, -1.00, 575.5, 210.7)">e</text><text xml:space="preserve" font-family="Monaco,Monaco" font-size="40.0" fill="#F9F9F4" transform="matrix(1.00, 0.00, -0.00, -1.00, 599.5, 210.7)">c</text><text xml:space="preserve" font-family="Monaco,Monaco" font-size="40.0" fill="#F9F9F4" transform="matrix(1.00, 0.00, -0.00, -1.00, 623.5, 210.7)">t</text><text xml:space="preserve" font-family="Monaco,Monaco" font-size="40.0" fill="#F9F9F4" transform="matrix(1.00, 0.00, -0.00, -1.00, 647.5, 210.7)">,</text><text xml:space="preserve" font-family="Monaco,Monaco" font-size="40.0" fill="#000000" transform="matrix(1.00, 0.00, -0.00, -1.00, 671.5, 210.7)"> </text><text xml:space="preserve" font-family="Monaco,Monaco" font-size="40.0" fill="#75DFF2" transform="matrix(1.00, 0.00, -0.00, -1.00, 695.5, 210.7)">@</text><text xml:space="preserve" font-family="Monaco,Monaco" font-size="40.0" fill="#75DFF2" transform="matrix(1.00, 0.00, -0.00, -1.00, 719.5, 210.7)">h</text><text xml:space="preserve" font-family="Monaco,Monaco" font-size="40.0" fill="#75DFF2" transform="matrix(1.00, 0.00, -0.00, -1.00, 743.5, 210.7)">a</text><text xml:space="preserve" font-family="Monaco,Monaco" font-size="40.0" fill="#75DFF2" transform="matrix(1.00, 0.00, -0.00, -1.00, 767.5, 210.7)">s</text><text xml:space="preserve" font-family="Monaco,Monaco" font-size="40.0" fill="#75DFF2" transform="matrix(1.00, 0.00, -0.00, -1.00, 791.5, 210.7)">h</text><text xml:space="preserve" font-family="Monaco,Monaco" font-size="40.0" fill="#F9F9F4" transform="matrix(1.00, 0.00, -0.00, -1.00, 815.5, 210.7)">.</text><text xml:space="preserve" font-family="Monaco,Monaco" font-size="40.0" fill="#13F7BA" transform="matrix(1.00, 0.00, -0.00, -1.00, 839.5, 210.7)">f</text><text xml:space="preserve" font-family="Monaco,Monaco" font-size="40.0" fill="#13F7BA" transform="matrix(1.00, 0.00, -0.00, -1.00, 863.5, 210.7)">e</text><text xml:space="preserve" font-family="Monaco,Monaco" font-size="40.0" fill="#13F7BA" transform="matrix(1.00, 0.00, -0.00, -1.00, 887.5, 210.7)">t</text><text xml:space="preserve" font-family="Monaco,Monaco" font-size="40.0" fill="#13F7BA" transform="matrix(1.00, 0.00, -0.00, -1.00, 911.5, 210.7)">c</text><text xml:space="preserve" font-family="Monaco,Monaco" font-size="40.0" fill="#13F7BA" transform="matrix(1.00, 0.00, -0.00, -1.00, 935.5, 210.7)">h</text><text xml:space="preserve" font-family="Monaco,Monaco" font-size="40.0" fill="#F9F9F4" transform="matrix(1.00, 0.00, -0.00, -1.00, 959.5, 210.7)">(</text><text xml:space="preserve" font-family="Monaco,Monaco" font-size="40.0" fill="#F9F9F4" transform="matrix(1.00, 0.00, -0.00, -1.00, 983.5, 210.7)">k</text><text xml:space="preserve" font-family="Monaco,Monaco" font-size="40.0" fill="#F9F9F4" transform="matrix(1.00, 0.00, -0.00, -1.00, 1007.5, 210.7)">e</text><text xml:space="preserve" font-family="Monaco,Monaco" font-size="40.0" fill="#F9F9F4" transform="matrix(1.00, 0.00, -0.00, -1.00, 1031.5, 210.7)">y</text><text xml:space="preserve" font-family="Monaco,Monaco" font-size="40.0" fill="#F9F9F4" transform="matrix(1.00, 0.00, -0.00, -1.00, 1055.5, 210.7)">)</text><text xml:space="preserve" font-family="Monaco,Monaco" font-size="40.0" fill="#000000" transform="matrix(1.00, 0.00, -0.00, -1.00, 1079.5, 210.7)"> </text><text xml:space="preserve" font-family="Monaco,Monaco" font-size="40.0" fill="#F9F9F4" transform="matrix(1.00, 0.00, -0.00, -1.00, 1103.5, 210.7)">{</text><text xml:space="preserve" font-family="Monaco,Monaco" font-size="40.0" fill="#F9F9F4" transform="matrix(1.00, 0.00, -0.00, -1.00, 1127.5, 210.7)"> </text><text xml:space="preserve" font-family="Monaco,Monaco" font-size="40.0" fill="#F9F9F4" transform="matrix(1.00, 0.00, -0.00, -1.00, 1151.5, 210.7)">k</text><text xml:space="preserve" font-family="Monaco,Monaco" font-size="40.0" fill="#F9F9F4" transform="matrix(1.00, 0.00, -0.00, -1.00, 1175.5, 210.7)">e</text><text xml:space="preserve" font-family="Monaco,Monaco" font-size="40.0" fill="#F9F9F4" transform="matrix(1.00, 0.00, -0.00, -1.00, 1199.6, 210.7)">y</text><text xml:space="preserve" font-family="Monaco,Monaco" font-size="40.0" fill="#F9F9F4" transform="matrix(1.00, 0.00, -0.00, -1.00, 1223.6, 210.7)"> </text><text xml:space="preserve" font-family="Monaco,Monaco" font-size="40.0" fill="#F9F9F4" transform="matrix(1.00, 0.00, -0.00, -1.00, 1247.6, 210.7)">}</text><text xml:space="preserve" font-family="Monaco,Monaco" font-size="40.0" fill="#F9F9F4" transform="matrix(1.00, 0.00, -0.00, -1.00, 1271.6, 210.7)">)</text><text xml:space="preserve" font-family="Monaco,Monaco" font-size="40.0" fill="#000000" transform="matrix(1.00, 0.00, -0.00, -1.00, 119.4, 157.7)"> </text><text xml:space="preserve" font-family="Monaco,Monaco" font-size="40.0" fill="#000000" transform="matrix(1.00, 0.00, -0.00, -1.00, 143.4, 157.7)"> </text><text xml:space="preserve" font-family="Monaco,Monaco" font-size="40.0" fill="#FC4384" transform="matrix(1.00, 0.00, -0.00, -1.00, 167.4, 157.7)">e</text><text xml:space="preserve" font-family="Monaco,Monaco" font-size="40.0" fill="#FC4384" transform="matrix(1.00, 0.00, -0.00, -1.00, 191.4, 157.7)">n</text><text xml:space="preserve" font-family="Monaco,Monaco" font-size="40.0" fill="#FC4384" transform="matrix(1.00, 0.00, -0.00, -1.00, 215.4, 157.7)">d</text><text xml:space="preserve" font-family="Monaco,Monaco" font-size="40.0" fill="#FC4384" transform="matrix(1.00, 0.00, -0.00, -1.00, 119.4, 104.7)">e</text><text xml:space="preserve" font-family="Monaco,Monaco" font-size="40.0" fill="#FC4384" transform="matrix(1.00, 0.00, -0.00, -1.00, 143.4, 104.7)">n</text><text xml:space="preserve" font-family="Monaco,Monaco" font-size="40.0" fill="#FC4384" transform="matrix(1.00, 0.00, -0.00, -1.00, 167.4, 104.7)">d</text></g></g></g></svg>