<?xml version="1.0" encoding="UTF-8" standalone="no"?><svg xmlns="http://www.w3.org/2000/svg" xmlns:xlink="http://www.w3.org/1999/xlink" clip-rule="evenodd" stroke-miterlimit="10" viewBox="0 0 1920 1080"><desc>SVG generated by Keynote</desc><defs></defs><g transform="matrix(1.00, 0.00, -0.00, -1.00, 0.0, 1080.0)"><g><clipPath id="clip0x7fec7b7a1d30"><path d="M 0.0 1080.0 L 1920.0 1080.0 L 1920.0 0.0 L 0.0 0.0 Z M 0.0 1080.0 "></path></clipPath><g clip-path="url(#clip0x7fec7b7a1d30)"><image xlink:href="../../A5D7B27F-ECCD-4C51-9075-135B713588B1/assets/0F43D2572F34A9AFB59E4515ED9A1249.jpeg" width="3840.00" height="2160.00" transform="matrix(0.50, 0.00, -0.00, -0.50, 0.0, 1080.0)"></image></g></g><image xlink:href="BD557BD7A0B5F86095A0D3050AB26636.png" width="142.00" height="142.00" transform="matrix(1.00, 0.00, -0.00, -1.00, 889.0, 611.0)"></image><path d="M 995.4 575.4 C 1014.9 555.8 1014.9 524.2 995.4 504.6 C 975.8 485.1 944.2 485.1 924.6 504.6 C 905.1 524.2 905.1 555.8 924.6 575.4 C 944.2 594.9 975.8 594.9 995.4 575.4 Z M 995.4 575.4 " fill="#FC6900"></path><path d="M 85.4 14.6 C 104.9 34.2 104.9 65.8 85.4 85.4 C 65.8 104.9 34.2 104.9 14.6 85.4 C -4.9 65.8 -4.9 34.2 14.6 14.6 C 34.2 -4.9 65.8 -4.9 85.4 14.6 Z M 85.4 14.6 " fill="none" stroke="#000000" stroke-width="2.00" transform="matrix(1.00, 0.00, 0.00, -1.00, 910.0, 590.0)"></path><image xlink:href="../../9B5F90CA-3C20-4F68-A90F-A4FAB73B3868/assets/BD557BD7A0B5F86095A0D3050AB26636.png" width="142.00" height="142.00" transform="matrix(1.00, 0.00, -0.00, -1.00, 1089.0, 611.0)"></image><path d="M 1195.4 575.4 C 1214.9 555.8 1214.9 524.2 1195.4 504.6 C 1175.8 485.1 1144.2 485.1 1124.6 504.6 C 1105.1 524.2 1105.1 555.8 1124.6 575.4 C 1144.2 594.9 1175.8 594.9 1195.4 575.4 Z M 1195.4 575.4 " fill="#FC6900"></path><path d="M 85.4 14.6 C 104.9 34.2 104.9 65.8 85.4 85.4 C 65.8 104.9 34.2 104.9 14.6 85.4 C -4.9 65.8 -4.9 34.2 14.6 14.6 C 34.2 -4.9 65.8 -4.9 85.4 14.6 Z M 85.4 14.6 " fill="none" stroke="#000000" stroke-width="2.00" transform="matrix(1.00, 0.00, 0.00, -1.00, 1110.0, 590.0)"></path><image xlink:href="../../9B5F90CA-3C20-4F68-A90F-A4FAB73B3868/assets/BD557BD7A0B5F86095A0D3050AB26636.png" width="142.00" height="142.00" transform="matrix(1.00, 0.00, -0.00, -1.00, 689.0, 611.0)"></image><path d="M 795.4 575.4 C 814.9 555.8 814.9 524.2 795.4 504.6 C 775.8 485.1 744.2 485.1 724.6 504.6 C 705.1 524.2 705.1 555.8 724.6 575.4 C 744.2 594.9 775.8 594.9 795.4 575.4 Z M 795.4 575.4 " fill="#FC6900"></path><path d="M 85.4 14.6 C 104.9 34.2 104.9 65.8 85.4 85.4 C 65.8 104.9 34.2 104.9 14.6 85.4 C -4.9 65.8 -4.9 34.2 14.6 14.6 C 34.2 -4.9 65.8 -4.9 85.4 14.6 Z M 85.4 14.6 " fill="none" stroke="#000000" stroke-width="2.00" transform="matrix(1.00, 0.00, 0.00, -1.00, 710.0, 590.0)"></path><image xlink:href="../../9B5F90CA-3C20-4F68-A90F-A4FAB73B3868/assets/BD557BD7A0B5F86095A0D3050AB26636.png" width="142.00" height="142.00" transform="matrix(1.00, 0.00, -0.00, -1.00, 889.0, 811.0)"></image><path d="M 995.4 775.4 C 1014.9 755.8 1014.9 724.2 995.4 704.6 C 975.8 685.1 944.2 685.1 924.6 704.6 C 905.1 724.2 905.1 755.8 924.6 775.4 C 944.2 794.9 975.8 794.9 995.4 775.4 Z M 995.4 775.4 " fill="#FC6900"></path><path d="M 85.4 14.6 C 104.9 34.2 104.9 65.8 85.4 85.4 C 65.8 104.9 34.2 104.9 14.6 85.4 C -4.9 65.8 -4.9 34.2 14.6 14.6 C 34.2 -4.9 65.8 -4.9 85.4 14.6 Z M 85.4 14.6 " fill="none" stroke="#000000" stroke-width="2.00" transform="matrix(1.00, 0.00, 0.00, -1.00, 910.0, 790.0)"></path><image xlink:href="../../9B5F90CA-3C20-4F68-A90F-A4FAB73B3868/assets/BD557BD7A0B5F86095A0D3050AB26636.png" width="142.00" height="142.00" transform="matrix(1.00, 0.00, -0.00, -1.00, 889.0, 411.0)"></image><path d="M 995.4 375.4 C 1014.9 355.8 1014.9 324.2 995.4 304.6 C 975.8 285.1 944.2 285.1 924.6 304.6 C 905.1 324.2 905.1 355.8 924.6 375.4 C 944.2 394.9 975.8 394.9 995.4 375.4 Z M 995.4 375.4 " fill="#FC6900"></path><path d="M 85.4 14.6 C 104.9 34.2 104.9 65.8 85.4 85.4 C 65.8 104.9 34.2 104.9 14.6 85.4 C -4.9 65.8 -4.9 34.2 14.6 14.6 C 34.2 -4.9 65.8 -4.9 85.4 14.6 Z M 85.4 14.6 " fill="none" stroke="#000000" stroke-width="2.00" transform="matrix(1.00, 0.00, 0.00, -1.00, 910.0, 390.0)"></path><path d="M 1195.4 975.4 C 1214.9 955.8 1214.9 924.2 1195.4 904.6 C 1175.8 885.1 1144.2 885.1 1124.6 904.6 C 1105.1 924.2 1105.1 955.8 1124.6 975.4 C 1144.2 994.9 1175.8 994.9 1195.4 975.4 Z M 1195.4 975.4 " fill="#008700"></path><path d="M 1395.4 775.4 C 1414.9 755.8 1414.9 724.2 1395.4 704.6 C 1375.8 685.1 1344.2 685.1 1324.6 704.6 C 1305.1 724.2 1305.1 755.8 1324.6 775.4 C 1344.2 794.9 1375.8 794.9 1395.4 775.4 Z M 1395.4 775.4 " fill="#00D7D7"></path><path d="M 1395.4 575.4 C 1414.9 555.8 1414.9 524.2 1395.4 504.6 C 1375.8 485.1 1344.2 485.1 1324.6 504.6 C 1305.1 524.2 1305.1 555.8 1324.6 575.4 C 1344.2 594.9 1375.8 594.9 1395.4 575.4 Z M 1395.4 575.4 " fill="#00AEAE"></path><path d="M 1395.4 375.4 C 1414.9 355.8 1414.9 324.2 1395.4 304.6 C 1375.8 285.1 1344.2 285.1 1324.6 304.6 C 1305.1 324.2 1305.1 355.8 1324.6 375.4 C 1344.2 394.9 1375.8 394.9 1395.4 375.4 Z M 1395.4 375.4 " fill="#008787"></path><path d="M 1195.4 175.4 C 1214.9 155.8 1214.9 124.2 1195.4 104.6 C 1175.8 85.1 1144.2 85.1 1124.6 104.6 C 1105.1 124.2 1105.1 155.8 1124.6 175.4 C 1144.2 194.9 1175.8 194.9 1195.4 175.4 Z M 1195.4 175.4 " fill="#D7D700"></path><path d="M 995.4 175.4 C 1014.9 155.8 1014.9 124.2 995.4 104.6 C 975.8 85.1 944.2 85.1 924.6 104.6 C 905.1 124.2 905.1 155.8 924.6 175.4 C 944.2 194.9 975.8 194.9 995.4 175.4 Z M 995.4 175.4 " fill="#AEAE00"></path><path d="M 795.4 175.4 C 814.9 155.8 814.9 124.2 795.4 104.6 C 775.8 85.1 744.2 85.1 724.6 104.6 C 705.1 124.2 705.1 155.8 724.6 175.4 C 744.2 194.9 775.8 194.9 795.4 175.4 Z M 795.4 175.4 " fill="#878700"></path><path d="M 595.4 375.4 C 614.9 355.8 614.9 324.2 595.4 304.6 C 575.8 285.1 544.2 285.1 524.6 304.6 C 505.1 324.2 505.1 355.8 524.6 375.4 C 544.2 394.9 575.8 394.9 595.4 375.4 Z M 595.4 375.4 " fill="#D70000"></path><path d="M 585.4 575.4 C 604.9 555.8 604.9 524.2 585.4 504.6 C 565.8 485.1 534.2 485.1 514.6 504.6 C 495.1 524.2 495.1 555.8 514.6 575.4 C 534.2 594.9 565.8 594.9 585.4 575.4 Z M 585.4 575.4 " fill="#AE0000"></path><path d="M 585.4 775.4 C 604.9 755.8 604.9 724.2 585.4 704.6 C 565.8 685.1 534.2 685.1 514.6 704.6 C 495.1 724.2 495.1 755.8 514.6 775.4 C 534.2 794.9 565.8 794.9 585.4 775.4 Z M 585.4 775.4 " fill="#870000"></path><path d="M 795.4 975.4 C 814.9 955.8 814.9 924.2 795.4 904.6 C 775.8 885.1 744.2 885.1 724.6 904.6 C 705.1 924.2 705.1 955.8 724.6 975.4 C 744.2 994.9 775.8 994.9 795.4 975.4 Z M 795.4 975.4 " fill="#00D700"></path><path d="M 992.2 975.4 C 1011.8 955.8 1011.8 924.2 992.2 904.6 C 972.7 885.1 941.1 885.1 921.5 904.6 C 902.0 924.2 902.0 955.8 921.5 975.4 C 941.1 994.9 972.7 994.9 992.2 975.4 Z M 992.2 975.4 " fill="#00AE00"></path><path d="M 0.0 14.1 C 32.1 -1.6 64.2 -4.6 96.3 5.9 L 98.6 6.9 " fill="none" stroke="#FC6900" stroke-width="5.00" transform="matrix(1.00, 0.00, 0.00, -1.00, 1002.4, 582.4)"></path><path d="M 1094.8 567.0 L 1117.6 568.7 L 1102.5 585.9 Z M 1094.8 567.0 " fill="#FC6900"></path><path d="M 14.1 115.2 C -1.6 83.1 -4.6 51.0 5.9 18.9 L 6.9 16.6 " fill="none" stroke="#FC6900" stroke-width="5.00" transform="matrix(1.00, 0.00, 0.00, -1.00, 917.6, 697.6)"></path><path d="M 933.0 674.8 L 931.3 697.6 L 914.1 682.5 Z M 933.0 674.8 " fill="#FC6900"></path><path d="M 115.2 0.0 C 83.1 15.7 51.0 18.7 18.9 8.1 L 16.6 7.1 " fill="none" stroke="#FC6900" stroke-width="5.00" transform="matrix(1.00, 0.00, 0.00, -1.00, 802.4, 511.6)"></path><path d="M 825.2 513.0 L 802.4 511.3 L 817.5 494.1 Z M 825.2 513.0 " fill="#FC6900"></path><path d="M 0.0 0.0 C 15.7 32.1 18.7 64.2 8.1 96.3 L 7.1 98.6 " fill="none" stroke="#FC6900" stroke-width="5.00" transform="matrix(1.00, 0.00, 0.00, -1.00, 988.4, 497.6)"></path><path d="M 987.0 405.2 L 988.7 382.4 L 1005.9 397.5 Z M 987.0 405.2 " fill="#FC6900"></path><path d="M 0.0 0.0 C 57.7 24.1 100.3 63.2 127.9 117.4 L 129.0 119.7 " fill="none" stroke="#E0E4CB" stroke-width="5.00" transform="matrix(1.00, 0.00, 0.00, -1.00, 807.5, 924.4)"></path><path d="M 926.2 802.6 L 944.0 788.4 L 944.7 811.2 Z M 926.2 802.6 " fill="#E0E4CB"></path><path d="M 0.0 0.0 C 60.3 23.8 105.5 63.5 135.6 119.0 L 136.7 121.2 " fill="none" stroke="#E0E4CB" stroke-width="5.00" transform="matrix(1.00, 0.00, 0.00, -1.00, 597.7, 725.2)"></path><path d="M 724.2 601.6 L 742.4 587.9 L 742.4 610.7 Z M 724.2 601.6 " fill="#E0E4CB"></path><path d="M 0.0 15.3 C 35.4 -1.9 70.8 -4.8 106.2 6.9 L 109.0 7.9 " fill="none" stroke="#E0E4CB" stroke-width="5.00" transform="matrix(1.00, 0.00, 0.00, -1.00, 592.0, 582.4)"></path><path d="M 694.9 566.0 L 717.6 567.8 L 702.5 584.9 Z M 694.9 566.0 " fill="#E0E4CB"></path><path d="M 0.0 136.5 C 24.1 78.8 63.2 36.2 117.4 8.6 L 119.7 7.5 " fill="none" stroke="#E0E4CB" stroke-width="5.00" transform="matrix(1.00, 0.00, 0.00, -1.00, 575.6, 524.0)"></path><path d="M 697.4 506.2 L 711.6 524.0 L 688.8 524.7 Z M 697.4 506.2 " fill="#E0E4CB"></path><path d="M 0.0 136.5 C 24.1 78.8 63.2 36.2 117.4 8.6 L 119.7 7.5 " fill="none" stroke="#E0E4CB" stroke-width="5.00" transform="matrix(1.00, 0.00, 0.00, -1.00, 775.6, 324.0)"></path><path d="M 897.4 306.2 L 911.6 324.0 L 888.8 324.7 Z M 897.4 306.2 " fill="#E0E4CB"></path><path d="M 14.5 116.1 C -1.6 83.7 -4.7 51.3 5.9 18.9 L 6.9 16.6 " fill="none" stroke="#E0E4CB" stroke-width="5.00" transform="matrix(1.00, 0.00, 0.00, -1.00, 917.6, 297.6)"></path><path d="M 933.0 274.8 L 931.3 297.6 L 914.1 282.5 Z M 933.0 274.8 " fill="#E0E4CB"></path><path d="M 136.5 136.0 C 78.8 111.9 36.2 72.7 8.6 18.5 L 7.5 16.2 " fill="none" stroke="#E0E4CB" stroke-width="5.00" transform="matrix(1.00, 0.00, 0.00, -1.00, 976.0, 291.6)"></path><path d="M 993.8 277.4 L 976.0 291.6 L 975.3 268.8 Z M 993.8 277.4 " fill="#E0E4CB"></path><path d="M 136.0 0.0 C 111.9 57.7 72.7 100.3 18.5 127.9 L 16.2 129.0 " fill="none" stroke="#E0E4CB" stroke-width="5.00" transform="matrix(1.00, 0.00, 0.00, -1.00, 1208.4, 692.5)"></path><path d="M 1222.6 573.8 L 1208.4 556.0 L 1231.2 555.3 Z M 1222.6 573.8 " fill="#E0E4CB"></path><path d="M 136.5 136.0 C 78.8 111.9 36.2 72.7 8.6 18.5 L 7.5 16.2 " fill="none" stroke="#E0E4CB" stroke-width="5.00" transform="matrix(1.00, 0.00, 0.00, -1.00, 1176.0, 491.6)"></path><path d="M 1193.8 477.4 L 1176.0 491.6 L 1175.3 468.8 Z M 1193.8 477.4 " fill="#E0E4CB"></path><path d="M 116.1 0.0 C 83.7 16.1 51.3 19.2 18.9 8.6 L 16.6 7.6 " fill="none" stroke="#E0E4CB" stroke-width="5.00" transform="matrix(1.00, 0.00, 0.00, -1.00, 1202.4, 512.1)"></path><path d="M 1225.2 513.0 L 1202.4 511.3 L 1217.5 494.1 Z M 1225.2 513.0 " fill="#E0E4CB"></path><path d="M 136.0 0.0 C 111.9 57.7 72.7 100.3 18.5 127.9 L 16.2 129.0 " fill="none" stroke="#E0E4CB" stroke-width="5.00" transform="matrix(1.00, 0.00, 0.00, -1.00, 1008.4, 892.5)"></path><path d="M 1022.6 773.8 L 1008.4 756.0 L 1031.2 755.3 Z M 1022.6 773.8 " fill="#E0E4CB"></path><path d="M 0.0 0.0 C 16.6 32.2 20.2 64.5 10.1 97.1 L 9.1 99.0 " fill="none" stroke="#E0E4CB" stroke-width="5.00" transform="matrix(1.00, 0.00, 0.00, -1.00, 985.4, 899.0)"></path><path d="M 985.9 806.0 L 988.0 783.3 L 1004.9 798.6 Z M 985.9 806.0 " fill="#E0E4CB"></path><path d="M 341.4 58.6 C 419.5 136.7 419.5 263.3 341.4 341.4 C 263.3 419.5 136.7 419.5 58.6 341.4 C -19.5 263.3 -19.5 136.7 58.6 58.6 C 136.7 -19.5 263.3 -19.5 341.4 58.6 Z M 341.4 58.6 " fill="none" stroke="#FC6900" stroke-width="10.00" transform="matrix(1.00, 0.00, 0.00, -1.00, 760.0, 740.0)"></path></g></svg>