<?xml version="1.0" encoding="UTF-8" standalone="no"?><svg xmlns="http://www.w3.org/2000/svg" xmlns:xlink="http://www.w3.org/1999/xlink" clip-rule="evenodd" stroke-miterlimit="10" viewBox="0 0 1920 1080"><desc>SVG generated by Keynote</desc><defs></defs><g transform="matrix(1.00, 0.00, -0.00, -1.00, 0.0, 1080.0)"><g><clipPath id="clip0x7fec7b3fb8a0"><path d="M 0.0 1080.0 L 1920.0 1080.0 L 1920.0 0.0 L 0.0 0.0 Z M 0.0 1080.0 "></path></clipPath><g clip-path="url(#clip0x7fec7b3fb8a0)"><image xlink:href="../../A5D7B27F-ECCD-4C51-9075-135B713588B1/assets/0F43D2572F34A9AFB59E4515ED9A1249.jpeg" width="3840.00" height="2160.00" transform="matrix(0.50, 0.00, -0.00, -0.50, 0.0, 1080.0)"></image></g></g><image xlink:href="../../2E0753E5-B5B3-4C39-8C46-07A270F9B2AC/assets/73D5DC64A9669EA95C90DCE7A341DF1B.png" width="1729.00" height="310.00" transform="matrix(1.00, 0.00, -0.00, -1.00, 95.4, 1015.0)" opacity="0.25"></image><path d="M 115.0 995.0 L 1805.0 995.0 L 1805.0 725.0 L 115.0 725.0 Z M 115.4 995.0 " fill="#323232"></path><g><clipPath id="clip0x7fec7c117f90"><path d="M 106.9 713.5 L 1813.1 713.5 L 1813.1 1003.5 L 106.9 1003.5 Z M 106.9 713.5 "></path></clipPath><g clip-path="url(#clip0x7fec7c117f90)"><text xml:space="preserve" font-family="Monaco,Monaco" font-size="40.0" fill="#FC4384" transform="matrix(1.00, 0.00, -0.00, -1.00, 119.4, 951.3)">c</text><text xml:space="preserve" font-family="Monaco,Monaco" font-size="40.0" fill="#FC4384" transform="matrix(1.00, 0.00, -0.00, -1.00, 143.4, 951.3)">l</text><text xml:space="preserve" font-family="Monaco,Monaco" font-size="40.0" fill="#FC4384" transform="matrix(1.00, 0.00, -0.00, -1.00, 167.4, 951.3)">a</text><text xml:space="preserve" font-family="Monaco,Monaco" font-size="40.0" fill="#FC4384" transform="matrix(1.00, 0.00, -0.00, -1.00, 191.4, 951.3)">s</text><text xml:space="preserve" font-family="Monaco,Monaco" font-size="40.0" fill="#FC4384" transform="matrix(1.00, 0.00, -0.00, -1.00, 215.4, 951.3)">s</text><text xml:space="preserve" font-family="Monaco,Monaco" font-size="40.0" fill="#000000" transform="matrix(1.00, 0.00, -0.00, -1.00, 239.4, 951.3)"> </text><text xml:space="preserve" font-family="Monaco,Monaco" font-size="40.0" fill="#F9F9F4" transform="matrix(1.00, 0.00, -0.00, -1.00, 263.4, 951.3)">U</text><text xml:space="preserve" font-family="Monaco,Monaco" font-size="40.0" fill="#F9F9F4" transform="matrix(1.00, 0.00, -0.00, -1.00, 287.4, 951.3)">s</text><text xml:space="preserve" font-family="Monaco,Monaco" font-size="40.0" fill="#F9F9F4" transform="matrix(1.00, 0.00, -0.00, -1.00, 311.4, 951.3)">e</text><text xml:space="preserve" font-family="Monaco,Monaco" font-size="40.0" fill="#F9F9F4" transform="matrix(1.00, 0.00, -0.00, -1.00, 335.4, 951.3)">r</text><text xml:space="preserve" font-family="Monaco,Monaco" font-size="40.0" fill="#000000" transform="matrix(1.00, 0.00, -0.00, -1.00, 119.4, 898.3)"> </text><text xml:space="preserve" font-family="Monaco,Monaco" font-size="40.0" fill="#000000" transform="matrix(1.00, 0.00, -0.00, -1.00, 143.4, 898.3)"> </text><text xml:space="preserve" font-family="Monaco,Monaco" font-size="40.0" fill="#FC4384" transform="matrix(1.00, 0.00, -0.00, -1.00, 167.4, 898.3)">d</text><text xml:space="preserve" font-family="Monaco,Monaco" font-size="40.0" fill="#FC4384" transform="matrix(1.00, 0.00, -0.00, -1.00, 191.4, 898.3)">e</text><text xml:space="preserve" font-family="Monaco,Monaco" font-size="40.0" fill="#FC4384" transform="matrix(1.00, 0.00, -0.00, -1.00, 215.4, 898.3)">f</text><text xml:space="preserve" font-family="Monaco,Monaco" font-size="40.0" fill="#000000" transform="matrix(1.00, 0.00, -0.00, -1.00, 239.4, 898.3)"> </text><text xml:space="preserve" font-family="Monaco,Monaco" font-size="40.0" fill="#13F7BA" transform="matrix(1.00, 0.00, -0.00, -1.00, 263.4, 898.3)">a</text><text xml:space="preserve" font-family="Monaco,Monaco" font-size="40.0" fill="#13F7BA" transform="matrix(1.00, 0.00, -0.00, -1.00, 287.4, 898.3)">d</text><text xml:space="preserve" font-family="Monaco,Monaco" font-size="40.0" fill="#13F7BA" transform="matrix(1.00, 0.00, -0.00, -1.00, 311.4, 898.3)">d</text><text xml:space="preserve" font-family="Monaco,Monaco" font-size="40.0" fill="#13F7BA" transform="matrix(1.00, 0.00, -0.00, -1.00, 335.4, 898.3)">_</text><text xml:space="preserve" font-family="Monaco,Monaco" font-size="40.0" fill="#13F7BA" transform="matrix(1.00, 0.00, -0.00, -1.00, 359.4, 898.3)">t</text><text xml:space="preserve" font-family="Monaco,Monaco" font-size="40.0" fill="#13F7BA" transform="matrix(1.00, 0.00, -0.00, -1.00, 383.4, 898.3)">o</text><text xml:space="preserve" font-family="Monaco,Monaco" font-size="40.0" fill="#13F7BA" transform="matrix(1.00, 0.00, -0.00, -1.00, 407.4, 898.3)">_</text><text xml:space="preserve" font-family="Monaco,Monaco" font-size="40.0" fill="#13F7BA" transform="matrix(1.00, 0.00, -0.00, -1.00, 431.4, 898.3)">c</text><text xml:space="preserve" font-family="Monaco,Monaco" font-size="40.0" fill="#13F7BA" transform="matrix(1.00, 0.00, -0.00, -1.00, 455.4, 898.3)">a</text><text xml:space="preserve" font-family="Monaco,Monaco" font-size="40.0" fill="#13F7BA" transform="matrix(1.00, 0.00, -0.00, -1.00, 479.5, 898.3)">r</text><text xml:space="preserve" font-family="Monaco,Monaco" font-size="40.0" fill="#13F7BA" transform="matrix(1.00, 0.00, -0.00, -1.00, 503.5, 898.3)">t</text><text xml:space="preserve" font-family="Monaco,Monaco" font-size="40.0" fill="#F9F9F4" transform="matrix(1.00, 0.00, -0.00, -1.00, 527.4, 898.3)">(</text><text xml:space="preserve" font-family="Monaco,Monaco" font-size="40.0" fill="#F9F9F4" transform="matrix(1.00, 0.00, -0.00, -1.00, 551.4, 898.3)">p</text><text xml:space="preserve" font-family="Monaco,Monaco" font-size="40.0" fill="#F9F9F4" transform="matrix(1.00, 0.00, -0.00, -1.00, 575.4, 898.3)">r</text><text xml:space="preserve" font-family="Monaco,Monaco" font-size="40.0" fill="#F9F9F4" transform="matrix(1.00, 0.00, -0.00, -1.00, 599.5, 898.3)">o</text><text xml:space="preserve" font-family="Monaco,Monaco" font-size="40.0" fill="#F9F9F4" transform="matrix(1.00, 0.00, -0.00, -1.00, 623.5, 898.3)">d</text><text xml:space="preserve" font-family="Monaco,Monaco" font-size="40.0" fill="#F9F9F4" transform="matrix(1.00, 0.00, -0.00, -1.00, 647.5, 898.3)">u</text><text xml:space="preserve" font-family="Monaco,Monaco" font-size="40.0" fill="#F9F9F4" transform="matrix(1.00, 0.00, -0.00, -1.00, 671.5, 898.3)">c</text><text xml:space="preserve" font-family="Monaco,Monaco" font-size="40.0" fill="#F9F9F4" transform="matrix(1.00, 0.00, -0.00, -1.00, 695.5, 898.3)">t</text><text xml:space="preserve" font-family="Monaco,Monaco" font-size="40.0" fill="#F9F9F4" transform="matrix(1.00, 0.00, -0.00, -1.00, 719.5, 898.3)">)</text><text xml:space="preserve" font-family="Monaco,Monaco" font-size="40.0" fill="#000000" transform="matrix(1.00, 0.00, -0.00, -1.00, 119.4, 845.3)"> </text><text xml:space="preserve" font-family="Monaco,Monaco" font-size="40.0" fill="#000000" transform="matrix(1.00, 0.00, -0.00, -1.00, 143.4, 845.3)"> </text><text xml:space="preserve" font-family="Monaco,Monaco" font-size="40.0" fill="#000000" transform="matrix(1.00, 0.00, -0.00, -1.00, 167.4, 845.3)"> </text><text xml:space="preserve" font-family="Monaco,Monaco" font-size="40.0" fill="#000000" transform="matrix(1.00, 0.00, -0.00, -1.00, 191.4, 845.3)"> </text><text xml:space="preserve" font-family="Monaco,Monaco" font-size="40.0" fill="#888371" transform="matrix(1.00, 0.00, -0.00, -1.00, 215.4, 845.3)">#</text><text xml:space="preserve" font-family="Monaco,Monaco" font-size="40.0" fill="#888371" transform="matrix(1.00, 0.00, -0.00, -1.00, 239.4, 845.3)"> </text><text xml:space="preserve" font-family="Monaco,Monaco" font-size="40.0" fill="#888371" transform="matrix(1.00, 0.00, -0.00, -1.00, 263.4, 845.3)">.</text><text xml:space="preserve" font-family="Monaco,Monaco" font-size="40.0" fill="#888371" transform="matrix(1.00, 0.00, -0.00, -1.00, 287.4, 845.3)">.</text><text xml:space="preserve" font-family="Monaco,Monaco" font-size="40.0" fill="#888371" transform="matrix(1.00, 0.00, -0.00, -1.00, 311.4, 845.3)">.</text><text xml:space="preserve" font-family="Monaco,Monaco" font-size="40.0" fill="#000000" transform="matrix(1.00, 0.00, -0.00, -1.00, 119.4, 792.3)"> </text><text xml:space="preserve" font-family="Monaco,Monaco" font-size="40.0" fill="#000000" transform="matrix(1.00, 0.00, -0.00, -1.00, 143.4, 792.3)"> </text><text xml:space="preserve" font-family="Monaco,Monaco" font-size="40.0" fill="#FC4384" transform="matrix(1.00, 0.00, -0.00, -1.00, 167.4, 792.3)">e</text><text xml:space="preserve" font-family="Monaco,Monaco" font-size="40.0" fill="#FC4384" transform="matrix(1.00, 0.00, -0.00, -1.00, 191.4, 792.3)">n</text><text xml:space="preserve" font-family="Monaco,Monaco" font-size="40.0" fill="#FC4384" transform="matrix(1.00, 0.00, -0.00, -1.00, 215.4, 792.3)">d</text><text xml:space="preserve" font-family="Monaco,Monaco" font-size="40.0" fill="#FC4384" transform="matrix(1.00, 0.00, -0.00, -1.00, 119.4, 739.3)">e</text><text xml:space="preserve" font-family="Monaco,Monaco" font-size="40.0" fill="#FC4384" transform="matrix(1.00, 0.00, -0.00, -1.00, 143.4, 739.3)">n</text><text xml:space="preserve" font-family="Monaco,Monaco" font-size="40.0" fill="#FC4384" transform="matrix(1.00, 0.00, -0.00, -1.00, 167.4, 739.3)">d</text></g></g><image xlink:href="../../2E0753E5-B5B3-4C39-8C46-07A270F9B2AC/assets/2E323A55C1FEFBCF1B3CE596FA84DB0C.png" width="1729.00" height="522.00" transform="matrix(1.00, 0.00, -0.00, -1.00, 95.4, 694.8)" opacity="0.25"></image><path d="M 115.0 675.0 L 1805.0 675.0 L 1805.0 193.0 L 115.0 193.0 Z M 115.4 674.8 " fill="#323232"></path><g><clipPath id="clip0x7fec7c133650"><path d="M 106.9 181.3 L 1813.1 181.3 L 1813.1 683.3 L 106.9 683.3 Z M 106.9 181.3 "></path></clipPath><g clip-path="url(#clip0x7fec7c133650)"><text xml:space="preserve" font-family="Monaco,Monaco" font-size="40.0" fill="#FC4384" transform="matrix(1.00, 0.00, -0.00, -1.00, 119.4, 631.2)">c</text><text xml:space="preserve" font-family="Monaco,Monaco" font-size="40.0" fill="#FC4384" transform="matrix(1.00, 0.00, -0.00, -1.00, 143.4, 631.2)">l</text><text xml:space="preserve" font-family="Monaco,Monaco" font-size="40.0" fill="#FC4384" transform="matrix(1.00, 0.00, -0.00, -1.00, 167.4, 631.2)">a</text><text xml:space="preserve" font-family="Monaco,Monaco" font-size="40.0" fill="#FC4384" transform="matrix(1.00, 0.00, -0.00, -1.00, 191.4, 631.2)">s</text><text xml:space="preserve" font-family="Monaco,Monaco" font-size="40.0" fill="#FC4384" transform="matrix(1.00, 0.00, -0.00, -1.00, 215.4, 631.2)">s</text><text xml:space="preserve" font-family="Monaco,Monaco" font-size="40.0" fill="#000000" transform="matrix(1.00, 0.00, -0.00, -1.00, 239.4, 631.2)"> </text><text xml:space="preserve" font-family="Monaco,Monaco" font-size="40.0" fill="#F9F9F4" transform="matrix(1.00, 0.00, -0.00, -1.00, 263.4, 631.2)">U</text><text xml:space="preserve" font-family="Monaco,Monaco" font-size="40.0" fill="#F9F9F4" transform="matrix(1.00, 0.00, -0.00, -1.00, 287.4, 631.2)">s</text><text xml:space="preserve" font-family="Monaco,Monaco" font-size="40.0" fill="#F9F9F4" transform="matrix(1.00, 0.00, -0.00, -1.00, 311.4, 631.2)">e</text><text xml:space="preserve" font-family="Monaco,Monaco" font-size="40.0" fill="#F9F9F4" transform="matrix(1.00, 0.00, -0.00, -1.00, 335.4, 631.2)">r</text><text xml:space="preserve" font-family="Monaco,Monaco" font-size="40.0" fill="#000000" transform="matrix(1.00, 0.00, -0.00, -1.00, 119.4, 578.2)"> </text><text xml:space="preserve" font-family="Monaco,Monaco" font-size="40.0" fill="#000000" transform="matrix(1.00, 0.00, -0.00, -1.00, 143.4, 578.2)"> </text><text xml:space="preserve" font-family="Monaco,Monaco" font-size="40.0" fill="#FC4384" transform="matrix(1.00, 0.00, -0.00, -1.00, 167.4, 578.2)">d</text><text xml:space="preserve" font-family="Monaco,Monaco" font-size="40.0" fill="#FC4384" transform="matrix(1.00, 0.00, -0.00, -1.00, 191.4, 578.2)">e</text><text xml:space="preserve" font-family="Monaco,Monaco" font-size="40.0" fill="#FC4384" transform="matrix(1.00, 0.00, -0.00, -1.00, 215.4, 578.2)">f</text><text xml:space="preserve" font-family="Monaco,Monaco" font-size="40.0" fill="#000000" transform="matrix(1.00, 0.00, -0.00, -1.00, 239.4, 578.2)"> </text><text xml:space="preserve" font-family="Monaco,Monaco" font-size="40.0" fill="#F9F9F4" transform="matrix(1.00, 0.00, -0.00, -1.00, 263.4, 578.2)">p</text><text xml:space="preserve" font-family="Monaco,Monaco" font-size="40.0" fill="#F9F9F4" transform="matrix(1.00, 0.00, -0.00, -1.00, 287.4, 578.2)">r</text><text xml:space="preserve" font-family="Monaco,Monaco" font-size="40.0" fill="#F9F9F4" transform="matrix(1.00, 0.00, -0.00, -1.00, 311.4, 578.2)">o</text><text xml:space="preserve" font-family="Monaco,Monaco" font-size="40.0" fill="#F9F9F4" transform="matrix(1.00, 0.00, -0.00, -1.00, 335.4, 578.2)">f</text><text xml:space="preserve" font-family="Monaco,Monaco" font-size="40.0" fill="#F9F9F4" transform="matrix(1.00, 0.00, -0.00, -1.00, 359.4, 578.2)">i</text><text xml:space="preserve" font-family="Monaco,Monaco" font-size="40.0" fill="#F9F9F4" transform="matrix(1.00, 0.00, -0.00, -1.00, 383.4, 578.2)">l</text><text xml:space="preserve" font-family="Monaco,Monaco" font-size="40.0" fill="#F9F9F4" transform="matrix(1.00, 0.00, -0.00, -1.00, 407.4, 578.2)">e</text><text xml:space="preserve" font-family="Monaco,Monaco" font-size="40.0" fill="#000000" transform="matrix(1.00, 0.00, -0.00, -1.00, 119.4, 525.2)"> </text><text xml:space="preserve" font-family="Monaco,Monaco" font-size="40.0" fill="#000000" transform="matrix(1.00, 0.00, -0.00, -1.00, 143.4, 525.2)"> </text><text xml:space="preserve" font-family="Monaco,Monaco" font-size="40.0" fill="#FC4384" transform="matrix(1.00, 0.00, -0.00, -1.00, 167.4, 525.2)">e</text><text xml:space="preserve" font-family="Monaco,Monaco" font-size="40.0" fill="#FC4384" transform="matrix(1.00, 0.00, -0.00, -1.00, 191.4, 525.2)">n</text><text xml:space="preserve" font-family="Monaco,Monaco" font-size="40.0" fill="#FC4384" transform="matrix(1.00, 0.00, -0.00, -1.00, 215.4, 525.2)">d</text><text xml:space="preserve" font-family="Monaco,Monaco" font-size="40.0" fill="#FC4384" transform="matrix(1.00, 0.00, -0.00, -1.00, 119.4, 472.2)">e</text><text xml:space="preserve" font-family="Monaco,Monaco" font-size="40.0" fill="#FC4384" transform="matrix(1.00, 0.00, -0.00, -1.00, 143.4, 472.2)">n</text><text xml:space="preserve" font-family="Monaco,Monaco" font-size="40.0" fill="#FC4384" transform="matrix(1.00, 0.00, -0.00, -1.00, 167.4, 472.2)">d</text><text xml:space="preserve" font-family="Monaco,Monaco" font-size="40.0" fill="#FC4384" transform="matrix(1.00, 0.00, -0.00, -1.00, 119.4, 366.2)">c</text><text xml:space="preserve" font-family="Monaco,Monaco" font-size="40.0" fill="#FC4384" transform="matrix(1.00, 0.00, -0.00, -1.00, 143.4, 366.2)">l</text><text xml:space="preserve" font-family="Monaco,Monaco" font-size="40.0" fill="#FC4384" transform="matrix(1.00, 0.00, -0.00, -1.00, 167.4, 366.2)">a</text><text xml:space="preserve" font-family="Monaco,Monaco" font-size="40.0" fill="#FC4384" transform="matrix(1.00, 0.00, -0.00, -1.00, 191.4, 366.2)">s</text><text xml:space="preserve" font-family="Monaco,Monaco" font-size="40.0" fill="#FC4384" transform="matrix(1.00, 0.00, -0.00, -1.00, 215.4, 366.2)">s</text><text xml:space="preserve" font-family="Monaco,Monaco" font-size="40.0" fill="#000000" transform="matrix(1.00, 0.00, -0.00, -1.00, 239.4, 366.2)"> </text><text xml:space="preserve" font-family="Monaco,Monaco" font-size="40.0" fill="#F9F9F4" transform="matrix(1.00, 0.00, -0.00, -1.00, 263.4, 366.2)">P</text><text xml:space="preserve" font-family="Monaco,Monaco" font-size="40.0" fill="#F9F9F4" transform="matrix(1.00, 0.00, -0.00, -1.00, 287.4, 366.2)">r</text><text xml:space="preserve" font-family="Monaco,Monaco" font-size="40.0" fill="#F9F9F4" transform="matrix(1.00, 0.00, -0.00, -1.00, 311.4, 366.2)">o</text><text xml:space="preserve" font-family="Monaco,Monaco" font-size="40.0" fill="#F9F9F4" transform="matrix(1.00, 0.00, -0.00, -1.00, 335.4, 366.2)">f</text><text xml:space="preserve" font-family="Monaco,Monaco" font-size="40.0" fill="#F9F9F4" transform="matrix(1.00, 0.00, -0.00, -1.00, 359.4, 366.2)">i</text><text xml:space="preserve" font-family="Monaco,Monaco" font-size="40.0" fill="#F9F9F4" transform="matrix(1.00, 0.00, -0.00, -1.00, 383.4, 366.2)">l</text><text xml:space="preserve" font-family="Monaco,Monaco" font-size="40.0" fill="#F9F9F4" transform="matrix(1.00, 0.00, -0.00, -1.00, 407.4, 366.2)">e</text><text xml:space="preserve" font-family="Monaco,Monaco" font-size="40.0" fill="#000000" transform="matrix(1.00, 0.00, -0.00, -1.00, 119.4, 313.2)"> </text><text xml:space="preserve" font-family="Monaco,Monaco" font-size="40.0" fill="#000000" transform="matrix(1.00, 0.00, -0.00, -1.00, 143.4, 313.2)"> </text><text xml:space="preserve" font-family="Monaco,Monaco" font-size="40.0" fill="#FC4384" transform="matrix(1.00, 0.00, -0.00, -1.00, 167.4, 313.2)">d</text><text xml:space="preserve" font-family="Monaco,Monaco" font-size="40.0" fill="#FC4384" transform="matrix(1.00, 0.00, -0.00, -1.00, 191.4, 313.2)">e</text><text xml:space="preserve" font-family="Monaco,Monaco" font-size="40.0" fill="#FC4384" transform="matrix(1.00, 0.00, -0.00, -1.00, 215.4, 313.2)">f</text><text xml:space="preserve" font-family="Monaco,Monaco" font-size="40.0" fill="#000000" transform="matrix(1.00, 0.00, -0.00, -1.00, 239.4, 313.2)"> </text><text xml:space="preserve" font-family="Monaco,Monaco" font-size="40.0" fill="#13F7BA" transform="matrix(1.00, 0.00, -0.00, -1.00, 263.4, 313.2)">a</text><text xml:space="preserve" font-family="Monaco,Monaco" font-size="40.0" fill="#13F7BA" transform="matrix(1.00, 0.00, -0.00, -1.00, 287.4, 313.2)">d</text><text xml:space="preserve" font-family="Monaco,Monaco" font-size="40.0" fill="#13F7BA" transform="matrix(1.00, 0.00, -0.00, -1.00, 311.4, 313.2)">d</text><text xml:space="preserve" font-family="Monaco,Monaco" font-size="40.0" fill="#13F7BA" transform="matrix(1.00, 0.00, -0.00, -1.00, 335.4, 313.2)">_</text><text xml:space="preserve" font-family="Monaco,Monaco" font-size="40.0" fill="#13F7BA" transform="matrix(1.00, 0.00, -0.00, -1.00, 359.4, 313.2)">t</text><text xml:space="preserve" font-family="Monaco,Monaco" font-size="40.0" fill="#13F7BA" transform="matrix(1.00, 0.00, -0.00, -1.00, 383.4, 313.2)">o</text><text xml:space="preserve" font-family="Monaco,Monaco" font-size="40.0" fill="#13F7BA" transform="matrix(1.00, 0.00, -0.00, -1.00, 407.4, 313.2)">_</text><text xml:space="preserve" font-family="Monaco,Monaco" font-size="40.0" fill="#13F7BA" transform="matrix(1.00, 0.00, -0.00, -1.00, 431.4, 313.2)">c</text><text xml:space="preserve" font-family="Monaco,Monaco" font-size="40.0" fill="#13F7BA" transform="matrix(1.00, 0.00, -0.00, -1.00, 455.4, 313.2)">a</text><text xml:space="preserve" font-family="Monaco,Monaco" font-size="40.0" fill="#13F7BA" transform="matrix(1.00, 0.00, -0.00, -1.00, 479.5, 313.2)">r</text><text xml:space="preserve" font-family="Monaco,Monaco" font-size="40.0" fill="#13F7BA" transform="matrix(1.00, 0.00, -0.00, -1.00, 503.5, 313.2)">t</text><text xml:space="preserve" font-family="Monaco,Monaco" font-size="40.0" fill="#F9F9F4" transform="matrix(1.00, 0.00, -0.00, -1.00, 527.4, 313.2)">(</text><text xml:space="preserve" font-family="Monaco,Monaco" font-size="40.0" fill="#F9F9F4" transform="matrix(1.00, 0.00, -0.00, -1.00, 551.4, 313.2)">p</text><text xml:space="preserve" font-family="Monaco,Monaco" font-size="40.0" fill="#F9F9F4" transform="matrix(1.00, 0.00, -0.00, -1.00, 575.4, 313.2)">r</text><text xml:space="preserve" font-family="Monaco,Monaco" font-size="40.0" fill="#F9F9F4" transform="matrix(1.00, 0.00, -0.00, -1.00, 599.5, 313.2)">o</text><text xml:space="preserve" font-family="Monaco,Monaco" font-size="40.0" fill="#F9F9F4" transform="matrix(1.00, 0.00, -0.00, -1.00, 623.5, 313.2)">d</text><text xml:space="preserve" font-family="Monaco,Monaco" font-size="40.0" fill="#F9F9F4" transform="matrix(1.00, 0.00, -0.00, -1.00, 647.5, 313.2)">u</text><text xml:space="preserve" font-family="Monaco,Monaco" font-size="40.0" fill="#F9F9F4" transform="matrix(1.00, 0.00, -0.00, -1.00, 671.5, 313.2)">c</text><text xml:space="preserve" font-family="Monaco,Monaco" font-size="40.0" fill="#F9F9F4" transform="matrix(1.00, 0.00, -0.00, -1.00, 695.5, 313.2)">t</text><text xml:space="preserve" font-family="Monaco,Monaco" font-size="40.0" fill="#F9F9F4" transform="matrix(1.00, 0.00, -0.00, -1.00, 719.5, 313.2)">)</text><text xml:space="preserve" font-family="Monaco,Monaco" font-size="40.0" fill="#000000" transform="matrix(1.00, 0.00, -0.00, -1.00, 119.4, 260.2)"> </text><text xml:space="preserve" font-family="Monaco,Monaco" font-size="40.0" fill="#000000" transform="matrix(1.00, 0.00, -0.00, -1.00, 143.4, 260.2)"> </text><text xml:space="preserve" font-family="Monaco,Monaco" font-size="40.0" fill="#FC4384" transform="matrix(1.00, 0.00, -0.00, -1.00, 167.4, 260.2)">e</text><text xml:space="preserve" font-family="Monaco,Monaco" font-size="40.0" fill="#FC4384" transform="matrix(1.00, 0.00, -0.00, -1.00, 191.4, 260.2)">n</text><text xml:space="preserve" font-family="Monaco,Monaco" font-size="40.0" fill="#FC4384" transform="matrix(1.00, 0.00, -0.00, -1.00, 215.4, 260.2)">d</text><text xml:space="preserve" font-family="Monaco,Monaco" font-size="40.0" fill="#FC4384" transform="matrix(1.00, 0.00, -0.00, -1.00, 119.4, 207.2)">e</text><text xml:space="preserve" font-family="Monaco,Monaco" font-size="40.0" fill="#FC4384" transform="matrix(1.00, 0.00, -0.00, -1.00, 143.4, 207.2)">n</text><text xml:space="preserve" font-family="Monaco,Monaco" font-size="40.0" fill="#FC4384" transform="matrix(1.00, 0.00, -0.00, -1.00, 167.4, 207.2)">d</text></g></g><image xlink:href="../../5131971B-D434-44E4-A5F9-3940CE375110/assets/5694D9C800E8CC712A6AC3747377ADD7.png" width="1729.00" height="98.00" transform="matrix(1.00, 0.00, -0.00, -1.00, 95.4, 162.7)" opacity="0.25"></image><path d="M 115.0 143.0 L 1805.0 143.0 L 1805.0 85.0 L 115.0 85.0 Z M 115.4 142.7 " fill="#323232"></path><g><clipPath id="clip0x7fec7c15ab40"><path d="M 106.9 73.2 L 1813.1 73.2 L 1813.1 151.2 L 106.9 151.2 Z M 106.9 73.2 "></path></clipPath><g clip-path="url(#clip0x7fec7c15ab40)"><text xml:space="preserve" font-family="Monaco,Monaco" font-size="40.0" fill="#F9F9F4" transform="matrix(1.00, 0.00, -0.00, -1.00, 119.4, 99.0)">u</text><text xml:space="preserve" font-family="Monaco,Monaco" font-size="40.0" fill="#F9F9F4" transform="matrix(1.00, 0.00, -0.00, -1.00, 143.4, 99.0)">s</text><text xml:space="preserve" font-family="Monaco,Monaco" font-size="40.0" fill="#F9F9F4" transform="matrix(1.00, 0.00, -0.00, -1.00, 167.4, 99.0)">e</text><text xml:space="preserve" font-family="Monaco,Monaco" font-size="40.0" fill="#F9F9F4" transform="matrix(1.00, 0.00, -0.00, -1.00, 191.4, 99.0)">r</text><text xml:space="preserve" font-family="Monaco,Monaco" font-size="40.0" fill="#F9F9F4" transform="matrix(1.00, 0.00, -0.00, -1.00, 215.4, 99.0)">.</text><text xml:space="preserve" font-family="Monaco,Monaco" font-size="40.0" fill="#13F7BA" transform="matrix(1.00, 0.00, -0.00, -1.00, 239.4, 99.0)">a</text><text xml:space="preserve" font-family="Monaco,Monaco" font-size="40.0" fill="#13F7BA" transform="matrix(1.00, 0.00, -0.00, -1.00, 263.4, 99.0)">d</text><text xml:space="preserve" font-family="Monaco,Monaco" font-size="40.0" fill="#13F7BA" transform="matrix(1.00, 0.00, -0.00, -1.00, 287.4, 99.0)">d</text><text xml:space="preserve" font-family="Monaco,Monaco" font-size="40.0" fill="#13F7BA" transform="matrix(1.00, 0.00, -0.00, -1.00, 311.4, 99.0)">_</text><text xml:space="preserve" font-family="Monaco,Monaco" font-size="40.0" fill="#13F7BA" transform="matrix(1.00, 0.00, -0.00, -1.00, 335.4, 99.0)">t</text><text xml:space="preserve" font-family="Monaco,Monaco" font-size="40.0" fill="#13F7BA" transform="matrix(1.00, 0.00, -0.00, -1.00, 359.4, 99.0)">o</text><text xml:space="preserve" font-family="Monaco,Monaco" font-size="40.0" fill="#13F7BA" transform="matrix(1.00, 0.00, -0.00, -1.00, 383.4, 99.0)">_</text><text xml:space="preserve" font-family="Monaco,Monaco" font-size="40.0" fill="#13F7BA" transform="matrix(1.00, 0.00, -0.00, -1.00, 407.4, 99.0)">c</text><text xml:space="preserve" font-family="Monaco,Monaco" font-size="40.0" fill="#13F7BA" transform="matrix(1.00, 0.00, -0.00, -1.00, 431.4, 99.0)">a</text><text xml:space="preserve" font-family="Monaco,Monaco" font-size="40.0" fill="#13F7BA" transform="matrix(1.00, 0.00, -0.00, -1.00, 455.5, 99.0)">r</text><text xml:space="preserve" font-family="Monaco,Monaco" font-size="40.0" fill="#13F7BA" transform="matrix(1.00, 0.00, -0.00, -1.00, 479.5, 99.0)">t</text><text xml:space="preserve" font-family="Monaco,Monaco" font-size="40.0" fill="#F9F9F4" transform="matrix(1.00, 0.00, -0.00, -1.00, 503.4, 99.0)">(</text><text xml:space="preserve" font-family="Monaco,Monaco" font-size="40.0" fill="#F9F9F4" transform="matrix(1.00, 0.00, -0.00, -1.00, 527.4, 99.0)">p</text><text xml:space="preserve" font-family="Monaco,Monaco" font-size="40.0" fill="#F9F9F4" transform="matrix(1.00, 0.00, -0.00, -1.00, 551.4, 99.0)">r</text><text xml:space="preserve" font-family="Monaco,Monaco" font-size="40.0" fill="#F9F9F4" transform="matrix(1.00, 0.00, -0.00, -1.00, 575.4, 99.0)">o</text><text xml:space="preserve" font-family="Monaco,Monaco" font-size="40.0" fill="#F9F9F4" transform="matrix(1.00, 0.00, -0.00, -1.00, 599.5, 99.0)">d</text><text xml:space="preserve" font-family="Monaco,Monaco" font-size="40.0" fill="#F9F9F4" transform="matrix(1.00, 0.00, -0.00, -1.00, 623.5, 99.0)">u</text><text xml:space="preserve" font-family="Monaco,Monaco" font-size="40.0" fill="#F9F9F4" transform="matrix(1.00, 0.00, -0.00, -1.00, 647.5, 99.0)">c</text><text xml:space="preserve" font-family="Monaco,Monaco" font-size="40.0" fill="#F9F9F4" transform="matrix(1.00, 0.00, -0.00, -1.00, 671.5, 99.0)">t</text><text xml:space="preserve" font-family="Monaco,Monaco" font-size="40.0" fill="#F9F9F4" transform="matrix(1.00, 0.00, -0.00, -1.00, 695.5, 99.0)">)</text><text xml:space="preserve" font-family="Monaco,Monaco" font-size="40.0" fill="#F9F9F4" transform="matrix(1.00, 0.00, -0.00, -1.00, 719.5, 99.0)"> </text><text xml:space="preserve" font-family="Monaco,Monaco" font-size="40.0" fill="#F9F9F4" transform="matrix(1.00, 0.00, -0.00, -1.00, 743.5, 99.0)">-</text><text xml:space="preserve" font-family="Monaco,Monaco" font-size="40.0" fill="#F9F9F4" transform="matrix(1.00, 0.00, -0.00, -1.00, 767.5, 99.0)">&gt;</text><text xml:space="preserve" font-family="Monaco,Monaco" font-size="40.0" fill="#000000" transform="matrix(1.00, 0.00, -0.00, -1.00, 791.5, 99.0)"> </text><text xml:space="preserve" font-family="Monaco,Monaco" font-size="40.0" fill="#F9F9F4" transform="matrix(1.00, 0.00, -0.00, -1.00, 815.5, 99.0)">u</text><text xml:space="preserve" font-family="Monaco,Monaco" font-size="40.0" fill="#F9F9F4" transform="matrix(1.00, 0.00, -0.00, -1.00, 839.5, 99.0)">s</text><text xml:space="preserve" font-family="Monaco,Monaco" font-size="40.0" fill="#F9F9F4" transform="matrix(1.00, 0.00, -0.00, -1.00, 863.5, 99.0)">e</text><text xml:space="preserve" font-family="Monaco,Monaco" font-size="40.0" fill="#F9F9F4" transform="matrix(1.00, 0.00, -0.00, -1.00, 887.5, 99.0)">r</text><text xml:space="preserve" font-family="Monaco,Monaco" font-size="40.0" fill="#F9F9F4" transform="matrix(1.00, 0.00, -0.00, -1.00, 911.5, 99.0)">.</text><text xml:space="preserve" font-family="Monaco,Monaco" font-size="40.0" fill="#F9F9F4" transform="matrix(1.00, 0.00, -0.00, -1.00, 935.5, 99.0)">p</text><text xml:space="preserve" font-family="Monaco,Monaco" font-size="40.0" fill="#F9F9F4" transform="matrix(1.00, 0.00, -0.00, -1.00, 959.5, 99.0)">r</text><text xml:space="preserve" font-family="Monaco,Monaco" font-size="40.0" fill="#F9F9F4" transform="matrix(1.00, 0.00, -0.00, -1.00, 983.5, 99.0)">o</text><text xml:space="preserve" font-family="Monaco,Monaco" font-size="40.0" fill="#F9F9F4" transform="matrix(1.00, 0.00, -0.00, -1.00, 1007.5, 99.0)">f</text><text xml:space="preserve" font-family="Monaco,Monaco" font-size="40.0" fill="#F9F9F4" transform="matrix(1.00, 0.00, -0.00, -1.00, 1031.5, 99.0)">i</text><text xml:space="preserve" font-family="Monaco,Monaco" font-size="40.0" fill="#F9F9F4" transform="matrix(1.00, 0.00, -0.00, -1.00, 1055.6, 99.0)">l</text><text xml:space="preserve" font-family="Monaco,Monaco" font-size="40.0" fill="#F9F9F4" transform="matrix(1.00, 0.00, -0.00, -1.00, 1079.6, 99.0)">e</text><text xml:space="preserve" font-family="Monaco,Monaco" font-size="40.0" fill="#F9F9F4" transform="matrix(1.00, 0.00, -0.00, -1.00, 1103.6, 99.0)">.</text><text xml:space="preserve" font-family="Monaco,Monaco" font-size="40.0" fill="#13F7BA" transform="matrix(1.00, 0.00, -0.00, -1.00, 1127.5, 99.0)">a</text><text xml:space="preserve" font-family="Monaco,Monaco" font-size="40.0" fill="#13F7BA" transform="matrix(1.00, 0.00, -0.00, -1.00, 1151.5, 99.0)">d</text><text xml:space="preserve" font-family="Monaco,Monaco" font-size="40.0" fill="#13F7BA" transform="matrix(1.00, 0.00, -0.00, -1.00, 1175.5, 99.0)">d</text><text xml:space="preserve" font-family="Monaco,Monaco" font-size="40.0" fill="#13F7BA" transform="matrix(1.00, 0.00, -0.00, -1.00, 1199.6, 99.0)">_</text><text xml:space="preserve" font-family="Monaco,Monaco" font-size="40.0" fill="#13F7BA" transform="matrix(1.00, 0.00, -0.00, -1.00, 1223.6, 99.0)">t</text><text xml:space="preserve" font-family="Monaco,Monaco" font-size="40.0" fill="#13F7BA" transform="matrix(1.00, 0.00, -0.00, -1.00, 1247.6, 99.0)">o</text><text xml:space="preserve" font-family="Monaco,Monaco" font-size="40.0" fill="#13F7BA" transform="matrix(1.00, 0.00, -0.00, -1.00, 1271.6, 99.0)">_</text><text xml:space="preserve" font-family="Monaco,Monaco" font-size="40.0" fill="#13F7BA" transform="matrix(1.00, 0.00, -0.00, -1.00, 1295.6, 99.0)">c</text><text xml:space="preserve" font-family="Monaco,Monaco" font-size="40.0" fill="#13F7BA" transform="matrix(1.00, 0.00, -0.00, -1.00, 1319.6, 99.0)">a</text><text xml:space="preserve" font-family="Monaco,Monaco" font-size="40.0" fill="#13F7BA" transform="matrix(1.00, 0.00, -0.00, -1.00, 1343.6, 99.0)">r</text><text xml:space="preserve" font-family="Monaco,Monaco" font-size="40.0" fill="#13F7BA" transform="matrix(1.00, 0.00, -0.00, -1.00, 1367.6, 99.0)">t</text><text xml:space="preserve" font-family="Monaco,Monaco" font-size="40.0" fill="#F9F9F4" transform="matrix(1.00, 0.00, -0.00, -1.00, 1391.6, 99.0)">(</text><text xml:space="preserve" font-family="Monaco,Monaco" font-size="40.0" fill="#F9F9F4" transform="matrix(1.00, 0.00, -0.00, -1.00, 1415.6, 99.0)">p</text><text xml:space="preserve" font-family="Monaco,Monaco" font-size="40.0" fill="#F9F9F4" transform="matrix(1.00, 0.00, -0.00, -1.00, 1439.6, 99.0)">r</text><text xml:space="preserve" font-family="Monaco,Monaco" font-size="40.0" fill="#F9F9F4" transform="matrix(1.00, 0.00, -0.00, -1.00, 1463.6, 99.0)">o</text><text xml:space="preserve" font-family="Monaco,Monaco" font-size="40.0" fill="#F9F9F4" transform="matrix(1.00, 0.00, -0.00, -1.00, 1487.6, 99.0)">d</text><text xml:space="preserve" font-family="Monaco,Monaco" font-size="40.0" fill="#F9F9F4" transform="matrix(1.00, 0.00, -0.00, -1.00, 1511.6, 99.0)">u</text><text xml:space="preserve" font-family="Monaco,Monaco" font-size="40.0" fill="#F9F9F4" transform="matrix(1.00, 0.00, -0.00, -1.00, 1535.6, 99.0)">c</text><text xml:space="preserve" font-family="Monaco,Monaco" font-size="40.0" fill="#F9F9F4" transform="matrix(1.00, 0.00, -0.00, -1.00, 1559.6, 99.0)">t</text><text xml:space="preserve" font-family="Monaco,Monaco" font-size="40.0" fill="#F9F9F4" transform="matrix(1.00, 0.00, -0.00, -1.00, 1583.6, 99.0)">)</text></g></g><g><clipPath id="clip0x7fec7c1759a0"><path d="M 901.5 70.9 L 1002.9 172.3 L 1018.5 156.8 L 917.1 55.3 Z M 901.5 70.9 "></path></clipPath><g clip-path="url(#clip0x7fec7c1759a0)"><path d="M 0.0 0.0 L 141.4 0.0 " fill="none" stroke="#FF0000" stroke-width="20.00" transform="matrix(0.71, 0.71, 0.71, -0.71, 910.0, 63.8)"></path></g></g><g><clipPath id="clip0x7fec7c1769e0"><path d="M 917.1 172.3 L 1018.5 70.9 L 1002.9 55.3 L 901.5 156.8 Z M 917.1 172.3 "></path></clipPath><g clip-path="url(#clip0x7fec7c1769e0)"><path d="M 0.0 0.0 L 141.4 0.0 " fill="none" stroke="#FF0000" stroke-width="20.00" transform="matrix(0.71, -0.71, -0.71, -0.71, 910.0, 163.8)"></path></g></g></g></svg>