<?xml version="1.0" encoding="UTF-8" standalone="no"?><svg xmlns="http://www.w3.org/2000/svg" xmlns:xlink="http://www.w3.org/1999/xlink" clip-rule="evenodd" stroke-miterlimit="10" viewBox="0 0 1920 1080"><desc>SVG generated by Keynote</desc><defs></defs><g transform="matrix(1.00, 0.00, -0.00, -1.00, 0.0, 1080.0)"><g><clipPath id="clip0x7fec7c3d3290"><path d="M 0.0 1080.0 L 1920.0 1080.0 L 1920.0 0.0 L 0.0 0.0 Z M 0.0 1080.0 "></path></clipPath><g clip-path="url(#clip0x7fec7c3d3290)"><image xlink:href="../../A5D7B27F-ECCD-4C51-9075-135B713588B1/assets/0F43D2572F34A9AFB59E4515ED9A1249.jpeg" width="3840.00" height="2160.00" transform="matrix(0.50, 0.00, -0.00, -0.50, 0.0, 1080.0)"></image></g></g><image xlink:href="../../13F2D085-29E7-43C0-9CB8-4BEDC3CD90D7/assets/8771CBB334636AA1E24C21FD0FBBD42C.jpeg" width="2500.00" height="1570.00" transform="matrix(0.77, 0.00, -0.00, -0.77, 0.0, 1143.0)"></image><image xlink:href="../../13F2D085-29E7-43C0-9CB8-4BEDC3CD90D7/assets/794476B247879F0D53EF19248A0C6D11.png" width="290.00" height="116.00" transform="matrix(1.00, 0.00, -0.00, -1.00, 816.0, 985.0)"></image><text xml:space="preserve" font-family="YanoneKaffeesatz-Bold,Yanone Kaffeesatz" font-weight="bold" font-size="150.0" fill="#64D1E8" transform="matrix(1.00, 0.00, -0.00, -1.00, 816.4, 878.1)">E</text><text xml:space="preserve" font-family="YanoneKaffeesatz-Bold,Yanone Kaffeesatz" font-weight="bold" font-size="150.0" fill="#64D1E8" transform="matrix(1.00, 0.00, -0.00, -1.00, 861.4, 878.1)">v</text><text xml:space="preserve" font-family="YanoneKaffeesatz-Bold,Yanone Kaffeesatz" font-weight="bold" font-size="150.0" fill="#64D1E8" transform="matrix(1.00, 0.00, -0.00, -1.00, 907.3, 878.1)">e</text><text xml:space="preserve" font-family="YanoneKaffeesatz-Bold,Yanone Kaffeesatz" font-weight="bold" font-size="150.0" fill="#64D1E8" transform="matrix(1.00, 0.00, -0.00, -1.00, 959.2, 878.1)">n</text><text xml:space="preserve" font-family="YanoneKaffeesatz-Bold,Yanone Kaffeesatz" font-weight="bold" font-size="150.0" fill="#64D1E8" transform="matrix(1.00, 0.00, -0.00, -1.00, 1013.3, 878.1)">t</text><text xml:space="preserve" font-family="YanoneKaffeesatz-Bold,Yanone Kaffeesatz" font-weight="bold" font-size="150.0" fill="#64D1E8" transform="matrix(1.00, 0.00, -0.00, -1.00, 1055.9, 878.1)">s</text></g></svg>